<?xml version="1.0" encoding="UTF-8"?>
<svg id="_ÎÓÈ_3" data-name="—ÎÓÈ_3" xmlns="http://www.w3.org/2000/svg" viewBox="0 0 283.46 166.75">
  <defs>
    <style>
      .cls-1 {
        opacity: .05;
      }

      .cls-1, .cls-2, .cls-3, .cls-4, .cls-5, .cls-6, .cls-7, .cls-8, .cls-9, .cls-10, .cls-11 {
        fill: #fff;
      }

      .cls-12 {
        opacity: .05;
      }

      .cls-13 {
        opacity: .1;
      }

      .cls-14 {
        fill: #c00319;
      }

      .cls-15 {
        fill: #212121;
      }

      .cls-16 {
        fill: none;
      }

      .cls-16, .cls-4 {
        opacity: 0;
      }

      .cls-3 {
        opacity: .2;
      }

      .cls-17 {
        opacity: .15;
      }

      .cls-18 {
        opacity: .14;
      }

      .cls-19 {
        opacity: .19;
      }

      .cls-20 {
        opacity: .33;
      }

      .cls-21 {
        opacity: .29;
      }

      .cls-22 {
        opacity: .24;
      }

      .cls-23 {
        opacity: .43;
      }

      .cls-24 {
        opacity: .38;
      }

      .cls-25 {
        opacity: .35;
      }

      .cls-26 {
        opacity: .67;
      }

      .cls-27 {
        opacity: .57;
      }

      .cls-28 {
        opacity: .62;
      }

      .cls-29 {
        opacity: .52;
      }

      .cls-30 {
        opacity: .48;
      }

      .cls-31 {
        opacity: .9;
      }

      .cls-32 {
        opacity: .86;
      }

      .cls-33 {
        opacity: .76;
      }

      .cls-34 {
        opacity: .81;
      }

      .cls-35 {
        opacity: .71;
      }

      .cls-36 {
        opacity: .95;
      }

      .cls-5 {
        opacity: .6;
      }

      .cls-6 {
        opacity: .5;
      }

      .cls-7 {
        opacity: .9;
      }

      .cls-8 {
        opacity: .8;
      }

      .cls-9 {
        opacity: .7;
      }

      .cls-10 {
        opacity: .3;
      }

      .cls-11 {
        opacity: .4;
      }
    </style>
  </defs>
  <g id="background_glitch" data-name="background glitch">
    <rect id="background" class="cls-15" x="-.28" y="-.17" width="283.46" height="166.72"/>
  </g>
  <g id="design_unit" data-name="design unit">
    <g>
      <g>
        <path class="cls-10" d="m134.6,34.98c-.07-.03-.1-.1-.07-.17l.52-1.23c.03-.07.1-.1.17-.07.07.03.1.1.07.17l-.52,1.23c-.03.07-.1.1-.17.07Z"/>
        <path class="cls-4" d="m136,31.66c-.07-.03-.1-.1-.07-.17l.52-1.23c.03-.07.1-.1.17-.07.07.03.1.1.07.17l-.52,1.23c-.03.07-.1.1-.17.07Z"/>
        <path class="cls-9" d="m133.21,31.57c.03-.07.1-.1.17-.07l1.23.52c.07.03.1.1.07.17-.03.07-.1.1-.17.07l-1.23-.52c-.07-.03-.1-.1-.07-.17Z"/>
        <path class="cls-1" d="m136.53,32.98c.03-.07.1-.1.17-.07l1.23.52c.07.03.1.1.07.17-.03.07-.1.1-.17.07l-1.23-.52c-.07-.03-.1-.1-.07-.17Z"/>
        <path class="cls-6" d="m133.2,33.56c-.03-.07,0-.14.07-.17l1.24-.5c.07-.03.14,0,.17.07.03.07,0,.14-.07.17l-1.24.5c-.07.03-.14,0-.17-.07Z"/>
        <path class="cls-4" d="m136.54,32.21c-.03-.07,0-.14.07-.17l1.24-.5c.07-.03.14,0,.17.07.03.07,0,.14-.07.17l-1.24.5c-.07.03-.14,0-.17-.07Z"/>
        <path class="cls-7" d="m134.63,30.17c.07-.03.14,0,.17.07l.5,1.24c.03.07,0,.14-.07.17-.07.03-.14,0-.17-.07l-.5-1.24c-.03-.07,0-.14.07-.17Z"/>
        <path class="cls-3" d="m135.99,33.51c.07-.03.14,0,.17.07l.5,1.24c.03.07,0,.14-.07.17s-.14,0-.17-.07l-.5-1.24c-.03-.07,0-.14.07-.17Z"/>
        <path class="cls-11" d="m133.77,34.42c-.05-.05-.05-.13,0-.18l.95-.95c.05-.05.13-.05.18,0,.05.05.05.13,0,.18l-.95.95c-.05.05-.13.05-.18,0Z"/>
        <path class="cls-4" d="m136.32,31.88c-.05-.05-.05-.13,0-.18l.95-.95c.05-.05.13-.05.18,0,.05.05.05.13,0,.18l-.95.95c-.05.05-.13.05-.18,0Z"/>
        <path class="cls-8" d="m133.77,30.75c.05-.05.13-.05.18,0l.95.95c.05.05.05.13,0,.18s-.13.05-.18,0l-.95-.95c-.05-.05-.05-.13,0-.18Z"/>
        <path class="cls-3" d="m136.32,33.29c.05-.05.13-.05.18,0l.95.95c.05.05.05.13,0,.18-.05.05-.13.05-.18,0l-.95-.95c-.05-.05-.05-.13,0-.18Z"/>
        <path class="cls-5" d="m133.01,32.58c0-.07.06-.13.13-.13h1.34c.07,0,.13.06.13.13s-.06.13-.13.13h-1.34c-.07,0-.13-.06-.13-.13Z"/>
        <path class="cls-4" d="m136.61,32.58c0-.07.06-.13.13-.13h1.34c.07,0,.13.06.13.13s-.06.13-.13.13h-1.34c-.07,0-.13-.06-.13-.13Z"/>
        <path class="cls-2" d="m135.61,29.98c.07,0,.13.06.13.13v1.34c0,.07-.06.13-.13.13s-.13-.06-.13-.13v-1.34c0-.07.06-.13.13-.13Z"/>
        <path class="cls-10" d="m135.61,33.59c.07,0,.13.06.13.13v1.34c0,.07-.06.13-.13.13s-.13-.06-.13-.13v-1.34c0-.07.06-.13.13-.13Z"/>
      </g>
      <g>
        <path class="cls-10" d="m140.73,34.98c-.07-.03-.1-.1-.07-.17l.52-1.23c.03-.07.1-.1.17-.07.07.03.1.1.07.17l-.52,1.23c-.03.07-.1.1-.17.07Z"/>
        <path class="cls-4" d="m142.14,31.66c-.07-.03-.1-.1-.07-.17l.52-1.23c.03-.07.1-.1.17-.07.07.03.1.1.07.17l-.52,1.23c-.03.07-.1.1-.17.07Z"/>
        <path class="cls-9" d="m139.35,31.57c.03-.07.1-.1.17-.07l1.23.52c.07.03.1.1.07.17-.03.07-.1.1-.17.07l-1.23-.52c-.07-.03-.1-.1-.07-.17Z"/>
        <path class="cls-1" d="m142.67,32.98c.03-.07.1-.1.17-.07l1.23.52c.07.03.1.1.07.17-.03.07-.1.1-.17.07l-1.23-.52c-.07-.03-.1-.1-.07-.17Z"/>
        <path class="cls-6" d="m139.34,33.56c-.03-.07,0-.14.07-.17l1.24-.5c.07-.03.14,0,.17.07s0,.14-.07.17l-1.24.5c-.07.03-.14,0-.17-.07Z"/>
        <path class="cls-4" d="m142.68,32.21c-.03-.07,0-.14.07-.17l1.24-.5c.07-.03.14,0,.17.07.03.07,0,.14-.07.17l-1.24.5c-.07.03-.14,0-.17-.07Z"/>
        <path class="cls-7" d="m140.77,30.17c.07-.03.14,0,.17.07l.5,1.24c.03.07,0,.14-.07.17-.07.03-.14,0-.17-.07l-.5-1.24c-.03-.07,0-.14.07-.17Z"/>
        <path class="cls-3" d="m142.12,33.51c.07-.03.14,0,.17.07l.5,1.24c.03.07,0,.14-.07.17-.07.03-.14,0-.17-.07l-.5-1.24c-.03-.07,0-.14.07-.17Z"/>
        <path class="cls-11" d="m139.91,34.42c-.05-.05-.05-.13,0-.18l.95-.95c.05-.05.13-.05.18,0s.05.13,0,.18l-.95.95c-.05.05-.13.05-.18,0Z"/>
        <path class="cls-4" d="m142.46,31.88c-.05-.05-.05-.13,0-.18l.95-.95c.05-.05.13-.05.18,0,.05.05.05.13,0,.18l-.95.95c-.05.05-.13.05-.18,0Z"/>
        <path class="cls-8" d="m139.91,30.75c.05-.05.13-.05.18,0l.95.95c.05.05.05.13,0,.18-.05.05-.13.05-.18,0l-.95-.95c-.05-.05-.05-.13,0-.18Z"/>
        <path class="cls-3" d="m142.46,33.29c.05-.05.13-.05.18,0l.95.95c.05.05.05.13,0,.18s-.13.05-.18,0l-.95-.95c-.05-.05-.05-.13,0-.18Z"/>
        <path class="cls-5" d="m139.15,32.58c0-.07.06-.13.13-.13h1.34c.07,0,.13.06.13.13s-.06.13-.13.13h-1.34c-.07,0-.13-.06-.13-.13Z"/>
        <path class="cls-4" d="m142.75,32.58c0-.07.06-.13.13-.13h1.34c.07,0,.13.06.13.13s-.06.13-.13.13h-1.34c-.07,0-.13-.06-.13-.13Z"/>
        <path class="cls-2" d="m141.75,29.98c.07,0,.13.06.13.13v1.34c0,.07-.06.13-.13.13s-.13-.06-.13-.13v-1.34c0-.07.06-.13.13-.13Z"/>
        <path class="cls-10" d="m141.75,33.59c.07,0,.13.06.13.13v1.34c0,.07-.06.13-.13.13s-.13-.06-.13-.13v-1.34c0-.07.06-.13.13-.13Z"/>
      </g>
      <g>
        <path class="cls-10" d="m146.87,34.98c-.07-.03-.1-.1-.07-.17l.52-1.23c.03-.07.1-.1.17-.07.07.03.1.1.07.17l-.52,1.23c-.03.07-.1.1-.17.07Z"/>
        <path class="cls-4" d="m148.28,31.66c-.07-.03-.1-.1-.07-.17l.52-1.23c.03-.07.1-.1.17-.07.07.03.1.1.07.17l-.52,1.23c-.03.07-.1.1-.17.07Z"/>
        <path class="cls-9" d="m145.49,31.57c.03-.07.1-.1.17-.07l1.23.52c.07.03.1.1.07.17-.03.07-.1.1-.17.07l-1.23-.52c-.07-.03-.1-.1-.07-.17Z"/>
        <path class="cls-1" d="m148.81,32.98c.03-.07.1-.1.17-.07l1.23.52c.07.03.1.1.07.17-.03.07-.1.1-.17.07l-1.23-.52c-.07-.03-.1-.1-.07-.17Z"/>
        <path class="cls-6" d="m145.47,33.56c-.03-.07,0-.14.07-.17l1.24-.5c.07-.03.14,0,.17.07s0,.14-.07.17l-1.24.5c-.07.03-.14,0-.17-.07Z"/>
        <path class="cls-4" d="m148.81,32.21c-.03-.07,0-.14.07-.17l1.24-.5c.07-.03.14,0,.17.07.03.07,0,.14-.07.17l-1.24.5c-.07.03-.14,0-.17-.07Z"/>
        <path class="cls-7" d="m146.91,30.17c.07-.03.14,0,.17.07l.5,1.24c.03.07,0,.14-.07.17-.07.03-.14,0-.17-.07l-.5-1.24c-.03-.07,0-.14.07-.17Z"/>
        <path class="cls-3" d="m148.26,33.51c.07-.03.14,0,.17.07l.5,1.24c.03.07,0,.14-.07.17s-.14,0-.17-.07l-.5-1.24c-.03-.07,0-.14.07-.17Z"/>
        <path class="cls-11" d="m146.05,34.42c-.05-.05-.05-.13,0-.18l.95-.95c.05-.05.13-.05.18,0,.05.05.05.13,0,.18l-.95.95c-.05.05-.13.05-.18,0Z"/>
        <path class="cls-4" d="m148.59,31.88c-.05-.05-.05-.13,0-.18l.95-.95c.05-.05.13-.05.18,0,.05.05.05.13,0,.18l-.95.95c-.05.05-.13.05-.18,0Z"/>
        <path class="cls-8" d="m146.05,30.75c.05-.05.13-.05.18,0l.95.95c.05.05.05.13,0,.18s-.13.05-.18,0l-.95-.95c-.05-.05-.05-.13,0-.18Z"/>
        <path class="cls-3" d="m148.59,33.29c.05-.05.13-.05.18,0l.95.95c.05.05.05.13,0,.18s-.13.05-.18,0l-.95-.95c-.05-.05-.05-.13,0-.18Z"/>
        <path class="cls-5" d="m145.28,32.58c0-.07.06-.13.13-.13h1.34c.07,0,.13.06.13.13s-.06.13-.13.13h-1.34c-.07,0-.13-.06-.13-.13Z"/>
        <path class="cls-4" d="m148.89,32.58c0-.07.06-.13.13-.13h1.34c.07,0,.13.06.13.13s-.06.13-.13.13h-1.34c-.07,0-.13-.06-.13-.13Z"/>
        <path class="cls-2" d="m147.88,29.98c.07,0,.13.06.13.13v1.34c0,.07-.06.13-.13.13s-.13-.06-.13-.13v-1.34c0-.07.06-.13.13-.13Z"/>
        <path class="cls-10" d="m147.88,33.59c.07,0,.13.06.13.13v1.34c0,.07-.06.13-.13.13s-.13-.06-.13-.13v-1.34c0-.07.06-.13.13-.13Z"/>
      </g>
    </g>
    <g>
      <path class="cls-2" d="m120.36,38.73h-1.82v2.28h1.82c.13,0,.24-.04.32-.13.09-.09.13-.2.13-.32v-1.36c0-.13-.05-.24-.13-.32-.09-.09-.2-.13-.32-.13Zm0,1.81h-1.34s0-1.34,0-1.34h1.35s0,1.34,0,1.34Z"/>
      <polygon class="cls-2" points="123.26 41 125.36 41 125.36 40.53 123.73 40.53 123.73 40.1 125.04 40.1 125.04 39.63 123.73 39.63 123.73 39.19 125.36 39.19 125.36 38.73 123.26 38.73 123.26 41"/>
      <path class="cls-2" d="m129.59,38.73h-1.36c-.13,0-.24.05-.32.13-.09.09-.13.2-.13.32v.46c0,.13.05.24.13.32.09.09.2.13.32.13h1.35s0,.44,0,.44h-1.35s0-.19,0-.19h-.47v.2c0,.13.04.24.13.33.09.09.2.14.32.14h1.36c.13,0,.24-.04.32-.13.09-.09.13-.2.13-.32v-.46c0-.13-.04-.24-.13-.32-.09-.09-.2-.13-.32-.13h-1.35s0-.44,0-.44h1.35s0,.19,0,.19h.47v-.2c0-.13-.04-.24-.13-.32-.09-.09-.2-.13-.32-.13Z"/>
      <rect class="cls-2" x="132.48" y="38.73" width=".47" height="2.28"/>
      <path class="cls-2" d="m137.28,38.73h-1.36c-.13,0-.24.05-.32.13-.09.09-.13.2-.13.32v1.36c0,.13.05.24.13.32.09.09.2.13.32.13h1.36c.13,0,.24-.04.32-.13.09-.09.13-.2.13-.32v-.85h-.97v.47h.51v.38s-1.34,0-1.34,0v-1.35s1.34,0,1.34,0v.2h.47v-.2c0-.13-.04-.24-.13-.32-.09-.09-.2-.13-.32-.13Z"/>
      <polygon class="cls-2" points="141.98 40.3 140.65 38.73 140.17 38.73 140.17 41 140.64 41 140.64 39.43 141.96 41 142.45 41 142.45 38.73 141.98 38.73 141.98 40.3"/>
      <path class="cls-2" d="m152.18,40.53h-1.34s0-1.81,0-1.81h-.47v1.82c0,.13.05.24.13.32s.2.13.32.13h1.36c.13,0,.24-.04.32-.13.09-.09.13-.2.13-.32v-1.82h-.47v1.81Z"/>
      <polygon class="cls-2" points="156.89 40.3 155.57 38.73 155.08 38.73 155.08 41 155.55 41 155.55 39.43 156.87 41 157.36 41 157.36 38.73 156.89 38.73 156.89 40.3"/>
      <rect class="cls-2" x="159.8" y="38.73" width=".47" height="2.28"/>
      <polygon class="cls-2" points="162.68 38.73 162.68 39.19 163.58 39.19 163.58 41 164.05 41 164.05 39.19 164.96 39.19 164.96 38.73 162.68 38.73"/>
    </g>
  </g>
  <g id="warning_red_sign" data-name="warning red sign">
    <g id="error_" data-name="error !">
      <g>
        <g>
          <path class="cls-16" d="m140.44,5.29c.58-1.01,2.04-1.01,2.62,0l3.46,5.99,3.46,5.99c.58,1.01-.15,2.27-1.31,2.27h-13.84c-1.16,0-1.89-1.26-1.31-2.27l3.46-5.99,3.46-5.99Z"/>
          <path class="cls-12" d="m140.48,5.34c.16-.27.38-.47.64-.59h0c.26-.12.54-.16.81-.12.43.04.87.33,1.12.76l3.42,5.92,3.41,5.9c.39.68.2,1.54-.36,1.95-.23.18-.52.3-.85.31,0,0-.6.01-.61.01h-12.61s-.6,0-.61-.01c-.34,0-.64-.13-.87-.32-.55-.41-.73-1.26-.34-1.94l3.41-5.9,3.45-5.97Zm1.57,7.01h-.59s-.03,0-.04-.02c0-.02,0-.03,0-.05l.3-.51s.02-.02.04-.02h0s.03,0,.04.02l.3.51s0,.03,0,.05-.02.02-.04.02Z"/>
          <path class="cls-13" d="m140.51,5.39c.16-.27.38-.46.63-.58h0c.25-.11.53-.15.8-.1.41.04.85.36,1.09.76l3.38,5.85,3.35,5.81c.37.64.23,1.53-.3,1.92-.21.18-.49.3-.81.32-.01.02-.58.03-.6.03h-12.61s-.59-.01-.6-.03c-.33-.02-.61-.14-.82-.33-.52-.39-.66-1.27-.29-1.91l3.35-5.81,3.43-5.94Zm1.83,7.26h-1.19s-.07-.02-.08-.05c-.02-.03-.02-.07,0-.1l.59-1.03s.05-.05.08-.05h0s.07.02.08.05l.59,1.03s.02.07,0,.1-.05.05-.08.05Z"/>
          <path class="cls-18" d="m140.55,5.44c.15-.27.38-.45.63-.56h0c.25-.11.53-.13.79-.08.39.04.84.39,1.06.77l3.34,5.78,3.3,5.72c.35.61.26,1.52-.25,1.89-.19.18-.46.31-.76.34-.02.03-.57.04-.6.04h-12.6s-.59-.02-.6-.04c-.32-.03-.58-.16-.78-.35-.49-.37-.58-1.27-.23-1.88l3.3-5.72,3.41-5.91Zm2.09,7.52h-1.78c-.05,0-.1-.03-.13-.07s-.03-.1,0-.15l.89-1.54s.07-.07.13-.07h0c.05,0,.1.03.13.07l.89,1.54s.03.1,0,.15-.07.07-.13.07Z"/>
          <path class="cls-19" d="m140.59,5.49c.15-.26.37-.45.62-.55h0c.25-.1.52-.12.77-.06.37.04.82.42,1.03.78l3.29,5.71,3.25,5.62c.33.58.29,1.51-.19,1.86-.18.18-.42.32-.72.35-.02.04-.55.06-.6.06h-12.59s-.58-.02-.6-.06c-.31-.04-.56-.17-.74-.36-.46-.35-.51-1.28-.18-1.85l3.25-5.63,3.4-5.88Zm2.35,7.78h-2.38c-.07,0-.13-.04-.17-.1s-.04-.13,0-.2l1.19-2.06c.04-.06.1-.1.17-.1h0c.07,0,.13.04.17.1l1.19,2.06c.04.06.04.13,0,.2-.04.06-.1.1-.17.1Z"/>
          <path class="cls-22" d="m140.62,5.54c.15-.26.37-.44.62-.53h0c.25-.1.52-.1.76-.04.35.04.8.45,1,.79l3.25,5.63,3.19,5.53c.31.54.31,1.5-.13,1.83-.16.18-.39.32-.68.37-.03.05-.54.07-.59.07h-12.59c-.05,0-.57-.03-.59-.07-.29-.05-.53-.19-.69-.38-.44-.33-.43-1.28-.12-1.82l3.2-5.53,3.38-5.85Zm2.61,8.03h-2.97c-.09,0-.17-.05-.21-.12-.04-.08-.04-.17,0-.24l1.49-2.57c.04-.08.12-.12.21-.12h0c.09,0,.17.05.21.12l1.49,2.57c.04.08.04.17,0,.24-.04.08-.12.12-.21.12Z"/>
          <path class="cls-21" d="m140.66,5.59c.15-.25.37-.43.61-.52h0c.25-.09.51-.09.74-.01.32.03.79.48.97.8l3.21,5.56,3.14,5.44c.29.51.34,1.49-.07,1.8-.14.18-.36.33-.64.38-.03.06-.53.09-.59.09h-12.58c-.06,0-.56-.03-.59-.09-.28-.06-.5-.2-.65-.39-.41-.31-.35-1.28-.06-1.79l3.14-5.44,3.36-5.83Zm2.87,8.29h-3.57c-.11,0-.2-.05-.25-.15-.05-.09-.05-.2,0-.29l1.78-3.09c.05-.09.15-.15.25-.15h0c.11,0,.2.05.25.15l1.78,3.09c.05.09.05.2,0,.29-.05.09-.15.15-.25.15Z"/>
          <path class="cls-20" d="m140.7,5.64c.14-.25.36-.42.61-.51h0c.25-.08.51-.08.73,0,.3.03.77.51.94.81l3.17,5.49,3.09,5.35c.27.47.37,1.48-.02,1.77-.13.18-.33.34-.59.4-.04.06-.51.1-.59.1h-12.57c-.08,0-.55-.04-.59-.1-.27-.06-.48-.22-.61-.41-.38-.29-.28-1.29,0-1.76l3.09-5.35,3.35-5.8Zm3.13,8.55h-4.16c-.12,0-.23-.06-.3-.17-.06-.11-.06-.23,0-.34l2.08-3.6c.06-.11.17-.17.3-.17h0c.12,0,.23.06.3.17l2.08,3.6c.06.11.06.24,0,.34-.06.11-.17.17-.3.17Z"/>
          <path class="cls-24" d="m140.73,5.69c.14-.25.36-.41.6-.49h0c.24-.08.5-.06.72.03.28.03.75.53.91.81l3.13,5.42,3.03,5.25c.25.44.4,1.47.04,1.74-.11.19-.3.34-.55.42-.04.07-.5.12-.58.12h-12.57c-.09,0-.54-.04-.58-.12-.26-.07-.45-.23-.56-.42-.36-.27-.2-1.29.05-1.73l3.04-5.26,3.33-5.77Zm3.39,8.8h-4.75c-.14,0-.27-.07-.34-.2s-.07-.27,0-.39l2.38-4.12c.07-.12.2-.2.34-.2h0c.14,0,.27.07.34.2l2.38,4.12c.07.12.07.27,0,.39-.07.12-.2.2-.34.2Z"/>
          <path class="cls-23" d="m140.77,5.74c.14-.24.36-.41.6-.48h0c.24-.07.49-.05.7.05.26.03.74.56.88.82l3.09,5.35,2.98,5.16c.23.41.43,1.46.1,1.71-.09.19-.27.35-.51.43-.05.08-.48.13-.58.13h-12.56c-.1,0-.53-.05-.58-.13-.25-.08-.43-.25-.52-.44-.33-.25-.13-1.3.1-1.7l2.98-5.17,3.31-5.74Zm3.65,9.06h-5.35c-.16,0-.3-.08-.38-.22-.08-.14-.08-.3,0-.44l2.67-4.63c.08-.14.22-.22.38-.22h0c.16,0,.3.08.38.22l2.67,4.63c.08.14.08.3,0,.44-.08.14-.22.22-.38.22Z"/>
          <path class="cls-30" d="m140.81,5.79c.14-.24.35-.4.59-.46h0c.24-.07.49-.04.69.07.24.02.72.59.86.83l3.04,5.27,2.93,5.07c.22.37.46,1.45.15,1.68-.07.19-.23.36-.47.45-.05.09-.47.15-.58.15h-12.55c-.11,0-.52-.06-.58-.15-.24-.09-.4-.26-.48-.45-.3-.23-.05-1.3.16-1.67l2.93-5.07,3.3-5.71Zm3.91,9.32h-5.94c-.18,0-.34-.09-.42-.24-.09-.15-.09-.34,0-.49l2.97-5.15c.09-.15.25-.24.42-.24h0c.18,0,.33.09.42.24l2.97,5.15c.09.15.09.34,0,.49-.09.15-.25.24-.42.24Z"/>
          <path class="cls-29" d="m140.84,5.84c.14-.23.35-.39.59-.45h0c.24-.06.48-.02.68.09.22.02.7.62.83.84l3,5.2,2.87,4.98c.2.34.49,1.44.21,1.65-.06.19-.2.36-.42.46-.06.1-.46.16-.57.16h-12.55c-.12,0-.51-.06-.57-.16-.23-.1-.37-.28-.43-.47-.27-.21.02-1.3.21-1.64l2.88-4.98,3.28-5.68Zm4.17,9.58h-6.54c-.19,0-.37-.1-.47-.27-.1-.17-.1-.37,0-.54l3.27-5.66c.1-.17.27-.27.47-.27h0c.19,0,.37.1.47.27l3.27,5.66c.1.17.1.37,0,.54-.1.17-.27.27-.47.27Z"/>
          <path class="cls-27" d="m140.88,5.89c.13-.23.34-.38.58-.44h0c.24-.05.48,0,.66.12.19.02.69.65.8.85l2.96,5.13,2.82,4.88c.18.3.52,1.43.27,1.62-.04.19-.17.37-.38.48-.06.11-.44.18-.57.18h-12.54c-.13,0-.51-.07-.57-.18-.21-.11-.35-.29-.39-.48-.25-.19.1-1.31.27-1.61l2.82-4.89,3.27-5.66Zm4.43,9.83h-7.13c-.21,0-.4-.11-.51-.29-.11-.18-.11-.4,0-.59l3.56-6.18c.11-.18.3-.29.51-.29h0c.21,0,.4.11.51.29l3.57,6.18c.11.18.11.4,0,.59-.11.18-.3.29-.51.29Z"/>
          <path class="cls-28" d="m140.92,5.94c.13-.23.34-.37.58-.42h0c.24-.05.47,0,.65.14.17.02.67.68.77.86l2.92,5.06,2.77,4.79c.16.27.55,1.43.32,1.59-.02.19-.14.38-.34.5-.07.12-.43.19-.57.19h-12.53c-.14,0-.5-.07-.57-.19-.2-.12-.32-.31-.35-.5-.22-.17.17-1.31.33-1.58l2.77-4.8,3.25-5.63Zm4.69,10.09h-7.72c-.23,0-.44-.12-.55-.32-.11-.2-.11-.44,0-.64l3.86-6.69c.12-.2.32-.32.55-.32h0c.23,0,.44.12.55.32l3.86,6.69c.11.2.11.44,0,.64-.11.2-.32.32-.55.32Z"/>
          <path class="cls-26" d="m140.95,5.99c.13-.22.34-.37.57-.41h0c.24-.04.47.02.63.16.15.02.65.71.74.86l2.88,4.99,2.71,4.7c.14.24.58,1.42.38,1.56,0,.19-.11.38-.3.51-.08.13-.41.21-.56.21h-12.53c-.15,0-.49-.08-.56-.21-.19-.13-.3-.32-.3-.52-.19-.14.25-1.31.38-1.55l2.72-4.71,3.23-5.6Zm4.95,10.35h-8.32c-.25,0-.47-.13-.59-.34-.12-.21-.12-.47,0-.68l4.16-7.2c.12-.21.35-.34.59-.34h0c.25,0,.47.13.59.34l4.16,7.2c.12.21.12.47,0,.68-.12.21-.34.34-.59.34Z"/>
          <path class="cls-35" d="m140.99,6.04c.13-.22.33-.36.57-.39h0c.23-.04.46.03.62.18.13.01.63.74.71.87l2.84,4.91,2.66,4.61c.12.2.61,1.41.44,1.53.01.19-.08.39-.26.53-.08.14-.4.22-.56.22h-12.52c-.16,0-.48-.08-.56-.22-.18-.14-.27-.34-.26-.53-.16-.12.32-1.32.44-1.52l2.66-4.61,3.22-5.57Zm5.22,10.6h-8.91c-.27,0-.5-.14-.63-.37-.13-.23-.13-.5,0-.73l4.46-7.72c.13-.23.37-.37.64-.37h0c.27,0,.5.14.63.37l4.46,7.72c.13.23.13.5,0,.73-.13.23-.37.37-.63.37Z"/>
          <path class="cls-33" d="m141.03,6.09c.12-.21.33-.35.56-.38h0c.23-.03.45.05.61.2.11.01.62.77.68.88l2.79,4.84,2.61,4.51c.1.17.63,1.4.5,1.5.03.19-.07.37-.21.54-.11.13-.38.24-.56.24h-12.51c-.17,0-.45-.1-.56-.24-.14-.17-.24-.35-.22-.55-.14-.1.4-1.32.49-1.49l2.61-4.52,3.2-5.54Zm5.48,10.86h-9.51c-.28,0-.54-.15-.68-.39-.14-.24-.14-.54,0-.78l4.75-8.23c.14-.24.39-.39.68-.39h0c.28,0,.54.15.68.39l4.75,8.23c.14.24.14.54,0,.78-.14.24-.39.39-.68.39Z"/>
          <path class="cls-34" d="m141.06,6.14c.12-.21.33-.34.56-.37h0c.23-.02.45.06.59.22.09,0,.6.8.65.89l2.75,4.77,2.55,4.42c.08.14.66,1.39.55,1.47.04.19-.04.38-.17.56-.11.14-.37.25-.55.25h-12.51c-.18,0-.44-.11-.55-.25-.14-.18-.22-.37-.17-.56-.11-.08.47-1.33.55-1.46l2.56-4.43,3.18-5.52Zm5.74,11.12h-10.1c-.3,0-.57-.16-.72-.42-.15-.26-.15-.57,0-.83l5.05-8.75c.15-.26.42-.42.72-.42h0c.3,0,.57.16.72.42l5.05,8.75c.15.26.15.57,0,.83-.15.26-.42.42-.72.42Z"/>
          <path class="cls-32" d="m141.1,6.19c.12-.21.32-.33.55-.35h0c.23-.02.44.07.58.25.06,0,.58.83.62.9l2.71,4.7,2.5,4.33c.06.1.69,1.38.61,1.44.06.19,0,.39-.13.57-.11.16-.36.27-.55.27h-12.5c-.19,0-.44-.11-.55-.27-.13-.18-.19-.38-.13-.58-.08-.06.55-1.33.61-1.43l2.5-4.34,3.17-5.49Zm6,11.37h-10.7c-.32,0-.6-.16-.76-.44-.16-.28-.16-.6,0-.88l5.35-9.26c.16-.28.44-.44.76-.44h0c.32,0,.6.16.76.44l5.35,9.26c.16.28.16.6,0,.88-.16.28-.44.44-.76.44Z"/>
          <path class="cls-31" d="m141.14,6.24c.12-.2.32-.33.55-.34h0c.23-.01.44.09.57.27.04,0,.57.86.59.91l2.67,4.62,2.45,4.24c.04.07.72,1.37.67,1.41.08.19.04.41-.08.59-.11.17-.34.28-.55.28h-12.49c-.2,0-.43-.11-.55-.28-.12-.18-.16-.4-.09-.59-.05-.04.62-1.33.66-1.4l2.45-4.25,3.15-5.46Zm6.26,11.63h-11.29c-.34,0-.64-.17-.8-.46-.17-.29-.17-.64,0-.93l5.64-9.78c.17-.29.47-.46.8-.46h0c.34,0,.64.17.8.46l5.64,9.78c.17.29.17.64,0,.93-.17.29-.47.46-.8.46Z"/>
          <path class="cls-36" d="m141.17,6.29c.11-.2.32-.32.54-.32h0c.23,0,.43.1.55.29.02,0,.55.89.56.91l2.63,4.55,2.39,4.14s.75,1.36.72,1.38c.1.19.07.42-.04.61-.11.18-.33.3-.54.3h-12.48c-.21,0-.43-.11-.54-.3-.12-.19-.14-.41-.04-.61-.03-.02.7-1.34.72-1.37l2.4-4.15,3.14-5.43Zm6.52,11.89h-11.88c-.35,0-.67-.18-.85-.49-.18-.31-.18-.67,0-.98l5.94-10.29c.18-.31.49-.49.85-.49h0c.35,0,.67.18.85.49l5.94,10.29c.18.31.18.67,0,.98-.18.31-.49.49-.85.49Z"/>
          <path d="m141.75,6.03c-.22,0-.43.12-.54.31l-3.12,5.4-3.12,5.4c-.11.19-.11.43,0,.62.11.19.31.31.54.31h12.48c.22,0,.43-.12.54-.31.11-.19.11-.43,0-.62l-3.12-5.4-3.12-5.4c-.11-.19-.31-.31-.54-.31h0Zm6.24,12.45h-12.48c-.37,0-.7-.19-.89-.51-.19-.32-.19-.7,0-1.03l6.24-10.81c.19-.32.52-.51.89-.51h0c.37,0,.7.19.89.51l6.24,10.81c.19.32.19.71,0,1.03-.19.32-.52.51-.89.51Z"/>
        </g>
        <path d="m140.65,6.5c.49-.85,1.71-.85,2.2,0l2.91,5.04,2.91,5.04c.49.85-.12,1.91-1.1,1.91h-11.64c-.98,0-1.59-1.06-1.1-1.91l2.91-5.04,2.91-5.04Z"/>
        <path class="cls-14" d="m147.44,18.05h-11.39c-.34,0-.64-.18-.81-.47-.17-.29-.17-.64,0-.94l5.69-9.86c.17-.29.47-.47.81-.47s.64.18.81.47l5.69,9.86c.17.29.17.64,0,.94-.17.29-.47.47-.81.47Zm-5.69-11.37c-.21,0-.39.11-.49.28l-5.69,9.86c-.1.18-.1.39,0,.57.1.18.29.28.49.28h11.39c.21,0,.39-.11.49-.28.1-.18.1-.39,0-.57l-5.69-9.86c-.1-.18-.29-.28-.49-.28Z"/>
        <path class="cls-14" d="m141.4,9.93h.68c.16,0,.3.07.41.21.11.14.15.3.13.47l-.43,3.44c-.02.13-.07.22-.15.28-.08.06-.18.09-.3.08-.13,0-.24-.03-.31-.09-.08-.06-.12-.15-.13-.27l-.43-3.44c-.03-.18,0-.34.12-.47.11-.13.25-.2.41-.21Zm.2,5.17h.37c.11,0,.2.04.27.13.07.09.11.18.12.3v.24c0,.14-.05.24-.12.32-.07.08-.16.11-.27.11h-.37c-.12,0-.21-.04-.28-.12-.07-.08-.1-.18-.1-.32v-.24c0-.13.03-.23.1-.31.07-.08.16-.12.28-.12Z"/>
      </g>
    </g>
    <g>
      <path class="cls-14" d="m137.43,20.5l-.53,2.1h-.42l-.26-1.05-.15-.62-.15.62-.26,1.05h-.42l-.53-2.1h.4l.22,1.04.13.63c.02-.1.05-.2.07-.3.02-.1.05-.2.07-.3l.26-1.06h.41l.26,1.06c.02.1.05.2.07.3.02.1.05.2.07.3l.13-.63.23-1.04h.4Z"/>
      <path class="cls-14" d="m139.43,22.6h-.42l-.19-.54h-.78l-.18.54h-.4l.75-2.1h.44l.79,2.1Zm-.71-.86l-.3-.89-.29.89h.59Z"/>
      <path class="cls-14" d="m141.45,22.6h-.43l-.18-.52s-.04-.09-.06-.13-.05-.07-.09-.1c-.03-.03-.07-.05-.11-.06-.04-.01-.08-.02-.13-.02h-.39v.83h-.4v-2.1h.93c.08,0,.15,0,.22.01.07,0,.13.02.18.04.06.02.11.04.15.07.04.03.08.07.12.12.07.1.1.22.1.36,0,.15-.04.27-.12.36-.08.09-.19.15-.33.19h0c.08.03.15.08.2.14.05.07.1.15.14.26l.21.55Zm-1.4-1.16h.49c.07,0,.13,0,.18-.02.05-.01.09-.03.12-.06.03-.03.06-.06.07-.1s.02-.09.02-.15c0-.1-.03-.18-.09-.23-.06-.05-.15-.07-.28-.07h-.52v.62Z"/>
      <path class="cls-14" d="m143.46,22.6h-.4l-.94-1.51v.75s.01.77.01.77h-.38v-2.1h.41l.94,1.51v-.75s-.01-.76-.01-.76h.38v2.1Z"/>
      <path class="cls-14" d="m144.32,22.6h-.4v-2.1h.4v2.1Z"/>
      <path class="cls-14" d="m146.48,22.6h-.4l-.94-1.51v.75s.01.77.01.77h-.38v-2.1h.41l.94,1.51v-.75s-.01-.76-.01-.76h.38v2.1Z"/>
      <path class="cls-14" d="m147.85,22.64c-.15,0-.29-.03-.41-.08-.12-.05-.23-.12-.32-.22-.09-.09-.16-.21-.21-.34-.05-.13-.07-.28-.07-.45s.02-.31.07-.44c.05-.13.11-.25.2-.34s.19-.17.32-.22c.13-.05.27-.08.42-.08.13,0,.25.02.35.05.11.03.2.08.28.14.08.06.14.14.19.22.05.09.08.18.09.29h-.4c0-.06-.02-.11-.05-.15-.03-.05-.06-.08-.11-.12-.04-.03-.1-.06-.16-.07-.06-.02-.13-.02-.2-.02-.09,0-.17.02-.25.05-.07.03-.14.08-.19.14-.05.06-.09.14-.12.23-.03.09-.04.2-.04.32s.01.23.04.32c.03.09.07.17.12.23.05.06.12.11.19.14.07.03.16.05.25.05.12,0,.22-.02.31-.05.09-.04.17-.09.23-.17v-.26h-.47v-.31h.87v1.1h-.25l-.06-.18c-.07.07-.16.13-.26.16-.1.04-.23.06-.37.06Z"/>
    </g>
  </g>
  <g id="design_elements_frames_arrows_" data-name="design elements (frames, arrows )">
    <g>
      <polygon class="cls-2" points="194.65 57.49 194.85 57.49 194.85 60.09 192.25 60.09 192.25 59.89 194.65 59.89 194.65 57.49"/>
      <polygon class="cls-2" points="200.3 59.89 200.3 60.09 197.71 60.09 197.71 57.49 197.91 57.49 197.91 59.89 200.3 59.89"/>
      <polygon class="cls-2" points="197.94 65.54 197.74 65.54 197.74 62.95 200.34 62.95 200.34 63.15 197.94 63.15 197.94 65.54"/>
      <polygon class="cls-2" points="192.28 63.15 192.28 62.95 194.88 62.95 194.88 65.54 194.68 65.54 194.68 63.15 192.28 63.15"/>
    </g>
    <polygon class="cls-2" points="140.06 122.85 141.77 124.94 143.49 122.85 143.49 122.85 143.48 122.85 143.48 122.84 143.49 122.84 143.49 122.84 150.11 114.8 145.49 114.8 144.26 116.29 145.45 116.29 141.77 120.75 138.09 116.29 139.28 116.29 138.05 114.8 133.43 114.8 140.05 122.84 140.05 122.84 140.05 122.84 140.06 122.85 140.06 122.85"/>
    <g>
      <polygon class="cls-2" points="259.16 59.03 259.16 60.08 259.49 60.08 262.44 57.13 259.49 54.19 259.16 54.19 259.16 55.24 261.08 57.15 259.16 59.03"/>
      <polygon class="cls-2" points="261 59.03 261 60.08 261.32 60.08 264.27 57.13 261.32 54.19 261 54.19 261 55.24 262.92 57.15 261 59.03"/>
      <polygon class="cls-2" points="262.83 59.03 262.83 60.08 263.15 60.08 266.1 57.13 263.15 54.19 262.83 54.19 262.83 55.24 264.75 57.15 262.83 59.03"/>
      <polygon class="cls-2" points="264.66 59.03 264.66 60.08 264.98 60.08 267.93 57.13 264.98 54.19 264.66 54.19 264.66 55.24 266.58 57.15 264.66 59.03"/>
      <polygon class="cls-2" points="266.49 59.03 266.49 60.08 266.82 60.08 269.76 57.13 266.82 54.19 266.49 54.19 266.49 55.24 268.41 57.15 266.49 59.03"/>
      <polygon class="cls-2" points="268.32 59.03 268.32 60.08 268.65 60.08 271.6 57.13 268.65 54.19 268.32 54.19 268.32 55.24 270.24 57.15 268.32 59.03"/>
    </g>
    <g>
      <rect class="cls-2" x="23.77" y="43.67" width="5.91" height="1.19"/>
      <rect class="cls-2" x="23.77" y="45.59" width="5.91" height="1.19"/>
      <rect class="cls-2" x="23.77" y="47.5" width="5.91" height="1.19"/>
      <rect class="cls-2" x="23.77" y="49.41" width="5.91" height="1.19"/>
      <rect class="cls-2" x="23.77" y="51.32" width="5.91" height="1.19"/>
    </g>
    <g class="cls-25">
      <path class="cls-2" d="m65.43,76.57v-19.61c.07-.07.11-.16.11-.27v-6.1c0-.11-.05-.22-.14-.3l-2.96-2.65c-.09-.08-.21-.12-.34-.12h-2.96c-.16,0-.29.07-.38.17h-14.1c-.09-.1-.22-.17-.38-.17h-17.23c-.26,0-.48.19-.48.43v2.15c0,.14.08.26.19.34v21.03c-.12.08-.19.2-.19.34v5.61c0,.11.05.22.14.3l2,1.79c.09.08.21.12.34.12.02,0,.04,0,.07,0l4.41,3.95h15.37c.09.1.22.17.38.17h3.17c.13,0,.25-.04.34-.12l2.53-2.27h9.83c.26,0,.48-.19.48-.43v-4.01c0-.14-.08-.26-.19-.34Zm-35.91,2.69c.02-.13-.02-.26-.13-.36l-1.86-1.67v-5.44c0-.14-.08-.26-.19-.34v-21.03c.11-.08.19-.2.19-.34v-1.72h16.75c.16,0,.29-.07.38-.17h14.1c.09.1.22.17.38.17h2.77l2.69,2.4v5.93c0,.17.11.32.27.38v19.49c-.12.08-.19.2-.19.34v3.59h-9.55c-.13,0-.25.04-.34.12l-2.53,2.27h-2.97c-.16,0-.29.07-.38.17h-15.13l-4.24-3.8Z"/>
      <path class="cls-2" d="m265.21,91.05h-9.91c-.16,0-.31.08-.4.2h-18.66c0-.28-.22-.5-.5-.5h-3.48c-.13,0-.26.05-.35.15l-7.12,7.12c-.09.09-.15.22-.15.35v3.57c0,.22.15.41.35.47v29.42l1.61.04c.09.13.24.21.41.21h6.17c.13,0,.26-.05.35-.15l1.77-1.77h7.08c.12,0,.24-.05.32-.12h19.18c.09.12.23.2.4.2h2.92c.28,0,.5-.22.5-.5v-13.22c0-.16-.08-.31-.2-.4v-20.91c.12-.09.2-.23.2-.4v-3.28c0-.28-.22-.5-.5-.5Zm-39.61,11.11c.03-.07.05-.14.05-.21v-3.35l6.74-6.74h22.51c.09.12.23.2.4.2h9.41v2.78c0,.16.08.31.2.4v20.91c-.12.09-.2.23-.2.4v12.72h-2.42c-.16,0-.31.08-.4.2h-19.06c-.08-.16-.25-.28-.45-.28h-7.28c-.13,0-.26.05-.35.15l-1.77,1.77h-5.96c-.16,0-.3.08-.39.19l-1.03-.03v-29.09Z"/>
      <path class="cls-2" d="m227.95,65.86v-6.98l-1.34-1.34v-4.17c.07-.05.11-.13.11-.22v-6.37c0-.15-.13-.28-.28-.28h-1.6c-.09,0-.17.04-.22.11h-13.53c-.05-.07-.13-.11-.22-.11h-5.48c-.15,0-.28.13-.28.28v3.43c0,.09.04.17.11.22v13.4c-.07.05-.11.13-.11.22v1.1c0,.07.03.15.08.2l4.06,4.06c.05.05.12.08.2.08h1.26c.07,0,.13-.03.18-.07h10.88c.05.07.13.11.22.11h5.81c.15,0,.28-.13.28-.28v-3.17c0-.09-.04-.17-.11-.22Zm-.34-6.84v6.84c-.07.05-.11.13-.11.22v2.89h-5.53c-.09,0-.17.04-.22.11h-10.8c-.05-.09-.14-.16-.25-.16h-1.15l-3.9-3.9v-.99c0-.09-.04-.17-.11-.22v-13.4c.07-.05.11-.13.11-.22v-3.15h5.2c.09,0,.17-.04.22-.11h13.53c.05.07.13.11.22.11h1.32v6.09c0,.09.04.17.11.22v4.31l1.34,1.34Z"/>
      <path class="cls-2" d="m73.08,36.45h-2.51c-.12,0-.22.08-.26.18h-7.96l-1.38-1.38h-8.17c-.05-.07-.13-.11-.22-.11h-4.56c-.15,0-.28.13-.28.28v2.62c0,.09.04.17.11.22v13.88c-.07.05-.11.13-.11.22v3.02c0,.07.03.15.08.2l2.43,2.43c.05.05.12.08.2.08h2.54c.08,0,.15-.03.2-.09l11.5-.04c.05.09.14.15.24.15h3.97c.07,0,.15-.03.2-.08l3.94-3.94c.05-.05.08-.12.08-.2v-1.67c0-.09-.04-.17-.11-.22v-1.57l-1.75-1.75v-5.61l2-2v-.83c.07-.05.11-.13.11-.22v-3.29c0-.15-.13-.28-.28-.28Zm-2.17,6.48v5.89l1.75,1.75v1.43c-.07.05-.11.13-.11.22v1.55l-3.77,3.77h-3.85c-.07,0-.14.03-.19.08l-11.52.04c-.05-.08-.14-.14-.24-.14h-2.42l-2.27-2.27v-2.91c0-.09-.04-.17-.11-.22v-13.88c.07-.05.11-.13.11-.22v-2.34h4.28c.09,0,.17-.04.22-.11h8.03l1.38,1.38h8.22s.09.04.14.04h2.23v3.01c0,.09.04.17.11.22v.69l-2,2Z"/>
    </g>
    <g id="lines_2" data-name="lines 2">
      <polygon class="cls-2" points="206.85 117.58 199.01 124.4 205.04 124.41 212.88 117.6 206.85 117.58"/>
      <polygon class="cls-2" points="218.09 117.61 210.25 124.43 216.29 124.44 224.13 117.62 218.09 117.61"/>
      <polygon class="cls-2" points="229.34 117.64 221.5 124.45 227.53 124.47 235.37 117.65 229.34 117.64"/>
      <polygon class="cls-2" points="195.6 117.56 187.76 124.38 193.8 124.39 201.64 117.57 195.6 117.56"/>
      <polygon class="cls-2" points="184.36 117.53 176.52 124.35 182.55 124.36 190.39 117.55 184.36 117.53"/>
      <polygon class="cls-2" points="248.51 120.57 243.98 124.5 248.5 124.51 248.51 120.57"/>
      <polygon class="cls-2" points="175.2 117.51 175.19 120.96 179.15 117.52 175.2 117.51"/>
      <polygon class="cls-2" points="240.58 117.66 232.74 124.48 238.78 124.49 246.62 117.67 240.58 117.66"/>
    </g>
    <g class="cls-25">
      <polygon class="cls-2" points="132.57 89.03 132.57 89.38 134.82 89.38 134.82 91.63 135.18 91.63 135.18 89.03 132.57 89.03"/>
      <polygon class="cls-2" points="134.82 108.5 132.57 108.5 132.57 108.85 135.18 108.85 135.18 106.25 134.82 106.25 134.82 108.5"/>
      <polygon class="cls-2" points="98.28 106.25 97.92 106.25 97.92 108.85 100.53 108.85 100.53 108.5 98.28 108.5 98.28 106.25"/>
      <polygon class="cls-2" points="97.92 91.63 98.28 91.63 98.28 89.38 100.53 89.38 100.53 89.03 97.92 89.03 97.92 91.63"/>
    </g>
    <g id="text" class="cls-17">
      <g>
        <polygon class="cls-2" points="74.77 50.15 75.78 50.15 73.4 52.52 73.4 51.51 74.77 50.15"/>
        <polygon class="cls-2" points="78.7 50.15 79.71 50.15 73.4 56.45 73.4 55.44 78.7 50.15"/>
        <polygon class="cls-2" points="82.63 50.15 83.64 50.15 73.4 60.38 73.4 59.37 82.63 50.15"/>
        <polygon class="cls-2" points="86.56 50.15 87.57 50.15 73.4 64.31 73.4 63.3 86.56 50.15"/>
        <polygon class="cls-2" points="90.49 50.15 91.5 50.15 73.4 68.24 73.4 67.24 90.49 50.15"/>
        <polygon class="cls-2" points="94.43 50.15 95.43 50.15 73.4 72.17 73.4 71.17 94.43 50.15"/>
        <polygon class="cls-2" points="98.36 50.15 99.36 50.15 75.67 73.83 74.67 73.83 98.36 50.15"/>
        <polygon class="cls-2" points="102.29 50.15 103.29 50.15 79.6 73.83 78.6 73.83 102.29 50.15"/>
        <polygon class="cls-2" points="106.22 50.15 107.22 50.15 83.54 73.83 82.53 73.83 106.22 50.15"/>
        <polygon class="cls-2" points="110.15 50.15 111.16 50.15 87.47 73.83 86.46 73.83 110.15 50.15"/>
        <polygon class="cls-2" points="114.08 50.15 115.09 50.15 91.4 73.83 90.39 73.83 114.08 50.15"/>
        <polygon class="cls-2" points="118.01 50.15 119.02 50.15 95.33 73.83 94.32 73.83 118.01 50.15"/>
        <polygon class="cls-2" points="98.25 73.83 120.15 51.94 120.15 52.94 99.26 73.83 98.25 73.83"/>
        <polygon class="cls-2" points="102.19 73.83 120.15 55.87 120.15 56.88 103.19 73.83 102.19 73.83"/>
        <polygon class="cls-2" points="106.12 73.83 120.15 59.8 120.15 60.81 107.12 73.83 106.12 73.83"/>
        <polygon class="cls-2" points="110.05 73.83 120.15 63.73 120.15 64.74 111.05 73.83 110.05 73.83"/>
        <polygon class="cls-2" points="113.98 73.83 120.15 67.66 120.15 68.67 114.98 73.83 113.98 73.83"/>
        <polygon class="cls-2" points="117.91 73.83 120.15 71.6 120.15 72.6 118.92 73.83 117.91 73.83"/>
      </g>
      <g>
        <polygon class="cls-2" points="239.61 48.38 241.08 48.38 235.41 54.06 235.41 52.58 239.61 48.38"/>
        <polygon class="cls-2" points="245.37 48.38 246.85 48.38 235.41 59.82 235.41 58.35 245.37 48.38"/>
        <polygon class="cls-2" points="251.14 48.38 252.61 48.38 235.41 65.59 235.41 64.11 251.14 48.38"/>
        <polygon class="cls-2" points="256.9 48.38 258.38 48.38 235.41 71.35 235.41 69.88 256.9 48.38"/>
        <polygon class="cls-2" points="262.67 48.38 264.14 48.38 235.41 77.11 235.41 75.64 262.67 48.38"/>
        <polygon class="cls-2" points="238.13 78.68 265.71 51.1 265.71 52.58 239.61 78.68 238.13 78.68"/>
        <polygon class="cls-2" points="243.9 78.68 265.71 56.87 265.71 58.34 245.37 78.68 243.9 78.68"/>
        <polygon class="cls-2" points="249.66 78.68 265.71 62.63 265.71 64.11 251.14 78.68 249.66 78.68"/>
        <polygon class="cls-2" points="255.43 78.68 265.71 68.4 265.71 69.87 256.9 78.68 255.43 78.68"/>
        <polygon class="cls-2" points="261.19 78.68 265.71 74.16 265.71 75.64 262.66 78.68 261.19 78.68"/>
      </g>
      <g>
        <polygon class="cls-2" points="33.82 92.02 31.37 94.47 31.37 93.55 32.91 92.02 33.82 92.02"/>
        <polygon class="cls-2" points="37.39 92.02 31.37 98.03 31.37 97.12 36.47 92.02 37.39 92.02"/>
        <polygon class="cls-2" points="40.95 92.02 31.37 101.6 31.37 100.69 40.04 92.02 40.95 92.02"/>
        <polygon class="cls-2" points="44.52 92.02 31.37 105.16 31.37 104.25 43.61 92.02 44.52 92.02"/>
        <polygon class="cls-2" points="48.09 92.02 34.16 105.94 33.25 105.94 47.17 92.02 48.09 92.02"/>
        <polygon class="cls-2" points="51.65 92.02 37.73 105.94 36.82 105.94 50.74 92.02 51.65 92.02"/>
        <polygon class="cls-2" points="55.22 92.02 41.3 105.94 40.38 105.94 54.31 92.02 55.22 92.02"/>
        <polygon class="cls-2" points="58.78 92.02 44.86 105.94 43.95 105.94 57.87 92.02 58.78 92.02"/>
        <polygon class="cls-2" points="62.35 92.02 48.43 105.94 47.52 105.94 61.44 92.02 62.35 92.02"/>
        <polygon class="cls-2" points="65.92 92.02 52 105.94 51.08 105.94 65.01 92.02 65.92 92.02"/>
        <polygon class="cls-2" points="69.48 92.02 55.56 105.94 54.65 105.94 68.57 92.02 69.48 92.02"/>
        <polygon class="cls-2" points="71.75 92.41 71.75 93.32 59.13 105.94 58.22 105.94 71.75 92.41"/>
        <polygon class="cls-2" points="71.75 95.98 71.75 96.89 62.7 105.94 61.78 105.94 71.75 95.98"/>
        <polygon class="cls-2" points="71.75 99.55 71.75 100.46 66.26 105.94 65.35 105.94 71.75 99.55"/>
        <polygon class="cls-2" points="71.75 103.11 71.75 104.02 69.83 105.94 68.92 105.94 71.75 103.11"/>
      </g>
    </g>
  </g>
  <g id="tringle">
    <g>
      <path class="cls-2" d="m67.75,136.13l-11.76-20.34h-.31s-.42-.72-.42-.72l-3.1-.07,6.11,10.57.25-.15,2.14,3.7-.25.15,6.11,10.57,1.48-2.72-.42-.73.16-.27Zm-2.87.1l-.32-.55.52-.3.32.55-.52.3Zm-.46-.79l-.32-.55.52-.3.32.55-.52.3Z"/>
      <path class="cls-2" d="m82.89,115.79h-.31s-11.76,20.34-11.76,20.34l.16.27-.42.73,1.48,2.72,6.11-10.57-.25-.15,2.14-3.7.25.15,6.11-10.57-3.1.07-.42.72Zm-.33,4.24c-.03.06-.11.08-.17.05-.06-.03-.07-.11-.04-.17.03-.06.11-.08.17-.05.06.03.08.11.04.17Zm-.26,1.14l2.91-5.03.1.06-2.91,5.03-.1-.06Z"/>
      <path class="cls-2" d="m57.37,112.42l.16.27h23.49l.16-.27h.84l1.61-2.64h-12.21v.29h-4.28v-.29h-12.21l1.61,2.64h.84Zm3.71-1.72c0-.07.06-.12.13-.12s.13.05.13.12-.06.12-.13.12-.13-.05-.13-.12Zm-.32.12c-.07,0-.13-.05-.13-.12s.06-.12.13-.12.13.05.13.12-.06.12-.13.12Zm19.82-.66v.6h-.63v-.6h.63Zm-1.82,0v.6h-.63v-.6h.63Zm-16.43-.04v.11h-5.81v-.11h5.81Z"/>
    </g>
    <g>
      <path d="m73.92,111.71h.34v.16h-.51v-.72h.51v.16h-.34v.39Zm.36-.56h.16v.72h-.16v-.72Z"/>
      <path d="m74.52,111.32v-.16h.69v.16h-.69Zm.16.12h.52v.44h-.69v-.16h.52v-.12h-.52v-.26h.16v.1Z"/>
      <path d="m75.46,111.87h-.16v-.72h.16v.72Zm.02-.69c.04.07.12.25.25.52.16-.35.25-.53.27-.56h.16v.72h-.16v-.39c-.11.24-.17.37-.19.39h-.16s-.07-.14-.17-.35v-.34Z"/>
      <path d="m76.4,111.87h-.16v-.72h.16v.72Zm.02-.69c.04.07.12.25.25.52.16-.35.25-.53.27-.56h.16v.72h-.16v-.39c-.11.24-.17.37-.19.39h-.16s-.07-.14-.17-.35v-.34Z"/>
      <path d="m77.19,111.04h.16v.23h-.16v-.23Zm.24,0h.16v.23h-.16v-.23Z"/>
    </g>
    <g>
      <path d="m81.28,120.45l-.16.3-.14-.08.24-.44.63.34-.24.44-.14-.08.16-.3-.35-.19Zm.32.58l-.08.14-.63-.34.08-.14.63.34Z"/>
      <path d="m81.2,121.78l-.36-.2.08-.14.21.11-.1-.31.1-.19c.1.3.16.48.18.54l-.1.19Zm-.09-.73l-.14-.08-.21.38-.11-.06-.08.14.11.06-.04.08.14.08.33-.6Z"/>
      <path d="m80.4,121.73l.08-.14.63.34-.08.14-.63-.34Zm.59.34c-.08,0-.27-.01-.58-.03.23.31.35.47.36.5l-.08.14-.63-.34.08-.14.34.18c-.15-.21-.24-.33-.25-.35l.08-.14s.15,0,.39.02l.3.16Z"/>
      <path d="m79.95,122.56l.08-.14.63.34-.08.14-.63-.34Zm.59.34c-.08,0-.27-.01-.58-.03.23.31.35.47.36.5l-.08.14-.63-.34.08-.14.34.18c-.15-.21-.24-.33-.25-.35l.08-.14s.15,0,.39.02l.3.16Z"/>
      <path d="m80.31,123.65l-.08.14-.2-.11.08-.14.2.11Zm-.12.21l-.08.14-.2-.11.08-.14.2.11Z"/>
    </g>
    <g>
      <path d="m53.95,116.61l.02-.04s.1.06.16.09c.06.03.11.04.16.04l-.12-.21.04-.02.13.22.09-.05-.11-.19.03-.02.11.19.08-.04.03.05-.08.04.11.2-.03.02-.11-.2-.09.05.13.22-.04.02-.12-.22s-.03.1-.04.17,0,.12,0,.17h-.05c0-.05,0-.11,0-.17,0-.06.02-.11.03-.16l-.2.12-.03-.04.2-.12s-.1-.03-.15-.05-.1-.05-.14-.08Z"/>
      <path d="m54.25,117.17l.02-.04s.1.06.17.09c.06.02.11.04.15.04l-.12-.21.03-.02.06.1s.05-.08.07-.09l.04.03s-.04.06-.08.11l.04.07.13-.07-.12-.21.03-.02.12.21.06-.03.03.04-.06.03.12.21-.03.02-.12-.21-.13.08.04.08c.06,0,.1,0,.14,0v.05s-.07,0-.11,0l.06.11-.03.02-.13-.22s-.03.09-.04.16c0,.07,0,.13,0,.18h-.05c0-.05,0-.11,0-.17,0-.06.02-.11.03-.15l-.19.11-.03-.04.19-.11s-.1-.03-.15-.05c-.05-.02-.1-.05-.14-.08Z"/>
      <path d="m54.84,117.66s.02-.08.03-.12h.04s-.01.09-.03.13h-.05Zm-.26.09v-.05s.07,0,.11,0c.04,0,.08,0,.11-.02v.04s-.06.01-.11.02c-.05,0-.09,0-.12,0Zm.4-.15s.02-.07.03-.12h.04c0,.06-.02.1-.03.13h-.05Zm-.28.38l.3-.17-.05-.06h-.01c-.12.08-.23.11-.32.1v-.04s.1,0,.14-.02.09-.03.14-.06h0s.17-.1.17-.1c.04.06.07.11.12.17.04.05.07.09.09.1l-.02.04s-.06-.06-.1-.11c-.04-.05-.08-.1-.1-.14l-.08.05s.07.09.12.14c.04.05.08.08.1.1l-.02.04s-.04-.05-.08-.09c-.05.03-.08.06-.1.08.05.02.08.03.11.04v.04c-.07-.02-.11-.04-.14-.05-.05.06-.09.12-.1.18l-.05-.02s.03-.07.06-.12c.03-.05.06-.08.09-.11.03-.03.06-.05.1-.07l-.03-.04-.31.18-.02-.04Z"/>
    </g>
    <g>
      <path class="cls-2" d="m68.76,123.43h-3.48l-.61-.61v-3.65l.61-.61h3.48l.61.61v3.65l-.61.61Zm-3.27-.56h3.07l.31-.31v-3.19l-.32-.31h-3.07l-.31.31v3.19l.32.31Z"/>
      <polygon class="cls-2" points="73.84 123.49 73.34 123.49 73.34 119.38 73.02 119.07 69.87 119.07 69.87 118.57 73.23 118.57 73.84 119.18 73.84 123.49"/>
      <rect class="cls-2" x="64.33" y="120.71" width="5.36" height=".51" transform="translate(-65.9 82.8) rotate(-44.99)"/>
    </g>
    <g>
      <rect class="cls-2" x="63.77" y="117.39" width="10.91" height=".06"/>
      <rect class="cls-2" x="63.89" y="124.61" width="10.91" height=".06"/>
    </g>
    <g>
      <path d="m65.56,116.27h.28v.11h-.28v.1c0,.26-.13.45-.38.56l-.08-.09c.23-.08.35-.24.35-.46v-.11h-.36v.28s-.11,0-.11,0v-.28h-.31v-.11h.3v-.28s.11,0,.11,0c.04,0,.04.02,0,.05v.23h.38v-.34h.11s.03.02,0,.06v.28Z"/>
      <path d="m66.09,116.6c.34-.15.6-.37.77-.65l.09.08s.01.04-.03.05c-.06.09-.14.18-.24.27v.71h-.11v-.61c-.11.09-.25.18-.4.26l-.08-.1Z"/>
      <path d="m67.79,116.25s.02.03-.01.05c-.06.22-.16.42-.3.6l-.12-.08c.15-.19.26-.4.31-.63l.13.06Zm.4-.12c.17.22.3.45.37.7l-.14.05c-.09-.28-.2-.5-.34-.66l.11-.08Zm.27-.03l-.08.06c-.05-.07-.11-.13-.16-.18l.07-.06c.05.05.11.11.17.18Zm.13-.09l-.07.06c-.06-.07-.12-.13-.17-.17l.07-.06s.1.09.17.16Z"/>
      <path d="m68.7,116.5v-.11h1.17v.11h-1.17Z"/>
      <path d="m70.47,116.25s.02.03-.01.05c-.06.22-.16.42-.3.6l-.12-.08c.15-.19.26-.4.31-.63l.13.06Zm.4-.12c.18.22.3.45.37.7l-.14.05c-.09-.28-.2-.5-.34-.66l.11-.08Zm.11-.02s-.04-.06-.04-.1.01-.08.04-.1.06-.04.1-.04.08.01.1.04.04.06.04.1-.01.08-.04.1-.06.04-.1.04-.08-.01-.1-.04Zm.17-.04s.03-.04.03-.07,0-.05-.03-.07-.04-.03-.07-.03-.05,0-.07.03-.03.04-.03.07,0,.05.03.07.04.03.07.03.05,0,.07-.03Z"/>
      <path d="m72.56,116.34c-.19.39-.5.59-.93.61-.02.05-.04.05-.05.01l-.04-.14c.45-.01.76-.2.92-.56l.11.08Zm-1.01-.22l.09-.11c.07.05.17.12.28.23l-.1.1c-.09-.09-.18-.16-.27-.22Z"/>
      <path d="m73.06,117.02l-.09-.1c.33-.14.53-.37.6-.7h-.41c-.08.13-.16.23-.24.31l-.1-.07c.18-.16.29-.35.34-.56l.12.04s.02.02-.01.03c-.01.04-.03.09-.06.13h.37l.05-.03.09.09s.02.04-.02.05c-.06.37-.28.63-.64.79Z"/>
    </g>
    <rect class="cls-2" x="65.34" y="125.61" width="7.89" height="1.23"/>
  </g>
  <g id="future">
    <path class="cls-2" d="m126.88,107.65h-5.85v.95h5.21v.62h-5.21v1.57h-.62v-3.76h6.47v.62Z"/>
    <path class="cls-2" d="m128.07,110.15h5.21v-3.14h.63v3.78s0,0,0,0h-6.48v-3.78h.63v3.14Z"/>
    <path class="cls-2" d="m140.94,107.65h-5.84v2.51h5.84v.62h-6.47v-4.96h.63v1.2h5.84v.62Z"/>
    <path class="cls-2" d="m142.13,110.15h5.21v-3.14h.63v3.78s0,0,0,0h-6.48v-3.78h.63v3.14Z"/>
    <path class="cls-2" d="m149.16,107.65v3.14h-.62v-3.76h6.47v.62h-5.85Z"/>
    <path class="cls-2" d="m155.56,110.78v-3.74h6.47v2.06h-5.83v1.05h5.83v.62h-6.47Zm.64-3.12v.81h5.2v-.81h-5.2Z"/>
  </g>
</svg>