<?xml version="1.0" encoding="UTF-8"?>
<svg id="Layer_1" data-name="Layer 1" xmlns="http://www.w3.org/2000/svg" xmlns:xlink="http://www.w3.org/1999/xlink" viewBox="0 0 819 140">
  <defs>
    <style>
      .cls-1 {
        mask: url(#mask);
      }

      .cls-2 {
        filter: url(#luminosity-noclip);
      }

      .cls-3 {
        fill: #fff;
      }

      .cls-4 {
        fill: url(#_ÂÁ_Ï_ÌÌ_È_ËÂÌÚ_16);
        mix-blend-mode: multiply;
      }

      .cls-5 {
        opacity: .15;
      }

      .cls-6 {
        opacity: .35;
      }

      .cls-7 {
        mask: url(#mask-1);
      }
    </style>
    <filter id="luminosity-noclip" x="23.55" y="75.19" width="48.32" height="48.32" color-interpolation-filters="sRGB" filterUnits="userSpaceOnUse">
      <feFlood flood-color="#fff" result="bg"/>
      <feBlend in="SourceGraphic" in2="bg"/>
    </filter>
    <filter id="luminosity-noclip-2" x="23.55" y="-8732" width="48.32" height="32766" color-interpolation-filters="sRGB" filterUnits="userSpaceOnUse">
      <feFlood flood-color="#fff" result="bg"/>
      <feBlend in="SourceGraphic" in2="bg"/>
    </filter>
    <mask id="mask-1" x="23.55" y="-8732" width="48.32" height="32766" maskUnits="userSpaceOnUse"/>
    <linearGradient id="_ÂÁ_Ï_ÌÌ_È_ËÂÌÚ_16" data-name="¡ÂÁ˚ÏˇÌÌ˚È „‡‰ËÂÌÚ 16" x1="66.31" y1="114.75" x2="29.19" y2="84.02" gradientUnits="userSpaceOnUse">
      <stop offset="0" stop-color="#fff"/>
      <stop offset=".53" stop-color="#fff"/>
      <stop offset=".53" stop-color="#f7f7f7"/>
      <stop offset=".53" stop-color="#e2e2e2"/>
      <stop offset=".54" stop-color="#bfbfbf"/>
      <stop offset=".54" stop-color="#8f8f8f"/>
      <stop offset=".55" stop-color="#525252"/>
      <stop offset=".55" stop-color="#080808"/>
      <stop offset=".55" stop-color="#000"/>
      <stop offset=".99" stop-color="#000"/>
    </linearGradient>
    <mask id="mask" x="23.55" y="75.19" width="48.32" height="48.32" maskUnits="userSpaceOnUse">
      <g class="cls-2">
        <g class="cls-7">
          <path class="cls-4" d="m47.71,123.51c-13.32,0-24.16-10.84-24.16-24.16s10.84-24.16,24.16-24.16,24.16,10.84,24.16,24.16-10.84,24.16-24.16,24.16Zm0-47.35c-12.79,0-23.19,10.41-23.19,23.2s10.41,23.19,23.19,23.19,23.19-10.41,23.19-23.19-10.41-23.2-23.19-23.2Z"/>
        </g>
      </g>
    </mask>
  </defs>
  <g>
    <polygon class="cls-3" points="260.75 29.84 254.4 29.84 254.4 28.86 260.34 28.86 272.63 16.57 275.91 16.57 275.91 20.24 274.94 20.24 274.94 17.55 273.03 17.55 260.75 29.84"/>
    <polygon class="cls-3" points="271.51 29.84 265.16 29.84 265.16 28.86 271.1 28.86 283.38 16.57 286.67 16.57 286.67 20.24 285.69 20.24 285.69 17.55 283.79 17.55 271.51 29.84"/>
    <polygon class="cls-3" points="282.26 29.84 275.91 29.84 275.91 28.86 281.86 28.86 294.14 16.57 297.42 16.57 297.42 20.24 296.45 20.24 296.45 17.55 294.54 17.55 282.26 29.84"/>
    <polygon class="cls-3" points="293.01 29.84 286.67 29.84 286.67 28.86 292.61 28.86 304.9 16.57 308.18 16.57 308.18 20.24 307.2 20.24 307.2 17.55 305.3 17.55 293.01 29.84"/>
    <polygon class="cls-3" points="303.77 29.84 297.42 29.84 297.42 28.86 303.37 28.86 315.65 16.57 318.93 16.57 318.93 20.24 317.96 20.24 317.96 17.55 316.05 17.55 303.77 29.84"/>
  </g>
  <g>
    <g class="cls-5">
      <rect class="cls-3" x="36.73" y="88.37" width="21.97" height="21.96"/>
    </g>
    <g class="cls-6">
      <rect class="cls-3" x="42.32" y="93.96" width="10.78" height="10.78"/>
    </g>
    <g class="cls-6">
      <path class="cls-3" d="m47.71,129.21c-16.47,0-29.86-13.4-29.86-29.86s13.4-29.86,29.86-29.86,29.86,13.4,29.86,29.86-13.4,29.86-29.86,29.86Zm0-53.6c-13.09,0-23.73,10.65-23.73,23.74s10.65,23.73,23.73,23.73,23.73-10.65,23.73-23.73-10.65-23.74-23.73-23.74Z"/>
    </g>
    <g>
      <path class="cls-3" d="m19.32,99.21h-3.44c0-5.16,1.26-10.29,3.66-14.83,1.59-3.02,3.65-5.74,6.1-8.11,1.65-1.58,3.47-3,5.41-4.19l1.8,2.93c-1.73,1.07-3.36,2.32-4.83,3.74-2.19,2.12-4.03,4.55-5.45,7.24-2.13,4.04-3.26,8.61-3.26,13.22Z"/>
      <path class="cls-3" d="m31.3,126.5c-4.08-2.46-7.62-5.87-10.24-9.85l2.88-1.89c2.33,3.56,5.49,6.6,9.13,8.79l-1.78,2.95Z"/>
      <path class="cls-3" d="m62.18,127.58l-1.57-3.06c3.59-1.84,6.82-4.48,9.34-7.65,4.03-5.07,6.16-11.17,6.16-17.66,0-5.64-1.65-11.09-4.77-15.76l2.86-1.91c3.5,5.24,5.35,11.34,5.35,17.67,0,7.27-2.39,14.12-6.9,19.8-2.82,3.55-6.44,6.51-10.46,8.57Z"/>
      <path class="cls-3" d="m61.37,74.31c-4.16-2.29-8.88-3.5-13.66-3.5v-3.44c5.36,0,10.66,1.36,15.32,3.92l-1.66,3.02Z"/>
    </g>
    <g class="cls-1">
      <path class="cls-3" d="m47.71,123.51c-13.32,0-24.16-10.84-24.16-24.16s10.84-24.16,24.16-24.16,24.16,10.84,24.16,24.16-10.84,24.16-24.16,24.16Zm0-47.35c-12.79,0-23.19,10.41-23.19,23.2s10.41,23.19,23.19,23.19,23.19-10.41,23.19-23.19-10.41-23.2-23.19-23.2Z"/>
    </g>
  </g>
  <g>
    <g>
      <g class="cls-6">
        <path class="cls-3" d="m511.74,37.24h0c-2.77,0-5.01-2.24-5.01-5.01h0c0-2.76,2.24-5.01,5.01-5.01h0c2.77,0,5.01,2.24,5.01,5.01h0c0,2.77-2.24,5.01-5.01,5.01Z"/>
      </g>
      <rect class="cls-3" x="509.82" y="30.32" width="3.83" height="3.83"/>
      <rect class="cls-3" x="505.1" y="25.6" width="1.04" height="1.04"/>
      <rect class="cls-3" x="517.33" y="25.6" width="1.04" height="1.04"/>
      <rect class="cls-3" x="505.1" y="37.82" width="1.04" height="1.04"/>
      <rect class="cls-3" x="517.33" y="37.82" width="1.04" height="1.04"/>
      <path class="cls-3" d="m517.93,38.42h-12.39v-12.39h12.39v12.39Zm-12.23-.16h12.06v-12.06h-12.06v12.06Z"/>
      <g class="cls-6">
        <rect class="cls-3" x="504.73" y="32.15" width="14.01" height=".16" transform="translate(127.09 371.29) rotate(-45)"/>
      </g>
      <g class="cls-6">
        <rect class="cls-3" x="511.66" y="25.22" width=".16" height="14.01" transform="translate(127.09 371.29) rotate(-45)"/>
      </g>
    </g>
    <g class="cls-6">
      <path class="cls-3" d="m510.67,36.62c-.81-.2-1.54-.6-2.12-1.19-.54-.54-.94-1.21-1.15-1.94-.22-.76-.24-1.56-.05-2.33.15-.61.42-1.18.8-1.68l.92.71c-.28.37-.48.79-.6,1.25-.28,1.15.06,2.33.89,3.17.43.43.98.74,1.58.88,1.8.44,3.62-.67,4.05-2.47.21-.87.07-1.77-.4-2.54l.99-.6c.63,1.03.82,2.24.53,3.41-.29,1.17-1.01,2.16-2.04,2.79-1.03.63-2.24.82-3.42.53Z"/>
      <path class="cls-3" d="m509.63,29.61l-.72-.9c.53-.43,1.15-.73,1.81-.88.69-.16,1.39-.16,2.08,0l-.27,1.13c-1.02-.25-2.08-.01-2.9.65Z"/>
    </g>
  </g>
  <polygon class="cls-3" points="187.61 101.3 46.93 101.3 46.93 98.8 186.57 98.8 254.4 30.98 512.38 30.98 512.38 33.48 255.43 33.48 187.61 101.3"/>
  <g>
    <g>
      <rect class="cls-3" x="761.96" y="39.17" width="1.29" height="22.56" transform="translate(258.05 -523.6) rotate(44.9)"/>
      <rect class="cls-3" x="767.72" y="39.17" width="1.29" height="22.56" transform="translate(259.73 -527.67) rotate(44.9)"/>
      <rect class="cls-3" x="773.49" y="39.17" width="1.29" height="22.56" transform="translate(261.41 -531.74) rotate(44.9)"/>
      <rect class="cls-3" x="768.62" y="49.8" width="22.56" height="1.3" transform="translate(194.53 568.27) rotate(-45.2)"/>
      <polygon class="cls-3" points="777.24 57.97 778.15 58.88 794.11 42.93 793.19 42.02 777.24 57.97"/>
      <rect class="cls-3" x="790.79" y="39.17" width="1.29" height="22.56" transform="translate(266.46 -543.95) rotate(44.9)"/>
      <rect class="cls-3" x="796.56" y="39.17" width="1.29" height="22.56" transform="translate(268.14 -548.02) rotate(44.9)"/>
    </g>
    <g>
      <rect class="cls-3" x="581.31" y="38.37" width=".26" height="10.02"/>
      <rect class="cls-3" x="589.57" y="38.37" width=".26" height="10.02"/>
      <rect class="cls-3" x="597.83" y="38.37" width=".26" height="10.02"/>
      <rect class="cls-3" x="606.08" y="38.37" width=".26" height="10.02"/>
      <rect class="cls-3" x="614.34" y="38.37" width=".26" height="10.02"/>
      <rect class="cls-3" x="622.59" y="38.37" width=".26" height="10.02"/>
      <rect class="cls-3" x="630.86" y="38.37" width=".26" height="10.02"/>
      <rect class="cls-3" x="639.11" y="38.37" width=".26" height="10.02"/>
      <rect class="cls-3" x="647.37" y="38.37" width=".26" height="10.02"/>
    </g>
    <polygon class="cls-3" points="634.85 65.9 644.42 56.33 373.81 56.33 349.31 31.83 254.4 31.83 260.76 38.19 347.22 38.19 347.22 79.51 403.83 79.51 422.98 60.36 585.31 60.36 590.93 65.98 634.94 65.98 634.85 65.9"/>
    <polygon class="cls-3" points="580.11 52.24 665.23 52.24 676.88 40.59 808 40.59 803.83 44.75 755.14 44.75 748.68 44.75 686.67 44.75 669.81 61.61 655.45 61.61 647.9 54.06 580.11 54.06 580.11 52.24"/>
  </g>
  <polygon class="cls-3" points="89.07 99.21 94.04 94.25 124.97 94.25 129.98 99.25 89.07 99.21"/>
  <polygon class="cls-3" points="234.07 53.07 234.07 63.18 194.91 102.37 175.06 102.37 172.73 100.05 187.09 100.05 234.07 53.07"/>
</svg>