<?xml version="1.0" encoding="UTF-8"?>
<svg xmlns="http://www.w3.org/2000/svg" viewBox="0 0 781.32 385.99">
  <defs>
    <style>
      .cls-1 {
        opacity: .05;
      }

      .cls-2 {
        fill: #fff;
      }

      .cls-3 {
        opacity: .15;
      }

      .cls-4 {
        opacity: .2;
      }

      .cls-5 {
        opacity: .35;
      }

      .cls-6 {
        opacity: .5;
      }

      .cls-7 {
        opacity: .8;
      }

      .cls-8 {
        isolation: isolate;
      }
    </style>
  </defs>
  <g class="cls-8">
    <g id="Layer_1" data-name="Layer 1">
      <g>
        <g>
          <g>
            <g>
              <polygon class="cls-2" points="49.51 136.3 34.39 123.54 34.39 77.11 74.31 43.44 256.79 43.44 270.91 31.53 316.2 31.53 316.2 32.13 271.21 32.13 257.09 44.04 74.61 44.04 35.1 77.36 35.1 123.29 50.02 135.87 49.51 136.3"/>
              <polygon class="cls-2" points="263.92 38.15 257.48 38.15 251.46 33.07 177.72 33.07 177.72 32.47 251.75 32.47 257.77 37.54 263.92 37.54 263.92 38.15"/>
              <polygon class="cls-2" points="53.94 218.47 53.23 218.47 53.23 191.43 43.21 182.98 43.21 150.02 29.51 138.47 30.02 138.04 43.93 149.77 43.93 182.73 53.94 191.18 53.94 218.47"/>
              <polygon class="cls-2" points="191.48 337.9 170.59 320.28 58.18 320.28 37.26 302.65 37.26 231.63 46.4 223.92 46.4 194.95 47.12 194.95 47.12 224.17 37.98 231.88 37.98 302.4 58.47 319.68 170.88 319.68 191.99 337.48 191.48 337.9"/>
            </g>
            <g>
              <rect class="cls-2" x="176.25" y="31.53" width="2.94" height="2.48"/>
              <rect class="cls-2" x="48.13" y="135.06" width="2.94" height="2.48"/>
              <rect class="cls-2" x="52.12" y="217.23" width="2.94" height="2.48"/>
              <rect class="cls-2" x="45.22" y="193.71" width="2.94" height="2.48"/>
            </g>
          </g>
          <rect class="cls-2" x="185.66" y="31.95" width="14.33" height="1.64"/>
          <rect class="cls-2" x="213.66" y="42.89" width="14.34" height="1.64"/>
          <rect class="cls-2" x="182.22" y="42.89" width="14.33" height="1.64"/>
          <rect class="cls-2" x="31.65" y="253.52" width="12.09" height="1.94" transform="translate(292.18 216.79) rotate(90)"/>
          <rect class="cls-2" x="31.65" y="278.64" width="12.09" height="1.94" transform="translate(317.31 241.91) rotate(90)"/>
          <rect class="cls-2" x="21.52" y="95.99" width="26.45" height="1.94" transform="translate(131.71 62.22) rotate(90)"/>
          <rect class="cls-2" x="96.44" y="42.89" width="68.66" height="1.64"/>
        </g>
        <g>
          <g>
            <g>
              <polygon class="cls-2" points="729.43 136.3 744.55 123.54 744.55 77.11 704.63 43.44 522.15 43.44 508.03 31.53 462.74 31.53 462.74 32.13 507.73 32.13 521.85 44.04 704.33 44.04 743.83 77.36 743.83 123.29 728.92 135.87 729.43 136.3"/>
              <polygon class="cls-2" points="515.01 38.15 521.46 38.15 527.48 33.07 601.22 33.07 601.22 32.47 527.19 32.47 521.17 37.54 515.01 37.54 515.01 38.15"/>
              <polygon class="cls-2" points="724.99 218.47 725.71 218.47 725.71 191.43 735.73 182.98 735.73 150.02 749.42 138.47 748.92 138.04 735.01 149.77 735.01 182.73 724.99 191.18 724.99 218.47"/>
              <polygon class="cls-2" points="587.46 337.9 608.35 320.28 720.76 320.28 741.68 302.65 741.68 231.63 732.54 223.92 732.54 194.95 731.82 194.95 731.82 224.17 740.96 231.88 740.96 302.4 720.47 319.68 608.05 319.68 586.95 337.48 587.46 337.9"/>
            </g>
            <g>
              <rect class="cls-2" x="599.74" y="31.53" width="2.95" height="2.48" transform="translate(1202.44 65.53) rotate(180)"/>
              <rect class="cls-2" x="727.88" y="135.06" width="2.94" height="2.48" transform="translate(1458.69 272.59) rotate(180)"/>
              <rect class="cls-2" x="723.88" y="217.23" width="2.94" height="2.48" transform="translate(1450.71 436.93) rotate(180)"/>
              <rect class="cls-2" x="730.78" y="193.71" width="2.94" height="2.48" transform="translate(1464.5 389.9) rotate(180)"/>
            </g>
          </g>
          <rect class="cls-2" x="578.94" y="31.95" width="14.34" height="1.64" transform="translate(1172.22 65.53) rotate(180)"/>
          <rect class="cls-2" x="550.95" y="42.89" width="14.33" height="1.64" transform="translate(1116.24 87.42) rotate(180)"/>
          <rect class="cls-2" x="582.39" y="42.89" width="14.34" height="1.64" transform="translate(1179.11 87.42) rotate(180)"/>
          <rect class="cls-2" x="735.2" y="253.52" width="12.09" height="1.94" transform="translate(995.73 -486.76) rotate(90)"/>
          <rect class="cls-2" x="735.2" y="278.64" width="12.09" height="1.94" transform="translate(1020.85 -461.63) rotate(90)"/>
          <rect class="cls-2" x="730.97" y="95.99" width="26.45" height="1.94" transform="translate(841.16 -647.23) rotate(90)"/>
          <rect class="cls-2" x="613.83" y="42.89" width="68.67" height="1.64" transform="translate(1296.33 87.42) rotate(180)"/>
        </g>
        <g>
          <g>
            <path class="cls-2" d="m753.98,222.78v-43.71s-.01-42.26-.01-42.26l11.52-9.72v-56.44l-51.9-43.77-9.09,7.67h-71.55l-14.55-12.27H161.25l-.36.32-1.04.91-12.58,11.05h-71.53l-9.09-7.67-45.02,37.97-6.88,5.8v56.44l11.52,9.72v63.47s0,22.49,0,22.49l-13.78,11.62v13.25l.03-.02,13.71-11.56v52.7l-13.73,11.59v13.88l51.49,43.42v-13.59h176.33l30.84,26.01h237.95l30.84-26.01h176.33v13.59l51.28-43.25v-14.23l-13.53-11.41v-52.7l13.85,11.68.11-13.16-14.01-11.81Zm11.03,19.08l-12.93-10.91-.93-.79-.03-.02v59.65l13.52,11.41v12.2l-45.46,38.34v-10.12h-180.44l-30.84,26.01h-235.54l-1.19-1-29.65-25.01H61.06v10.12l-45.67-38.52v-11.85l13.73-11.58v-59.65l-13.73,11.59v-6.31l13.49-11.38.29-.25v-82.14s0-5.85,0-5.85l-11.52-9.72v-54.41l48.99-41.32,7.88,6.65h73.98l13.99-12.27h454.7l14.55,12.27h73.96l7.88-6.65,48.99,41.32v54.41l-11.52,9.72v78.5s.01,9.49.01,9.49l1.01.85,12.99,10.95-.06,6.25v.02Z"/>
            <polygon class="cls-2" points="28.88 224.05 28.88 230.35 15.39 241.73 15.39 235.42 28.88 224.05"/>
          </g>
          <g>
            <rect class="cls-2" x="67.27" y="346.62" width="8.92" height="7.53"/>
            <g class="cls-7">
              <rect class="cls-2" x="80.83" y="346.62" width="8.92" height="7.53"/>
            </g>
            <g class="cls-6">
              <rect class="cls-2" x="94.41" y="346.62" width="8.92" height="7.53"/>
            </g>
            <g class="cls-5">
              <rect class="cls-2" x="107.98" y="346.62" width="8.93" height="7.53"/>
            </g>
            <g class="cls-4">
              <rect class="cls-2" x="121.56" y="346.62" width="8.92" height="7.53"/>
            </g>
            <g class="cls-3">
              <rect class="cls-2" x="135.13" y="346.62" width="8.92" height="7.53"/>
            </g>
            <g class="cls-1">
              <rect class="cls-2" x="148.7" y="346.62" width="8.92" height="7.53"/>
            </g>
          </g>
          <g>
            <rect class="cls-2" x="704.31" y="346.62" width="8.92" height="7.53" transform="translate(1417.53 700.77) rotate(180)"/>
            <g class="cls-7">
              <rect class="cls-2" x="690.73" y="346.62" width="8.92" height="7.53" transform="translate(1390.39 700.77) rotate(180)"/>
            </g>
            <g class="cls-6">
              <rect class="cls-2" x="677.16" y="346.62" width="8.93" height="7.53" transform="translate(1363.24 700.77) rotate(180)"/>
            </g>
            <g class="cls-5">
              <rect class="cls-2" x="663.59" y="346.62" width="8.92" height="7.53" transform="translate(1336.1 700.77) rotate(180)"/>
            </g>
            <g class="cls-4">
              <rect class="cls-2" x="650.01" y="346.62" width="8.92" height="7.53" transform="translate(1308.95 700.77) rotate(180)"/>
            </g>
            <g class="cls-3">
              <rect class="cls-2" x="636.44" y="346.62" width="8.92" height="7.53" transform="translate(1281.81 700.77) rotate(180)"/>
            </g>
            <g class="cls-1">
              <rect class="cls-2" x="622.87" y="346.62" width="8.92" height="7.53" transform="translate(1254.66 700.77) rotate(180)"/>
            </g>
          </g>
          <polygon class="cls-2" points="473.98 23.44 303.74 23.44 316.48 34.18 463.8 34.18 476.5 23.47 473.98 23.44"/>
          <polygon class="cls-2" points="331.62 23.47 450.38 23.47 441.49 15.98 338.73 15.98 329.87 23.45 331.62 23.47"/>
          <g>
            <polygon class="cls-2" points="29.15 230.57 12.51 244.6 12.51 251.56 28.73 237.89 29.15 230.57"/>
            <polygon class="cls-2" points="29.15 241.57 12.51 255.6 12.51 262.57 28.73 248.89 29.15 241.57"/>
            <polygon class="cls-2" points="29.15 252.57 12.51 266.6 12.51 273.57 28.73 259.89 29.15 252.57"/>
            <polygon class="cls-2" points="29.15 263.58 12.51 277.6 12.51 284.57 28.73 270.89 29.15 263.58"/>
            <polygon class="cls-2" points="29.15 274.57 12.51 288.61 12.51 295.57 28.73 281.89 29.15 274.57"/>
          </g>
          <g>
            <g>
              <polygon class="cls-2" points="765.07 235.6 765.01 241.85 752.08 230.94 752.08 224.65 765.07 235.6"/>
              <polygon class="cls-2" points="767.77 244.18 767.77 251.14 754.02 239.54 751.56 237.46 751.15 230.17 751.15 230.15 752.08 230.94 765.01 241.85 767.77 244.18"/>
            </g>
            <polygon class="cls-2" points="751.14 241.15 767.78 255.18 767.78 262.15 751.56 248.47 751.14 241.15"/>
            <polygon class="cls-2" points="751.14 252.15 767.78 266.18 767.78 273.14 751.56 259.47 751.14 252.15"/>
            <polygon class="cls-2" points="751.14 263.15 767.78 277.18 767.78 284.15 751.56 270.47 751.14 263.15"/>
            <polygon class="cls-2" points="751.14 274.15 767.78 288.18 767.78 295.15 751.56 281.47 751.14 274.15"/>
          </g>
          <g>
            <polygon class="cls-2" points="27.72 140.42 37.7 148.84 37.7 209.96 27.61 218.47 27.72 140.42"/>
            <polygon class="cls-2" points="26.78 200.73 21.34 196.14 21.34 162.8 26.84 158.17 26.78 200.73"/>
          </g>
          <g>
            <polygon class="cls-2" points="752.05 218.47 742.07 210.05 742.07 148.93 752.16 140.42 752.05 218.47"/>
            <polygon class="cls-2" points="752.99 158.17 758.43 162.76 758.43 196.09 752.94 200.73 752.99 158.17"/>
          </g>
          <polygon class="cls-2" points="159.81 23.52 168.8 15.92 228.81 15.92 237.14 22.96 159.81 23.52"/>
          <polygon class="cls-2" points="619.04 22.85 610.05 15.26 550.04 15.26 541.71 22.29 619.04 22.85"/>
          <polygon class="cls-2" points="632.35 35.79 636.09 32.63 703.76 32.63 714.54 23.54 758.21 60.36 758.21 66.68 713.33 28.84 705.1 35.79 632.35 35.79"/>
          <polygon class="cls-2" points="147.48 34.81 143.74 31.66 76.06 31.66 65.28 22.56 21.62 59.38 21.62 65.7 66.49 27.86 74.73 34.81 147.48 34.81"/>
          <polygon class="cls-2" points="29.74 142.13 11.79 127 11.79 87.66 15.94 84.17 15.94 126.59 29.77 138.26 29.74 142.13"/>
          <polygon class="cls-2" points="751.06 143.16 769 128.02 769 88.68 764.86 85.19 764.86 127.62 751.03 139.28 751.06 143.16"/>
          <polygon class="cls-2" points="709.56 335.97 556.92 335.97 550.5 330.56 535.09 330.56 502.62 357.95 450.03 357.95 441.41 365.21 338.64 365.21 330.02 357.95 277.2 357.95 244.93 330.73 229.52 330.73 223.11 336.14 70.47 336.14 62.52 342.84 241.17 342.62 271.41 368.12 271.75 370.05 492.96 370.05 495.11 368.24 508.28 368.24 538.85 342.46 717.51 342.68 709.56 335.97"/>
          <polygon class="cls-2" points="766.17 300.69 766.17 313.84 764.64 312.55 747.11 297.77 747.11 214.31 752.08 214.31 752.08 288.8 766.17 300.69"/>
          <polygon class="cls-2" points="33.84 213.3 33.84 296.77 14.78 312.84 14.78 299.68 28.88 287.8 28.88 213.3 33.84 213.3"/>
        </g>
        <g>
          <polygon class="cls-2" points="359.65 351.45 355.3 355.12 355.3 353.64 357.9 351.45 359.65 351.45"/>
          <polygon class="cls-2" points="366.5 351.45 355.3 360.9 355.3 359.42 364.75 351.45 366.5 351.45"/>
          <polygon class="cls-2" points="373.35 351.45 360.51 362.28 358.76 362.28 371.6 351.45 373.35 351.45"/>
          <polygon class="cls-2" points="380.2 351.45 367.37 362.28 365.61 362.28 378.45 351.45 380.2 351.45"/>
          <polygon class="cls-2" points="387.05 351.45 374.22 362.28 372.46 362.28 385.3 351.45 387.05 351.45"/>
          <polygon class="cls-2" points="393.9 351.45 381.07 362.28 379.31 362.28 392.15 351.45 393.9 351.45"/>
          <polygon class="cls-2" points="400.76 351.45 387.91 362.28 386.17 362.28 399 351.45 400.76 351.45"/>
          <polygon class="cls-2" points="407.6 351.45 394.77 362.28 393.01 362.28 405.85 351.45 407.6 351.45"/>
          <polygon class="cls-2" points="414.46 351.45 401.62 362.28 399.87 362.28 412.7 351.45 414.46 351.45"/>
          <polygon class="cls-2" points="421.31 351.45 408.47 362.28 406.72 362.28 419.55 351.45 421.31 351.45"/>
          <polygon class="cls-2" points="425.5 352.22 425.5 353.7 415.32 362.28 413.57 362.28 425.5 352.22"/>
          <polygon class="cls-2" points="420.42 362.28 425.5 358 425.5 359.47 422.17 362.28 420.42 362.28"/>
        </g>
        <g id="lines_2" data-name="lines 2">
          <polygon class="cls-2" points="374.66 39.94 350 58.02 368.99 58.06 393.65 39.98 374.66 39.94"/>
          <polygon class="cls-2" points="410.03 40.01 385.37 58.09 404.36 58.13 429.02 40.05 410.03 40.01"/>
          <polygon class="cls-2" points="445.4 40.08 420.74 58.15 439.73 58.19 464.38 40.11 445.4 40.08"/>
          <polygon class="cls-2" points="339.29 39.87 314.64 57.96 333.62 57.99 358.28 39.91 339.29 39.87"/>
          <polygon class="cls-2" points="303.92 39.8 279.26 57.88 298.25 57.92 322.91 39.84 303.92 39.8"/>
          <polygon class="cls-2" points="505.7 47.86 491.47 58.3 505.67 58.32 505.7 47.86"/>
          <polygon class="cls-2" points="275.13 39.75 275.1 48.88 287.53 39.77 275.13 39.75"/>
          <polygon class="cls-2" points="480.77 40.14 456.11 58.23 475.1 58.26 499.76 40.18 480.77 40.14"/>
        </g>
        <g id="lines_2-2" data-name="lines 2">
          <polygon class="cls-2" points="374.49 328.81 349.84 346.89 368.83 346.93 393.48 328.85 374.49 328.81"/>
          <polygon class="cls-2" points="409.86 328.88 385.2 346.96 404.19 347 428.85 328.91 409.86 328.88"/>
          <polygon class="cls-2" points="445.23 328.95 420.57 347.03 439.56 347.07 464.22 328.98 445.23 328.95"/>
          <polygon class="cls-2" points="339.12 328.75 314.47 346.82 333.45 346.86 358.11 328.78 339.12 328.75"/>
          <polygon class="cls-2" points="303.76 328.68 279.1 346.76 298.09 346.79 322.74 328.71 303.76 328.68"/>
          <polygon class="cls-2" points="505.53 336.73 491.3 347.16 505.5 347.19 505.53 336.73"/>
          <polygon class="cls-2" points="274.96 328.62 274.94 337.76 287.36 328.64 274.96 328.62"/>
          <polygon class="cls-2" points="480.6 329.02 455.94 347.09 474.93 347.13 499.59 329.05 480.6 329.02"/>
        </g>
      </g>
    </g>
  </g>
</svg>