<?xml version="1.0" encoding="UTF-8"?>
<svg id="Layer_1" data-name="Layer 1" xmlns="http://www.w3.org/2000/svg" viewBox="0 0 914 296">
  <defs>
    <style>
      .cls-1 {
        fill: #fff;
      }

      .cls-2 {
        opacity: .2;
      }

      .cls-3 {
        opacity: .35;
      }

      .cls-4 {
        opacity: .55;
      }
    </style>
  </defs>
  <g>
    <g>
      <g class="cls-3">
        <path class="cls-1" d="m38.12,242.39c0,6.77-5.59,12.29-12.46,12.29s-12.46-5.52-12.46-12.29,5.59-12.29,12.46-12.29,12.46,5.51,12.46,12.29Zm-22.81,0c0,5.63,4.64,10.21,10.35,10.21s10.35-4.58,10.35-10.21-4.64-10.21-10.35-10.21-10.35,4.58-10.35,10.21Z"/>
      </g>
      <path class="cls-1" d="m45.13,242.39c0,10.59-8.74,19.2-19.47,19.2v-2.06c9.58,0,17.38-7.69,17.38-17.14h2.09Z"/>
      <path class="cls-1" d="m29.44,223.55l-.41,2.02c-1.1-.21-2.24-.32-3.38-.32-9.58,0-17.38,7.69-17.38,17.14,0,3.2.9,6.31,2.6,9.02,1.15,1.83,2.63,3.42,4.38,4.71l-1.25,1.65c-1.97-1.45-3.61-3.23-4.91-5.28-1.9-3.03-2.91-6.52-2.91-10.11,0-10.59,8.74-19.2,19.47-19.2,1.27,0,2.54.12,3.78.36Z"/>
      <path class="cls-1" d="m6.97,242.39c0,10.16,8.39,18.43,18.69,18.43s18.69-8.27,18.69-18.43-8.38-18.43-18.69-18.43-18.69,8.27-18.69,18.43Zm36.85,0c0,9.88-8.15,17.91-18.16,17.91s-18.16-8.04-18.16-17.91,8.15-17.91,18.16-17.91,18.16,8.03,18.16,17.91Z"/>
      <path class="cls-1" d="m33.31,253.51c-2.26,1.51-4.9,2.32-7.65,2.32-7.51,0-13.62-6.03-13.62-13.43h1.57c0,6.55,5.41,11.89,12.05,11.89,2.43,0,4.77-.71,6.77-2.05l.88,1.28Z"/>
      <path class="cls-1" d="m39.28,242.39h-1.57c0-2.82-1.02-5.55-2.87-7.69l1.2-1c2.09,2.43,3.24,5.51,3.24,8.7Z"/>
      <path class="cls-1" d="m23.02,230.79c-2.12.47-4.07,1.5-5.65,2.97-.58.54-1.1,1.14-1.56,1.79l-1.28-.89c.52-.73,1.11-1.4,1.77-2.02,1.79-1.67,3.99-2.84,6.39-3.36l.34,1.51Z"/>
      <g class="cls-4">
        <path class="cls-1" d="m37.3,242.39c0,6.33-5.22,11.48-11.64,11.48s-11.64-5.15-11.64-11.48,5.22-11.48,11.64-11.48,11.64,5.15,11.64,11.48Zm-22.81,0c0,6.07,5.01,11.02,11.17,11.02s11.17-4.95,11.17-11.02-5.01-11.02-11.17-11.02-11.17,4.94-11.17,11.02Z"/>
      </g>
      <rect class="cls-1" x="22.74" y="239.42" width="5.84" height="5.93" transform="translate(-216.73 268.05) rotate(-90)"/>
    </g>
    <g>
      <rect class="cls-1" x="342.31" y="44.78" width="449.82" height="72.63"/>
      <g class="cls-3">
        <rect class="cls-1" x="351.88" y="53.22" width="449.82" height="72.63"/>
      </g>
      <g class="cls-3">
        <rect class="cls-1" x="361.45" y="61.66" width="449.82" height="72.63"/>
      </g>
      <rect class="cls-1" x="393.68" y="125.85" width="449.82" height="72.63"/>
      <g class="cls-3">
        <rect class="cls-1" x="403.24" y="134.3" width="449.82" height="72.63"/>
      </g>
      <g class="cls-3">
        <rect class="cls-1" x="412.82" y="142.74" width="449.82" height="72.63"/>
      </g>
      <rect class="cls-1" x="445.05" y="206.93" width="449.82" height="72.63"/>
      <g class="cls-3">
        <rect class="cls-1" x="454.61" y="215.37" width="449.82" height="72.63"/>
      </g>
      <g class="cls-3">
        <rect class="cls-1" x="464.18" y="223.81" width="449.82" height="72.63"/>
      </g>
    </g>
    <polygon class="cls-1" points="393.19 244.85 308.92 82.77 26.27 244.28 25.05 242.21 309.92 79.42 310.5 80.54 395.36 243.75 393.19 244.85"/>
    <rect class="cls-1" x="305.83" y="77.56" width="7.17" height="7.07"/>
    <rect class="cls-1" x="347.57" y="158.64" width="7.17" height="7.07"/>
    <rect class="cls-1" x="391.67" y="239.71" width="7.17" height="7.07"/>
  </g>
  <g>
    <path class="cls-1" d="m365.89,33.64h-2.69l-3.29-7.96h-11.82l-3.19,7.96h-2.58l10.29-24.97h2.53l10.76,24.97Zm-6.8-9.94l-5.25-12.57-5.01,12.57h10.26Z"/>
    <path class="cls-1" d="m389.92,25.78c-1.69,5.52-5.17,8.27-10.5,8.27-1.79,0-3.4-.26-4.77-.84-1.4-.54-2.58-1.38-3.56-2.47-.98-1.12-1.77-2.53-2.35-4.21-.58-1.69-.87-3.49-.87-5.36,0-3.8,1.05-6.89,3.17-9.34,2.11-2.39,4.93-3.61,8.47-3.61,2.37,0,4.43.6,6.12,1.77,1.71,1.17,3.03,3.02,3.95,5.54l-2.29.63c-1.4-3.98-3.96-5.98-7.62-5.98-2.85,0-5.12,1.04-6.78,3.12-1.68,2.08-2.53,4.73-2.53,7.91,0,3.59.85,6.32,2.53,8.17,1.69,1.82,3.83,2.76,6.41,2.76,4.25,0,7.04-2.31,8.44-6.92l2.19.57Z"/>
    <path class="cls-1" d="m410.2,10.85h-7.76v22.79h-2.43V10.85h-7.76v-2.18h17.94v2.18Z"/>
    <path class="cls-1" d="m417.32,33.64h-2.37V8.67h2.37v24.97Z"/>
    <path class="cls-1" d="m442.46,8.67l-9.44,24.97h-2.48l-9.29-24.97h2.58l7.97,22.42,8.28-22.42h2.37Z"/>
    <path class="cls-1" d="m462.5,33.64h-16.72V8.67h16.2v2.08h-13.79v9h12.76v2.03h-12.76v9.78h14.32v2.08Z"/>
    <path class="cls-1" d="m479.65,23.08v10.56h-2.4V8.67h8.78c2.58,0,4.59.6,6.01,1.84,1.45,1.25,2.16,3.02,2.16,5.28,0,1.04-.19,1.98-.53,2.86-.37.91-.9,1.69-1.53,2.36-.69.68-1.53,1.17-2.58,1.54-1.08.34-2.24.52-3.53.52h-6.38Zm0-12.28v10.19h5.72c4.22,0,6.33-1.69,6.33-5.1s-2.11-5.1-6.33-5.1h-5.72Z"/>
    <path class="cls-1" d="m518.07,33.64h-2.32v-12.12h-14.72v12.12h-2.37V8.67h2.37v10.77h14.72v-10.77h2.32v24.97Z"/>
    <path class="cls-1" d="m544.79,33.64h-2.69l-3.3-7.96h-11.81l-3.19,7.96h-2.58l10.28-24.97h2.53l10.76,24.97Zm-6.8-9.94l-5.25-12.57-5.01,12.57h10.26Z"/>
    <path class="cls-1" d="m546.43,26.12l2.4-.2c.18,2.05.87,3.59,2.09,4.63,1.21,1.04,2.79,1.59,4.74,1.59,1.45,0,2.66-.23,3.67-.65,1-.44,1.79-1.07,2.32-1.92.56-.83.84-1.74.84-2.68,0-2.52-2.21-4.16-6.65-4.97-3-.54-5.14-1.35-6.43-2.47-1.29-1.09-1.95-2.6-1.95-4.53,0-2.08.77-3.7,2.27-4.89,1.53-1.2,3.45-1.79,5.8-1.79,2.61,0,4.64.57,6.09,1.74,1.45,1.14,2.27,2.91,2.4,5.28l-2.35.1c-.29-3.46-2.27-5.18-5.96-5.18-1.72,0-3.12.41-4.25,1.2-1.11.83-1.69,1.92-1.69,3.33,0,2.37,2.03,3.95,6.06,4.76,3.01.6,5.22,1.43,6.7,2.52,1.48,1.09,2.22,2.66,2.22,4.74,0,1.09-.19,2.08-.58,2.96-.4.88-1.01,1.66-1.82,2.34-.82.65-1.77,1.17-2.88,1.51-1.08.36-2.32.52-3.64.52-5.78,0-8.91-2.63-9.41-7.94Z"/>
    <path class="cls-1" d="m586.36,33.64h-16.72V8.67h16.19v2.08h-13.79v9h12.77v2.03h-12.77v9.78h14.32v2.08Z"/>
  </g>
  <g>
    <rect class="cls-2" x="476.51" y="222.68" width="390.63" height="45.25"/>
    <g>
      <path class="cls-1" d="m830.83,232.12c5.68,0,8.53,4.4,8.53,13.21,0,4.44-.73,7.75-2.21,9.92-1.47,2.16-3.58,3.25-6.33,3.25-5.68,0-8.51-4.39-8.51-13.17,0-4.45.73-7.76,2.2-9.94,1.47-2.17,3.57-3.27,6.31-3.27Zm0,23.77c1.72,0,3.03-.82,3.91-2.47.89-1.65,1.32-4.35,1.32-8.09,0-2.61-.2-4.66-.58-6.16-.38-1.49-.97-2.62-1.75-3.34s-1.76-1.1-2.94-1.1c-1.72,0-3.03.84-3.89,2.52-.87,1.68-1.31,4.38-1.31,8.08,0,2.57.2,4.61.59,6.11.39,1.5.97,2.62,1.75,3.35.77.73,1.74,1.1,2.89,1.1Z"/>
      <path class="cls-1" d="m854.85,244.1c1.61.31,2.84,1.07,3.67,2.31.83,1.24,1.24,2.59,1.24,4.04,0,2.35-.86,4.28-2.6,5.78-1.73,1.51-3.8,2.26-6.22,2.26s-4.22-.66-5.71-1.99c-1.5-1.33-2.38-3.08-2.63-5.26l3.21-.44c.32,1.7.91,2.97,1.76,3.82.85.84,1.97,1.27,3.37,1.27,1.5,0,2.76-.52,3.81-1.56,1.04-1.04,1.56-2.3,1.56-3.81s-.47-2.64-1.42-3.59c-.95-.95-2.18-1.43-3.7-1.43-.62,0-1.37.12-2.27.34l.37-2.78c.86,0,1.54-.04,2.04-.13.5-.08,1.06-.28,1.68-.6.62-.32,1.14-.78,1.54-1.36.4-.59.61-1.33.61-2.21,0-1.28-.43-2.27-1.29-2.98-.87-.7-1.86-1.06-2.99-1.06-1.3,0-2.36.41-3.17,1.22-.81.81-1.33,1.96-1.54,3.47l-3.21-.58c.42-2.24,1.34-3.92,2.76-5.03,1.41-1.12,3.12-1.67,5.09-1.67,2.18,0,4,.65,5.45,1.95,1.46,1.29,2.19,2.89,2.19,4.76,0,2.4-1.2,4.14-3.59,5.2v.07Z"/>
    </g>
  </g>
  <g>
    <rect class="cls-2" x="423.27" y="139.51" width="390.63" height="45.25"/>
    <g>
      <path class="cls-1" d="m777.59,148.94c5.69,0,8.53,4.41,8.53,13.21,0,4.45-.73,7.76-2.2,9.92-1.47,2.17-3.58,3.25-6.33,3.25-5.67,0-8.52-4.39-8.52-13.17,0-4.45.73-7.76,2.21-9.94,1.47-2.17,3.57-3.27,6.31-3.27Zm0,23.77c1.72,0,3.03-.83,3.91-2.47.88-1.64,1.32-4.35,1.32-8.09,0-2.6-.2-4.66-.58-6.16-.39-1.49-.97-2.61-1.75-3.34-.78-.73-1.76-1.1-2.94-1.1-1.72,0-3.02.84-3.89,2.52-.87,1.68-1.31,4.38-1.31,8.08,0,2.57.2,4.6.59,6.11.39,1.51.97,2.62,1.75,3.35.78.73,1.74,1.1,2.89,1.1Z"/>
      <path class="cls-1" d="m806.22,174.88h-17.34c0-1.45.52-2.93,1.55-4.42,1.03-1.49,2.96-3.35,5.78-5.6,1.72-1.36,3.27-2.79,4.62-4.29,1.35-1.49,2.03-3,2.03-4.52,0-1.3-.46-2.37-1.4-3.23-.93-.85-2.11-1.28-3.54-1.28s-2.65.44-3.63,1.31c-.97.87-1.47,2.18-1.48,3.92l-3.3-.37c.21-2.42,1.07-4.26,2.62-5.54,1.54-1.27,3.5-1.92,5.86-1.92,2.57,0,4.57.71,6.01,2.1,1.44,1.4,2.15,3.1,2.15,5.08,0,1.66-.61,3.33-1.81,5.03-1.2,1.7-3.62,3.96-7.22,6.81-1.89,1.49-3.15,2.77-3.77,3.85h12.87v3.06Z"/>
    </g>
  </g>
  <g>
    <rect class="cls-2" x="381.48" y="58.47" width="390.63" height="45.25"/>
    <g>
      <path class="cls-1" d="m735.79,67.91c5.69,0,8.53,4.4,8.53,13.2,0,4.45-.73,7.76-2.21,9.92-1.47,2.16-3.58,3.24-6.33,3.24-5.68,0-8.51-4.39-8.51-13.17,0-4.44.73-7.76,2.2-9.94,1.47-2.17,3.57-3.26,6.31-3.26Zm0,23.77c1.72,0,3.03-.82,3.91-2.47.88-1.64,1.32-4.35,1.32-8.09,0-2.6-.2-4.65-.58-6.15-.39-1.49-.98-2.62-1.75-3.34-.78-.73-1.76-1.1-2.94-1.1-1.72,0-3.03.84-3.89,2.52-.87,1.68-1.31,4.37-1.31,8.08,0,2.57.2,4.61.59,6.11.39,1.51.97,2.62,1.75,3.35.78.73,1.74,1.1,2.89,1.1Z"/>
      <path class="cls-1" d="m759.68,93.84h-3.21v-20.19c-1.61,1.51-3.75,2.77-6.44,3.82v-3.06c3.71-1.75,6.22-3.92,7.57-6.5h2.09v25.93Z"/>
    </g>
  </g>
</svg>