<?xml version="1.0" encoding="UTF-8"?>
<svg id="Layer_1" data-name="Layer 1" xmlns="http://www.w3.org/2000/svg" viewBox="0 0 974 157">
  <defs>
    <style>
      .cls-1 {
        fill: #fff;
      }

      .cls-2 {
        opacity: .35;
      }
    </style>
  </defs>
  <g>
    <g class="cls-2">
      <rect class="cls-1" x="6.87" y="86.79" width="33.68" height="33.22"/>
    </g>
    <path class="cls-1" d="m37.71,117.21H9.7v-27.62h28.01v27.62Zm-27.4-.6h26.79v-26.41H10.32v26.41Z"/>
    <rect class="cls-1" x="18.07" y="97.84" width="11.27" height="11.12"/>
    <g>
      <polygon class="cls-1" points="2.33 88.02 .37 88.02 .37 80.35 8.16 80.35 8.16 82.28 2.33 82.28 2.33 88.02"/>
      <polygon class="cls-1" points="47.05 88.02 45.09 88.02 45.09 82.28 39.26 82.28 39.26 80.35 47.05 80.35 47.05 88.02"/>
      <polygon class="cls-1" points="47.05 126.45 39.26 126.45 39.26 124.52 45.09 124.52 45.09 118.77 47.05 118.77 47.05 126.45"/>
      <polygon class="cls-1" points="8.16 126.45 .37 126.45 .37 118.77 2.33 118.77 2.33 124.52 8.16 124.52 8.16 126.45"/>
    </g>
  </g>
  <polygon class="cls-1" points="974 157.18 945.48 157.18 945.48 154.52 971.3 154.52 971.3 90.6 753.02 90.6 733.1 70.96 402.52 70.96 402.52 11.7 325.77 11.7 303.16 34.01 95.9 34.01 47.01 82.22 45.1 80.34 94.78 31.34 302.04 31.34 324.66 9.04 405.22 9.04 405.22 68.3 734.22 68.3 754.14 87.94 974 87.94 974 157.18"/>
  <rect class="cls-1" x="412.98" y="9.04" width="320.68" height="51.49"/>
  <rect class="cls-1" x="644.55" y="96.93" width="320.68" height="51.49"/>
  <polygon class="cls-1" points="661.42 157.18 635.43 157.18 635.43 131.55 638.13 131.55 638.13 154.52 661.42 154.52 661.42 157.18"/>
  <polygon class="cls-1" points="742.89 25.19 740.19 25.19 740.19 2.22 716.89 2.22 716.89 -.45 742.89 -.45 742.89 25.19"/>
</svg>