<?xml version="1.0" encoding="UTF-8"?>
<svg id="Layer_1" data-name="Layer 1" xmlns="http://www.w3.org/2000/svg" xmlns:xlink="http://www.w3.org/1999/xlink" viewBox="0 0 617 379">
  <defs>
    <style>
      .cls-1, .cls-2 {
        fill: url(#_ÂÁ_Ï_ÌÌ_È_ËÂÌÚ_16);
      }

      .cls-3 {
        mask: url(#mask);
      }

      .cls-4 {
        filter: url(#luminosity-noclip);
      }

      .cls-5, .cls-6, .cls-7, .cls-8 {
        fill: #fff;
      }

      .cls-2 {
        mix-blend-mode: multiply;
      }

      .cls-6 {
        opacity: .15;
      }

      .cls-7 {
        opacity: .2;
      }

      .cls-9, .cls-8 {
        opacity: .35;
      }

      .cls-10 {
        mask: url(#mask-1);
      }
    </style>
    <filter id="luminosity-noclip" x="536.52" y="302.35" width="69.51" height="68.56" color-interpolation-filters="sRGB" filterUnits="userSpaceOnUse">
      <feFlood flood-color="#fff" result="bg"/>
      <feBlend in="SourceGraphic" in2="bg"/>
    </filter>
    <filter id="luminosity-noclip-2" x="536.52" y="-8732" width="69.51" height="32766" color-interpolation-filters="sRGB" filterUnits="userSpaceOnUse">
      <feFlood flood-color="#fff" result="bg"/>
      <feBlend in="SourceGraphic" in2="bg"/>
    </filter>
    <mask id="mask-1" x="536.52" y="-8732" width="69.51" height="32766" maskUnits="userSpaceOnUse"/>
    <linearGradient id="_ÂÁ_Ï_ÌÌ_È_ËÂÌÚ_16" data-name="¡ÂÁ˚ÏˇÌÌ˚È „‡‰ËÂÌÚ 16" x1="597.88" y1="358.66" x2="544.78" y2="314.7" gradientUnits="userSpaceOnUse">
      <stop offset="0" stop-color="#fff"/>
      <stop offset=".53" stop-color="#fff"/>
      <stop offset=".53" stop-color="#f7f7f7"/>
      <stop offset=".53" stop-color="#e2e2e2"/>
      <stop offset=".54" stop-color="#bfbfbf"/>
      <stop offset=".54" stop-color="#8f8f8f"/>
      <stop offset=".55" stop-color="#525252"/>
      <stop offset=".55" stop-color="#080808"/>
      <stop offset=".55" stop-color="#000"/>
      <stop offset=".99" stop-color="#000"/>
    </linearGradient>
    <mask id="mask" x="536.52" y="302.35" width="69.51" height="68.56" maskUnits="userSpaceOnUse">
      <g class="cls-4">
        <g class="cls-10">
          <path class="cls-2" d="m571.27,370.91c-19.16,0-34.75-15.38-34.75-34.28s15.59-34.28,34.75-34.28,34.75,15.38,34.75,34.28-15.59,34.28-34.75,34.28Zm0-67.19c-18.4,0-33.37,14.76-33.37,32.91s14.97,32.91,33.37,32.91,33.37-14.76,33.37-32.91-14.97-32.91-33.37-32.91Z"/>
        </g>
      </g>
    </mask>
  </defs>
  <g>
    <rect class="cls-6" x="555.47" y="321.05" width="31.6" height="31.16"/>
    <rect class="cls-8" x="563.52" y="328.98" width="15.51" height="15.29"/>
    <g class="cls-9">
      <path class="cls-5" d="m571.27,379c-23.69,0-42.96-19.01-42.96-42.37s19.27-42.37,42.96-42.37,42.96,19.01,42.96,42.37-19.27,42.37-42.96,42.37Zm0-76.05c-18.83,0-34.15,15.11-34.15,33.68s15.32,33.68,34.15,33.68,34.15-15.11,34.15-33.68-15.32-33.68-34.15-33.68Z"/>
    </g>
    <g>
      <path class="cls-5" d="m530.42,336.43h-4.95c0-7.32,1.82-14.6,5.26-21.03,2.29-4.28,5.24-8.15,8.79-11.51,2.37-2.25,4.98-4.25,7.78-5.95l2.6,4.16c-2.5,1.51-4.83,3.3-6.94,5.3-3.16,3-5.8,6.46-7.84,10.27-3.07,5.74-4.69,12.23-4.69,18.76Z"/>
      <path class="cls-5" d="m547.67,375.15c-5.88-3.49-10.97-8.32-14.73-13.98l4.14-2.67c3.35,5.05,7.9,9.36,13.14,12.47l-2.55,4.19Z"/>
      <path class="cls-5" d="m592.08,376.68l-2.25-4.35c5.17-2.6,9.82-6.36,13.44-10.85,5.79-7.18,8.85-15.85,8.85-25.05,0-8-2.37-15.73-6.86-22.35l4.12-2.72c5.03,7.43,7.7,16.1,7.7,25.07,0,10.32-3.43,20.03-9.93,28.09-4.06,5.03-9.27,9.24-15.06,12.16Z"/>
      <path class="cls-5" d="m590.93,301.11c-5.98-3.25-12.78-4.96-19.66-4.96v-4.89c7.71,0,15.33,1.93,22.04,5.57l-2.38,4.28Z"/>
    </g>
    <g class="cls-3">
      <path class="cls-1" d="m571.27,370.91c-19.16,0-34.75-15.38-34.75-34.28s15.59-34.28,34.75-34.28,34.75,15.38,34.75,34.28-15.59,34.28-34.75,34.28Zm0-67.19c-18.4,0-33.37,14.76-33.37,32.91s14.97,32.91,33.37,32.91,33.37-14.76,33.37-32.91-14.97-32.91-33.37-32.91Z"/>
    </g>
  </g>
  <g>
    <path class="cls-5" d="m257.48,27.91h-2.19l-2.69-6.49h-9.63l-2.6,6.49h-2.11l8.39-20.35h2.06l8.77,20.35Zm-5.54-8.1l-4.28-10.24-4.09,10.24h8.36Z"/>
    <path class="cls-5" d="m277.06,21.51c-1.38,4.5-4.21,6.75-8.56,6.75-1.46,0-2.77-.21-3.89-.68-1.14-.45-2.11-1.12-2.91-2.01-.79-.91-1.44-2.05-1.91-3.44-.47-1.38-.71-2.84-.71-4.37,0-3.09.86-5.62,2.58-7.61,1.72-1.95,4.02-2.95,6.9-2.95,1.93,0,3.61.49,4.98,1.44,1.4.96,2.47,2.46,3.23,4.52l-1.87.51c-1.14-3.24-3.23-4.87-6.22-4.87-2.32,0-4.17.84-5.52,2.54-1.38,1.7-2.06,3.86-2.06,6.45,0,2.93.69,5.15,2.06,6.65,1.37,1.48,3.11,2.25,5.22,2.25,3.46,0,5.74-1.89,6.88-5.64l1.79.46Z"/>
    <path class="cls-5" d="m293.59,9.35h-6.32v18.57h-1.98V9.35h-6.32v-1.78h14.62v1.78Z"/>
    <path class="cls-5" d="m299.4,27.91h-1.94V7.57h1.94v20.35Z"/>
    <path class="cls-5" d="m319.89,7.57l-7.7,20.35h-2.02l-7.57-20.35h2.11l6.49,18.27,6.75-18.27h1.94Z"/>
    <path class="cls-5" d="m336.22,27.91h-13.63V7.57h13.2v1.69h-11.24v7.34h10.4v1.66h-10.4v7.97h11.67v1.7Z"/>
    <path class="cls-5" d="m350.19,19.31v8.61h-1.95V7.57h7.16c2.11,0,3.74.49,4.9,1.5,1.18,1.02,1.76,2.46,1.76,4.3,0,.85-.15,1.61-.43,2.33-.3.74-.73,1.38-1.25,1.93-.56.55-1.25.96-2.11,1.25-.88.27-1.82.42-2.88.42h-5.2Zm0-10v8.31h4.66c3.44,0,5.16-1.38,5.16-4.16s-1.72-4.16-5.16-4.16h-4.66Z"/>
    <path class="cls-5" d="m381.52,27.91h-1.89v-9.88h-12v9.88h-1.93V7.57h1.93v8.77h12V7.57h1.89v20.35Z"/>
    <path class="cls-5" d="m403.29,27.91h-2.2l-2.69-6.49h-9.63l-2.6,6.49h-2.11l8.38-20.35h2.06l8.77,20.35Zm-5.55-8.1l-4.28-10.24-4.08,10.24h8.36Z"/>
    <path class="cls-5" d="m404.62,21.79l1.96-.17c.15,1.67.71,2.92,1.7,3.77.99.85,2.28,1.29,3.87,1.29,1.18,0,2.17-.19,2.99-.53.82-.36,1.46-.87,1.89-1.57.45-.68.69-1.42.69-2.18,0-2.06-1.81-3.39-5.42-4.05-2.45-.45-4.19-1.1-5.25-2.02-1.05-.89-1.59-2.12-1.59-3.69,0-1.7.62-3.01,1.84-3.99,1.25-.97,2.82-1.46,4.73-1.46,2.13,0,3.78.46,4.97,1.42,1.18.93,1.84,2.38,1.95,4.3l-1.91.09c-.24-2.82-1.85-4.22-4.86-4.22-1.4,0-2.53.34-3.46.97-.9.68-1.37,1.57-1.37,2.71,0,1.93,1.66,3.22,4.94,3.88,2.45.49,4.26,1.16,5.46,2.05,1.2.89,1.8,2.16,1.8,3.86,0,.89-.15,1.7-.47,2.42-.32.72-.81,1.36-1.48,1.91-.66.53-1.44.96-2.34,1.23-.88.3-1.89.43-2.97.43-4.71,0-7.27-2.14-7.67-6.47Z"/>
    <path class="cls-5" d="m437.17,27.91h-13.63V7.57h13.2v1.69h-11.24v7.34h10.41v1.66h-10.41v7.97h11.67v1.7Z"/>
  </g>
  <polygon class="cls-5" points="570.68 335.71 436.33 203.22 436.33 154.47 438.01 154.47 438.01 202.54 571.86 334.55 570.68 335.71"/>
  <rect class="cls-5" x="436.33" y="93.53" width="1.67" height="48.4"/>
  <rect class="cls-5" x="436.33" y="32.59" width="1.67" height="48.41"/>
  <rect class="cls-7" x="12.95" y="32.59" width="417.86" height="48.41"/>
  <rect class="cls-7" x="12.95" y="93.53" width="417.86" height="48.4"/>
  <rect class="cls-7" x="12.95" y="154.47" width="417.86" height="48.4"/>
  <rect class="cls-5" x="430.81" y="32.59" width="4" height="48.41"/>
  <rect class="cls-5" x="430.81" y="93.53" width="4" height="48.4"/>
  <rect class="cls-5" x="430.81" y="154.47" width="4" height="48.4"/>
  <g>
    <path class="cls-5" d="m391.97,42.69c6.08,0,9.13,4.71,9.13,14.12,0,4.75-.79,8.29-2.36,10.61-1.57,2.32-3.83,3.48-6.77,3.48-6.07,0-9.11-4.7-9.11-14.09,0-4.76.78-8.31,2.36-10.63,1.57-2.32,3.82-3.49,6.75-3.49Zm0,25.43c1.84,0,3.24-.89,4.18-2.65.95-1.76,1.41-4.65,1.41-8.65,0-2.79-.21-4.98-.62-6.58-.41-1.6-1.04-2.8-1.88-3.58-.83-.78-1.88-1.18-3.14-1.18-1.84,0-3.24.9-4.16,2.69-.93,1.8-1.39,4.68-1.39,8.65,0,2.75.21,4.92.63,6.53.42,1.61,1.04,2.81,1.87,3.59.83.78,1.86,1.18,3.09,1.18Z"/>
    <path class="cls-5" d="m417.52,70.43h-3.44v-21.6c-1.72,1.61-4.02,2.97-6.89,4.09v-3.28c3.96-1.87,6.66-4.19,8.1-6.95h2.23v27.74Z"/>
  </g>
  <g>
    <path class="cls-5" d="m391.97,103.63c6.08,0,9.13,4.71,9.13,14.13,0,4.75-.79,8.29-2.36,10.61-1.57,2.32-3.83,3.48-6.77,3.48-6.07,0-9.11-4.7-9.11-14.09,0-4.76.78-8.31,2.36-10.63,1.57-2.33,3.82-3.5,6.75-3.5Zm0,25.43c1.84,0,3.24-.89,4.18-2.64.95-1.76,1.41-4.65,1.41-8.65,0-2.79-.21-4.98-.62-6.58-.41-1.6-1.04-2.8-1.88-3.58-.83-.78-1.88-1.18-3.14-1.18-1.84,0-3.24.89-4.16,2.69-.93,1.8-1.39,4.68-1.39,8.65,0,2.75.21,4.92.63,6.53s1.04,2.8,1.87,3.59c.83.78,1.86,1.18,3.09,1.18Z"/>
    <path class="cls-5" d="m422.6,131.37h-18.54c0-1.55.56-3.14,1.65-4.73,1.1-1.59,3.16-3.59,6.18-5.99,1.84-1.46,3.5-2.99,4.95-4.59,1.45-1.6,2.18-3.21,2.18-4.83,0-1.39-.49-2.54-1.5-3.45s-2.26-1.37-3.79-1.37-2.84.47-3.88,1.4c-1.04.93-1.57,2.33-1.59,4.19l-3.53-.4c.22-2.59,1.15-4.57,2.8-5.93,1.66-1.37,3.74-2.05,6.27-2.05,2.75,0,4.89.76,6.43,2.25,1.54,1.5,2.3,3.31,2.3,5.43,0,1.77-.65,3.56-1.94,5.38-1.29,1.81-3.86,4.23-7.72,7.28-2.02,1.59-3.37,2.97-4.03,4.12h13.77v3.28Z"/>
  </g>
  <g>
    <path class="cls-5" d="m391.97,164.57c6.08,0,9.13,4.71,9.13,14.12,0,4.76-.79,8.29-2.36,10.61-1.57,2.32-3.83,3.48-6.77,3.48-6.07,0-9.11-4.7-9.11-14.09,0-4.76.78-8.31,2.36-10.63,1.57-2.33,3.82-3.5,6.75-3.5Zm0,25.43c1.84,0,3.24-.89,4.18-2.64.95-1.76,1.41-4.65,1.41-8.66,0-2.79-.21-4.98-.62-6.58-.41-1.6-1.04-2.8-1.88-3.58-.83-.78-1.88-1.18-3.14-1.18-1.84,0-3.24.89-4.16,2.69-.93,1.8-1.39,4.68-1.39,8.64,0,2.75.21,4.92.63,6.54.42,1.61,1.04,2.8,1.87,3.59.83.78,1.86,1.18,3.09,1.18Z"/>
    <path class="cls-5" d="m417.68,177.37c1.73.33,3.04,1.15,3.92,2.48.89,1.33,1.33,2.77,1.33,4.32,0,2.52-.93,4.58-2.78,6.19-1.86,1.61-4.07,2.42-6.66,2.42s-4.51-.71-6.11-2.13c-1.61-1.42-2.54-3.3-2.8-5.63l3.43-.47c.35,1.81.98,3.18,1.88,4.09.91.9,2.11,1.35,3.6,1.35,1.6,0,2.96-.56,4.07-1.67,1.12-1.11,1.67-2.47,1.67-4.08s-.51-2.82-1.52-3.84c-1.01-1.02-2.33-1.53-3.96-1.53-.66,0-1.47.12-2.42.36l.4-2.98c.91,0,1.64-.05,2.18-.13.53-.08,1.13-.3,1.79-.64.66-.34,1.21-.83,1.64-1.46.43-.63.65-1.42.65-2.36,0-1.37-.46-2.43-1.38-3.18-.93-.76-1.99-1.13-3.2-1.13-1.39,0-2.52.43-3.4,1.3-.87.87-1.42,2.1-1.65,3.71l-3.43-.62c.44-2.4,1.43-4.19,2.95-5.38,1.52-1.2,3.34-1.79,5.46-1.79,2.33,0,4.27.7,5.83,2.08,1.55,1.39,2.34,3.09,2.34,5.09,0,2.57-1.28,4.43-3.84,5.56v.07Z"/>
  </g>
</svg>