<?xml version="1.0" encoding="UTF-8"?>
<svg id="Layer_1" data-name="Layer 1" xmlns="http://www.w3.org/2000/svg" viewBox="0 0 55.87 2772.92">
  <path d="m55.87,1074.24c0,9.83-8.05,17.83-17.95,17.83s-17.95-8-17.95-17.83,8.05-17.83,17.95-17.83,17.95,8,17.95,17.83Zm-33.22,0c0,8.36,6.85,15.16,15.27,15.16s15.27-6.8,15.27-15.16-6.85-15.17-15.27-15.17-15.27,6.8-15.27,15.17Z"/>
  <polygon points="39.26 1092 39.26 1228.21 22.64 1246.57 22.64 1955.19 2.68 1985.91 2.68 2169.27 22.64 2186.12 22.64 2772.92 19.96 2772.92 19.96 2187.35 0 2170.5 0 1985.13 19.96 1954.4 19.96 1245.55 36.57 1227.19 36.57 1092 39.26 1092"/>
  <polygon points="40.93 926.04 40.93 1057.74 38.25 1057.74 38.25 926.9 21.64 904.1 21.64 0 24.32 0 24.32 903.24 40.93 926.04"/>
</svg>