<?xml version="1.0" encoding="UTF-8"?>
<svg id="Layer_1" data-name="Layer 1" xmlns="http://www.w3.org/2000/svg" viewBox="0 0 405 387">
  <defs>
    <style>
      .cls-1 {
        fill: #fff;
      }

      .cls-2 {
        opacity: .63;
      }
    </style>
  </defs>
  <g id="layer">
    <path class="cls-1" d="m37.42,176.37c.58.08,1.06.43,1.39.92.16.25.27.53.34.84.07.31.09.65.05.98-.16,1.37-1.24,2.38-2.41,2.27-1.17-.12-1.98-1.35-1.82-2.76.05-.35.14-.68.29-.97.15-.29.35-.54.57-.75.45-.41,1.02-.62,1.6-.54Z"/>
    <path class="cls-1" d="m30.16,162.38c.58.12,1.03.53,1.3,1.07.14.28.23.59.26.91.04.34.02.69-.05,1.05-.29,1.44-1.45,2.43-2.61,2.22-1.16-.21-1.86-1.57-1.57-3.04.07-.37.21-.71.38-1,.18-.3.39-.55.64-.75.48-.4,1.07-.58,1.64-.46Z"/>
    <path class="cls-1" d="m33.52,149.88c1.12.34,1.69,1.74,1.26,3.14-.11.35-.25.67-.44.95-.19.28-.42.51-.67.69-.5.37-1.1.52-1.66.38-.57-.15-1-.58-1.24-1.15-.12-.28-.19-.61-.21-.95-.01-.34.02-.71.13-1.06.44-1.44,1.71-2.34,2.84-2.01Z"/>
    <path class="cls-1" d="m42.78,152.63c1.12.34,1.71,1.67,1.31,2.99-.11.33-.24.63-.43.89-.19.26-.41.48-.66.65-.49.34-1.09.47-1.65.33-.57-.14-1.01-.56-1.25-1.1-.13-.28-.2-.58-.22-.91-.02-.33,0-.67.11-1.01.42-1.36,1.67-2.19,2.79-1.85Z"/>
    <path class="cls-1" d="m93.63,66.75c.71.91.31,2.38-.88,3.27-.3.23-.63.39-.95.5-.32.11-.65.18-.96.18-.63.01-1.2-.2-1.57-.65-.37-.45-.46-1.04-.31-1.64.08-.3.21-.6.4-.89.2-.28.46-.54.76-.77,1.23-.91,2.8-.91,3.5,0Z"/>
    <path class="cls-1" d="m99.44,74.27c.7.91.36,2.34-.76,3.17-.28.21-.59.36-.9.46-.31.1-.62.15-.92.15-.6,0-1.16-.24-1.53-.68-.37-.45-.47-1.03-.34-1.62.07-.29.19-.58.37-.86.18-.27.42-.52.71-.73,1.16-.87,2.66-.82,3.37.1Z"/>
    <path class="cls-1" d="m104.58,59.42c.31.48.34,1.08.12,1.65-.21.58-.64,1.14-1.27,1.54-.63.4-1.33.58-1.96.53-.32-.02-.61-.1-.87-.23-.26-.13-.48-.31-.65-.55-.16-.24-.26-.5-.29-.79-.03-.29,0-.58.11-.87.2-.58.66-1.15,1.3-1.56.65-.41,1.35-.59,1.99-.54.64.06,1.19.34,1.5.82Z"/>
    <path class="cls-1" d="m109.76,67.37c.32.48.35,1.07.16,1.63-.19.56-.59,1.1-1.18,1.48-.59.38-1.26.53-1.87.46-.3-.03-.58-.11-.83-.24-.25-.13-.47-.32-.63-.55-.17-.24-.27-.51-.3-.78-.04-.28,0-.57.09-.85.18-.56.6-1.11,1.21-1.5.6-.39,1.28-.55,1.89-.48.61.07,1.14.36,1.46.84Z"/>
    <path class="cls-1" d="m116.08,52.96c.27.51.25,1.11,0,1.66-.26.55-.75,1.06-1.41,1.42-1.31.71-2.84.48-3.43-.51-.58-.99.03-2.39,1.39-3.13.67-.38,1.41-.48,2.03-.38.63.1,1.15.42,1.43.92Z"/>
    <path class="cls-1" d="m120.6,61.27c.27.51.27,1.1.04,1.64s-.69,1.02-1.3,1.37c-1.24.67-2.71.41-3.29-.58-.59-1-.03-2.36,1.25-3.05.63-.36,1.34-.43,1.93-.33.6.11,1.11.44,1.38.95Z"/>
    <path class="cls-1" d="m128.07,47.39c.47,1.05-.28,2.38-1.65,2.96-.35.14-.69.24-1.04.28-.34.04-.67.02-.97-.05-.62-.14-1.12-.48-1.37-1-.25-.52-.2-1.11.1-1.66.15-.27.36-.53.62-.77.26-.23.56-.44.92-.58,1.42-.61,2.94-.24,3.4.81Z"/>
    <path class="cls-1" d="m131.9,56.03c.46,1.06-.21,2.35-1.51,2.9-.33.14-.66.23-.98.26-.32.03-.64,0-.93-.07-.59-.14-1.07-.5-1.33-1.01-.25-.52-.21-1.11.06-1.64.14-.27.33-.52.57-.74.24-.23.53-.43.86-.56,1.34-.57,2.8-.18,3.26.87Z"/>
    <path class="cls-1" d="m140.48,42.76c.38,1.08-.47,2.36-1.89,2.84-1.42.47-2.89.05-3.31-1.03-.42-1.06.41-2.39,1.88-2.87,1.46-.5,2.95-.03,3.32,1.06Z"/>
    <path class="cls-1" d="m153.24,39.12c.14.56-.02,1.13-.41,1.61s-.98.88-1.71,1.07c-.72.19-1.45.14-2.03-.1-.29-.12-.55-.28-.75-.48-.2-.2-.35-.44-.43-.72-.08-.27-.08-.56-.02-.83.06-.28.19-.55.39-.79.38-.49,1-.89,1.74-1.09.75-.19,1.48-.15,2.07.09.59.24,1.02.67,1.16,1.23Z"/>
    <path class="cls-1" d="m166.25,36.48c.1.56-.12,1.12-.54,1.57-.21.22-.48.42-.77.58-.31.16-.65.29-1.02.35-1.47.27-2.86-.41-3.1-1.53-.24-1.12.8-2.26,2.32-2.54.38-.07.75-.08,1.1-.04.35.05.67.15.96.29.56.29.96.76,1.06,1.32Z"/>
    <path class="cls-1" d="m179.43,34.83c.05.57-.21,1.11-.67,1.53-.23.21-.51.38-.82.52-.15.06-.32.12-.5.16-.18.05-.35.08-.54.1-1.49.16-2.82-.62-2.96-1.76-.14-1.14.98-2.19,2.52-2.36.19-.02.38-.03.56-.02s.36.04.53.07c.34.08.66.2.93.37.53.33.89.82.95,1.39Z"/>
    <path class="cls-1" d="m192.7,34.2c0,1.15-1.2,2.08-2.7,2.11-1.5.06-2.76-.82-2.81-1.97-.05-1.14,1.15-2.12,2.7-2.17,1.54-.02,2.8.89,2.81,2.03Z"/>
    <path class="cls-1" d="m192.79,43.6c0,1.14-1.13,2.08-2.55,2.1-1.42.05-2.6-.83-2.66-1.97-.05-1.15,1.09-2.12,2.55-2.17,1.46-.02,2.65.89,2.66,2.04Z"/>
    <path class="cls-1" d="m205.31,43.95c-.08,1.14-1.29,2-2.7,1.91-1.41-.06-2.53-1.02-2.49-2.16.04-1.14,1.25-2.03,2.71-1.97,1.45.09,2.57,1.08,2.48,2.22Z"/>
    <path class="cls-1" d="m217.77,45.25c-.18,1.13-1.45,1.89-2.85,1.7-.7-.1-1.31-.39-1.73-.82-.42-.42-.64-.97-.58-1.54.07-.57.42-1.05.94-1.37.52-.31,1.2-.48,1.92-.38,1.44.19,2.48,1.27,2.3,2.4Z"/>
    <path class="cls-1" d="m230.08,47.5c-.27,1.11-1.6,1.78-2.98,1.49-.35-.07-.66-.2-.94-.37s-.52-.36-.71-.59c-.38-.45-.57-1.01-.45-1.58.11-.56.5-1.01,1.04-1.3.27-.14.58-.24.91-.28.33-.04.68-.02,1.03.05,1.43.3,2.37,1.45,2.1,2.56Z"/>
    <path class="cls-1" d="m245.07,41.74c-.18.55-.63.95-1.22,1.16-.59.22-1.31.25-2.03.05s-1.3-.62-1.68-1.12c-.37-.49-.53-1.06-.37-1.61.16-.55.6-.98,1.2-1.2.59-.22,1.32-.25,2.07-.03.74.21,1.34.63,1.71,1.13.36.5.5,1.09.32,1.63Z"/>
    <path class="cls-1" d="m242.16,50.71c-.18.54-.61.95-1.17,1.17-.56.23-1.25.28-1.92.08-.68-.2-1.23-.6-1.57-1.09-.34-.48-.48-1.05-.32-1.6.16-.54.58-.98,1.15-1.21.56-.23,1.26-.27,1.96-.07.7.2,1.26.61,1.61,1.1.33.49.45,1.08.27,1.63Z"/>
    <path class="cls-1" d="m257.58,46.12c-.22.53-.71.89-1.31,1.06-.3.08-.63.11-.97.1s-.7-.09-1.05-.22c-1.41-.52-2.21-1.81-1.82-2.88.4-1.07,1.9-1.51,3.35-.98.36.13.68.31.96.53.27.22.49.47.65.73.32.53.41,1.13.19,1.66Z"/>
    <path class="cls-1" d="m253.94,54.83c-.22.53-.69.9-1.26,1.08-.29.09-.6.13-.92.11-.33,0-.67-.07-1-.19-1.32-.49-2.07-1.75-1.67-2.83.41-1.08,1.84-1.54,3.21-1.04.34.13.64.3.9.51.25.21.46.46.6.72.3.53.37,1.11.14,1.64Z"/>
    <path class="cls-1" d="m265.35,59.85c-.53,1.02-1.98,1.35-3.26.74-1.28-.58-1.92-1.9-1.43-2.94.49-1.04,1.96-1.39,3.28-.8,1.31.63,1.93,1.97,1.4,2.99Z"/>
    <path class="cls-1" d="m276.32,65.72c-.62.97-2.1,1.2-3.31.5-.31-.18-.57-.39-.78-.63-.21-.24-.38-.5-.48-.77-.22-.55-.21-1.14.08-1.63.29-.5.8-.82,1.41-.91.3-.05.63-.05.95,0,.33.06.66.19.97.36,1.26.72,1.78,2.1,1.17,3.08Z"/>
    <path class="cls-1" d="m292.41,64.8c-.34.47-.91.71-1.53.73-.63.03-1.33-.15-1.95-.57-.62-.41-1.04-.98-1.24-1.57-.19-.58-.15-1.17.18-1.65.33-.47.88-.74,1.52-.78.63-.03,1.34.16,1.97.59s1.07,1,1.26,1.59c.18.6.12,1.2-.22,1.66Z"/>
    <path class="cls-1" d="m286.76,72.43c-.34.46-.89.72-1.49.76-.61.05-1.27-.12-1.85-.52-.58-.39-.97-.94-1.14-1.51-.17-.56-.12-1.15.21-1.62.33-.47.87-.75,1.48-.8.61-.05,1.28.13,1.88.53.6.41,1,.96,1.17,1.53.15.58.08,1.17-.26,1.63Z"/>
    <path class="cls-1" d="m302.89,72.74c-.38.43-.96.64-1.59.62-.63-.02-1.3-.28-1.88-.73-1.17-.91-1.53-2.38-.8-3.28.73-.9,2.3-.87,3.5.08.6.47.98,1.09,1.12,1.69.14.6.03,1.2-.35,1.63Z"/>
    <path class="cls-1" d="m312.69,81.45c-.83.81-2.37.64-3.45-.38-.27-.26-.49-.53-.66-.83-.16-.29-.27-.6-.32-.9-.1-.6.04-1.19.43-1.6.4-.42.99-.59,1.62-.53.32.03.64.11.96.27.32.14.63.34.9.6,1.11,1.05,1.34,2.56.5,3.37Z"/>
    <path class="cls-1" d="m305.88,88.13c-.83.81-2.32.69-3.33-.27-.25-.24-.46-.51-.61-.79-.15-.28-.25-.58-.29-.87-.08-.58.07-1.15.48-1.57.4-.42.97-.61,1.59-.57.31.03.62.1.92.24.3.13.6.32.86.57,1.04.99,1.22,2.45.38,3.27Z"/>
    <path class="cls-1" d="m321.76,90.88c-.88.74-2.41.46-3.41-.63-.25-.28-.44-.58-.58-.88-.14-.3-.21-.63-.24-.92-.05-.61.13-1.17.56-1.56.43-.38,1.03-.52,1.66-.41.32.05.63.17.93.34.3.17.59.4.85.68,1.02,1.12,1.14,2.64.23,3.39Z"/>
    <path class="cls-1" d="m330.03,100.99c-.48.34-1.08.4-1.69.24-.3-.08-.59-.23-.88-.41-.29-.19-.55-.43-.78-.72-.91-1.16-.91-2.67.02-3.38.92-.71,2.44-.32,3.37.87.24.3.42.62.53.94.12.32.17.65.16.96-.01.62-.26,1.16-.74,1.51Z"/>
    <path class="cls-1" d="m337.47,111.68c-1,.6-2.45.08-3.26-1.15-.82-1.22-.7-2.73.28-3.37.98-.63,2.46-.13,3.31,1.12.82,1.27.67,2.79-.34,3.39Z"/>
    <path class="cls-1" d="m329.24,116.63c-1.01.6-2.42.14-3.17-1.02-.78-1.15-.61-2.6.36-3.23.98-.64,2.42-.19,3.23.99.77,1.2.58,2.66-.42,3.27Z"/>
    <path class="cls-1" d="m344.02,122.92c-1.05.52-2.46-.1-3.17-1.39-.18-.33-.29-.66-.35-.99-.07-.33-.07-.65-.02-.95.09-.6.41-1.12.92-1.39.51-.28,1.13-.27,1.72-.02.29.12.58.3.83.53.25.24.48.53.66.86.72,1.33.46,2.83-.59,3.35Z"/>
    <path class="cls-1" d="m335.41,127.22c-1.05.52-2.44-.05-3.09-1.25-.17-.31-.27-.63-.32-.94-.05-.31-.05-.62,0-.91.11-.58.43-1.08.95-1.35.51-.28,1.12-.29,1.69-.05.29.11.56.27.81.49.24.22.46.49.63.8.68,1.25.38,2.69-.67,3.21Z"/>
    <path class="cls-1" d="m349.62,134.63c-.54.22-1.15.14-1.69-.15-.55-.29-1.04-.81-1.35-1.48-.3-.67-.36-1.37-.2-1.96.15-.6.5-1.08,1.04-1.32.53-.24,1.15-.18,1.71.11.55.3,1.05.82,1.36,1.51.3.68.37,1.4.21,1.99-.16.6-.54,1.08-1.08,1.3Z"/>
    <path class="cls-1" d="m354.25,146.73c-.56.18-1.16.05-1.68-.29-.26-.17-.5-.39-.7-.66s-.38-.58-.51-.92c-.5-1.38,0-2.81,1.1-3.21,1.1-.39,2.42.43,2.93,1.85.12.35.19.71.2,1.05,0,.34-.05.67-.16.96-.21.58-.62,1.03-1.18,1.21Z"/>
    <path class="cls-1" d="m357.87,159.16c-1.15.26-2.36-.67-2.73-2.09-.39-1.41.21-2.8,1.35-3.11,1.13-.31,2.38.62,2.79,2.07.38,1.45-.26,2.85-1.4,3.12Z"/>
    <path class="cls-1" d="m348.46,161.36c-1.15.26-2.34-.6-2.69-1.94-.37-1.32.25-2.64,1.39-2.95,1.13-.31,2.36.55,2.74,1.92.35,1.38-.3,2.71-1.44,2.97Z"/>
    <path class="cls-1" d="m360.47,171.82c-1.16.17-2.31-.85-2.55-2.29-.03-.18-.05-.36-.05-.53,0-.18,0-.35.02-.51.05-.33.14-.64.29-.91.29-.54.75-.93,1.34-1.04.57-.1,1.15.09,1.63.5.24.21.45.47.62.77.08.15.16.31.22.48.06.16.1.34.14.53.25,1.48-.48,2.83-1.65,3Z"/>
    <path class="cls-1" d="m350.91,173.29c-1.16.18-2.3-.78-2.52-2.14-.04-.17-.05-.34-.05-.5s0-.33.03-.48c.05-.31.15-.6.29-.86.29-.51.76-.89,1.34-1,.58-.11,1.16.07,1.63.46.24.19.44.43.6.72.09.14.15.29.22.45.05.16.1.33.13.5.24,1.4-.51,2.68-1.68,2.85Z"/>
    <path class="cls-1" d="m362.74,200.18c-1.18,0-2.15-1.19-2.17-2.65,0-.36.05-.72.16-1.03.05-.16.11-.31.19-.46.07-.14.15-.27.24-.4.37-.49.89-.8,1.48-.82.59-.01,1.13.27,1.54.74.1.12.2.25.28.39.08.14.14.3.2.46.11.32.18.67.18,1.05.02,1.5-.92,2.71-2.1,2.71Z"/>
    <path class="cls-1" d="m353.06,200.18c-1.18,0-2.15-1.12-2.16-2.5,0-.34.05-.67.16-.97.05-.15.11-.29.19-.43.07-.14.15-.26.24-.38.37-.46.89-.77,1.48-.78.59-.02,1.13.25,1.53.7.1.11.2.24.28.37.08.13.15.28.2.43.11.3.18.64.19.99.02,1.41-.92,2.56-2.1,2.56Z"/>
    <path class="cls-1" d="m361.74,215.25c-.58-.06-1.08-.42-1.41-.94-.16-.25-.28-.55-.36-.88-.08-.32-.11-.67-.07-1.04.13-1.45,1.19-2.56,2.37-2.48,1.17.09,2.01,1.37,1.88,2.87-.03.37-.12.72-.26,1.04-.14.31-.33.58-.55.81-.44.45-1.01.69-1.59.63Z"/>
    <path class="cls-1" d="m359.52,228.53c-.58-.11-1.05-.5-1.34-1.04-.14-.27-.24-.58-.29-.91-.02-.17-.03-.34-.02-.51,0-.17.01-.35.05-.53.24-1.44,1.39-2.46,2.55-2.29,1.16.18,1.9,1.52,1.65,3-.03.19-.08.36-.14.53-.06.17-.14.33-.22.48-.17.3-.38.56-.62.77-.48.41-1.06.61-1.63.5Z"/>
    <path class="cls-1" d="m350.01,226.76c-.58-.11-1.05-.48-1.34-1-.14-.26-.24-.55-.29-.87-.02-.15-.03-.31-.03-.48s0-.34.05-.51c.23-1.35,1.36-2.31,2.52-2.13,1.16.17,1.91,1.45,1.68,2.85-.03.18-.08.34-.13.5-.06.16-.13.31-.22.45-.16.29-.37.53-.6.72-.47.38-1.05.57-1.63.46Z"/>
    <path class="cls-1" d="m352.45,253.41c-1.11-.39-1.6-1.83-1.1-3.2.13-.35.31-.66.51-.92s.44-.49.7-.66c.52-.34,1.12-.46,1.68-.29s.97.63,1.18,1.21c.1.29.16.62.16.96,0,.34-.08.7-.2,1.05-.52,1.42-1.83,2.25-2.93,1.85Z"/>
    <path class="cls-1" d="m347.41,265.36c-.54-.24-.89-.72-1.04-1.31-.15-.6-.1-1.3.2-1.97s.79-1.19,1.35-1.48c.54-.29,1.15-.37,1.69-.15.54.22.92.7,1.08,1.3.15.6.09,1.31-.21,2-.31.69-.81,1.22-1.36,1.51-.56.29-1.18.35-1.71.11Z"/>
    <path class="cls-1" d="m338.61,261.45c-.53-.24-.9-.71-1.06-1.28-.16-.57-.12-1.23.16-1.87.29-.63.76-1.11,1.3-1.38.53-.27,1.13-.33,1.68-.11.54.22.92.68,1.1,1.25.17.57.13,1.25-.17,1.9-.29.64-.77,1.14-1.31,1.41-.55.27-1.16.31-1.69.07Z"/>
    <path class="cls-1" d="m341.41,276.87c-.52-.28-.83-.79-.92-1.39-.05-.3-.05-.63.02-.95.06-.33.17-.66.35-.99.7-1.29,2.12-1.92,3.17-1.39,1.05.52,1.32,2.02.59,3.35-.18.33-.4.62-.66.86s-.54.42-.83.54c-.59.24-1.2.25-1.72-.03Z"/>
    <path class="cls-1" d="m332.95,272.3c-.52-.28-.84-.77-.95-1.35-.05-.29-.05-.59,0-.9.05-.32.15-.63.32-.94.66-1.22,2.04-1.78,3.09-1.26,1.05.52,1.35,1.96.67,3.21-.17.31-.38.58-.63.8-.25.22-.53.38-.81.5-.57.22-1.18.22-1.69-.06Z"/>
    <path class="cls-1" d="m334.49,287.9c-.98-.63-1.11-2.14-.28-3.36.8-1.24,2.26-1.75,3.26-1.15,1.01.6,1.15,2.12.34,3.39-.85,1.25-2.33,1.76-3.31,1.12Z"/>
    <path class="cls-1" d="m326.43,282.69c-.97-.63-1.14-2.08-.36-3.23.75-1.16,2.17-1.63,3.17-1.03,1,.6,1.19,2.07.42,3.27-.81,1.18-2.25,1.63-3.23.99Z"/>
    <path class="cls-1" d="m326.71,298.36c-.92-.71-.93-2.22-.02-3.38.23-.29.49-.53.78-.72.29-.19.58-.33.88-.41.61-.17,1.21-.1,1.69.24.48.34.72.88.74,1.5,0,.31-.05.64-.16.96-.11.32-.29.64-.53.94-.94,1.19-2.45,1.58-3.37.87Z"/>
    <path class="cls-1" d="m318.09,308.19c-.43-.39-.62-.96-.56-1.56.03-.3.1-.62.24-.92.14-.31.33-.6.58-.88,1-1.09,2.53-1.37,3.41-.63.91.75.79,2.26-.23,3.39-.26.28-.54.51-.85.68-.3.17-.62.29-.93.34-.63.11-1.23-.02-1.66-.41Z"/>
    <path class="cls-1" d="m310.97,301.82c-.43-.38-.62-.94-.59-1.53.02-.29.09-.59.21-.89.12-.29.3-.58.54-.84.94-1.02,2.42-1.25,3.31-.52.9.75.84,2.21-.13,3.27-.24.27-.52.48-.81.64-.29.16-.59.26-.89.31-.61.09-1.2-.06-1.64-.45Z"/>
    <path class="cls-1" d="m298.62,325.73c-.73-.9-.37-2.37.8-3.28.59-.45,1.25-.71,1.88-.73.63-.02,1.2.18,1.59.62.38.43.48,1.03.35,1.63-.14.6-.52,1.22-1.12,1.69-1.2.94-2.77.98-3.5.08Z"/>
    <path class="cls-1" d="m292.62,318.36c-.73-.9-.43-2.32.68-3.18.55-.43,1.19-.66,1.79-.66.61,0,1.17.2,1.55.64.38.43.5,1.01.39,1.6-.12.58-.46,1.18-1.04,1.62-1.14.88-2.64.88-3.37-.02Z"/>
    <path class="cls-1" d="m287.88,333.33c-.33-.48-.37-1.07-.18-1.64.19-.59.62-1.15,1.24-1.57.62-.42,1.32-.6,1.95-.57.62.02,1.18.26,1.53.73.34.46.4,1.06.22,1.65-.19.59-.63,1.16-1.26,1.59-.63.43-1.35.63-1.97.59-.63-.04-1.19-.31-1.52-.78Z"/>
    <path class="cls-1" d="m282.49,325.53c-.33-.48-.38-1.06-.21-1.62.17-.57.56-1.12,1.14-1.51.58-.39,1.25-.55,1.85-.51.6.04,1.15.29,1.49.76.34.47.42,1.05.26,1.63-.17.57-.58,1.12-1.17,1.53-.6.4-1.28.58-1.88.53-.61-.05-1.15-.33-1.48-.8Z"/>
    <path class="cls-1" d="m276.55,340.09c-.29-.5-.28-1.1-.04-1.66.12-.28.3-.55.53-.8.23-.25.5-.48.82-.67,1.3-.74,2.84-.55,3.46.43s.03,2.39-1.3,3.16c-.33.19-.67.32-1.02.39-.34.06-.68.08-1,.04-.63-.09-1.16-.39-1.45-.89Z"/>
    <path class="cls-1" d="m264.71,345.95c-.49-1.04.21-2.38,1.58-3,1.35-.65,2.87-.35,3.4.67.53,1.02-.16,2.39-1.55,3.06-1.4.63-2.93.31-3.42-.73Z"/>
    <path class="cls-1" d="m260.66,337.41c-.49-1.04.15-2.35,1.43-2.93,1.27-.61,2.73-.28,3.26.74.53,1.02-.1,2.36-1.4,2.99-1.32.6-2.79.24-3.28-.8Z"/>
    <path class="cls-1" d="m252.43,350.9c-.4-1.08.41-2.36,1.82-2.88.35-.13.71-.2,1.05-.21.34-.02.67,0,.97.09.61.17,1.09.53,1.31,1.06.22.53.13,1.12-.19,1.66-.16.26-.38.52-.65.73-.28.21-.59.4-.96.53-1.45.53-2.95.1-3.35-.98Z"/>
    <path class="cls-1" d="m249.09,342.07c-.4-1.07.34-2.35,1.67-2.84.33-.12.67-.18,1-.19.33-.01.64.02.92.11.58.18,1.05.55,1.26,1.08.22.53.15,1.11-.14,1.63-.14.26-.35.51-.6.72-.26.21-.56.38-.9.51-1.37.51-2.8.04-3.21-1.03Z"/>
    <path class="cls-1" d="m239.78,354.86c-.16-.55,0-1.13.37-1.62.37-.5.96-.91,1.68-1.12.72-.21,1.44-.18,2.03.05.58.21,1.04.61,1.22,1.16.18.54.04,1.13-.32,1.63-.37.5-.97.91-1.71,1.13-.74.22-1.48.19-2.07-.03-.59-.23-1.04-.65-1.2-1.2Z"/>
    <path class="cls-1" d="m200.46,360.77c-.04-1.14,1.15-2.11,2.65-2.17,1.49-.09,2.78.76,2.86,1.9s-1.1,2.14-2.64,2.24c-1.55.06-2.83-.82-2.87-1.97Z"/>
    <path class="cls-1" d="m200.12,351.38c-.04-1.15,1.08-2.11,2.49-2.17,1.41-.08,2.62.77,2.7,1.91.09,1.14-1.03,2.14-2.48,2.23-1.46.06-2.68-.83-2.71-1.97Z"/>
    <path class="cls-1" d="m187.18,360.73c.05-1.14,1.31-2.02,2.81-1.97,1.5.03,2.71.96,2.7,2.11,0,1.15-1.27,2.06-2.81,2.03-1.55-.06-2.76-1.03-2.7-2.17Z"/>
    <path class="cls-1" d="m187.59,351.34c.05-1.15,1.24-2.03,2.66-1.98,1.41.02,2.55.96,2.55,2.11,0,1.14-1.2,2.06-2.66,2.03-1.46-.05-2.6-1.02-2.55-2.16Z"/>
    <path class="cls-1" d="m173.94,359.68c.14-1.14,1.47-1.92,2.96-1.76.19.03.37.06.54.1.18.04.34.1.5.16.31.14.59.31.82.52.45.42.71.96.67,1.53-.05.57-.41,1.06-.95,1.39-.27.16-.58.29-.93.37-.17.04-.35.06-.53.08-.19,0-.38,0-.56-.02-1.54-.17-2.67-1.23-2.52-2.36Z"/>
    <path class="cls-1" d="m175.1,350.35c.15-1.13,1.4-1.93,2.81-1.77.18.02.35.05.51.1.16.04.32.1.47.16.29.13.55.31.77.52.43.41.67.95.62,1.52-.05.57-.39,1.06-.9,1.39-.25.17-.55.29-.87.37-.16.04-.33.06-.51.08-.17.01-.35,0-.53-.02-1.45-.16-2.51-1.21-2.36-2.35Z"/>
    <path class="cls-1" d="m162.74,348.41c.24-1.12,1.56-1.82,2.94-1.56.35.07.67.19.95.34.29.15.53.34.73.57.39.44.59,1,.49,1.56-.1.57-.48,1.03-1.01,1.32-.27.14-.58.25-.9.31-.33.05-.68.04-1.04-.03-1.44-.27-2.4-1.39-2.17-2.51Z"/>
    <path class="cls-1" d="m150.57,345.53c.09-.28.23-.52.43-.72.2-.2.44-.37.72-.49.55-.24,1.24-.3,1.92-.12.68.18,1.24.57,1.59,1.05.36.47.51,1.04.37,1.59-.14.56-.56,1-1.11,1.25-.56.25-1.25.3-1.96.12s-1.28-.58-1.63-1.06c-.18-.24-.3-.51-.36-.78-.05-.28-.05-.56.03-.83Z"/>
    <path class="cls-1" d="m135.29,350.5c.42-1.07,1.89-1.5,3.31-1.03,1.42.48,2.26,1.76,1.89,2.84-.37,1.09-1.86,1.56-3.32,1.06-1.46-.49-2.29-1.81-1.88-2.88Z"/>
    <path class="cls-1" d="m138.69,341.7c.42-1.08,1.82-1.53,3.16-1.08,1.33.45,2.11,1.71,1.73,2.79-.38,1.09-1.79,1.58-3.17,1.11-1.38-.46-2.14-1.75-1.73-2.82Z"/>
    <path class="cls-1" d="m123.04,345.48c.25-.52.75-.86,1.37-1,.3-.07.63-.08.97-.05.34.04.69.14,1.04.28,1.38.58,2.12,1.91,1.65,2.96-.46,1.05-1.98,1.42-3.4.82-.36-.15-.66-.36-.92-.59-.26-.23-.47-.49-.62-.77-.29-.55-.35-1.15-.1-1.66Z"/>
    <path class="cls-1" d="m127.15,336.97c.25-.52.74-.87,1.33-1.01.29-.08.61-.1.93-.07.33.03.66.12.98.26,1.3.55,1.97,1.85,1.51,2.9-.46,1.05-1.92,1.44-3.26.88-.33-.14-.62-.34-.86-.57-.24-.22-.43-.48-.57-.74-.27-.53-.31-1.13-.06-1.64Z"/>
    <path class="cls-1" d="m53.67,286.97c.49-.31,1.11-.34,1.7-.15.3.1.59.25.86.46.27.21.51.47.73.77.86,1.2.77,2.71-.19,3.37-.96.67-2.45.19-3.33-1.04-.22-.31-.37-.63-.47-.96-.1-.33-.13-.66-.11-.96.05-.62.32-1.15.82-1.47Z"/>
    <path class="cls-1" d="m46.83,275.9c1.03-.54,2.47.04,3.2,1.32.36.64.51,1.32.43,1.92-.08.6-.38,1.12-.89,1.41-.51.29-1.12.3-1.71.06-.59-.23-1.16-.7-1.53-1.35-.75-1.31-.53-2.82.51-3.37Z"/>
    <path class="cls-1" d="m55.31,271.39c1.03-.55,2.43-.02,3.13,1.18.34.6.47,1.25.37,1.83-.1.58-.41,1.09-.91,1.38-.51.29-1.12.31-1.69.1-.57-.21-1.12-.64-1.47-1.26-.71-1.24-.45-2.69.58-3.23Z"/>
    <path class="cls-1" d="m40.91,264.34c.27-.12.56-.16.84-.14.14.01.29.04.43.08.15.05.29.1.43.17.56.28,1.06.79,1.38,1.45.32.66.38,1.36.25,1.96-.13.59-.47,1.09-.99,1.34-.53.25-1.15.21-1.72-.07-.57-.27-1.07-.79-1.4-1.47-.33-.67-.4-1.39-.27-1.99.04-.15.09-.3.14-.43s.14-.26.23-.37c.18-.23.4-.41.67-.53Z"/>
    <path class="cls-1" d="m49.74,260.49c.27-.12.55-.16.83-.15.14,0,.29.03.43.06.14.04.28.09.42.15.55.26,1.04.72,1.34,1.35.3.63.35,1.29.2,1.86-.14.57-.48,1.05-1.01,1.3-.53.25-1.14.23-1.7-.03-.55-.25-1.04-.73-1.35-1.38-.31-.64-.37-1.32-.22-1.89.04-.14.09-.28.15-.41.06-.13.14-.25.23-.36.18-.22.41-.39.68-.51Z"/>
    <path class="cls-1" d="m35.96,252.35c.56-.19,1.16-.08,1.69.24.27.16.5.38.72.64.21.26.4.56.53.91.53,1.37.08,2.81-1.02,3.23-1.1.42-2.42-.37-2.98-1.78-.14-.35-.21-.71-.23-1.05-.02-.34.04-.67.13-.96.19-.59.59-1.05,1.15-1.24Z"/>
    <path class="cls-1" d="m45.07,249.2c.56-.19,1.15-.1,1.67.2.26.15.49.35.71.6.21.24.38.53.51.85.51,1.28.03,2.66-1.07,3.09-1.09.42-2.4-.31-2.92-1.64-.13-.33-.2-.67-.21-.99-.01-.32.05-.63.14-.91.2-.56.61-1.01,1.16-1.2Z"/>
    <path class="cls-1" d="m32,240.03c.57-.14,1.16,0,1.66.37.25.19.48.42.67.7.19.28.34.6.44.95.43,1.4-.14,2.81-1.26,3.14-1.13.34-2.4-.56-2.84-2-.11-.36-.14-.72-.13-1.06.02-.34.09-.66.21-.95.24-.57.67-.99,1.24-1.15Z"/>
    <path class="cls-1" d="m38.58,225.73c1.16-.2,2.31.72,2.58,2.07.07.34.08.67.04.98s-.14.61-.27.87c-.28.52-.74.91-1.31,1.03s-1.16-.05-1.63-.42c-.24-.19-.45-.43-.63-.7-.17-.28-.31-.59-.37-.94-.28-1.39.44-2.69,1.6-2.89Z"/>
    <path class="cls-1" d="m27.16,214.66c1.17-.11,2.26.97,2.43,2.41.04.36.02.72-.05,1.05-.06.33-.18.63-.34.89-.32.53-.8.89-1.38.97-.58.08-1.16-.15-1.61-.59-.23-.22-.42-.48-.58-.79-.15-.31-.24-.66-.29-1.03-.18-1.49.63-2.8,1.8-2.91Z"/>
    <path class="cls-1" d="m26.3,201.78c1.17-.03,2.18,1.13,2.23,2.59.02.37-.03.72-.12,1.04-.05.16-.11.32-.18.46-.07.14-.15.28-.24.4-.36.5-.87.83-1.46.87-.58.03-1.14-.24-1.55-.71-.11-.12-.2-.25-.29-.38-.08-.14-.15-.29-.21-.45-.12-.32-.19-.67-.21-1.05-.06-1.51.85-2.74,2.03-2.76Z"/>
  </g>
  <g>
    <polygon class="cls-1" points="185.75 73.75 154.81 79.23 167.27 60.03 185.75 73.75"/>
    <path class="cls-1" d="m212.89,329.04l-.09-.58c1.06-.15,2.12-.31,3.16-.49,64.6-10.8,111.49-65.48,111.49-130.02,0-6.27-.45-12.59-1.35-18.75l.59-.08c.9,6.2,1.35,12.54,1.35,18.84,0,31.48-11.42,61.98-32.15,85.9-20.5,23.65-48.85,39.52-79.83,44.7-1.06.18-2.12.34-3.18.49Z"/>
    <path class="cls-1" d="m290.39,106.93c-25.56-26.35-60.03-40.87-97.06-40.87v-.59c18.75,0,36.89,3.71,53.93,11.04,16.45,7.08,31.11,17.17,43.56,30.01l-.43.41Z"/>
    <path class="cls-1" d="m290.39,106.93c-25.56-26.35-60.03-40.87-97.06-40.87s-69.63,13.77-94.98,38.77l-.43-.42c25.46-25.11,59.35-38.94,95.41-38.94,18.75,0,36.89,3.71,53.93,11.04,16.45,7.08,31.11,17.17,43.56,30.01l-.43.41Z"/>
    <path class="cls-1" d="m184.71,363.59h-.6v-33.47c-33.97-2.26-65.55-16.97-88.95-41.44-23.57-24.66-36.55-56.87-36.55-90.73,0-3.6.14-7.24.44-10.82H24.3v-.59h35.41l-.02.32c-.31,3.67-.47,7.4-.47,11.1,0,69.28,55,127.08,125.22,131.6l.29.02v34.03Z"/>
    <path class="cls-1" d="m193.33,323.62c-70.47,0-127.8-56.37-127.8-125.68s57.33-125.67,127.8-125.67,127.8,56.38,127.8,125.67-57.33,125.68-127.8,125.68Zm0-250.75c-70.14,0-127.21,56.11-127.21,125.08s57.07,125.09,127.21,125.09,127.21-56.11,127.21-125.09-57.07-125.08-127.21-125.08Z"/>
    <g>
      <path class="cls-1" d="m215.46,123.98l-6.1-1.41c-.4-.09-.72-.31-.94-.65-.22-.34-.29-.72-.19-1.11l1.09-4.59c.1-.39.32-.71.67-.91.35-.22.73-.28,1.14-.18l6.1,1.4-.32,1.35-6.11-1.4s-.04,0-.06,0c0,0-.04.03-.04.05l-1.09,4.57s0,.05,0,.06c.02.03.03.04.05.04l6.11,1.41-.33,1.36Zm-4.69-8.32c-.16,0-.31.05-.46.14-.21.13-.34.31-.4.55l-1.09,4.59c-.06.24-.02.46.11.67.14.21.32.34.57.4l5.52,1.27.05-.21-5.52-1.27c-.18-.04-.33-.15-.43-.3-.1-.16-.13-.33-.09-.51l1.09-4.57c.04-.18.14-.32.31-.42.16-.1.34-.13.52-.08l5.52,1.27.05-.21-5.52-1.27c-.07-.02-.15-.03-.22-.03Z"/>
      <path class="cls-1" d="m222.1,126.15c-.17,0-.34-.03-.5-.09l-4.53-1.54c-.39-.14-.68-.38-.86-.75-.18-.36-.2-.74-.07-1.12l1.57-4.45c.14-.38.4-.67.77-.84.37-.18.76-.2,1.15-.07l4.53,1.55c.38.13.68.38.86.75.18.36.2.74.07,1.12l-1.58,4.45c-.14.38-.39.67-.77.85-.21.1-.42.15-.64.15Zm-2.98-8.37c-.13,0-.26.03-.38.09-.23.11-.38.27-.46.51l-1.57,4.45c-.09.24-.07.46.04.67.11.22.28.37.52.45l4.53,1.55c.24.08.46.07.68-.04.23-.1.38-.27.46-.51l1.58-4.45c.08-.23.07-.45-.04-.67-.11-.22-.28-.36-.52-.45l-4.53-1.54c-.1-.04-.2-.06-.3-.06Zm2.96,7.55c-.07,0-.15-.01-.22-.04l-4.52-1.54c-.18-.06-.31-.18-.39-.34-.09-.17-.1-.35-.03-.52l1.57-4.43c.06-.17.18-.3.35-.38.17-.09.35-.09.53-.03l4.51,1.54c.18.06.31.18.39.34.08.17.1.35.03.52l-1.57,4.43c-.06.18-.18.31-.35.39-.1.05-.19.07-.3.07Zm-4.54-2.14l4.52,1.54s.05,0,.07,0c0,0,.04-.02.05-.05l1.57-4.43v-.07s-.03-.04-.03-.04l-4.54-1.55s-.04,0-.07,0c-.03,0-.04.02-.05.05l-1.57,4.43s0,.04,0,.07c.01.03.03.03.03.03h.02Z"/>
      <path class="cls-1" d="m230.34,129.92l-1.4-.65-1.92-7.13-2.45,5.11-1.28-.59,3.32-6.93,1.4.65,1.92,7.13,2.45-5.11,1.28.59-3.32,6.92Zm-.48-.87l.19.09,2.81-5.86-.2-.1-2.8,5.86Zm-.41-.19l.25.11-2.2-8.17-.25-.12,2.2,8.18Zm-5.36-2.49l.2.1,2.8-5.86-.19-.1-2.81,5.86Z"/>
      <path class="cls-1" d="m234.26,132.25l-1.21-.72,3.28-5.37-2.74-1.62.73-1.2,6.68,3.94-.73,1.2-2.73-1.61-3.28,5.37Zm-.39-.92l.19.11,3.27-5.37,2.73,1.61.11-.18-5.65-3.34-.11.18,2.74,1.62-3.28,5.37Z"/>
      <path class="cls-1" d="m243.41,138.59l-1.48-1.1-.19-3.42-1.98-1.47s-.04-.03-.07-.06l-1.61,2.11-1.13-.84,4.67-6.11,5.03,3.71c.33.24.53.57.58.97.05.4-.04.77-.29,1.09l-1.26,1.66c-.25.32-.58.52-.98.58-.41.05-.78-.04-1.11-.28l-.36-.27.19,3.44Zm-.9-1.4l.23.16-.2-3.43,1.39,1.03c.2.14.42.2.67.17.25-.03.44-.15.59-.34l1.27-1.66c.15-.2.2-.42.17-.66-.04-.24-.15-.43-.35-.58l-4.55-3.36-3.95,5.17.18.13,1.65-2.17.25.24c.12.12.21.2.25.24l2.21,1.63.19,3.43Zm1.96-2.28c-.14,0-.28-.05-.4-.13l-3.82-2.83c-.14-.11-.24-.26-.27-.43-.03-.19,0-.36.12-.51l1.26-1.65c.11-.14.27-.24.46-.26.19-.03.36.02.51.13l3.82,2.82c.15.11.24.26.26.45.02.18-.02.35-.13.49l-1.26,1.65c-.11.14-.27.24-.45.26-.03,0-.07,0-.1,0Zm-3.86-3.43l3.82,2.82s.04.02.04.02l.07-.03,1.25-1.65s.03-.04.02-.07l-3.85-2.87s-.02-.02-.06-.02h-.04s-1.28,1.68-1.28,1.68c0,.08,0,.1.03.11h0Z"/>
      <path class="cls-1" d="m249.02,143.12c-.38,0-.72-.13-1.01-.39l-3.53-3.19c-.31-.28-.47-.62-.48-1.02-.02-.4.11-.76.39-1.06l3.24-3.47c.28-.3.63-.46,1.04-.47.41-.02.77.11,1.07.38l3.53,3.19c.31.27.47.62.48,1.02.02.4-.11.76-.39,1.06l-3.24,3.47c-.28.3-.63.46-1.04.48h-.07Zm-.28-9.02h-.05c-.25.01-.45.1-.63.29l-3.24,3.47c-.17.19-.25.39-.24.63,0,.24.11.45.29.62l3.53,3.19c.19.17.4.24.64.24.25,0,.45-.1.63-.29l3.24-3.47c.17-.18.25-.39.24-.63,0-.24-.1-.44-.29-.61l-3.53-3.19c-.18-.16-.37-.24-.6-.24Zm.29,8.21c-.18,0-.34-.06-.46-.18l-3.52-3.18c-.14-.12-.21-.29-.22-.47,0-.18.06-.35.18-.48l3.23-3.46c.12-.14.29-.21.47-.22.2,0,.36.05.5.18l3.52,3.18c.14.13.21.29.22.47,0,.19-.05.35-.18.48l-3.23,3.46c-.13.14-.29.21-.48.22h-.03Zm-.29-7.4h0s-.04,0-.05.03l-3.23,3.46s-.02.03-.02.06c0,.03.01.05.01.05l3.54,3.2.07.02s.05,0,.06-.03l3.23-3.46s.02-.03.02-.06c0-.03-.01-.04-.03-.06l-3.52-3.18s-.03-.02-.06-.02Z"/>
      <path class="cls-1" d="m254.49,149.69l-5.18-5.73,5.83-5.09.94,1.04-4.77,4.17,4.23,4.69-1.06.93Zm-4.33-5.68l4.38,4.85.16-.14-4.23-4.69,4.77-4.16-.14-.16-4.93,4.31Z"/>
      <path class="cls-1" d="m261.51,156.73l-1.07-1.58-1.72.51-.81-1.19,1.72-.49-1.1-1.6-1.71.5-.81-1.18,1.72-.49-.5-.74,1.18-.77.75,1.1,1.62-.45-.87-1.26,1.18-.77,1.11,1.63,1.67-.44.81,1.18-1.68.43,1.1,1.61,1.67-.44.8,1.18-1.67.43.46.68-1.17.77-.72-1.05-1.61.46.82,1.2-1.18.78Zm-.82-2.26l.98,1.44.18-.12-.95-1.39,2.83-.79.63.92.18-.12-.6-.89,1.68-.43-.1-.14-1.67.43-1.81-2.64,1.68-.43-.1-.14-1.67.44-1.02-1.49-.18.12.99,1.44-2.83.8-.66-.97-.18.12.63.91-1.72.49.1.15,1.71-.51,1.8,2.64-1.72.49.11.15,1.71-.5Zm.12-.21l-1.79-2.62,2.82-.81,1.8,2.64-2.82.79Zm-.84-2.28l1.09,1.59,1.61-.45-1.1-1.6-1.61.46Z"/>
      <path class="cls-1" d="m265.22,163.18l-.53-.97-1.63.87-.67-1.23,1.63-.87-2.38-4.33,1.19-.63,6.46,2.27.63,1.15-3.98,2.11.53.97-1.25.66Zm-.29-1.77l.53.97.19-.1-.53-.96,3.98-2.11-.24-.44-5.98-2.11-.16.09,5.95,2.44-3.65,1.93-2.37-4.33-.19.1,2.38,4.33-1.63.87.1.19,1.63-.87Zm-1.01-3.53l1.34,2.44,2.01-1.06-3.34-1.37Z"/>
      <path class="cls-1" d="m268.07,169.77l-.44-1.01-1.71.71-.55-1.29,1.71-.71-1.96-4.54,1.25-.52,6.21,2.84.52,1.2-4.16,1.74.43,1.01-1.3.55Zm-.12-1.78l.43,1.01.2-.09-.44-1.01,4.16-1.74-.19-.46-5.76-2.64-.17.07,5.7,2.98-3.81,1.59-1.96-4.53-.2.08,1.96,4.53-1.71.71.09.2,1.71-.72Zm-.67-3.61l1.1,2.55,2.1-.88-3.2-1.67Z"/>
      <path class="cls-1" d="m269.7,177.51c-.23,0-.47-.06-.69-.18-.37-.19-.62-.48-.74-.87l-1.44-4.54c-.12-.4-.09-.78.1-1.14.19-.36.49-.61.89-.72l.44-.14.42,1.33-.43.14s-.03.02-.05.04c-.01.03-.01.05-.01.05l1.46,4.57s.01.04.01.04c.05.03.07.03.1.02l1.59-.49s.04-.02.05-.04v-.06s-1.48-4.68-1.48-4.68l1.35-.42,1.39,4.38s.02.04.05.05c.03.01.04.01.07,0l1.44-.44s.04-.02.05-.05c.01-.02,0-.05,0-.06l-1.35-4.25s-.02-.04-.05-.05c-.02-.01-.04-.01-.07,0l-.54.17-.42-1.34.53-.16c.4-.12.79-.09,1.16.1.37.19.62.49.74.88l1.35,4.24c.12.4.09.78-.1,1.13-.19.36-.5.61-.89.73l-1.44.44c-.17.05-.36.07-.55.06-.19.35-.49.59-.87.71l-1.59.49c-.16.05-.31.07-.46.07Zm-1.84-6.84c-.18.09-.31.21-.4.39-.12.22-.14.45-.06.69l1.44,4.54c.08.23.22.4.44.52.23.11.45.13.69.06l1.59-.49c.26-.08.44-.24.56-.48l.04-.08.33-.19h.1c.14.03.28.02.4-.02l1.44-.44c.24-.08.43-.22.54-.44.12-.22.14-.44.06-.68l-1.35-4.24c-.08-.24-.23-.42-.45-.53-.21-.11-.43-.14-.66-.07l.06.2c.17-.04.34-.02.49.06.17.09.29.22.34.4l1.35,4.25c.05.18.04.35-.05.52-.09.16-.23.28-.41.34l-1.44.44c-.18.05-.36.04-.52-.05-.17-.09-.29-.22-.34-.4l-1.21-3.81-.21.06,1.3,4.11c.05.17.04.35-.05.52-.08.16-.22.28-.4.33l-1.59.49c-.18.05-.36.04-.53-.05-.17-.09-.29-.23-.34-.4l-1.45-4.55c-.05-.17-.04-.35.05-.51.06-.12.15-.22.27-.29l-.06-.21Z"/>
      <path class="cls-1" d="m276.59,184.34l-6.97-2.15-.27-1.25,5.55-4.66.33,1.59-4.05,3.36,5.07,1.53.33,1.59Zm-6.45-2.61l5.66,1.75-.05-.26-5.65-1.69.05.21Zm-.12-.57l.05.22,4.52-3.75-.05-.26-4.51,3.79Z"/>
    </g>
    <path class="cls-1" d="m194.37,366.13v-.59c93.98,0,170.44-75.18,170.44-167.59h.6c0,44.93-17.79,87.16-50.1,118.92-32.31,31.77-75.25,49.26-120.94,49.26Z"/>
    <path class="cls-1" d="m75.13,78.21l-.42-.42c32.16-30.96,74.65-48.02,119.66-48.02,42.01,0,82.41,15.12,113.74,42.57l-.4.44c-31.23-27.36-71.48-42.43-113.34-42.43-44.85,0-87.2,16.99-119.24,47.85Z"/>
    <path class="cls-1" d="m9.77,155.11l-1.53-1.25c-2.4-1.95-4.6-3.91-6.83-5.9l-1.77-1.58,2.34-.51c2.94-.64,5.94-1.24,8.92-1.78l1.92-.35-.5,1.86c-.24.88-.48,1.75-.73,2.62l-.04.14c-.46,1.61-.92,3.25-1.31,4.86l-.46,1.9Zm-8.87-8.41l.91.82c2.23,1.98,4.42,3.94,6.81,5.89l.79.64.24-.97c.4-1.62.86-3.26,1.31-4.85l.05-.17c.24-.87.49-1.75.73-2.62l.26-.96-.99.19c-2.97.54-5.96,1.14-8.9,1.78l-1.2.26Zm7.75,5.1l-.36-.3c-1.26-1.06-2.58-2.21-4.28-3.71l-.44-.38.58-.12c1.88-.39,3.77-.77,5.62-1.12l.48-.09-.53,1.87c-.32,1.12-.64,2.26-.94,3.4l-.12.46Zm-3.8-4.06c1.33,1.17,2.43,2.12,3.46,3,.27-1,.55-1.98.82-2.95l.27-.96c-1.5.29-3.03.59-4.55.91Z"/>
    <path class="cls-1" d="m243.43,390l-1.58-1.73c-1.78-1.96-3.66-4.14-5.91-6.86l-1.3-1.58,2.03-.38c1.83-.34,3.68-.84,5.48-1.31.76-.2,1.51-.4,2.26-.59l1.91-.48-.39,1.9c-.59,2.91-1.25,5.87-1.95,8.78l-.54,2.26Zm-7.69-9.78l.67.81c2.24,2.71,4.11,4.89,5.89,6.84l.82.89.28-1.16c.7-2.91,1.35-5.85,1.94-8.75l.2-.98-.98.25c-.74.19-1.48.38-2.22.58-1.82.48-3.69.98-5.54,1.33l-1.04.2Zm6.69,5.91l-.39-.43c-1.15-1.3-2.35-2.7-3.68-4.29l-.31-.37.48-.11c1.37-.3,2.74-.67,4.06-1.02l1.3-.34-.1.47c-.38,1.83-.8,3.69-1.22,5.53l-.13.56Zm-3.3-4.73c1.06,1.26,2.03,2.4,2.98,3.47.34-1.49.67-2.99.99-4.48l-.35.09c-1.18.31-2.39.63-3.61.92Z"/>
    <path class="cls-1" d="m107.25,376.39l-.07-2.34c-.08-3-.12-6.02-.1-8.98v-1.95s7.19,3.51,7.19,3.51l3.66,1.58-5.14,4.07c-1.25.96-2.48,1.87-3.62,2.71l-1.91,1.4Zm.43-12.32v1.01c-.02,2.95.02,5.96.1,8.95l.04,1.2.98-.72c1.15-.85,2.37-1.76,3.61-2.71l4.37-3.46-2.77-1.19-6.33-3.09Zm1.34,8.71v-.58c-.05-1.89-.08-3.8-.08-5.65v-.48l5.41,2.59-2.73,2.16c-.71.54-1.42,1.08-2.13,1.61l-.47.35Zm.52-5.75c0,1.51.02,3.04.05,4.58.55-.42,1.11-.83,1.65-1.26l1.95-1.54-3.66-1.78Z"/>
    <path class="cls-1" d="m24.78,280.83l-2.01-.02c-3.08-.03-6.16-.1-9.16-.23l-2.4-.1,1.49-1.87c1.89-2.37,3.84-4.72,5.78-6.99l1.29-1.5,2.39,5.44,2.63,5.26Zm-12.38-.89l1.24.05c2.99.12,6.06.2,9.14.23h1.03s-2.21-4.42-2.21-4.42l-2.01-4.57-.66.77c-1.94,2.26-3.88,4.61-5.77,6.98l-.77.96Zm9.36-.98h-.49c-1.93-.04-3.86-.08-5.74-.14l-.6-.02.37-.46c1.19-1.46,2.4-2.94,3.62-4.38l.31-.37,1.2,2.74,1.32,2.63Zm-5.62-.72c1.53.05,3.08.09,4.65.11l-.89-1.78-.82-1.88c-.98,1.17-1.97,2.36-2.93,3.54Z"/>
    <path class="cls-1" d="m79.82,49l-.38-2c-.51-2.64-.96-5.45-1.44-8.85l-.33-2.32,2.12,1.07c2.71,1.37,5.42,2.8,8.04,4.23l1.73.95-5.29,3.61c-.96.65-1.94,1.31-2.84,2.03l-1.61,1.27Zm-1.4-12.12l.17,1.19c.48,3.39.93,6.2,1.44,8.83l.19,1.03.82-.66c.91-.72,1.91-1.4,2.87-2.05l4.5-3.07-.89-.49c-2.62-1.44-5.32-2.85-8.02-4.23l-1.09-.55Zm2.67,8.78l-.09-.46c-.3-1.71-.6-3.51-.9-5.53l-.09-.57.52.27c1.69.87,3.39,1.77,5.06,2.67l.42.23-2.81,1.92c-.59.4-1.16.79-1.73,1.2l-.39.28Zm-.3-5.5c.24,1.6.48,3.07.73,4.47.44-.31.88-.61,1.32-.91l2.05-1.39c-1.35-.73-2.73-1.45-4.1-2.16Z"/>
    <path class="cls-1" d="m214.55,11.91l-11.94-.89.97-1.67c1.48-2.55,3.03-5.12,4.63-7.67l1.25-1.99.94,2.16c1.19,2.73,2.34,5.51,3.43,8.27l.71,1.8Zm-10.94-1.41l10.04.75-.37-.93c-1.09-2.75-2.24-5.53-3.43-8.25l-.48-1.11-.64,1.03c-1.59,2.54-3.14,5.11-4.62,7.64l-.5.86Zm8.12-.64l-6.02-.45.24-.41c.94-1.6,1.92-3.23,2.91-4.82l.31-.49.23.53c.73,1.72,1.46,3.47,2.16,5.2l.18.44Zm-5.02-.97l4.11.31c-.57-1.4-1.15-2.82-1.75-4.22-.8,1.3-1.59,2.61-2.36,3.91Z"/>
    <path class="cls-1" d="m330.39,67.11l-8.65-8.13,1.84-.68c2.81-1.04,5.69-2.05,8.56-3.01l2.26-.75-.67,2.25c-.94,3.13-1.83,5.91-2.72,8.51l-.62,1.82Zm-7.55-7.91l7.28,6.83.32-.93c.88-2.59,1.77-5.37,2.71-8.48l.34-1.16-1.16.39c-2.86.95-5.74,1.96-8.55,3l-.95.35Zm6.71,4.57l-4.37-4.1.45-.16c1.79-.65,3.61-1.29,5.39-1.9l.55-.19-.17.55c-.6,1.93-1.16,3.68-1.71,5.35l-.15.44Zm-3.26-3.88l2.98,2.8c.46-1.37.91-2.79,1.39-4.34-1.45.49-2.91,1.01-4.37,1.54Z"/>
    <path class="cls-1" d="m383.78,182.32l-1.38-11.69,1.86.63c2.86.97,5.73,2,8.54,3.06l2.22.84-1.98,1.3c-2.56,1.69-5.12,3.32-7.61,4.84l-1.65,1.02Zm-.67-10.82l1.15,9.83.85-.52c2.48-1.52,5.04-3.14,7.59-4.83l1.01-.67-1.14-.43c-2.8-1.06-5.67-2.08-8.51-3.05l-.96-.32Zm2.19,7.72l-.7-5.89.46.16c1.8.62,3.61,1.26,5.37,1.92l.55.2-.49.32c-1.6,1.05-3.22,2.07-4.79,3.05l-.4.25Zm.01-5.02l.47,4.03c1.28-.8,2.59-1.63,3.88-2.47-1.44-.53-2.9-1.05-4.35-1.56Z"/>
    <path class="cls-1" d="m363.46,306.08l-2.35-.21c-3.09-.28-6.31-.71-9.09-1.09l-2.05-.28,1.22-1.64c1.27-1.71,2.43-3.54,3.56-5.31l1.85-2.9,1.04,1.67c1.56,2.51,3.13,5.11,4.65,7.74l1.16,2.02Zm-12.41-2.03l1.06.14c2.77.38,5.99.81,9.05,1.09l1.21.11-.6-1.05c-1.52-2.62-3.08-5.22-4.64-7.73l-.53-.86-1.34,2.1c-1.13,1.78-2.3,3.62-3.58,5.34l-.63.85Zm9.01-.13l-.58-.06c-2.12-.23-4.25-.51-5.67-.7l-.48-.06.28-.4c.95-1.36,1.85-2.77,2.71-4.13l.26-.41.27.39c.98,1.59,1.96,3.22,2.93,4.87l.29.5Zm-5.69-1.28c1.25.16,2.89.38,4.58.57-.78-1.33-1.58-2.65-2.36-3.94-.72,1.13-1.44,2.26-2.21,3.38Z"/>
    <path class="cls-1" d="m194.37,339.86c-38.55,0-74.79-14.76-102.04-41.57-27.26-26.8-42.27-62.44-42.27-100.35s15.01-73.54,42.27-100.34c27.26-26.8,63.5-41.56,102.04-41.56s74.79,14.76,102.05,41.56c27.26,26.81,42.26,62.45,42.26,100.34s-15.01,73.55-42.26,100.35c-27.26,26.8-63.5,41.57-102.05,41.57Zm0-283.23c-79.24,0-143.71,63.39-143.71,141.31s64.47,141.32,143.71,141.32,143.72-63.4,143.72-141.32S273.62,56.63,194.37,56.63Z"/>
    <g>
      <path class="cls-1" d="m175.12,55.79l-.84-7.61,7.12-.76.15,1.39-5.72.61.19,1.73,4.59-.49.15,1.39-4.59.49.34,3.11-1.41.15Zm-.18-7.09l.72,6.44.21-.02-.34-3.12,4.59-.49-.02-.21-4.59.49-.32-2.9,5.72-.61-.02-.22-5.93.63Z"/>
      <path class="cls-1" d="m183.54,54.96c-.37,0-.71-.13-.99-.37-.31-.27-.48-.61-.5-1.02l-.35-6.17,1.42-.08.35,6.16s0,.04.04.06c0,0,.03.03.06.03l4.77-.27s.05,0,.06-.03c.02-.02.02-.04.02-.04l-.35-6.18,1.41-.08.35,6.17c.03.4-.1.77-.38,1.06-.28.3-.62.46-1.04.49l-4.79.26s-.06,0-.1,0Zm-1.2-7.01l.32,5.58c.01.24.11.44.29.61s.39.24.65.22l4.79-.27c.25-.01.46-.11.63-.29.16-.18.24-.39.22-.64l-.32-5.58h-.21s.32,5.59.32,5.59c0,.19-.05.35-.18.49-.12.14-.29.22-.47.23l-4.77.26c-.19.01-.36-.05-.5-.17s-.22-.29-.23-.47l-.32-5.58h-.22Z"/>
      <path class="cls-1" d="m190.31,54.65l-.13-7.67,1.42-.02.1,6.27,6.37-.1.03,1.39-7.79.13Zm.48-7.08l.11,6.48,6.59-.1v-.22l-6.38.1-.1-6.27h-.22Z"/>
      <path class="cls-1" d="m205.78,54.96l-7.78-.38.38-7.65,1.42.07-.31,6.26,6.37.31-.07,1.39Zm-7.16-.93l6.59.32v-.22s-6.36-.3-6.36-.3l.31-6.26h-.22s-.32,6.47-.32,6.47Z"/>
      <path class="cls-1" d="m216.04,56.11l-6.22-.74c-.41-.05-.75-.23-1-.55-.25-.31-.36-.68-.31-1.09l.58-4.67c.05-.41.24-.74.57-.98.33-.25.7-.35,1.11-.3l6.22.74-.17,1.38-6.22-.74s-.05,0-.06.01c0,0-.03.03-.04.05l-.58,4.66.02.06s.04.03.06.03l6.22.75-.17,1.38Zm-5.48-7.76c-.2,0-.38.06-.55.19-.2.15-.31.34-.34.59l-.58,4.67c-.03.24.03.46.19.65.15.19.35.3.6.33l5.63.67.02-.21-5.63-.67c-.18-.02-.34-.11-.45-.25-.12-.14-.17-.32-.15-.5l.58-4.66c.02-.18.11-.34.26-.45s.32-.16.51-.14l5.63.67.02-.21-5.63-.67s-.09,0-.12,0Z"/>
      <path class="cls-1" d="m222.81,57.27c-.1,0-.19,0-.29-.02l-4.72-.83c-.41-.07-.73-.28-.97-.6-.24-.33-.32-.7-.25-1.11l.85-4.64c.07-.4.28-.72.62-.95.34-.23.72-.31,1.12-.24l4.72.83c.41.08.73.28.97.61s.32.7.24,1.1l-.84,4.64c-.07.41-.28.72-.62.95-.26.18-.54.27-.84.27Zm-3.92-7.82c-.18,0-.34.05-.5.15-.21.14-.33.33-.37.57l-.84,4.64c-.05.24,0,.46.14.66.14.2.34.32.58.37l4.72.82c.25.05.47,0,.67-.14.2-.14.33-.33.37-.58l.85-4.63c.04-.24,0-.46-.15-.66-.14-.2-.33-.32-.58-.36l-4.72-.83c-.06,0-.12-.01-.17-.01Zm3.89,7.02s-.08,0-.12-.01l-4.71-.82c-.18-.04-.34-.13-.44-.28-.11-.15-.15-.33-.12-.51l.84-4.62c.04-.18.13-.34.29-.44s.34-.14.52-.11l4.71.82c.18.04.34.13.44.28.11.15.14.33.11.5l-.84,4.62c-.03.18-.13.34-.28.44-.12.08-.25.12-.39.12Zm-4.72-1.42l4.71.83.07-.02s.03-.03.03-.03l.85-4.64s0-.04-.02-.06l-.05-.04-4.71-.83s-.04,0-.07.01c-.02.02-.03.03-.03.06l-.84,4.62s0,.04.01.06c.02.03.04.04.05.04h0Z"/>
      <path class="cls-1" d="m231.96,59.34l-1.5-.34-3.37-6.59-1.33,5.49-1.38-.32,1.8-7.45,1.5.35,3.37,6.59,1.33-5.49,1.38.32-1.8,7.45Zm-.65-.76l.21.05,1.52-6.3-.21-.05-1.52,6.3Zm-.44-.1l.27.06-3.87-7.55-.27-.06,3.86,7.55Zm-5.77-1.34l.21.05,1.52-6.3-.21-.05-1.52,6.3Z"/>
      <path class="cls-1" d="m236.43,60.65l-1.36-.4,1.8-6-3.06-.89.4-1.34,7.47,2.17-.4,1.34-3.06-.89-1.8,6.01Zm-.61-.79l.21.06,1.8-6.01,3.05.89.06-.21-6.33-1.83-.06.21,3.07.89-1.8,6.01Z"/>
      <path class="cls-1" d="m247.11,64.19l-1.75-.61-1.21-3.21-2.35-.82s-.05-.02-.08-.03l-.9,2.48-1.34-.47,2.6-7.2,5.92,2.07c.39.14.68.39.85.75.18.37.19.75.06,1.13l-.71,1.95c-.14.38-.39.66-.76.84-.37.17-.76.19-1.15.05l-.43-.14,1.23,3.22Zm-1.28-1.07l.26.09-1.24-3.22,1.65.57c.24.09.46.08.68-.03.23-.1.38-.27.46-.5l.7-1.95c.09-.23.08-.45-.03-.67-.11-.22-.28-.37-.51-.45l-5.36-1.88-2.2,6.1.2.07.92-2.55.31.15c.16.08.26.14.32.15l2.61.91,1.22,3.21Zm.98-2.71c-.08,0-.15-.01-.23-.04l-4.51-1.57c-.17-.06-.31-.18-.39-.34s-.1-.34-.03-.52l.7-1.95c.06-.17.18-.3.35-.38.17-.08.35-.09.53-.03l4.51,1.57c.18.06.31.18.38.35.08.17.09.34.02.52l-.7,1.94c-.06.17-.18.3-.34.38-.1.05-.19.07-.29.07Zm-3.81-4.28h-.04s-.04.04-.05.06l-.7,1.94c.01.08.03.1.05.1l4.51,1.57s.05,0,.06,0l.74-1.99v-.07s-4.56-1.61-4.56-1.61h-.03Z"/>
      <path class="cls-1" d="m253.54,66.73c-.19,0-.39-.04-.58-.12l-4.42-1.83c-.38-.15-.65-.43-.81-.8-.15-.38-.15-.75,0-1.13l1.86-4.35c.16-.37.43-.64.81-.79.38-.15.77-.15,1.15,0l4.43,1.83c.38.16.65.43.81.8.15.37.15.75,0,1.13l-1.85,4.34c-.16.38-.43.64-.82.8-.19.07-.37.11-.56.11Zm-2.58-8.53c-.11,0-.22.03-.34.07-.23.09-.39.24-.48.48l-1.86,4.34c-.1.23-.1.45,0,.67.1.23.25.38.49.48l4.42,1.83c.23.1.45.1.69,0,.23-.09.39-.25.48-.48l1.86-4.34c.1-.23.1-.45,0-.68-.1-.22-.25-.38-.48-.48l-4.42-1.83c-.12-.05-.24-.08-.35-.08Zm2.57,7.73c-.09,0-.18-.02-.27-.05l-4.41-1.82c-.17-.07-.3-.2-.37-.37-.07-.17-.07-.35,0-.52l1.84-4.33c.07-.17.2-.29.37-.36.18-.07.36-.07.53,0l4.41,1.82c.17.07.3.19.37.37.07.17.07.35,0,.52l-1.85,4.33c-.07.17-.2.29-.37.36-.09.04-.17.05-.26.05Zm-2.56-6.91h-.04s-.04.03-.05.05l-1.85,4.33s0,.04,0,.07c.01.03.02.04.05.05l4.41,1.82s.04,0,.07,0l.04-.03,1.85-4.35s0-.04,0-.06c0,0-.03-.04-.05-.05l-4.41-1.82s-.02,0-.03,0Z"/>
      <path class="cls-1" d="m261.71,70.7l-7.01-3.35,3.41-6.89,1.27.61-2.79,5.64,5.74,2.74-.62,1.25Zm-6.21-3.62l5.94,2.83.09-.19-5.73-2.74,2.78-5.64-.19-.1-2.88,5.83Z"/>
      <path class="cls-1" d="m279.1,323.95l-2.56-3.66-.92.62-.8-1.15.92-.62-1.05-1.51,1.17-.79,1.05,1.51,4.13-2.79.77,1.1-1.6,6.55-1.11.74Zm-2.4-4.48l2.56,3.66.41-.28,1.49-6.08-.11-.15-1.83,6.09-2.35-3.36,4.13-2.79-.12-.18-4.13,2.79-1.05-1.5-.19.12,1.05,1.51-.92.62.12.18.92-.62Zm1.01.03l1.29,1.86,1.03-3.42-2.32,1.56Z"/>
      <path class="cls-1" d="m272.69,327.91l-2.37-3.78-.95.58-.74-1.19.95-.57-.97-1.56,1.2-.73.97,1.56,4.27-2.59.71,1.13-1.93,6.47-1.14.69Zm-2.18-4.59l2.37,3.78.43-.26,1.79-6-.1-.16-2.13,5.99-2.17-3.47,4.26-2.59-.11-.18-4.27,2.59-.97-1.55-.19.11.97,1.55-.95.58.11.19.95-.58Zm1.01.08l1.2,1.91,1.2-3.36-2.4,1.45Z"/>
      <path class="cls-1" d="m265.07,331.9c-.12,0-.24-.01-.37-.05-.35-.08-.65-.24-.89-.48l-.05-.06-.8-1.44c-.13-.24-.19-.5-.18-.81-.26-.15-.46-.34-.59-.58l-.81-1.47c-.2-.35-.24-.73-.12-1.13.11-.39.36-.68.72-.88l4.25-2.28c.37-.2.76-.24,1.15-.12.39.12.7.36.89.71l.81,1.46c.14.24.19.51.18.81.26.15.46.35.59.58l.7,1.26c.2.36.24.74.13,1.13-.11.39-.36.69-.73.89l-4.25,2.28c-.2.1-.41.16-.64.16Zm-.81-.91c.16.14.34.24.58.29.23.05.42.03.58-.06l4.25-2.28c.23-.12.37-.29.44-.53.07-.24.05-.46-.08-.68l-.7-1.26c-.1-.18-.27-.32-.52-.43l-.2-.1.04-.22c.04-.25.01-.46-.09-.64l-.82-1.46c-.12-.22-.29-.36-.53-.43-.24-.07-.47-.05-.69.08l-4.25,2.28c-.22.12-.37.29-.43.53-.07.24-.05.46.07.68l.81,1.47c.1.18.27.31.51.42l.2.09-.03.22c-.04.26,0,.49.09.66l.78,1.4Zm.72.1c-.07,0-.14,0-.2-.03-.18-.05-.33-.17-.41-.33l-.76-1.36c-.09-.16-.11-.34-.05-.52.05-.17.17-.32.33-.4l4.25-2.28c.16-.09.34-.11.53-.05.18.05.32.16.41.33l.76,1.36c.09.16.11.34.05.51-.05.18-.16.32-.33.41l-4.25,2.28c-.1.06-.21.08-.32.08Zm-.84-2l.76,1.36s.02.03.05.04.05,0,.06,0l4.25-2.28s.04-.02.04-.02c.02-.05.02-.07,0-.1l-.76-1.36s-.03-.03-.05-.05h-.07s-4.25,2.29-4.25,2.29c0,0-.03.03-.04.05,0,.03,0,.05,0,.05v.02Zm-.62-.65c-.06,0-.13,0-.19-.02-.18-.05-.32-.17-.41-.33l-.82-1.47c-.09-.16-.1-.34-.05-.51.05-.19.17-.33.33-.41l4.25-2.28c.16-.09.34-.1.53-.05.18.05.32.16.41.33l.82,1.46c.09.16.11.34.05.52-.05.18-.17.31-.33.4l-4.25,2.28c-.1.06-.21.08-.33.08Zm-.89-2.1l.81,1.46s.03.04.05.04h.07s4.25-2.29,4.25-2.29c.02,0,.03-.02.04-.05v-.06s-.82-1.47-.82-1.47c0-.02-.02-.03-.02-.03-.06-.02-.07-.01-.1,0l-4.25,2.28s-.03.02-.04.05c0,.02,0,.04,0,.06Z"/>
      <path class="cls-1" d="m258.94,334.87c-.17,0-.34-.03-.51-.09-.39-.14-.68-.39-.86-.77l-2.73-5.56,1.28-.61,2.73,5.57s.02.03.02.03c.06.02.09.01.09.01l4.61-2.18.61,1.26-4.59,2.17c-.21.1-.42.15-.64.15Zm-3.29-6.14l2.46,5.03c.11.23.28.38.52.46.24.09.47.07.69-.04l4.04-1.92-.09-.19-4.05,1.92c-.17.08-.35.09-.53.02-.18-.06-.32-.18-.4-.34l-2.46-5.04-.19.09Z"/>
      <path class="cls-1" d="m254.76,336.84l-3.13-7.01,1.3-.56,2.3,5.17v-.03c.14-.41.21-.68.25-.82l.04-.13,1.7-.74-1.05,3.51-1.42.61Zm-2.33-6.71l2.64,5.93.2-.09-2.64-5.93-.2.09Zm3.6,3.75c-.05.15-.12.38-.2.68-.12.4-.2.67-.24.81l-.13.53.23-.1.6-2.03-.26.11Z"/>
      <path class="cls-1" d="m247.62,339.57c-.21,0-.41-.05-.61-.13-.38-.17-.64-.45-.8-.83l-.55-1.38c-.06-.17-.1-.35-.1-.54-.37-.16-.63-.43-.78-.81l-.61-1.53c-.15-.38-.14-.76.03-1.13.17-.37.44-.63.83-.78l4.51-1.73c.39-.15.78-.14,1.16.02.38.17.65.44.8.82l.17.42-1.32.51-.17-.42s-.01-.03-.05-.05c-.03-.01-.05-.01-.05-.01l-4.54,1.74s-.03.02-.05.05c-.01.03-.01.05,0,.07l.6,1.53s.02.03.05.05c.03.01.04.01.06,0l4.64-1.78.52,1.3-4.34,1.66s-.04.02-.05.05c-.01.03,0,.05,0,.07l.55,1.39s.02.04.05.05c.03,0,.05,0,.07,0l4.22-1.62s.04-.02.04-.02c.02-.06.03-.08.01-.1l-.2-.51,1.32-.51.2.52c.15.38.14.77-.02,1.14-.17.38-.45.64-.84.79l-4.21,1.62c-.19.07-.38.11-.56.11Zm2.5-8.38c-.11,0-.23.02-.34.06l-4.51,1.73c-.24.09-.4.24-.5.48-.1.23-.11.45-.01.68l.6,1.52c.1.24.27.41.53.51l.09.04.21.31v.1c-.01.14,0,.27.05.39l.55,1.38c.1.24.25.4.48.5.23.1.46.1.7.01l4.21-1.62c.24-.09.41-.25.51-.48.1-.21.1-.43.03-.66l-.21.08c.06.16.05.33-.02.48-.07.17-.2.3-.38.36l-4.22,1.62c-.18.07-.35.06-.53,0-.17-.07-.3-.2-.36-.38l-.55-1.39c-.07-.17-.06-.35.01-.52.07-.17.21-.3.38-.36l3.78-1.45-.08-.19-4.08,1.56c-.18.07-.36.06-.53-.01-.17-.07-.3-.2-.36-.37l-.61-1.53c-.07-.17-.06-.35,0-.52.08-.17.21-.29.38-.36l4.51-1.73c.18-.07.36-.06.53,0,.13.05.23.14.3.25l.2-.08c-.1-.17-.24-.29-.42-.37-.12-.05-.24-.07-.36-.07Z"/>
      <path class="cls-1" d="m239.26,342.36c-.23,0-.45-.05-.67-.16-.37-.19-.63-.48-.76-.87l-.52-1.58c-.13-.38-.1-.77.09-1.13.19-.36.48-.61.88-.74l4.6-1.48s.03-.01.05-.04c.01-.03.01-.05,0-.07l-.46-1.39s-.02-.04-.05-.05c-.02-.01-.05-.01-.06,0l-6.03,1.94-.44-1.33,7.47-2.4.93,2.8c.13.39.1.77-.08,1.13-.19.36-.48.61-.88.74l-4.6,1.48s-.04.02-.05.04c-.02.03-.02.05,0,.07l.53,1.58s.02.04.02.04c.05.03.07.03.07.03l4.62-1.48.05-.05s.02-.05,0-.07l-.18-.55,1.35-.43.18.54c.13.39.1.77-.08,1.13-.18.36-.48.62-.88.74l-4.6,1.48c-.16.05-.32.08-.48.08Zm3.13-8.11c.1,0,.21.02.31.08.17.08.29.22.34.39l.46,1.39c.06.18.05.36-.04.52-.09.17-.22.29-.4.34l-4.6,1.47c-.24.08-.41.22-.53.45-.12.22-.14.44-.06.68l.53,1.58c.08.24.23.41.45.53.23.11.45.13.69.05l4.6-1.48c.24-.08.42-.23.53-.45.11-.21.13-.43.05-.67l-.2.07c.05.17.04.34-.05.51-.09.16-.22.28-.4.34l-4.6,1.48c-.18.05-.36.04-.53-.05-.16-.08-.28-.21-.34-.39l-.53-1.59c-.05-.18-.04-.35.05-.52.08-.16.22-.28.4-.34l4.6-1.48c.24-.08.42-.22.53-.44.11-.21.13-.44.05-.68l-.74-2.23-6.33,2.02.07.21,5.46-1.76c.07-.02.14-.03.22-.03Z"/>
      <path class="cls-1" d="m231.05,344.61c-.26,0-.51-.07-.75-.2-.36-.21-.6-.51-.7-.91l-.43-1.6c-.1-.39-.05-.77.15-1.13.21-.35.52-.58.92-.68l4.67-1.22s.04-.01.05-.04.02-.05,0-.07l-.38-1.41s0-.04-.04-.05c-.03-.02-.05-.02-.05-.02l-6.15,1.61-.36-1.35,7.59-1.98.77,2.84c.11.4.06.78-.14,1.13-.21.35-.52.58-.93.69l-4.67,1.22s-.04.01-.04.01c-.03.05-.03.07-.03.07l.43,1.63s.02.04.05.05h.07s4.68-1.21,4.68-1.21c0,0,.04-.01.05-.04.01-.02.02-.04,0-.07l-.15-.55,1.37-.36.15.55c.11.4.06.78-.14,1.13-.2.35-.52.58-.92.69l-4.68,1.22c-.14.04-.27.05-.39.05Zm3.46-7.93c.12,0,.24.03.34.09.16.1.27.24.32.41l.38,1.41c.05.18.02.35-.08.52-.09.15-.24.27-.41.31l-4.68,1.22c-.24.06-.42.2-.55.42s-.16.43-.1.68l.43,1.6c.06.25.2.43.43.55.21.13.44.15.68.09l4.68-1.22c.25-.06.43-.19.55-.41.12-.21.15-.43.1-.67l-.22.06c.05.17.02.34-.07.49-.09.16-.24.27-.42.32l-4.67,1.22c-.18.05-.36.02-.52-.07-.16-.1-.28-.24-.33-.41l-.43-1.61c-.05-.18-.02-.35.07-.52.09-.16.24-.27.42-.32l4.68-1.22c.25-.06.43-.2.56-.41.12-.21.15-.43.09-.68l-.62-2.28-6.43,1.68.06.21,5.55-1.45c.06-.02.12-.02.18-.02Z"/>
      <path class="cls-1" d="m226.36,345.68l-1.68-7.47,1.39-.3,1.24,5.51.02-.04c.2-.37.34-.62.4-.75l.06-.12,1.81-.39-1.72,3.24-1.51.33Zm-.97-7.03l1.42,6.33.21-.05-1.42-6.32-.21.05Zm2.79,4.37c-.08.14-.19.35-.34.63-.2.37-.33.62-.39.75l-.24.48.24-.05,1-1.87-.28.06Z"/>
      <path class="cls-1" d="m217.54,347.31l-.25-1.38,6.25-1.09s.04,0,.06-.04v-.06h.01l-.26-1.43-.05-.07s-.04-.02-.06-.01l-4.76.83c-.41.07-.79,0-1.12-.24-.34-.23-.55-.55-.63-.96l-.3-1.64c-.07-.4,0-.77.25-1.11.24-.33.57-.54.97-.61l4.76-.83c.42-.07.8,0,1.14.24.34.23.54.56.61.96l.1.57-1.39.25-.1-.58s-.02-.04-.04-.05c-.03-.02-.05-.02-.05-.02l-4.79.84-.05.04s-.02.04-.01.06l.29,1.64.04.06s.05.02.07.01l6.25-1.1.79,4.36-7.74,1.36Zm.45-.9l.04.21,6.55-1.15-.58-3.2-5.66.99c-.18.03-.36,0-.52-.11-.15-.1-.25-.26-.29-.43l-.29-1.64c-.04-.18,0-.35.11-.5.1-.15.26-.25.44-.28l4.76-.83c.19-.03.36,0,.52.11.15.1.25.25.28.43l.22-.04c-.05-.24-.17-.43-.37-.57-.2-.14-.43-.19-.68-.14l-4.77.83c-.24.04-.44.16-.58.37-.14.2-.19.42-.15.67l.3,1.64c.04.25.16.44.37.58.21.14.43.19.68.14l4.76-.83c.19-.04.37,0,.53.12.15.1.24.26.28.44l.26,1.42c.03.18,0,.36-.11.51-.11.15-.27.25-.44.28l-5.66.99Z"/>
    </g>
    <polygon class="cls-1" points="25.28 218.88 25.16 218.3 45.6 214.44 45.71 215.02 25.28 218.88"/>
    <polygon class="cls-1" points="28.05 234.55 27.89 233.99 47.86 228.24 48.03 228.8 28.05 234.55"/>
    <polygon class="cls-1" points="32.33 249.9 32.12 249.35 51.44 241.76 51.66 242.31 32.33 249.9"/>
    <polygon class="cls-1" points="38.08 264.77 37.8 264.24 56.31 254.89 56.58 255.42 38.08 264.77"/>
    <polygon class="cls-1" points="45.22 279.04 44.9 278.55 62.42 267.5 62.74 268 45.22 279.04"/>
    <polygon class="cls-1" points="53.72 292.58 53.34 292.11 69.72 279.5 70.09 279.96 53.72 292.58"/>
    <polygon class="cls-1" points="63.47 305.27 63.06 304.84 78.15 290.75 78.56 291.18 63.47 305.27"/>
    <polygon class="cls-1" points="74.41 316.99 73.96 316.6 87.62 301.17 88.07 301.55 74.41 316.99"/>
  </g>
  <g>
    <g>
      <g>
        <path class="cls-1" d="m300.4,265.08l1.07-1.72.53-.86.52-.87,1.03-1.74.99-1.77.49-.89.48-.89.94-1.79.9-1.82.45-.91.43-.92.86-1.83.81-1.86.4-.92.38-.94.77-1.88c.97-2.52,1.92-5.05,2.72-7.62,3.32-10.27,5.28-20.97,5.88-31.76l16.59.91c-.67,12.19-2.89,24.32-6.65,35.96-.92,2.92-1.99,5.78-3.09,8.63l-.87,2.12-.43,1.06-.46,1.05-.92,2.1-.97,2.08-.48,1.04-.51,1.02-1.02,2.05-1.07,2.03-.53,1.01-.56,1-1.12,2-1.17,1.97-.58.99-.61.97-1.22,1.94-13.99-8.96Z"/>
        <path class="cls-1" d="m296.45,270.86c.49-.65.95-1.32,1.41-1.99.46-.67.93-1.34,1.37-2.02l13.84,9.19c-.5.77-1.03,1.53-1.55,2.29-.53.75-1.05,1.52-1.59,2.26l-13.47-9.72Z"/>
        <path class="cls-1" d="m320.14,201.99c.08-1.62.08-3.26.1-4.88h16.61c-.02,1.84-.02,3.68-.11,5.52l-16.6-.63Z"/>
        <g>
          <path class="cls-1" d="m297.65,271.73c-5.27,7.3-11.3,14.05-17.98,20.1-6.69,6.04-14,11.37-21.79,15.89l39.78-35.99Z"/>
          <path class="cls-1" d="m258.59,308.96l-1.44-2.47c7.69-4.46,14.94-9.75,21.55-15.72,6.56-5.93,12.55-12.62,17.79-19.87l2.31,1.67c-5.36,7.42-11.48,14.26-18.19,20.32-6.76,6.11-14.17,11.51-22.03,16.07Z"/>
        </g>
      </g>
      <g>
        <path class="cls-1" d="m188.32,323.19c10.81.48,21.66-.4,32.21-2.66l1.98-.43,1.97-.48.98-.24c.33-.08.65-.18.98-.26l1.95-.53c2.59-.76,5.18-1.54,7.71-2.45,5.1-1.78,10.06-3.94,14.88-6.36l7.51,14.82c-5.45,2.75-11.08,5.18-16.85,7.21-2.88,1.04-5.8,1.93-8.74,2.79l-2.21.6c-.37.1-.74.2-1.11.3l-1.11.27-2.23.54-2.24.48c-11.96,2.57-24.23,3.56-36.42,3.02l.73-16.6Z"/>
        <path class="cls-1" d="m181.33,322.7l2.44.22c.4.04.81.06,1.22.09l1.22.08-1.01,16.59-1.38-.09c-.46-.03-.92-.06-1.38-.1l-2.75-.25,1.65-16.53Z"/>
        <path class="cls-1" d="m252.86,308.8c.72-.38,1.44-.76,2.15-1.16.71-.4,1.42-.78,2.13-1.2l8.32,14.38c-.79.47-1.6.91-2.4,1.35-.8.46-1.62.89-2.44,1.32l-7.75-14.69Z"/>
        <g>
          <path class="cls-1" d="m181.19,324.17c-17.93-1.78-35.44-7.43-51.02-16.45l51.02,16.45Z"/>
          <path class="cls-1" d="m181.05,325.59c-18.04-1.78-35.88-7.53-51.6-16.63l1.43-2.47c15.37,8.89,32.81,14.52,50.44,16.26l-.28,2.84Z"/>
        </g>
      </g>
      <g>
        <path class="cls-1" d="m81.95,255.22l.94,1.79c.32.6.66,1.18.98,1.78.64,1.18,1.35,2.33,2.03,3.5,1.41,2.3,2.86,4.58,4.41,6.79,3.07,4.44,6.46,8.66,10.07,12.68,7.26,8,15.51,15.11,24.56,21.01l-9.11,13.89c-10.23-6.68-19.57-14.71-27.78-23.75-4.08-4.54-7.91-9.32-11.39-14.34-1.76-2.5-3.4-5.08-4.99-7.68-.77-1.32-1.57-2.62-2.3-3.96-.37-.67-.75-1.33-1.11-2l-1.07-2.03,14.74-7.66Z"/>
        <path class="cls-1" d="m78.89,248.93c.69,1.47,1.36,2.95,2.1,4.41l-14.87,7.41c-.84-1.64-1.6-3.32-2.38-4.99l15.14-6.83Z"/>
        <path class="cls-1" d="m126.73,303.91c.69.43,1.38.87,2.08,1.29l2.1,1.24-8.32,14.38-2.38-1.4c-.79-.48-1.56-.97-2.35-1.46l8.87-14.05Z"/>
        <g>
          <path class="cls-1" d="m77.54,249.53c-3.7-8.21-6.52-16.81-8.4-25.61-1.88-8.8-2.83-17.8-2.83-26.82l11.23,52.43Z"/>
          <path class="cls-1" d="m76.24,250.12c-3.74-8.3-6.59-17.01-8.49-25.9-1.9-8.86-2.86-17.99-2.86-27.12h2.86c0,8.93.94,17.85,2.8,26.52,1.86,8.69,4.65,17.21,8.3,25.33l-2.6,1.17Z"/>
        </g>
      </g>
    </g>
    <g>
      <g>
        <path class="cls-1" d="m87.65,129.12l-1.08,1.72-.53.86-.51.87-1.03,1.74-.99,1.77-.5.89-.47.89-.95,1.79-.9,1.82-.45.9-.43.92-.86,1.83-.82,1.85-.41.93-.38.94-.77,1.87c-.97,2.52-1.92,5.05-2.73,7.63-3.32,10.27-5.28,20.97-5.87,31.76l-16.59-.91c.67-12.19,2.89-24.32,6.65-35.95.91-2.91,1.98-5.78,3.08-8.63l.87-2.12.43-1.06.46-1.05.92-2.1.97-2.08.49-1.04.51-1.02,1.02-2.06,1.07-2.02.53-1.01.56-1.01,1.12-2,1.16-1.97.58-.99.6-.97,1.21-1.94,13.99,8.96Z"/>
        <path class="cls-1" d="m91.59,123.34c-.49.65-.94,1.33-1.41,2-.46.67-.93,1.34-1.37,2.02l-13.85-9.19c.5-.77,1.03-1.53,1.55-2.28.53-.76,1.05-1.52,1.59-2.26l13.47,9.72Z"/>
        <path class="cls-1" d="m67.9,192.21c-.08,1.63-.08,3.26-.1,4.89h-16.61c.03-1.84.03-3.68.12-5.53l16.6.63Z"/>
        <g>
          <path class="cls-1" d="m90.39,122.47c5.27-7.3,11.3-14.05,17.99-20.1,6.68-6.04,14-11.37,21.79-15.89l-39.78,35.99Z"/>
          <path class="cls-1" d="m91.55,123.31l-2.32-1.68c5.37-7.42,11.49-14.25,18.19-20.32,6.76-6.11,14.18-11.51,22.03-16.06l1.43,2.47c-7.69,4.46-14.93,9.74-21.54,15.72-6.56,5.93-12.55,12.61-17.79,19.87Z"/>
        </g>
      </g>
      <g>
        <path class="cls-1" d="m199.72,71.01c-10.8-.48-21.66.4-32.21,2.66l-1.97.43-1.97.48-.99.24c-.33.08-.65.18-.98.26l-1.95.53c-2.59.76-5.17,1.54-7.71,2.46-5.1,1.78-10.06,3.93-14.88,6.36l-7.51-14.82c5.46-2.75,11.08-5.18,16.84-7.21,2.88-1.04,5.81-1.93,8.74-2.78l2.21-.6c.37-.1.74-.2,1.11-.3l1.11-.27,2.23-.54,2.23-.49c11.96-2.57,24.23-3.55,36.43-3.02l-.74,16.6Z"/>
        <path class="cls-1" d="m206.71,71.51l-2.44-.22c-.4-.04-.81-.06-1.22-.09l-1.22-.08,1.01-16.58,1.38.09c.46.03.92.06,1.38.1l2.75.24-1.65,16.53Z"/>
        <path class="cls-1" d="m135.18,85.41c-.72.38-1.44.76-2.15,1.16-.71.4-1.42.79-2.12,1.2l-8.32-14.38c.8-.47,1.6-.91,2.41-1.36.8-.46,1.61-.88,2.43-1.31l7.76,14.69Z"/>
        <g>
          <path class="cls-1" d="m206.85,70.04c17.93,1.77,35.43,7.43,51.02,16.45l-51.02-16.45Z"/>
          <path class="cls-1" d="m257.16,87.72c-15.36-8.89-32.81-14.52-50.44-16.27l.28-2.84c18.04,1.78,35.88,7.54,51.59,16.64l-1.43,2.47Z"/>
        </g>
      </g>
      <g>
        <path class="cls-1" d="m306.1,138.98l-.95-1.79c-.32-.59-.66-1.18-.98-1.77-.65-1.19-1.35-2.34-2.03-3.51-1.41-2.3-2.86-4.58-4.42-6.79-3.07-4.45-6.46-8.66-10.07-12.68-7.26-8-15.51-15.1-24.56-21.01l9.1-13.9c10.24,6.68,19.57,14.71,27.78,23.76,4.09,4.54,7.92,9.32,11.39,14.34,1.76,2.5,3.4,5.08,4.99,7.69.77,1.31,1.57,2.62,2.31,3.96.37.67.75,1.33,1.11,2.01l1.07,2.02-14.74,7.66Z"/>
        <path class="cls-1" d="m309.15,145.28c-.68-1.47-1.36-2.95-2.1-4.41l14.87-7.41c.83,1.64,1.59,3.32,2.38,4.99l-15.15,6.83Z"/>
        <path class="cls-1" d="m261.31,90.3c-.69-.43-1.38-.87-2.07-1.29l-2.1-1.24,8.32-14.38,2.38,1.4c.79.48,1.57.97,2.35,1.46l-8.87,14.05Z"/>
        <g>
          <path class="cls-1" d="m310.5,144.67c3.7,8.21,6.51,16.81,8.4,25.61,1.88,8.8,2.83,17.81,2.83,26.83l-11.23-52.44Z"/>
          <path class="cls-1" d="m320.3,197.11c0-8.94-.95-17.86-2.8-26.53-1.86-8.69-4.65-17.21-8.3-25.33l2.61-1.17c3.73,8.3,6.59,17.02,8.49,25.9,1.9,8.87,2.86,17.99,2.86,27.12h-2.85Z"/>
        </g>
      </g>
    </g>
  </g>
  <g>
    <path class="cls-1" d="m195.43,339.41h-.09c-4.09,0-8.22-.18-12.29-.52l.26-3.08c3.97.34,8.02.51,12.02.51l.09,3.09Zm12.37-.54l-.27-3.08c4.01-.34,8.05-.88,12.01-1.57l.53,3.04c-4.04.71-8.17,1.25-12.27,1.61Zm-37.03-1.58c-4.05-.71-8.12-1.6-12.09-2.66l.79-2.98c3.89,1.04,7.87,1.91,11.83,2.6l-.53,3.04Zm61.4-2.7l-.79-2.98c3.89-1.04,7.77-2.26,11.55-3.64l1.06,2.9c-3.86,1.41-7.83,2.66-11.81,3.73Zm-85.3-3.67c-3.87-1.4-7.72-3-11.45-4.74l1.3-2.8c3.65,1.7,7.42,3.26,11.2,4.64l-1.05,2.9Zm108.55-4.8l-1.3-2.8c3.65-1.71,7.26-3.59,10.74-5.61l1.54,2.67c-3.56,2.06-7.25,3.99-10.98,5.73Zm-130.99-5.66c-3.56-2.05-7.08-4.29-10.45-6.65l1.77-2.53c3.3,2.31,6.73,4.5,10.22,6.51l-1.54,2.67Zm152.41-6.74l-1.78-2.53c3.29-2.31,6.53-4.8,9.61-7.39l1.99,2.36c-3.15,2.65-6.45,5.19-9.82,7.55Zm-172.69-7.45c-3.15-2.64-6.23-5.46-9.13-8.37l2.18-2.19c2.85,2.85,5.86,5.6,8.94,8.18l-1.98,2.37Zm191.63-8.47l-2.18-2.18c2.84-2.84,5.6-5.85,8.19-8.93l2.36,1.98c-2.64,3.15-5.46,6.22-8.37,9.13Zm-209.14-9.02c-2.65-3.15-5.19-6.45-7.56-9.81l2.53-1.78c2.31,3.29,4.8,6.52,7.39,9.6l-2.36,1.99Zm225.06-9.94l-2.53-1.78c2.31-3.3,4.51-6.73,6.52-10.21l2.68,1.54c-2.06,3.56-4.3,7.07-6.67,10.44Zm-239.29-10.31c-2.06-3.56-3.99-7.26-5.73-10.97l2.79-1.31c1.7,3.64,3.59,7.25,5.61,10.74l-2.68,1.54Zm251.69-11.11l-2.8-1.31c1.7-3.65,3.27-7.41,4.65-11.2l2.89,1.05c-1.4,3.88-3,7.73-4.74,11.45Zm-262.17-11.29c-1.41-3.86-2.67-7.84-3.74-11.81l2.98-.8c1.05,3.89,2.27,7.77,3.65,11.55l-2.9,1.06Zm270.64-11.97l-2.98-.8c1.04-3.89,1.92-7.86,2.61-11.83l3.04.53c-.71,4.05-1.6,8.13-2.66,12.1Zm-277.06-11.93c-.71-4.04-1.25-8.17-1.62-12.28l3.08-.27c.35,4.02.88,8.06,1.58,12.01l-3.04.53Zm281.32-12.45l-3.08-.26c.34-4,.52-8.08.52-12.11v-.34h3.09v.34c0,4.12-.18,8.28-.53,12.37Zm-280.4-12.2h-3.08v-.17c0-4.06.17-8.17.52-12.2l3.08.26c-.34,3.94-.51,7.96-.51,11.94v.17Zm277.29-12.6c-.35-4.01-.89-8.06-1.59-12.01l3.04-.54c.72,4.04,1.26,8.17,1.63,12.27l-3.08.28Zm-275.23-11.52l-3.04-.53c.7-4.06,1.6-8.13,2.66-12.1l2.98.8c-1.03,3.88-1.9,7.87-2.59,11.83Zm271-12.31c-1.05-3.89-2.28-7.78-3.67-11.55l2.9-1.06c1.42,3.85,2.68,7.83,3.75,11.8l-2.98.81Zm-264.78-11.08l-2.9-1.05c1.4-3.86,2.99-7.72,4.73-11.45l2.8,1.3c-1.7,3.65-3.26,7.43-4.63,11.2Zm256.45-11.64c-1.71-3.64-3.6-7.25-5.63-10.73l2.67-1.55c2.07,3.56,4.01,7.25,5.75,10.97l-2.79,1.31Zm-246.24-10.32l-2.67-1.54c2.06-3.56,4.29-7.08,6.65-10.46l2.53,1.77c-2.31,3.3-4.5,6.74-6.51,10.23Zm234.07-10.61c-2.31-3.29-4.81-6.52-7.4-9.59l2.36-1.99c2.66,3.15,5.2,6.44,7.57,9.81l-2.53,1.78Zm-220.19-9.23l-2.36-1.98c2.64-3.15,5.45-6.23,8.36-9.14l2.19,2.18c-2.84,2.85-5.6,5.87-8.18,8.95Zm204.58-9.28c-2.85-2.84-5.86-5.59-8.95-8.17l1.98-2.37c3.16,2.64,6.23,5.45,9.14,8.35l-2.18,2.19Zm-187.48-7.87l-1.99-2.36c3.14-2.65,6.45-5.19,9.81-7.56l1.78,2.52c-3.29,2.32-6.52,4.81-9.6,7.4Zm168.91-7.67c-3.3-2.31-6.74-4.49-10.23-6.5l1.54-2.68c3.57,2.06,7.08,4.29,10.45,6.65l-1.77,2.53Zm-149.11-6.26l-1.55-2.67c3.56-2.07,7.26-4,10.97-5.74l1.31,2.79c-3.64,1.71-7.25,3.6-10.73,5.62Zm128.13-5.82c-3.65-1.7-7.42-3.25-11.21-4.62l1.05-2.9c3.87,1.4,7.73,2.99,11.46,4.72l-1.3,2.8Zm-106.22-4.45l-1.06-2.9c3.86-1.41,7.84-2.67,11.81-3.74l.81,2.98c-3.89,1.04-7.77,2.27-11.55,3.65Zm83.45-3.79c-3.89-1.03-7.87-1.9-11.83-2.59l.53-3.04c4.05.7,8.13,1.59,12.1,2.64l-.79,2.98Zm-60.07-2.5l-.53-3.04c4.04-.72,8.17-1.26,12.27-1.63l.27,3.08c-4.01.35-8.05.88-12.01,1.59Zm36.22-1.63c-3.92-.33-7.91-.5-11.86-.5h-.25v-3.09h.24c4.05,0,8.13.18,12.13.51l-.26,3.08Z"/>
    <path class="cls-1" d="m195.35,320.98c-68.14,0-123.58-55.43-123.58-123.58s55.43-123.58,123.58-123.58,123.58,55.44,123.58,123.58-55.43,123.58-123.58,123.58Zm0-246.4c-67.72,0-122.82,55.1-122.82,122.82s55.1,122.82,122.82,122.82,122.82-55.1,122.82-122.82-55.1-122.82-122.82-122.82Z"/>
    <path class="cls-1" d="m195.35,295.71c-54.21,0-98.31-44.1-98.31-98.31s44.1-98.31,98.31-98.31,98.31,44.1,98.31,98.31-44.1,98.31-98.31,98.31Zm0-195.85c-53.79,0-97.55,43.76-97.55,97.55s43.76,97.55,97.55,97.55,97.55-43.76,97.55-97.55-43.76-97.55-97.55-97.55Z"/>
    <path class="cls-1" d="m195.35,272.29c-41.29,0-74.88-33.59-74.88-74.89s33.6-74.88,74.88-74.88,74.88,33.59,74.88,74.88-33.59,74.89-74.88,74.89Zm0-149c-40.87,0-74.12,33.25-74.12,74.12s33.25,74.12,74.12,74.12,74.12-33.25,74.12-74.12-33.25-74.12-74.12-74.12Z"/>
  </g>
  <g class="cls-2">
    <g>
      <path class="cls-1" d="m107.93,281.08c17.59,18.05,40.92,30.35,65.74,34.53,6.19,1.11,12.49,1.65,18.78,1.73,6.29.07,12.6-.27,18.83-1.22,6.23-.93,12.4-2.29,18.41-4.16,6-1.9,11.85-4.25,17.5-6.98l2.92,5.93c-5.95,2.88-12.12,5.36-18.45,7.36-6.35,1.97-12.85,3.41-19.42,4.39-6.58,1.01-13.23,1.37-19.87,1.29-6.64-.09-13.27-.67-19.81-1.83-26.18-4.41-50.78-17.38-69.35-36.44l4.74-4.61Z"/>
      <path class="cls-1" d="m224.3,280.55c1.52-.54,3-1.19,4.51-1.77l4.42-2.02,2.92,5.93c-1.58.72-3.14,1.47-4.73,2.16-1.62.63-3.21,1.33-4.84,1.91l-2.26-6.21Z"/>
      <polygon class="cls-1" points="228.13 268.52 228.98 268.14 231.9 274.07 230.98 274.48 228.13 268.52"/>
      <polygon class="cls-1" points="226.5 269.27 227.35 268.88 230.13 274.87 229.22 275.3 226.5 269.27"/>
      <path class="cls-1" d="m224.87,270c.29-.11.57-.23.85-.37l2.65,6.05c-.3.15-.6.28-.92.4l-2.58-6.08Z"/>
      <polygon class="cls-1" points="221.55 271.34 222.41 270.99 224.79 277.16 223.86 277.53 221.55 271.34"/>
      <polygon class="cls-1" points="219.87 271.92 220.74 271.62 222.98 277.83 222.03 278.16 219.87 271.92"/>
      <polygon class="cls-1" points="214.76 273.51 215.65 273.25 217.46 279.6 216.5 279.88 214.76 273.51"/>
      <polygon class="cls-1" points="213.04 273.95 213.94 273.75 215.61 280.14 214.63 280.37 213.04 273.95"/>
      <polygon class="cls-1" points="211.3 274.36 212.2 274.15 213.73 280.58 212.75 280.81 211.3 274.36"/>
      <path class="cls-1" d="m209.56,274.74c.3-.06.61-.1.91-.18l1.38,6.46c-.33.09-.66.14-.98.19l-1.3-6.48Z"/>
      <polygon class="cls-1" points="207.81 275.06 208.72 274.89 209.95 281.39 208.97 281.57 207.81 275.06"/>
      <path class="cls-1" d="m206.06,275.38c.31-.03.61-.11.91-.16l1.08,6.52c-.33.06-.65.14-.99.17l-1.01-6.53Z"/>
      <polygon class="cls-1" points="204.29 275.6 205.21 275.48 206.15 282.02 205.15 282.15 204.29 275.6"/>
      <polygon class="cls-1" points="202.53 275.84 203.45 275.72 204.23 282.27 203.24 282.41 202.53 275.84"/>
      <polygon class="cls-1" points="195.42 276.27 196.35 276.24 196.54 282.84 195.54 282.88 195.42 276.27"/>
      <polygon class="cls-1" points="193.64 276.27 194.57 276.29 194.6 282.89 193.61 282.88 193.64 276.27"/>
      <polygon class="cls-1" points="177.71 274.55 178.62 274.74 177.32 281.22 176.34 281.01 177.71 274.55"/>
      <polygon class="cls-1" points="175.96 274.18 176.86 274.37 175.43 280.82 174.45 280.62 175.96 274.18"/>
      <polygon class="cls-1" points="174.23 273.73 175.12 273.97 173.54 280.38 172.57 280.13 174.23 273.73"/>
      <polygon class="cls-1" points="172.5 273.28 173.39 273.51 171.67 279.89 170.7 279.64 172.5 273.28"/>
      <polygon class="cls-1" points="170.79 272.76 171.68 273.04 169.81 279.38 168.85 279.08 170.79 272.76"/>
      <polygon class="cls-1" points="169.08 272.23 169.97 272.5 167.96 278.8 167 278.5 169.08 272.23"/>
      <polygon class="cls-1" points="167.4 271.63 168.27 271.96 166.12 278.21 165.18 277.86 167.4 271.63"/>
      <polygon class="cls-1" points="165.72 271.02 166.59 271.34 164.3 277.54 163.36 277.2 165.72 271.02"/>
      <polygon class="cls-1" points="164.06 270.36 164.91 270.72 162.49 276.87 161.56 276.48 164.06 270.36"/>
      <polygon class="cls-1" points="162.41 269.67 163.27 270.03 160.7 276.12 159.78 275.73 162.41 269.67"/>
      <path class="cls-1" d="m160.78,268.94c.28.13.55.28.84.39l-2.7,6.04c-.31-.13-.61-.29-.91-.43l2.77-6Z"/>
      <polygon class="cls-1" points="159.17 268.17 160.01 268.57 157.17 274.53 156.27 274.1 159.17 268.17"/>
      <path class="cls-1" d="m157.57,267.37c.27.15.54.3.83.43l-2.97,5.9c-.3-.13-.6-.29-.89-.45l3.03-5.87Z"/>
      <polygon class="cls-1" points="151.38 263.82 152.18 264.3 148.68 269.91 147.83 269.4 151.38 263.82"/>
      <polygon class="cls-1" points="149.9 262.83 150.67 263.34 147.05 268.88 146.23 268.31 149.9 262.83"/>
      <polygon class="cls-1" points="148.42 261.84 149.19 262.35 145.46 267.8 144.62 267.24 148.42 261.84"/>
      <polygon class="cls-1" points="146.99 260.77 147.72 261.34 143.87 266.7 143.07 266.1 146.99 260.77"/>
      <polygon class="cls-1" points="145.55 259.71 146.3 260.27 142.32 265.54 141.51 264.95 145.55 259.71"/>
      <polygon class="cls-1" points="144.16 258.6 144.88 259.19 140.78 264.37 140.01 263.74 144.16 258.6"/>
      <polygon class="cls-1" points="142.79 257.47 143.5 258.06 139.29 263.15 138.51 262.51 142.79 257.47"/>
      <polygon class="cls-1" points="141.45 256.3 142.13 256.92 137.8 261.92 137.06 261.24 141.45 256.3"/>
      <polygon class="cls-1" points="140.13 255.1 140.81 255.72 136.37 260.62 135.63 259.95 140.13 255.1"/>
      <path class="cls-1" d="m138.83,253.88c.22.21.43.45.66.65l-4.55,4.79c-.25-.22-.48-.47-.72-.71l4.61-4.74Z"/>
      <polygon class="cls-1" points="137.58 252.62 138.23 253.27 133.58 257.96 132.86 257.25 137.58 252.62"/>
      <path class="cls-1" d="m210.44,284.35c3.17-.57,6.3-1.38,9.38-2.31l1.93,6.32c-3.32.99-6.68,1.86-10.1,2.48l-1.22-6.49Z"/>
      <path class="cls-1" d="m165,280.99c1.53.53,3.08.97,4.62,1.47,1.57.38,3.12.85,4.69,1.2l-1.47,6.44c-1.7-.37-3.37-.87-5.05-1.29-1.65-.52-3.32-1.01-4.96-1.58l2.16-6.24Z"/>
      <path class="cls-1" d="m134.12,262.63l1.79,1.63,1.87,1.54c1.22,1.05,2.53,2,3.82,2.96l-3.89,5.34c-1.39-1.03-2.79-2.05-4.11-3.18l-2.01-1.65-1.92-1.75,4.46-4.88Z"/>
      <path class="cls-1" d="m110.78,278.29c17.01,17.45,39.56,29.35,63.56,33.39,5.99,1.07,12.07,1.6,18.15,1.68,6.08.07,12.19-.26,18.21-1.18,6.02-.9,11.98-2.21,17.8-4.02,5.8-1.84,11.45-4.11,16.92-6.76l1.16,2.36c-5.58,2.7-11.36,5.02-17.3,6.9-5.94,1.85-12.04,3.2-18.2,4.12-6.15.94-12.4,1.28-18.62,1.2-6.22-.08-12.44-.62-18.56-1.71-24.54-4.13-47.6-16.3-65-34.14l1.88-1.83Z"/>
      <path class="cls-1" d="m112.98,276.15c16.55,16.99,38.52,28.58,61.89,32.51,5.83,1.04,11.75,1.55,17.67,1.63,5.92.07,11.87-.25,17.73-1.15,5.86-.88,11.67-2.16,17.32-3.92,5.65-1.79,11.15-4,16.48-6.58l.48.97c-5.38,2.6-10.93,4.83-16.64,6.64-5.71,1.78-11.57,3.08-17.49,3.96-5.92.91-11.92,1.23-17.89,1.16-5.98-.08-11.96-.59-17.84-1.64-23.6-3.97-45.77-15.67-62.49-32.83l.78-.76Z"/>
      <path class="cls-1" d="m177.91,304.6c1.68.31,3.37.43,5.06.64l-.54,5.29c-1.77-.22-3.55-.35-5.3-.67l.79-5.26Z"/>
      <path class="cls-1" d="m124.81,280.93c6.27,5.16,13.1,9.66,20.37,13.29l-2.02,4.02c-7.57-3.77-14.68-8.46-21.21-13.84l2.86-3.47Z"/>
      <path class="cls-1" d="m242.11,294.9l-4.81-9.78-2.74,1.26c-.14,1.2-.29,2.41-.46,3.63-.18,1.19-.38,2.38-.6,3.58-1.25.49-2.48,1.03-3.75,1.48l-3.82,1.31c-1.88-1.54-3.72-3.22-5.46-4.85l-1.79.51-1.81.43c-1.21.27-2.4.61-3.63.82-.81,2.25-1.7,4.52-2.66,6.8-2.66.37-5.33.78-8.02.95-1.48-1.95-2.88-3.89-4.21-5.95-1.37.03-2.74.13-4.11.1l-4.11-.07c-1.32,1.99-2.72,3.97-4.19,5.95-1.35-.06-2.68-.28-4.02-.4l-2-.23-1.99-.32c-.98-2.27-1.89-4.45-2.69-6.76-5.96-1.16-11.82-2.88-17.47-5.13-1.9,1.44-3.88,2.85-5.92,4.23-1.25-.52-2.44-1.14-3.65-1.71-1.23-.57-2.41-1.2-3.59-1.85-2.4-1.24-4.68-2.66-6.97-4.07.03-2.48.11-4.9.27-7.29-5.08-3.54-9.83-7.57-14.16-12.02l-7.81,7.6c15.91,16.36,37.06,27.55,59.56,31.35,5.61,1.01,11.31,1.5,17.02,1.59,5.7.07,11.42-.24,17.06-1.09,5.64-.84,11.23-2.06,16.68-3.76,5.43-1.72,10.74-3.84,15.87-6.32Z"/>
    </g>
    <g>
      <path class="cls-1" d="m87.57,141.19c-11.78,22.25-16.2,48.24-12.56,73.19,3.6,24.99,15.22,48.55,32.85,66.61l-4.74,4.61c-18.61-19.07-30.85-43.89-34.65-70.27-3.84-26.33.83-53.75,13.24-77.21l5.86,3.07Z"/>
      <path class="cls-1" d="m124.02,251.73c1.03,1.23,2.02,2.52,3.08,3.72,1.11,1.18,2.12,2.44,3.28,3.56l-4.74,4.61c-1.24-1.2-2.34-2.55-3.52-3.82-1.15-1.3-2.21-2.68-3.32-4.01l5.22-4.06Z"/>
      <polygon class="cls-1" points="136.61 251.66 137.27 252.31 132.53 256.92 131.82 256.21 136.61 251.66"/>
      <polygon class="cls-1" points="135.42 250.33 136.04 251.02 131.2 255.52 130.53 254.77 135.42 250.33"/>
      <polygon class="cls-1" points="134.23 249.01 134.85 249.7 129.91 254.08 129.23 253.35 134.23 249.01"/>
      <polygon class="cls-1" points="131.96 246.27 132.55 246.98 127.41 251.14 126.78 250.36 131.96 246.27"/>
      <polygon class="cls-1" points="130.88 244.85 131.42 245.6 126.19 249.64 125.6 248.83 130.88 244.85"/>
      <polygon class="cls-1" points="127.81 240.47 128.32 241.25 122.83 244.92 122.28 244.08 127.81 240.47"/>
      <path class="cls-1" d="m126.84,238.98c.14.27.33.52.5.78l-5.58,3.56c-.18-.29-.38-.55-.54-.85l5.62-3.49Z"/>
      <polygon class="cls-1" points="125.93 237.44 126.4 238.24 120.75 241.67 120.24 240.8 125.93 237.44"/>
      <polygon class="cls-1" points="125.02 235.91 125.49 236.7 119.76 240 119.25 239.13 125.02 235.91"/>
      <polygon class="cls-1" points="124.18 234.32 124.61 235.14 118.81 238.31 118.34 237.42 124.18 234.32"/>
      <polygon class="cls-1" points="123.34 232.73 123.77 233.55 117.91 236.59 117.44 235.7 123.34 232.73"/>
      <polygon class="cls-1" points="122.56 231.12 122.95 231.97 117.01 234.88 116.6 233.96 122.56 231.12"/>
      <polygon class="cls-1" points="121.81 229.49 122.2 230.33 116.2 233.12 115.78 232.2 121.81 229.49"/>
      <polygon class="cls-1" points="119.18 222.85 119.48 223.72 113.26 225.96 112.93 225 119.18 222.85"/>
      <polygon class="cls-1" points="118.59 221.16 118.89 222.03 112.63 224.13 112.29 223.18 118.59 221.16"/>
      <polygon class="cls-1" points="115.27 205.51 115.4 206.43 108.83 207.21 108.7 206.21 115.27 205.51"/>
      <polygon class="cls-1" points="115.13 203.74 115.21 204.66 108.63 205.28 108.55 204.28 115.13 203.74"/>
      <polygon class="cls-1" points="114.98 201.96 115.06 202.88 108.47 203.36 108.39 202.36 114.98 201.96"/>
      <polygon class="cls-1" points="114.91 200.18 114.94 201.1 108.34 201.44 108.31 200.43 114.91 200.18"/>
      <polygon class="cls-1" points="114.85 198.4 114.88 199.32 108.28 199.51 108.24 198.5 114.85 198.4"/>
      <polygon class="cls-1" points="114.86 196.62 114.84 197.54 108.23 197.57 108.25 196.57 114.86 196.62"/>
      <polygon class="cls-1" points="114.88 194.84 114.87 195.76 108.26 195.64 108.28 194.64 114.88 194.84"/>
      <polygon class="cls-1" points="114.96 193.06 114.89 193.98 108.29 193.71 108.36 192.71 114.96 193.06"/>
      <polygon class="cls-1" points="115.07 191.28 115.02 192.2 108.42 191.78 108.48 190.78 115.07 191.28"/>
      <path class="cls-1" d="m115.22,189.5c-.03.31-.08.61-.1.92l-6.58-.57c.01-.33.07-.66.1-1l6.58.64Z"/>
      <polygon class="cls-1" points="115.42 187.73 115.32 188.65 108.75 187.93 108.87 186.94 115.42 187.73"/>
      <path class="cls-1" d="m115.65,185.96c-.06.3-.1.61-.13.91l-6.55-.86c.03-.34.08-.67.14-1l6.54.94Z"/>
      <polygon class="cls-1" points="115.93 184.19 115.79 185.11 109.25 184.1 109.41 183.11 115.93 184.19"/>
      <polygon class="cls-1" points="117.42 177.21 117.18 178.11 110.77 176.52 111.03 175.55 117.42 177.21"/>
      <polygon class="cls-1" points="117.86 175.48 117.64 176.38 111.26 174.65 111.51 173.67 117.86 175.48"/>
      <polygon class="cls-1" points="118.4 173.77 118.12 174.66 111.78 172.78 112.09 171.82 118.4 173.77"/>
      <polygon class="cls-1" points="118.93 172.06 118.65 172.95 112.36 170.93 112.66 169.98 118.93 172.06"/>
      <polygon class="cls-1" points="119.53 170.38 119.2 171.25 112.95 169.09 113.3 168.15 119.53 170.38"/>
      <polygon class="cls-1" points="120.14 168.7 119.82 169.58 113.63 167.28 113.97 166.34 120.14 168.7"/>
      <polygon class="cls-1" points="120.8 167.05 120.44 167.9 114.3 165.47 114.69 164.54 120.8 167.05"/>
      <polygon class="cls-1" points="121.5 165.4 121.14 166.25 115.05 163.68 115.44 162.76 121.5 165.4"/>
      <polygon class="cls-1" points="122.23 163.77 121.83 164.61 115.8 161.9 116.23 160.99 122.23 163.77"/>
      <polygon class="cls-1" points="123 162.16 122.6 163 116.64 160.15 117.07 159.25 123 162.16"/>
      <path class="cls-1" d="m123.8,160.56c-.14.27-.31.54-.43.82l-5.91-2.98c.14-.3.31-.59.47-.89l5.87,3.04Z"/>
      <path class="cls-1" d="m116.14,239.68c.75,1.44,1.63,2.79,2.43,4.2.85,1.37,1.78,2.69,2.65,4.05l-5.43,3.77c-.94-1.45-1.94-2.88-2.85-4.35-.86-1.5-1.8-2.96-2.61-4.5l5.8-3.17Z"/>
      <path class="cls-1" d="m105.26,195.43l-.04,2.42.08,2.42c.02,1.61.16,3.22.3,4.82l-6.58.59c-.16-1.73-.3-3.46-.32-5.19l-.09-2.6.04-2.6,6.61.13Z"/>
      <path class="cls-1" d="m113.2,160.38c-.64,1.48-1.28,2.97-1.88,4.46-.53,1.53-1.15,3.02-1.63,4.57l-6.28-2.06c.51-1.66,1.18-3.27,1.75-4.9.65-1.61,1.33-3.21,2.02-4.8l6.02,2.73Z"/>
      <path class="cls-1" d="m91.09,143.05c-11.38,21.51-15.66,46.65-12.15,70.77,3.47,24.14,14.72,46.95,31.76,64.4l-1.88,1.83c-17.43-17.85-28.93-41.16-32.48-65.86-3.59-24.66.78-50.37,12.42-72.36l2.32,1.22Z"/>
      <path class="cls-1" d="m93.81,144.46c-11.09,20.95-15.24,45.43-11.83,68.91,3.37,23.5,14.33,45.72,30.92,62.7l-.78.76c-16.75-17.15-27.82-39.58-31.22-63.31-3.45-23.7.74-48.42,11.94-69.57l.96.5Z"/>
      <path class="cls-1" d="m86.79,215.01c.32,1.67.58,3.35.96,5l-5.19,1.13c-.39-1.74-.67-3.51-1-5.25l5.24-.88Z"/>
      <path class="cls-1" d="m92.91,157.18c-2.96,7.56-5.09,15.45-6.33,23.48l-4.44-.68c1.3-8.36,3.51-16.57,6.59-24.45l4.18,1.65Z"/>
      <path class="cls-1" d="m115.86,273.06l7.82-7.6c-.72-.7-1.39-1.45-2.06-2.2-2.34.47-4.8.92-7.19,1.23l-2.55-3.13c-.82-1.06-1.6-2.16-2.4-3.24.87-2.26,1.89-4.5,2.93-6.68-1.41-2.04-2.63-4.2-3.89-6.33-2.4-.08-4.81-.24-7.26-.46-.65-1.18-1.21-2.4-1.77-3.63-.55-1.23-1.17-2.42-1.64-3.69,1.42-2.02,2.86-3.97,4.34-5.85-.91-2.59-1.83-5.17-2.55-7.82-1.16-.31-2.34-.64-3.51-1-1.15-.35-2.3-.73-3.46-1.13-.29-1.32-.65-2.62-.89-3.94l-.72-3.97c1.83-1.63,3.74-3.19,5.62-4.66-.73-6.02-.9-12.12-.5-18.18-1.99-1.36-3.98-2.81-5.87-4.33.16-1.34.27-2.68.48-4.01l.65-3.99c.53-2.64,1.04-5.28,1.77-7.87,2.33-.75,4.63-1.42,7.01-1.99,1.81-5.93,4.17-11.7,7.06-17.19l-9.65-5.07c-10.71,20.15-14.71,43.74-11.45,66.32,3.23,22.61,13.77,44.05,29.71,60.4Z"/>
    </g>
    <g>
      <path class="cls-1" d="m214.32,78.59c-6.19-1.11-12.48-1.65-18.78-1.73-6.29-.07-12.6.27-18.83,1.23-6.23.93-12.4,2.3-18.41,4.17-6,1.91-11.85,4.26-17.49,7-5.61,2.81-11.03,6.02-16.19,9.63-5.15,3.62-9.98,7.69-14.52,12.07-4.55,4.37-8.66,9.16-12.43,14.2-3.77,5.04-7.16,10.36-10.06,15.95l-5.85-3.08c3.05-5.89,6.64-11.51,10.61-16.83,3.98-5.31,8.32-10.37,13.13-14.98,4.78-4.62,9.88-8.9,15.31-12.73,5.45-3.8,11.16-7.19,17.08-10.15,5.95-2.89,12.12-5.37,18.45-7.37,6.35-1.97,12.85-3.42,19.42-4.41,6.58-1.01,13.23-1.37,19.87-1.3,6.64.09,13.27.67,19.81,1.83l-1.12,6.51Z"/>
      <path class="cls-1" d="m120.48,147.4l-1.35,2.01-1.25,2.07c-.87,1.36-1.6,2.8-2.38,4.22l-5.84-3.08c.82-1.52,1.62-3.07,2.55-4.53l1.35-2.23,1.44-2.16,5.48,3.7Z"/>
      <polygon class="cls-1" points="124.45 159.36 124.01 160.18 118.16 157.1 118.64 156.21 124.45 159.36"/>
      <polygon class="cls-1" points="125.3 157.78 124.86 158.6 119.08 155.39 119.55 154.51 125.3 157.78"/>
      <polygon class="cls-1" points="126.22 156.26 125.74 157.05 120.04 153.71 120.55 152.86 126.22 156.26"/>
      <polygon class="cls-1" points="128.13 153.24 127.61 154.01 122.06 150.42 122.62 149.59 128.13 153.24"/>
      <polygon class="cls-1" points="129.12 151.76 128.6 152.53 123.14 148.82 123.7 147.98 129.12 151.76"/>
      <polygon class="cls-1" points="132.33 147.49 131.74 148.2 126.53 144.12 127.17 143.35 132.33 147.49"/>
      <polygon class="cls-1" points="133.46 146.11 132.87 146.82 127.76 142.64 128.4 141.86 133.46 146.11"/>
      <path class="cls-1" d="m134.62,144.76c-.21.23-.43.44-.62.69l-5.01-4.31c.21-.26.44-.5.67-.75l4.96,4.37Z"/>
      <polygon class="cls-1" points="135.81 143.44 135.19 144.13 130.28 139.7 130.95 138.96 135.81 143.44"/>
      <path class="cls-1" d="m137.02,142.13c-.22.21-.43.44-.63.67l-4.81-4.53c.22-.25.45-.5.69-.73l4.76,4.58Z"/>
      <polygon class="cls-1" points="138.29 140.88 137.63 141.53 132.92 136.9 133.63 136.19 138.29 140.88"/>
      <polygon class="cls-1" points="139.54 139.62 138.89 140.28 134.29 135.53 135 134.82 139.54 139.62"/>
      <polygon class="cls-1" points="140.87 138.43 140.18 139.05 135.69 134.21 136.43 133.53 140.87 138.43"/>
      <polygon class="cls-1" points="146.36 133.9 145.61 134.45 141.57 129.21 142.38 128.62 146.36 133.9"/>
      <polygon class="cls-1" points="147.79 132.84 147.05 133.39 143.13 128.07 143.94 127.47 147.79 132.84"/>
      <polygon class="cls-1" points="161.73 124.85 160.89 125.24 158.11 119.24 159.03 118.82 161.73 124.85"/>
      <path class="cls-1" d="m163.37,124.13c-.29.12-.58.22-.86.36l-2.63-6.06c.3-.15.62-.25.92-.38l2.57,6.09Z"/>
      <polygon class="cls-1" points="165.02 123.46 164.16 123.81 161.66 117.69 162.6 117.31 165.02 123.46"/>
      <path class="cls-1" d="m166.69,122.8c-.29.1-.58.23-.86.34l-2.37-6.18c.31-.12.62-.27.94-.37l2.29,6.2Z"/>
      <polygon class="cls-1" points="168.38 122.22 167.5 122.53 165.28 116.3 166.22 115.97 168.38 122.22"/>
      <polygon class="cls-1" points="170.06 121.63 169.19 121.94 167.1 115.67 168.05 115.34 170.06 121.63"/>
      <polygon class="cls-1" points="171.77 121.14 170.88 121.39 168.94 115.08 169.91 114.8 171.77 121.14"/>
      <polygon class="cls-1" points="173.48 120.64 172.59 120.9 170.79 114.54 171.76 114.26 173.48 120.64"/>
      <polygon class="cls-1" points="175.21 120.21 174.31 120.41 172.66 114.01 173.63 113.79 175.21 120.21"/>
      <polygon class="cls-1" points="176.94 119.8 176.04 120.01 174.54 113.58 175.51 113.35 176.94 119.8"/>
      <path class="cls-1" d="m178.68,119.43c-.3.06-.61.1-.91.17l-1.36-6.47c.33-.07.66-.12.99-.18l1.29,6.48Z"/>
      <polygon class="cls-1" points="180.43 119.11 179.53 119.28 178.31 112.78 179.3 112.6 180.43 119.11"/>
      <path class="cls-1" d="m182.19,118.81c-.31.03-.62.08-.91.14l-1.06-6.52c.33-.07.66-.12.99-.16l.99,6.54Z"/>
      <polygon class="cls-1" points="189.27 118.05 188.34 118.13 187.87 111.54 188.87 111.46 189.27 118.05"/>
      <polygon class="cls-1" points="191.05 117.99 190.12 118.02 189.8 111.42 190.8 111.39 191.05 117.99"/>
      <polygon class="cls-1" points="192.82 117.93 191.9 117.97 191.73 111.36 192.73 111.32 192.82 117.93"/>
      <polygon class="cls-1" points="194.61 117.94 193.68 117.92 193.66 111.32 194.66 111.33 194.61 117.94"/>
      <polygon class="cls-1" points="196.39 117.97 195.46 117.96 195.59 111.35 196.6 111.36 196.39 117.97"/>
      <polygon class="cls-1" points="198.17 118.05 197.25 117.98 197.52 111.38 198.53 111.45 198.17 118.05"/>
      <polygon class="cls-1" points="199.95 118.17 199.02 118.1 199.45 111.51 200.46 111.57 199.95 118.17"/>
      <polygon class="cls-1" points="201.72 118.31 200.8 118.21 201.38 111.63 202.38 111.74 201.72 118.31"/>
      <polygon class="cls-1" points="203.5 118.51 202.58 118.41 203.3 111.84 204.3 111.96 203.5 118.51"/>
      <path class="cls-1" d="m205.27,118.74c-.3-.05-.61-.11-.92-.14l.87-6.55c.34.03.66.1.99.14l-.95,6.54Z"/>
      <polygon class="cls-1" points="207.03 119.03 206.12 118.88 207.13 112.35 208.12 112.51 207.03 119.03"/>
      <path class="cls-1" d="m129.44,136.16c-2.18,2.37-4.3,4.81-6.22,7.4l-5.28-3.98c2.07-2.79,4.34-5.4,6.69-7.95l4.81,4.53Z"/>
      <path class="cls-1" d="m168.21,112.16c-1.55.43-3.05,1.03-4.59,1.53-1.52.55-3,1.2-4.51,1.78l-2.6-6.08c1.62-.63,3.21-1.32,4.84-1.91,1.65-.54,3.27-1.17,4.93-1.65l1.93,6.32Z"/>
      <path class="cls-1" d="m203.95,108.9l-2.4-.27-2.42-.15c-1.61-.14-3.22-.12-4.83-.16l.02-6.6c1.73.03,3.47.01,5.19.17l2.6.16,2.58.28-.74,6.57Z"/>
      <path class="cls-1" d="m213.65,82.51c-5.99-1.06-12.07-1.59-18.16-1.67-6.08-.06-12.18.26-18.21,1.19-6.02.9-11.98,2.22-17.79,4.04-5.8,1.84-11.45,4.11-16.92,6.76-5.43,2.72-10.67,5.83-15.66,9.31-4.98,3.51-9.65,7.44-14.03,11.66-4.4,4.22-8.38,8.85-12.02,13.73-3.64,4.88-6.92,10.02-9.72,15.42l-2.32-1.22c2.85-5.52,6.22-10.78,9.94-15.77,3.73-4.98,7.8-9.72,12.29-14.04,4.48-4.33,9.26-8.35,14.35-11.93,5.1-3.56,10.46-6.74,16.01-9.52,5.58-2.71,11.36-5.03,17.3-6.92,5.94-1.85,12.04-3.2,18.2-4.13,6.15-.94,12.4-1.28,18.61-1.21,6.22.08,12.45.62,18.57,1.71l-.44,2.58Z"/>
      <path class="cls-1" d="m213.13,85.53c-5.83-1.04-11.75-1.55-17.68-1.62-5.92-.06-11.86.25-17.72,1.15-5.86.88-11.66,2.17-17.32,3.93-5.64,1.8-11.15,4.01-16.47,6.59-5.29,2.65-10.39,5.68-15.25,9.07-4.85,3.41-9.39,7.24-13.66,11.36-4.28,4.1-8.15,8.62-11.7,13.36-3.54,4.75-6.75,9.75-9.47,15.01l-.96-.5c2.74-5.31,5.98-10.37,9.56-15.16,3.59-4.78,7.5-9.35,11.82-13.49,4.31-4.16,8.89-8.02,13.79-11.47,4.91-3.42,10.06-6.48,15.4-9.15,5.37-2.6,10.93-4.84,16.63-6.65,5.72-1.78,11.57-3.08,17.49-3.97,5.92-.91,11.92-1.23,17.89-1.16,5.98.07,11.96.59,17.84,1.63l-.18,1.07Z"/>
      <path class="cls-1" d="m143.87,100.69c-1.5.79-3.02,1.55-4.46,2.45l-2.67-4.6c1.52-.94,3.1-1.74,4.68-2.57l2.45,4.72Z"/>
      <path class="cls-1" d="m200.75,88.61c-8.1-.5-16.28-.15-24.3,1.2l-.73-4.44c8.35-1.41,16.87-1.77,25.31-1.25l-.29,4.49Z"/>
      <path class="cls-1" d="m97.65,146.26l9.64,5.08,1.43-2.65c-1.19-2.09-2.29-4.23-3.37-6.44.67-1.17,1.44-2.27,2.19-3.39.75-1.12,1.49-2.24,2.31-3.31,2.46.17,4.85.38,7.24.7l2.36-2.87c.79-.96,1.66-1.85,2.48-2.77-.71-2.33-1.31-4.67-1.83-7.05,1.87-1.94,3.9-3.71,5.9-5.52,2.36.74,4.67,1.53,6.92,2.36,1.04-.9,2.18-1.66,3.28-2.49l1.65-1.22,1.72-1.13c-.1-2.39-.19-4.9-.12-7.3l3.47-2.05c1.18-.65,2.38-1.26,3.57-1.89,2.1,1.21,4.16,2.54,6.16,3.9,5.51-2.57,11.25-4.64,17.13-6.15.69-2.28,1.46-4.59,2.3-6.92,1.31-.31,2.64-.5,3.97-.76,1.31-.26,2.65-.45,3.99-.62,2.67-.4,5.35-.58,8.03-.8,1.44,2.02,2.79,4.04,4.06,6.07,6.2-.12,12.41.36,18.52,1.42l1.86-10.74c-5.62-1.01-11.32-1.5-17.02-1.58-5.7-.07-11.42.24-17.06,1.1-5.64.84-11.23,2.07-16.68,3.76-5.44,1.73-10.74,3.85-15.87,6.33-5.09,2.55-10.01,5.46-14.69,8.71-4.66,3.29-9.04,6.96-13.15,10.92-4.13,3.94-7.85,8.29-11.27,12.84-3.42,4.57-6.5,9.38-9.13,14.45Z"/>
    </g>
    <g>
      <path class="cls-1" d="m313.03,179.77c-3.6-24.99-15.24-48.54-32.88-66.59-17.59-18.06-40.91-30.39-65.72-34.57l1.12-6.51c26.17,4.42,50.77,17.4,69.33,36.47,18.61,19.07,30.87,43.88,34.68,70.25l-6.54.96Z"/>
      <path class="cls-1" d="m218.55,111.78c-1.56-.39-3.12-.84-4.69-1.2-1.59-.3-3.15-.72-4.75-.95l1.13-6.51c1.72.24,3.4.69,5.1,1.02,1.69.39,3.36.87,5.04,1.29l-1.83,6.35Z"/>
      <polygon class="cls-1" points="208.39 119.24 207.47 119.1 208.6 112.59 209.59 112.74 208.39 119.24"/>
      <polygon class="cls-1" points="210.13 119.62 209.22 119.42 210.5 112.94 211.48 113.14 210.13 119.62"/>
      <polygon class="cls-1" points="211.88 119.98 210.97 119.79 212.39 113.34 213.38 113.55 211.88 119.98"/>
      <polygon class="cls-1" points="215.34 120.87 214.44 120.64 216.15 114.26 217.12 114.51 215.34 120.87"/>
      <polygon class="cls-1" points="217.05 121.38 216.17 121.1 218.02 114.76 218.98 115.06 217.05 121.38"/>
      <polygon class="cls-1" points="222.13 123.12 221.25 122.79 223.53 116.59 224.47 116.94 222.13 123.12"/>
      <path class="cls-1" d="m223.79,123.76c-.29-.12-.56-.25-.86-.36l2.41-6.15c.32.12.62.26.93.38l-2.49,6.13Z"/>
      <polygon class="cls-1" points="225.44 124.46 224.58 124.1 227.13 118 228.05 118.39 225.44 124.46"/>
      <path class="cls-1" d="m227.07,125.18c-.28-.14-.56-.28-.84-.38l2.69-6.04c.31.13.61.27.91.42l-2.75,6.01Z"/>
      <polygon class="cls-1" points="228.68 125.95 227.85 125.55 230.67 119.57 231.57 120.01 228.68 125.95"/>
      <path class="cls-1" d="m230.29,126.73c-.27-.15-.55-.28-.83-.41l2.95-5.91c.3.14.61.28.9.45l-3.02,5.87Z"/>
      <polygon class="cls-1" points="231.86 127.59 231.04 127.14 234.13 121.3 235.01 121.77 231.86 127.59"/>
      <polygon class="cls-1" points="233.43 128.43 232.62 127.99 235.83 122.22 236.71 122.69 233.43 128.43"/>
      <polygon class="cls-1" points="239.45 132.25 238.68 131.74 242.4 126.28 243.24 126.84 239.45 132.25"/>
      <polygon class="cls-1" points="240.89 133.31 240.15 132.75 243.99 127.38 244.8 127.97 240.89 133.31"/>
      <polygon class="cls-1" points="252.76 144.03 252.14 143.34 257 138.86 257.67 139.6 252.76 144.03"/>
      <polygon class="cls-1" points="253.96 145.34 253.34 144.66 258.29 140.29 258.97 141.03 253.96 145.34"/>
      <polygon class="cls-1" points="255.08 146.72 254.5 146 259.55 141.74 260.18 142.52 255.08 146.72"/>
      <polygon class="cls-1" points="256.21 148.1 255.62 147.39 260.77 143.24 261.41 144.02 256.21 148.1"/>
      <polygon class="cls-1" points="257.29 149.52 256.74 148.77 261.98 144.75 262.57 145.56 257.29 149.52"/>
      <polygon class="cls-1" points="258.34 150.95 257.79 150.21 263.12 146.3 263.72 147.11 258.34 150.95"/>
      <polygon class="cls-1" points="259.36 152.42 258.85 151.64 264.27 147.86 264.82 148.7 259.36 152.42"/>
      <polygon class="cls-1" points="260.35 153.9 259.83 153.13 265.34 149.47 265.89 150.31 260.35 153.9"/>
      <path class="cls-1" d="m261.31,155.41c-.14-.27-.31-.53-.49-.79l5.58-3.54c.19.28.36.56.53.85l-5.63,3.47Z"/>
      <polygon class="cls-1" points="262.22 156.95 261.75 156.15 267.41 152.73 267.92 153.6 262.22 156.95"/>
      <polygon class="cls-1" points="263.14 158.48 262.66 157.69 268.39 154.4 268.91 155.27 263.14 158.48"/>
      <polygon class="cls-1" points="263.96 160.07 263.53 159.25 269.34 156.1 269.8 156.99 263.96 160.07"/>
      <polygon class="cls-1" points="264.8 161.66 264.36 160.84 270.23 157.81 270.7 158.7 264.8 161.66"/>
      <polygon class="cls-1" points="267.7 168.21 267.36 167.34 273.48 164.85 273.85 165.79 267.7 168.21"/>
      <path class="cls-1" d="m268.36,169.87c-.09-.3-.22-.58-.34-.87l6.18-2.36c.12.31.26.62.36.94l-6.2,2.28Z"/>
      <polygon class="cls-1" points="268.93 171.56 268.63 170.68 274.86 168.46 275.19 169.42 268.93 171.56"/>
      <polygon class="cls-1" points="269.52 173.24 269.21 172.37 275.49 170.29 275.82 171.24 269.52 173.24"/>
      <polygon class="cls-1" points="270.02 174.95 269.76 174.07 276.08 172.13 276.36 173.1 270.02 174.95"/>
      <polygon class="cls-1" points="270.51 176.67 270.25 175.78 276.61 173.99 276.9 174.95 270.51 176.67"/>
      <polygon class="cls-1" points="270.94 178.39 270.74 177.49 277.14 175.85 277.36 176.82 270.94 178.39"/>
      <polygon class="cls-1" points="271.35 180.13 271.13 179.22 277.57 177.73 277.81 178.7 271.35 180.13"/>
      <polygon class="cls-1" points="271.71 181.87 271.55 180.96 278.02 179.61 278.2 180.59 271.71 181.87"/>
      <polygon class="cls-1" points="272.03 183.62 271.86 182.71 278.37 181.51 278.55 182.49 272.03 183.62"/>
      <path class="cls-1" d="m272.33,185.37c-.04-.3-.07-.61-.14-.91l6.53-1.06c.07.32.11.66.15.99l-6.54.98Z"/>
      <path class="cls-1" d="m232.02,116.89c-2.91-1.41-5.92-2.58-8.96-3.67l2.16-6.25c3.27,1.17,6.5,2.43,9.62,3.94l-2.82,5.97Z"/>
      <path class="cls-1" d="m266.82,146.27l-2.87-3.89c-1.04-1.23-2.01-2.53-3.09-3.72l4.98-4.35c1.15,1.3,2.21,2.67,3.32,4,1.05,1.38,2.06,2.79,3.09,4.18l-5.43,3.78Z"/>
      <path class="cls-1" d="m281.01,179.31c-.34-1.58-.73-3.14-1.1-4.71-.47-1.54-.87-3.11-1.37-4.64l6.29-2.03c.53,1.65.97,3.33,1.47,4.99.4,1.69.81,3.37,1.18,5.06l-6.48,1.33Z"/>
      <path class="cls-1" d="m309.09,180.34c-3.48-24.14-14.74-46.94-31.79-64.38-17-17.46-39.55-29.38-63.55-33.42l.45-2.59c24.54,4.14,47.6,16.32,64.98,34.18,17.43,17.84,28.94,41.14,32.5,65.84l-2.6.38Z"/>
      <path class="cls-1" d="m306.05,180.78c-3.38-23.49-14.36-45.72-30.95-62.69-16.55-16.99-38.51-28.6-61.88-32.54l.19-1.07c23.6,3.98,45.76,15.7,62.47,32.85,16.75,17.15,27.83,39.57,31.25,63.3l-1.08.15Z"/>
      <path class="cls-1" d="m270.25,119.59c-1.18-1.23-2.47-2.33-3.72-3.49l3.54-3.96c1.32,1.21,2.67,2.37,3.9,3.66l-3.73,3.79Z"/>
      <path class="cls-1" d="m299.3,169.96c-2.03-7.88-4.99-15.49-8.7-22.71l4-2.06c3.87,7.5,6.95,15.44,9.06,23.64l-4.36,1.13Z"/>
      <path class="cls-1" d="m212.6,89.73l-1.87,10.74c1,.14,1.97.35,2.96.57,1.62-1.75,3.34-3.56,5.1-5.23l3.9,1.02,3.85,1.2c.62,2.33,1.11,4.78,1.57,7.13,1.17.41,2.33.86,3.46,1.35,1.13.5,2.3.93,3.41,1.48,1.98-1.35,4.03-2.66,6.15-3.94,2.38,1.26,4.77,2.5,7.05,3.94.06,2.44.05,4.86-.08,7.29,2.31,1.49,4.5,3.14,6.68,4.8,2.24-.84,4.53-1.63,6.89-2.37,1.05.85,2.01,1.8,3.02,2.69,1.01.89,1.97,1.83,2.91,2.79-.54,2.41-1.08,4.71-1.79,7.06,4.13,4.45,7.88,9.26,11.11,14.42,2.41-.06,4.81-.01,7.27.07.71,1.15,1.34,2.34,1.95,3.53.6,1.2,1.3,2.36,1.83,3.6l1.69,3.66c.53,1.23,1.01,2.49,1.52,3.74-1.41,1.96-2.94,3.88-4.5,5.73,2.04,5.86,3.52,11.9,4.42,18.04l10.79-1.56c-3.23-22.61-13.78-44.04-29.74-60.39-15.91-16.36-37.04-27.56-59.54-31.38Z"/>
    </g>
    <g>
      <path class="cls-1" d="m247.28,304.93c5.61-2.81,11.02-6.03,16.19-9.63,5.14-3.63,9.98-7.7,14.51-12.07,4.54-4.37,8.66-9.16,12.43-14.21,3.76-5.05,7.16-10.36,10.05-15.95,11.79-22.24,16.21-48.24,12.6-73.19l6.54-.95c3.82,26.33-.86,53.75-13.28,77.21-3.05,5.89-6.64,11.51-10.61,16.83-3.97,5.32-8.32,10.38-13.12,14.98-4.78,4.62-9.87,8.92-15.31,12.74-5.44,3.8-11.15,7.2-17.07,10.16l-2.93-5.92Z"/>
      <path class="cls-1" d="m282.74,194.06c-.04-.8-.04-1.61-.1-2.42l-.2-2.4c-.09-1.61-.35-3.2-.55-4.8l6.54-.94c.22,1.72.5,3.43.6,5.16l.21,2.59c.06.86.06,1.73.1,2.6l-6.6.22Z"/>
      <polygon class="cls-1" points="272.5 186.73 272.38 185.81 278.92 184.87 279.06 185.86 272.5 186.73"/>
      <polygon class="cls-1" points="272.74 188.49 272.62 187.57 279.18 186.78 279.31 187.77 272.74 188.49"/>
      <polygon class="cls-1" points="272.89 190.26 272.82 189.34 279.4 188.7 279.48 189.7 272.89 190.26"/>
      <polygon class="cls-1" points="273.12 193.81 273.1 192.89 279.69 192.54 279.72 193.55 273.12 193.81"/>
      <polygon class="cls-1" points="273.18 195.59 273.15 194.67 279.75 194.47 279.79 195.48 273.18 195.59"/>
      <path class="cls-1" d="m273.1,200.94c.02-.31.05-.62.06-.92l6.6.25c0,.34-.04.67-.06,1l-6.6-.33Z"/>
      <polygon class="cls-1" points="272.98 202.72 273.04 201.8 279.64 202.2 279.57 203.2 272.98 202.72"/>
      <path class="cls-1" d="m272.85,204.5c.04-.3.07-.61.08-.92l6.59.55c0,.34-.05.67-.09,1l-6.58-.63Z"/>
      <polygon class="cls-1" points="272.64 206.27 272.74 205.35 279.32 206.05 279.21 207.05 272.64 206.27"/>
      <path class="cls-1" d="m272.43,208.04c.06-.3.08-.61.11-.92l6.55.85c-.04.33-.06.67-.12,1l-6.54-.92Z"/>
      <polygon class="cls-1" points="272.14 209.8 272.29 208.89 278.82 209.88 278.67 210.87 272.14 209.8"/>
      <polygon class="cls-1" points="271.86 211.57 272.01 210.65 278.52 211.79 278.36 212.78 271.86 211.57"/>
      <polygon class="cls-1" points="271.49 213.31 271.68 212.41 278.16 213.69 277.96 214.67 271.49 213.31"/>
      <polygon class="cls-1" points="269.71 220.24 269.99 219.35 276.33 221.21 276.03 222.16 269.71 220.24"/>
      <polygon class="cls-1" points="269.17 221.94 269.45 221.05 275.75 223.05 275.45 224.01 269.17 221.94"/>
      <path class="cls-1" d="m262.64,236.6c.17-.27.3-.54.45-.82l5.77,3.22c-.16.29-.3.59-.48.88l-5.73-3.29Z"/>
      <polygon class="cls-1" points="261.71 238.12 262.19 237.33 267.89 240.69 267.37 241.54 261.71 238.12"/>
      <polygon class="cls-1" points="260.8 239.66 261.27 238.86 266.89 242.34 266.37 243.2 260.8 239.66"/>
      <polygon class="cls-1" points="259.8 241.14 260.32 240.37 265.86 243.97 265.3 244.8 259.8 241.14"/>
      <polygon class="cls-1" points="258.81 242.62 259.32 241.85 264.78 245.58 264.22 246.41 258.81 242.62"/>
      <polygon class="cls-1" points="257.76 244.06 258.31 243.31 263.68 247.16 263.08 247.97 257.76 244.06"/>
      <polygon class="cls-1" points="256.7 245.49 257.24 244.74 262.53 248.71 261.93 249.52 256.7 245.49"/>
      <polygon class="cls-1" points="255.58 246.88 256.18 246.17 261.37 250.26 260.73 251.03 255.58 246.88"/>
      <polygon class="cls-1" points="254.45 248.25 255.04 247.54 260.14 251.75 259.5 252.52 254.45 248.25"/>
      <polygon class="cls-1" points="253.29 249.6 253.92 248.92 258.91 253.24 258.24 253.98 253.29 249.6"/>
      <polygon class="cls-1" points="252.09 250.92 252.71 250.24 257.61 254.67 256.94 255.41 252.09 250.92"/>
      <path class="cls-1" d="m250.87,252.22c.22-.22.44-.43.64-.66l4.8,4.54c-.22.25-.47.48-.7.72l-4.75-4.6Z"/>
      <polygon class="cls-1" points="249.61 253.47 250.27 252.82 254.96 257.47 254.25 258.18 249.61 253.47"/>
      <polygon class="cls-1" points="244.32 258.23 245.04 257.65 249.29 262.7 248.51 263.34 244.32 258.23"/>
      <polygon class="cls-1" points="242.94 259.36 243.66 258.77 247.8 263.93 247.02 264.56 242.94 259.36"/>
      <polygon class="cls-1" points="241.52 260.43 242.27 259.88 246.28 265.13 245.48 265.72 241.52 260.43"/>
      <polygon class="cls-1" points="240.09 261.49 240.83 260.94 244.73 266.27 243.92 266.87 240.09 261.49"/>
      <polygon class="cls-1" points="238.62 262.5 239.4 261.99 243.17 267.42 242.33 267.97 238.62 262.5"/>
      <polygon class="cls-1" points="237.13 263.48 237.91 262.98 241.56 268.48 240.72 269.04 237.13 263.48"/>
      <path class="cls-1" d="m235.63,264.45c.27-.15.54-.3.79-.48l3.53,5.58c-.27.19-.57.36-.86.53l-3.46-5.63Z"/>
      <polygon class="cls-1" points="234.09 265.35 234.88 264.89 238.29 270.55 237.43 271.06 234.09 265.35"/>
      <path class="cls-1" d="m232.55,266.26c.27-.14.53-.31.8-.47l3.28,5.74c-.29.17-.58.35-.87.51l-3.21-5.78Z"/>
      <polygon class="cls-1" points="230.96 267.09 231.78 266.67 234.93 272.47 234.04 272.94 230.96 267.09"/>
      <polygon class="cls-1" points="229.37 267.93 230.19 267.49 233.21 273.37 232.32 273.84 229.37 267.93"/>
      <path class="cls-1" d="m282.07,208.43c.38-3.2.68-6.42.71-9.65l6.61.14c-.04,3.46-.35,6.92-.77,10.36l-6.55-.85Z"/>
      <path class="cls-1" d="m264.83,250.65l1.44-1.94c.48-.65.91-1.34,1.36-2,.45-.68.91-1.34,1.35-2.02l1.25-2.07,5.68,3.38-1.34,2.23c-.47.73-.96,1.44-1.44,2.16-.49.72-.95,1.45-1.47,2.15l-1.55,2.09-5.28-3.98Z"/>
      <path class="cls-1" d="m237.84,274.3c2.8-1.62,5.54-3.33,8.15-5.23l3.86,5.36c-2.8,2.04-5.74,3.88-8.75,5.62l-3.26-5.75Z"/>
      <path class="cls-1" d="m245.51,301.35c5.43-2.72,10.66-5.84,15.65-9.32,4.98-3.51,9.65-7.45,14.02-11.67,4.4-4.22,8.38-8.86,12.02-13.73,3.63-4.88,6.92-10.02,9.71-15.42,11.39-21.51,15.67-46.65,12.18-70.76l2.59-.38c3.58,24.67-.79,50.37-12.45,72.36-2.85,5.53-6.22,10.78-9.93,15.77-3.73,4.98-7.79,9.72-12.29,14.04-4.48,4.32-9.25,8.35-14.34,11.93-5.1,3.56-10.45,6.75-16.01,9.53l-1.16-2.35Z"/>
      <path class="cls-1" d="m244.16,298.6c5.29-2.65,10.38-5.68,15.24-9.08,4.85-3.41,9.39-7.25,13.65-11.36,4.28-4.11,8.15-8.62,11.69-13.37,3.54-4.75,6.74-9.76,9.46-15.02,11.1-20.94,15.27-45.43,11.86-68.9l1.08-.16c3.43,23.7-.77,48.42-11.97,69.56-2.74,5.31-5.98,10.37-9.55,15.16-3.58,4.79-7.49,9.35-11.81,13.49-4.31,4.16-8.89,8.03-13.79,11.48-4.9,3.42-10.05,6.48-15.39,9.16l-.48-.97Z"/>
      <path class="cls-1" d="m291.28,245.64c.72-1.54,1.5-3.05,2.17-4.61l4.86,2.15c-.69,1.63-1.51,3.22-2.26,4.83l-4.76-2.37Z"/>
      <path class="cls-1" d="m252.35,288.84c6.86-4.36,13.22-9.49,18.94-15.27l3.2,3.16c-5.96,6.01-12.6,11.36-19.73,15.9l-2.41-3.8Z"/>
      <path class="cls-1" d="m301.9,181.59l-10.79,1.56.39,2.98c2.21,1,4.33,2.08,6.52,3.23.14,1.34.18,2.69.22,4.03.04,1.35.12,2.69.07,4.04-2.09,1.3-4.17,2.53-6.27,3.68-.15,2.48-.29,4.95-.62,7.41.96.73,1.92,1.49,2.87,2.26.92.77,1.84,1.56,2.76,2.37-.38,2.66-.97,5.29-1.53,7.92-2.35.8-4.68,1.52-6.98,2.16-.75,2.63-1.55,5.26-2.53,7.82,1.52,1.88,3.01,3.83,4.39,5.82-.54,1.24-1.01,2.5-1.6,3.7l-1.75,3.64c-2.45.24-4.9.38-7.29.47-2.94,5.32-6.38,10.35-10.26,15.02.82,2.29,1.56,4.62,2.21,6.95-.92.99-1.78,2.02-2.74,2.97l-2.86,2.85c-1.98,1.82-3.94,3.66-6.06,5.33-2.33-.77-4.58-1.57-6.84-2.51-4.95,3.74-10.24,7-15.81,9.76l4.81,9.78c5.1-2.56,10-5.47,14.69-8.73,4.67-3.28,9.04-6.97,13.15-10.92,4.12-3.94,7.84-8.29,11.26-12.85,3.41-4.57,6.5-9.38,9.12-14.45,10.71-20.15,14.73-43.73,11.48-66.32Z"/>
    </g>
  </g>
</svg>