<?xml version="1.0" encoding="UTF-8"?>
<svg id="Layer_1" data-name="Layer 1" xmlns="http://www.w3.org/2000/svg" viewBox="0 0 703 121">
  <defs>
    <style>
      .cls-1 {
        fill: #fff;
      }
    </style>
  </defs>
  <path class="cls-1" d="m633.03,85.04H-.12V9.45h607.67v30.05l25.47,10.73v34.8ZM4.88,80.04h623.14v-26.48l-25.47-10.73V14.45H4.88v65.59Z"/>
  <polygon class="cls-1" points="430.9 82.54 1.61 82.54 1.61 11.95 418.73 11.95 418.73 41.16 430.9 51.89 430.9 82.54"/>
  <polygon class="cls-1" points="450.03 82.54 439.03 82.54 439.03 54.37 426.86 43.64 426.86 11.95 437.86 11.95 437.86 38.68 450.03 49.41 450.03 82.54"/>
  <polygon class="cls-1" points="470.18 82.54 465.18 82.54 465.18 53.02 453.01 42.29 453.01 11.95 458.01 11.95 458.01 40.03 470.18 50.76 470.18 82.54"/>
  <polygon points="37.73 47.24 12.73 32.81 12.73 61.68 37.73 47.24"/>
  <circle class="cls-1" cx="21.96" cy="111.69" r="7.67" transform="translate(-17.61 4.96) rotate(-9.22)"/>
  <g>
    <path class="cls-1" d="m48.49,120.82h-3.27v-18.26h3.27v18.26Z"/>
    <path class="cls-1" d="m60.88,102.1c2.65,0,4.75.86,6.3,2.58,1.55,1.72,2.32,4.05,2.32,7s-.77,5.28-2.32,7c-1.54,1.73-3.64,2.59-6.3,2.59s-4.79-.86-6.33-2.58c-1.55-1.72-2.32-4.06-2.32-7.01s.78-5.28,2.33-7c1.56-1.72,3.66-2.58,6.32-2.58Zm0,2.9c-1.63,0-2.92.6-3.88,1.81-.96,1.21-1.44,2.83-1.44,4.87s.47,3.68,1.42,4.89c.95,1.21,2.25,1.81,3.89,1.81s2.9-.61,3.85-1.82,1.42-2.84,1.42-4.88-.47-3.67-1.42-4.87c-.95-1.21-2.23-1.81-3.85-1.81Z"/>
    <path class="cls-1" d="m81.35,113.25h-8.31v-2.95h8.31v2.95Z"/>
    <path class="cls-1" d="m91.34,120.82h-3.27v-15.44h-5.62v-2.82h14.52v2.82h-5.63v15.44Z"/>
    <path class="cls-1" d="m98.87,120.82v-13.85h3.02v2.21h.22c.34-.79.85-1.41,1.55-1.84.7-.43,1.55-.65,2.56-.65,1.54,0,2.71.45,3.54,1.34.82.89,1.23,2.17,1.23,3.82v8.96h-3.14v-8.21c0-2.12-.93-3.18-2.8-3.18-.94,0-1.68.3-2.23.9-.55.6-.82,1.41-.82,2.43v8.06h-3.14Z"/>
    <path class="cls-1" d="m123.17,120.82v-3.4h-8.92v-2.91c1.48-2.73,3.97-6.72,7.44-11.95h4.61v12.1h2.47v2.76h-2.47v3.4h-3.13Zm-5.9-6.28v.19h5.95v-9.52h-.18c-1.97,2.92-3.9,6.03-5.77,9.33Z"/>
    <path class="cls-1" d="m138.71,121.28c-1.88,0-3.43-.51-4.63-1.54-1.21-1.03-1.85-2.35-1.92-3.97h3.06c.1.84.48,1.51,1.13,2.02.65.51,1.45.77,2.39.77,1.07,0,1.94-.33,2.6-.99.66-.66.99-1.54.99-2.63s-.33-1.97-.99-2.65c-.66-.68-1.52-1.02-2.58-1.02-.74,0-1.4.16-1.98.47-.58.31-1.04.75-1.37,1.33h-2.96l.95-10.5h11v2.76h-8.47l-.44,5.13h.22c.84-1.14,2.13-1.71,3.86-1.71s3.15.57,4.26,1.72c1.11,1.15,1.66,2.62,1.66,4.4,0,1.91-.62,3.45-1.87,4.64-1.24,1.19-2.88,1.78-4.9,1.78Z"/>
    <path class="cls-1" d="m154.31,116.05h-.22l-2.83,4.77h-3.38l4.48-6.87-4.52-6.97h3.63l2.76,4.76h.22l2.73-4.76h3.46l-4.47,6.85,4.52,7h-3.54l-2.83-4.77Z"/>
    <path class="cls-1" d="m167.86,120.82v-14.97h-.22l-4.54,3.19v-3.14l4.77-3.34h3.25v18.26h-3.27Z"/>
    <path class="cls-1" d="m180.5,112.72v-2.53h2.23c.93,0,1.68-.26,2.27-.77.58-.51.87-1.17.87-1.99s-.28-1.46-.85-1.94-1.33-.73-2.28-.73-1.71.25-2.3.75c-.59.5-.91,1.18-.97,2.04h-3.05c.08-1.68.7-3.01,1.85-3.98,1.15-.97,2.67-1.46,4.57-1.46,1.77,0,3.25.46,4.42,1.39,1.18.92,1.77,2.09,1.77,3.49,0,1.07-.3,1.99-.89,2.75-.59.76-1.4,1.24-2.41,1.46v.22c1.25.14,2.23.61,2.96,1.4.72.79,1.08,1.8,1.08,3.01,0,1.57-.66,2.87-1.97,3.91-1.31,1.04-2.96,1.56-4.94,1.56s-3.57-.5-4.8-1.51c-1.24-1-1.9-2.34-1.98-4.01h3.13c.07.84.43,1.52,1.1,2.02.67.5,1.53.75,2.58.75s1.9-.27,2.56-.82c.66-.54.99-1.25.99-2.11s-.32-1.6-.97-2.11c-.65-.51-1.54-.77-2.66-.77h-2.29Z"/>
    <path class="cls-1" d="m199.6,121.27c-1.67,0-3.09-.45-4.26-1.36-1.17-.91-1.89-2.11-2.16-3.61h3.25c.21.69.6,1.24,1.17,1.64.57.4,1.25.6,2.03.6,1.33,0,2.37-.59,3.13-1.77.75-1.18,1.13-2.81,1.13-4.9h-.22c-.43.87-1.06,1.54-1.89,2.02-.83.48-1.78.72-2.85.72-1.74,0-3.17-.57-4.31-1.72-1.13-1.15-1.7-2.6-1.7-4.35,0-1.87.63-3.41,1.9-4.61,1.27-1.2,2.9-1.8,4.88-1.8,1.33,0,2.51.31,3.54.92,1.03.62,1.85,1.51,2.47,2.68.86,1.53,1.29,3.45,1.29,5.77,0,3.07-.65,5.47-1.96,7.19-1.31,1.73-3.12,2.59-5.44,2.59Zm-2.47-10.27c.67.67,1.54,1.01,2.58,1.01s1.91-.33,2.59-1c.68-.67,1.03-1.51,1.03-2.53s-.35-1.89-1.04-2.59c-.69-.7-1.55-1.05-2.57-1.05s-1.88.34-2.57,1.03c-.69.69-1.04,1.54-1.04,2.56s.34,1.9,1.01,2.58Z"/>
  </g>
</svg>