<?xml version="1.0" encoding="UTF-8"?>
<svg id="Layer_1" data-name="Layer 1" xmlns="http://www.w3.org/2000/svg" xmlns:xlink="http://www.w3.org/1999/xlink" viewBox="0 0 898 184">
  <defs>
    <style>
      .cls-1 {
        fill: none;
      }

      .cls-2 {
        clip-path: url(#clippath);
      }

      .cls-3 {
        fill: #fff;
      }
    </style>
    <clipPath id="clippath">
      <rect class="cls-1" x=".45" y="-.19" width="897.55" height="65.02"/>
    </clipPath>
  </defs>
  <g>
    <g class="cls-2">
      <g>
        <g>
          <rect class="cls-3" x="-108.38" y="-236.99" width="34.24" height="699.52" transform="translate(53.01 97.55) rotate(45)"/>
          <path d="m-326.46,373.6l-25.62-25.62L143.96-148.07l25.62,25.62-496.05,496.05Zm-22.8-25.62l22.8,22.8L166.76-122.44l-22.8-22.8-493.22,493.22Z"/>
        </g>
        <g>
          <rect class="cls-3" x=".43" y="-236.99" width="34.24" height="699.52" transform="translate(84.88 20.62) rotate(45)"/>
          <path d="m-217.66,373.6l-25.62-25.62L252.77-148.07l25.62,25.62L-217.66,373.6Zm-22.8-25.62l22.8,22.8L275.57-122.44l-22.8-22.8L-240.46,347.98Z"/>
        </g>
        <g>
          <rect class="cls-3" x="109.24" y="-236.99" width="34.24" height="699.52" transform="translate(116.75 -56.32) rotate(45)"/>
          <path d="m-108.85,373.6l-25.62-25.62L361.57-148.07l25.62,25.62L-108.85,373.6Zm-22.8-25.62l22.8,22.8L384.38-122.44l-22.8-22.8L-131.65,347.98Z"/>
        </g>
        <g>
          <rect class="cls-3" x="218.05" y="-236.99" width="34.24" height="699.52" transform="translate(148.62 -133.26) rotate(45)"/>
          <path d="m-.04,373.6l-25.62-25.62L470.38-148.07l25.62,25.62L-.04,373.6Zm-22.8-25.62L-.04,370.78,493.18-122.44l-22.8-22.8L-22.84,347.98Z"/>
        </g>
        <g>
          <rect class="cls-3" x="326.86" y="-236.99" width="34.24" height="699.52" transform="translate(180.49 -210.2) rotate(45)"/>
          <path d="m108.77,373.6l-25.62-25.62,496.05-496.05,25.62,25.62L108.77,373.6Zm-22.8-25.62l22.8,22.8L601.99-122.44l-22.8-22.8L85.97,347.98Z"/>
        </g>
        <g>
          <rect class="cls-3" x="435.67" y="-236.99" width="34.24" height="699.52" transform="translate(212.36 -287.14) rotate(45)"/>
          <path d="m217.58,373.6l-25.62-25.62,496.04-496.05,25.63,25.62L217.58,373.6Zm-22.8-25.62l22.8,22.8L710.8-122.44l-22.8-22.8L194.78,347.98Z"/>
        </g>
        <g>
          <rect class="cls-3" x="544.48" y="-236.99" width="34.24" height="699.52" transform="translate(244.23 -364.08) rotate(45)"/>
          <path d="m326.39,373.6l-25.62-25.62,496.04-496.05,25.63,25.62-496.05,496.05Zm-22.8-25.62l22.8,22.8L819.61-122.44l-22.8-22.8-493.22,493.22Z"/>
        </g>
        <g>
          <rect class="cls-3" x="653.29" y="-236.99" width="34.24" height="699.52" transform="translate(276.1 -441.02) rotate(45)"/>
          <path d="m435.2,373.6l-25.62-25.62,496.04-496.05,25.63,25.62-496.05,496.05Zm-22.8-25.62l22.8,22.8L928.42-122.44l-22.8-22.8-493.22,493.22Z"/>
        </g>
        <g>
          <rect class="cls-3" x="762.1" y="-236.99" width="34.24" height="699.52" transform="translate(307.97 -517.96) rotate(45)"/>
          <path d="m544.01,373.6l-25.62-25.62,496.04-496.05,25.62,25.62-496.04,496.05Zm-22.8-25.62l22.8,22.8,493.22-493.22-22.8-22.8-493.22,493.22Z"/>
        </g>
      </g>
    </g>
    <rect class="cls-3" x=".45" y="63.18" width="897.55" height="120.6"/>
  </g>
  <g>
    <path d="m48.38,155.29v-61.18h63.18c9,0,16.34,7.34,16.34,16.34v12.2c0,9-7.34,16.34-16.34,16.34h-55.03v16.3h-8.15Zm71.37-32.64v-12.2c0-4.61-3.58-8.15-8.19-8.15h-55.03v28.54h55.03c4.61,0,8.19-3.58,8.19-8.19Z"/>
    <path d="m209.51,155.29l-10.84-20.39h-51.88v20.39h-8.15v-61.18h63.18c8.96,0,16.3,7.34,16.3,16.34v8.15c0,7.17-4.74,13.35-11.22,15.49l11.26,21.2h-8.66Zm.51-36.69v-8.15c0-4.61-3.58-8.15-8.19-8.15h-55.03v24.45h55.03c4.61,0,8.19-3.58,8.19-8.15Z"/>
    <path d="m244.83,155.29c-8.96,0-16.3-7.34-16.3-16.3v-28.54c0-9,7.34-16.34,16.3-16.34h53.03c8.96,0,16.3,7.34,16.3,16.34v28.54c0,8.96-7.34,16.3-16.3,16.3h-53.03Zm61.18-16.3v-28.54c0-4.61-3.54-8.15-8.15-8.15h-53.03c-4.56,0-8.15,3.54-8.15,8.15v28.54c0,4.56,3.58,8.15,8.15,8.15h53.03c4.61,0,8.15-3.58,8.15-8.15Z"/>
    <path d="m358.95,155.29v-52.99h-36.69v-8.19h81.53v8.19h-36.69v52.99h-8.15Z"/>
    <path d="m428.1,155.29c-8.96,0-16.3-7.34-16.3-16.3v-28.54c0-9,7.34-16.34,16.3-16.34h53.03c8.96,0,16.3,7.34,16.3,16.34v28.54c0,8.96-7.34,16.3-16.3,16.3h-53.03Zm61.18-16.3v-28.54c0-4.61-3.54-8.15-8.15-8.15h-53.03c-4.56,0-8.15,3.54-8.15,8.15v28.54c0,4.56,3.58,8.15,8.15,8.15h53.03c4.61,0,8.15-3.58,8.15-8.15Z"/>
    <path d="m542.22,155.29v-52.99h-36.69v-8.19h81.53v8.19h-36.69v52.99h-8.15Z"/>
    <path d="m630.36,155.29v-28.28l-36.69-32.89h12.29l28.5,25.68,28.5-25.68h12.24l-36.69,32.89v28.28h-8.15Z"/>
    <path d="m682.19,155.29v-61.18h63.18c9,0,16.34,7.34,16.34,16.34v12.2c0,9-7.34,16.34-16.34,16.34h-55.03v16.3h-8.15Zm71.37-32.64v-12.2c0-4.61-3.58-8.15-8.19-8.15h-55.03v28.54h55.03c4.61,0,8.19-3.58,8.19-8.19Z"/>
    <path d="m772.47,155.29v-61.18h75.43v8.19h-67.28v18.34h59.13v8.15h-59.13v18.34h67.28v8.15h-75.43Z"/>
  </g>
</svg>