<svg width="15" height="631" viewBox="0 0 15 631" fill="none" xmlns="http://www.w3.org/2000/svg">
<g clip-path="url(#clip0_49_55)">
<path d="M14.2272 243.932C14.2272 245.957 12.4602 247.606 10.2872 247.606C8.11414 247.606 6.34717 245.957 6.34717 243.932C6.34717 241.907 8.11414 240.258 10.2872 240.258C12.4602 240.258 14.2272 241.907 14.2272 243.932ZM6.93543 243.932C6.93543 245.654 8.439 247.056 10.2872 247.056C12.1354 247.056 13.6389 245.654 13.6389 243.932C13.6389 242.209 12.1354 240.806 10.2872 240.806C8.439 240.806 6.93543 242.207 6.93543 243.932Z" fill="black"/>
<path d="M10.6812 247.606V278.655L6.34456 282.84V444.369L1.13643 451.372V493.169L6.34456 497.009V630.77H5.64527V497.29L0.437141 493.449V451.194L5.64527 444.189V282.607L9.97929 278.422V247.606H10.6812Z" fill="black"/>
<path d="M10.6812 210.416V240.341H10.1338V210.611L6.74117 205.431V0H7.28856V205.235L10.6812 210.416Z" fill="black"/>
</g>
<defs>
<clipPath id="clip0_49_55">
<rect x="0.437134" width="14.1841" height="630.403" rx="4.72802" fill="white"/>
</clipPath>
</defs>
</svg>
