<?xml version="1.0" encoding="UTF-8"?>
<svg id="Layer_1" data-name="Layer 1" xmlns="http://www.w3.org/2000/svg" viewBox="0 0 167 140">
  <defs>
    <style>
      .cls-1 {
        fill: #fff;
      }
    </style>
  </defs>
  <g>
    <path class="cls-1" d="m16.53,23.18H3.53v.89h13v-.89Z"/>
    <rect class="cls-1" x="5.57" y="27.93" width=".04" height="2.53"/>
    <rect class="cls-1" x="5.68" y="27.93" width=".04" height="2.53"/>
    <rect class="cls-1" x="5.78" y="27.93" width=".04" height="2.53"/>
    <rect class="cls-1" x="5.88" y="27.93" width=".04" height="2.53"/>
    <rect class="cls-1" x="5.98" y="27.93" width=".04" height="2.53"/>
    <rect class="cls-1" x="6.08" y="27.93" width=".04" height="2.53"/>
    <rect class="cls-1" x="6.18" y="27.93" width=".04" height="2.53"/>
    <rect class="cls-1" x="6.28" y="27.93" width=".04" height="2.53"/>
    <rect class="cls-1" x="6.58" y="27.93" width=".04" height="2.53"/>
    <rect class="cls-1" x="6.69" y="27.93" width=".04" height="2.53"/>
    <rect class="cls-1" x="6.79" y="27.93" width=".04" height="2.53"/>
    <rect class="cls-1" x="6.89" y="27.93" width=".04" height="2.53"/>
    <rect class="cls-1" x="6.99" y="27.93" width=".04" height="2.53"/>
    <rect class="cls-1" x="7.09" y="27.93" width=".04" height="2.53"/>
    <rect class="cls-1" x="7.39" y="27.93" width=".04" height="2.53"/>
    <rect class="cls-1" x="7.49" y="27.93" width=".04" height="2.53"/>
    <rect class="cls-1" x="7.6" y="27.93" width=".04" height="2.53"/>
    <rect class="cls-1" x="7.7" y="27.93" width=".04" height="2.53"/>
    <rect class="cls-1" x="7.8" y="27.93" width=".04" height="2.53"/>
    <rect class="cls-1" x="7.9" y="27.93" width=".04" height="2.53"/>
    <rect class="cls-1" x="8" y="27.93" width=".04" height="2.53"/>
    <rect class="cls-1" x="8.1" y="27.93" width=".04" height="2.53"/>
    <rect class="cls-1" x="8.2" y="27.93" width=".04" height="2.53"/>
    <rect class="cls-1" x="8.3" y="27.93" width=".04" height="2.53"/>
    <rect class="cls-1" x="8.4" y="27.93" width=".04" height="2.53"/>
    <rect class="cls-1" x="8.71" y="27.93" width=".04" height="2.53"/>
    <rect class="cls-1" x="8.81" y="27.93" width=".04" height="2.53"/>
    <rect class="cls-1" x="9.01" y="27.93" width=".04" height="2.53"/>
    <rect class="cls-1" x="9.11" y="27.93" width=".04" height="2.53"/>
    <rect class="cls-1" x="9.21" y="27.93" width=".04" height="2.53"/>
    <rect class="cls-1" x="9.41" y="27.93" width=".04" height="2.53"/>
    <rect class="cls-1" x="9.52" y="27.93" width=".04" height="2.53"/>
    <rect class="cls-1" x="9.62" y="27.93" width=".04" height="2.53"/>
    <rect class="cls-1" x="9.72" y="27.93" width=".04" height="2.53"/>
    <rect class="cls-1" x="9.82" y="27.93" width=".04" height="2.53"/>
    <rect class="cls-1" x="9.92" y="27.93" width=".04" height="2.53"/>
    <rect class="cls-1" x="10.02" y="27.93" width=".04" height="2.53"/>
    <rect class="cls-1" x="10.12" y="27.93" width=".04" height="2.53"/>
    <rect class="cls-1" x="10.22" y="27.93" width=".04" height="2.53"/>
    <rect class="cls-1" x="10.32" y="27.93" width=".04" height="2.53"/>
    <rect class="cls-1" x="10.43" y="27.93" width=".04" height="2.53"/>
    <rect class="cls-1" x="10.53" y="27.93" width=".04" height="2.53"/>
    <rect class="cls-1" x="10.63" y="27.93" width=".04" height="2.53"/>
    <rect class="cls-1" x="10.73" y="27.93" width=".04" height="2.53"/>
    <rect class="cls-1" x="11.13" y="27.93" width=".04" height="2.53"/>
    <rect class="cls-1" x="11.23" y="27.93" width=".04" height="2.53"/>
    <rect class="cls-1" x="11.33" y="27.93" width=".04" height="2.53"/>
    <rect class="cls-1" x="11.44" y="27.93" width=".04" height="2.53"/>
    <path class="cls-1" d="m17.84,92.27h-1.5c.18.55.37,1.1.57,1.65h.93v-1.65Z"/>
    <rect class="cls-1" x="129.09" y="123.06" width="12.03" height=".38"/>
    <polygon class="cls-1" points="15.78 93.1 15.78 92.73 15.78 92.35 15.78 91.98 3.75 91.98 3.75 92.35 3.75 92.73 3.75 93.1 3.75 93.48 15.78 93.48 15.78 93.1"/>
    <rect class="cls-1" x="110.22" y="137.1" width="5.03" height=".75"/>
    <rect class="cls-1" x="99.8" y="139.35" width="5.03" height=".75"/>
    <rect class="cls-1" x="115.33" y="1.9" width="5.03" height=".75"/>
    <rect class="cls-1" x="13.84" y="98.29" width="3.41" height=".92"/>
    <rect class="cls-1" x="110.23" y="-.14" width="3.41" height=".92"/>
    <rect class="cls-1" x="145.6" y="124.68" width="3.41" height=".92"/>
    <rect class="cls-1" x="145.11" y="122.86" width="3.41" height=".92"/>
    <rect class="cls-1" x="5.9" y="95.15" width="3.91" height=".43"/>
    <rect class="cls-1" x=".65" y="95.15" width="3.91" height=".43"/>
    <polygon class="cls-1" points="109.71 2.48 112.65 2.48 112.65 2.28 112.98 2.28 112.98 1.36 109.57 1.36 109.57 1.56 109.24 1.56 109.24 1.58 105.79 1.58 105.79 2.53 109.71 2.53 109.71 2.48"/>
    <rect class="cls-1" x="100.55" y="1.58" width="3.91" height=".95"/>
    <path class="cls-1" d="m167,84.33h-13.51c.91-4.47,1.39-9.1,1.39-13.84,0-1.06-.02-2.11-.07-3.15h-6.22c-.18-3.98-.69-7.87-1.51-11.65h3.56c-.13-.59-.27-1.17-.41-1.76h4.45c-1.25-5.1-3.07-9.98-5.38-14.56h-4.45c-1.01-2.01-2.12-3.96-3.32-5.86h23.35v-.89h-23.92c-5.54-8.45-12.87-15.62-21.46-20.96h2.56v.98h4.05v-1.09h-4.05v.05c-.88-.55-1.77-1.07-2.68-1.58h-6.22c-2.62-1.46-5.34-2.76-8.15-3.87h7.11c-1.51-.6-3.05-1.15-4.61-1.65h-7.11c-2.5-.79-5.06-1.45-7.67-1.96h.62v-.95h-3.91v.39c-.44-.06-.89-.12-1.33-.18v-.21h-1.94c-2.21-.21-4.46-.32-6.73-.32-12.24,0-23.74,3.18-33.72,8.75h6.22c-.94.53-1.87,1.08-2.79,1.64h-2.67c-2.63,1.64-5.14,3.44-7.52,5.4h-2.52v-.33h-13.93v-.55h-1.18v-.04h-4.05v.58H-.13v.89h34.86c-2.06,1.74-4.01,3.6-5.85,5.57h-10.73v1.79h9.11c-.26.3-.51.59-.77.89H9.53v.89h16.22c-1.28,1.57-2.49,3.19-3.63,4.86h3.56c-4.88,7.18-8.44,15.32-10.35,24.07h-3.56c-.82,3.78-1.34,7.67-1.52,11.65h6.22c-.03.59-.04,1.17-.06,1.76h-4.45c0,.46-.01.93-.01,1.39,0,.57,0,1.14.02,1.7h3.56c.01.59.04,1.18.06,1.76h-3.56c.1,2,.28,3.98.55,5.93h3.56c.22,1.6.49,3.19.82,4.76H3.63c.44,2.15.99,4.26,1.63,6.32h14.23c.03.08.05.17.08.25h-8.33v.38h8.44c.07.22.14.45.22.67h1.5v1.64h-.93c.06.17.13.34.19.51h-9.42v.38h9.56c.05.13.1.25.14.37h-9.27v.38h9.42c.05.12.1.25.15.37h-6.89v.38h7.04c1.69,4.21,3.79,8.23,6.24,11.98h-7.11c2.76,4.23,5.96,8.13,9.56,11.65h3.56c3.1,3.04,6.48,5.78,10.1,8.2h-.2v1.69h.23v.37h.4v.24h1.69v-.94c.18.11.35.21.53.32h0s.02.01.02.01c.07.04.14.08.21.13v.24h.4v.24h.42c1.59.92,3.21,1.78,4.88,2.57h14.23c1.22.58,2.46,1.13,3.72,1.64h-14.23c8.04,3.27,16.84,5.07,26.07,5.07,3.27,0,6.49-.23,9.64-.67h3.85v-.65c4.35-.86,8.55-2.13,12.57-3.76h14.23c1.26-.51,2.5-1.06,3.72-1.64h-14.22c6.94-3.31,13.24-7.75,18.67-13.07h-3.56c.22-.21.44-.43.65-.65h11.27v-.38h-10.9c3.18-3.25,6.04-6.81,8.54-10.63h7.11c.6-.93,1.19-1.87,1.75-2.82h-3.56c.32-.54.63-1.09.93-1.64h3.56c3.16-5.75,5.53-12,6.96-18.59h13.69v-.89Z"/>
    <polygon class="cls-1" points="131.31 16.94 135.36 16.94 135.36 15.85 132.73 15.85 132.73 15.31 128.68 15.31 128.68 16.4 131.31 16.4 131.31 16.94"/>
    <polygon class="cls-1" points="122.83 10.84 126.88 10.84 126.88 9.75 125.7 9.75 125.7 9.72 121.64 9.72 121.64 10.81 122.83 10.81 122.83 10.84"/>
    <polygon class="cls-1" points="108.6 4.38 108.6 3.29 107.42 3.29 107.42 3.26 103.37 3.26 103.37 4.35 104.55 4.35 104.55 4.38 108.6 4.38"/>
    <polygon class="cls-1" points="31.22 128.51 30.99 128.51 30.99 128.14 29.3 128.14 29.3 129.83 29.53 129.83 29.53 130.2 29.92 130.2 29.92 130.44 31.62 130.44 31.62 128.75 31.22 128.75 31.22 128.51"/>
    <polygon class="cls-1" points="34.07 128.51 33.84 128.51 33.84 128.14 32.14 128.14 32.14 129.83 32.38 129.83 32.38 130.2 32.77 130.2 32.77 130.44 34.46 130.44 34.46 128.75 34.07 128.75 34.07 128.51"/>
    <polygon class="cls-1" points="36.91 128.51 36.68 128.51 36.68 128.14 34.99 128.14 34.99 129.83 35.22 129.83 35.22 130.2 35.62 130.2 35.62 130.44 37.31 130.44 37.31 128.75 36.91 128.75 36.91 128.51"/>
    <polygon class="cls-1" points="39.76 128.51 39.53 128.51 39.53 128.14 37.84 128.14 37.84 129.83 38.07 129.83 38.07 130.2 38.46 130.2 38.46 130.44 40.16 130.44 40.16 128.75 39.76 128.75 39.76 128.51"/>
    <polygon class="cls-1" points="42.61 128.51 42.38 128.51 42.38 128.14 40.68 128.14 40.68 129.83 40.91 129.83 40.91 130.2 41.31 130.2 41.31 130.44 43 130.44 43 128.75 42.61 128.75 42.61 128.51"/>
  </g>
  <g>
    <path d="m118.08,99.33l6.42-.04c.19-.22.38-.45.56-.67h-.89c.97-1.18,1.9-2.4,2.77-3.66h1.78c.13-.2.26-.39.39-.58.73-1.08.44-2.54-.63-3.26-1.08-.73-2.54-.44-3.26.63-.75,1.11-1.55,2.19-2.38,3.24h-1.78c-1.02,1.29-2.09,2.51-3.21,3.67h.89c-.22.22-.44.45-.66.67Z"/>
    <path d="m122.68,100.36l-6.59.04c-1.56,1.47-3.2,2.83-4.92,4.08l2.67-.02c-1.86,1.36-3.82,2.59-5.85,3.68l-3.56.02c-7.24,3.9-15.43,6.05-23.9,6.1-7.76.04-15.3-1.68-22.11-4.9l3.56-.02c-4.85-2.3-9.34-5.35-13.28-9.08h-1.78c-1.58-1.49-3.08-3.1-4.48-4.81-.84-1.03-1.65-2.1-2.41-3.21-.74-1.07-2.2-1.33-3.27-.59-1.07.74-1.33,2.2-.6,3.27.13.19.27.38.4.57,1.19,1.68,2.48,3.29,3.85,4.82h1.78c3.08,3.44,6.58,6.5,10.4,9.09l-3.55.02c1.63,1.11,3.32,2.12,5.05,3.05,2.73,1.46,5.59,2.68,8.52,3.66l3.03-.02c1.26.41,2.53.78,3.81,1.1,4.51,1.13,9.17,1.68,13.86,1.65s9.34-.64,13.83-1.81c1.37-.36,2.73-.77,4.07-1.23h-2.5c2.83-.98,5.59-2.21,8.22-3.65,2.2-1.2,4.32-2.56,6.34-4.05l3.55-.02c1.55-1.15,3.05-2.37,4.47-3.67l-2.67.02c1.41-1.29,2.76-2.65,4.04-4.08Z"/>
    <path d="m125.19,99.29c-.36.36-.73.71-1.1,1.06l6.59-.04c.31-.35.62-.71.93-1.06l-6.42.04Z"/>
    <path d="m58.42,71.03c0,.59.07,1.17.2,1.72h-1.78c.81,3.55,3.98,6.18,7.76,6.16h0c3.78-.02,6.92-2.69,7.69-6.24h1.78c.12-.57.18-1.14.18-1.74l-.03-6.03-3.56.02-.06-10.22,2.67-.02-.03-5.4h-1.78s-.01-1.75-.01-1.75h.89s0-1.65,0-1.65h-.89s-.04-6.61-.04-6.61c-.03-4.37-3.59-7.9-7.96-7.87h0c-4.37.03-7.9,3.59-7.87,7.96l.04,6.61h.89s0,1.64,0,1.64h-.89s.01,1.77.01,1.77h1.78s.03,5.39.03,5.39l-2.67.02.06,10.22,3.55-.02.03,6.03Z"/>
    <path d="m91.53,49.19l2.67-.02.05,8.1h-1.78s.06,10.23.06,10.23h.89s.02,3.32.02,3.32c.03,4.37,3.59,7.9,7.96,7.87h0c4.37-.03,7.9-3.59,7.87-7.96l-.02-3.33h-.89s-.06-10.21-.06-10.21h1.78s-.05-8.11-.05-8.11l-2.67.02v-1.76s-.9,0-.9,0v-1.65s2.66-.02,2.66-.02l-.04-6.61c-.03-4.37-3.59-7.9-7.96-7.87h0c-4.37.03-7.9,3.59-7.87,7.96l.04,6.61-2.67.02v1.65s.9,0,.9,0v1.76Z"/>
  </g>
</svg>