<svg id="eL1GQFb093m1" xmlns="http://www.w3.org/2000/svg" xmlns:xlink="http://www.w3.org/1999/xlink" viewBox="0 0 584 567" shape-rendering="geometricPrecision" text-rendering="geometricPrecision">
<style><![CDATA[
#eL1GQFb093m137 {animation: eL1GQFb093m137_c_o 1000ms linear 1 normal forwards}@keyframes eL1GQFb093m137_c_o { 0% {opacity: 0} 100% {opacity: 1}} #eL1GQFb093m139 {animation: eL1GQFb093m139_c_o 1000ms linear 1 normal forwards}@keyframes eL1GQFb093m139_c_o { 0% {opacity: 0} 100% {opacity: 1}} #eL1GQFb093m140 {animation: eL1GQFb093m140_c_o 1000ms linear 1 normal forwards}@keyframes eL1GQFb093m140_c_o { 0% {opacity: 0} 100% {opacity: 1}} #eL1GQFb093m141 {animation: eL1GQFb093m141_c_o 1000ms linear 1 normal forwards}@keyframes eL1GQFb093m141_c_o { 0% {opacity: 0} 100% {opacity: 1}} #eL1GQFb093m142 {animation: eL1GQFb093m142_c_o 1000ms linear 1 normal forwards}@keyframes eL1GQFb093m142_c_o { 0% {opacity: 0} 100% {opacity: 1}} #eL1GQFb093m143 {animation: eL1GQFb093m143_c_o 1000ms linear 1 normal forwards}@keyframes eL1GQFb093m143_c_o { 0% {opacity: 0} 100% {opacity: 1}} #eL1GQFb093m144 {animation: eL1GQFb093m144_c_o 1000ms linear 1 normal forwards}@keyframes eL1GQFb093m144_c_o { 0% {opacity: 0} 100% {opacity: 1}} #eL1GQFb093m145 {animation: eL1GQFb093m145_c_o 1000ms linear 1 normal forwards}@keyframes eL1GQFb093m145_c_o { 0% {opacity: 0} 100% {opacity: 1}} #eL1GQFb093m147 {animation: eL1GQFb093m147_c_o 1000ms linear 1 normal forwards}@keyframes eL1GQFb093m147_c_o { 0% {opacity: 0} 100% {opacity: 1}} #eL1GQFb093m149_ts {animation: eL1GQFb093m149_ts__ts 1000ms linear 1 normal forwards}@keyframes eL1GQFb093m149_ts__ts { 0% {transform: translate(456.822982px,33.5756px) scale(0,0)} 30% {transform: translate(456.822982px,33.5756px) scale(1,1)} 100% {transform: translate(456.822982px,33.5756px) scale(1,1)}} #eL1GQFb093m159_ts {animation: eL1GQFb093m159_ts__ts 1000ms linear 1 normal forwards}@keyframes eL1GQFb093m159_ts__ts { 0% {transform: translate(476.217118px,63.9787px) scale(0,0)} 30% {transform: translate(476.217118px,63.9787px) scale(0,0)} 60% {transform: translate(476.217118px,63.9787px) scale(1,1)} 100% {transform: translate(476.217118px,63.9787px) scale(1,1)}} #eL1GQFb093m169_ts {animation: eL1GQFb093m169_ts__ts 1000ms linear 1 normal forwards}@keyframes eL1GQFb093m169_ts__ts { 0% {transform: translate(495.264496px,94.594799px) scale(0,0)} 70% {transform: translate(495.264496px,94.594799px) scale(0,0)} 100% {transform: translate(495.264496px,94.594799px) scale(1,1)}} #eL1GQFb093m191 {animation: eL1GQFb093m191_s_do 1000ms linear 1 normal forwards}@keyframes eL1GQFb093m191_s_do { 0% {stroke-dashoffset: 384.42;animation-timing-function: cubic-bezier(0.42,0,0.58,1)} 100% {stroke-dashoffset: 0}} #eL1GQFb093m332_ts {animation: eL1GQFb093m332_ts__ts 1000ms linear 1 normal forwards}@keyframes eL1GQFb093m332_ts__ts { 0% {transform: translate(280.100006px,351.447998px) scale(0.5,0.5)} 30% {transform: translate(280.100006px,351.447998px) scale(1,1)} 100% {transform: translate(280.100006px,351.447998px) scale(1,1)}} #eL1GQFb093m333_ts {animation: eL1GQFb093m333_ts__ts 1000ms linear 1 normal forwards}@keyframes eL1GQFb093m333_ts__ts { 0% {transform: translate(280.102005px,352.00221px) scale(0.5,0.5)} 30% {transform: translate(280.102005px,352.00221px) scale(1,1)} 100% {transform: translate(280.102005px,352.00221px) scale(1,1)}} #eL1GQFb093m335_ts {animation: eL1GQFb093m335_ts__ts 1000ms linear 1 normal forwards}@keyframes eL1GQFb093m335_ts__ts { 0% {transform: translate(280.100006px,351.448502px) scale(0.5,0.5)} 30% {transform: translate(280.100006px,351.448502px) scale(1,1)} 100% {transform: translate(280.100006px,351.448502px) scale(1,1)}} #eL1GQFb093m336_tr {animation: eL1GQFb093m336_tr__tr 1000ms linear 1 normal forwards}@keyframes eL1GQFb093m336_tr__tr { 0% {transform: translate(280.102494px,350.346497px) rotate(90deg)} 30% {transform: translate(280.102494px,350.346497px) rotate(0deg)} 100% {transform: translate(280.102494px,350.346497px) rotate(0deg)}} #eL1GQFb093m336_ts {animation: eL1GQFb093m336_ts__ts 1000ms linear 1 normal forwards}@keyframes eL1GQFb093m336_ts__ts { 0% {transform: scale(0.5,0.5)} 30% {transform: scale(1,1)} 100% {transform: scale(1,1)}} #eL1GQFb093m353 {animation: eL1GQFb093m353_s_do 1000ms linear 1 normal forwards}@keyframes eL1GQFb093m353_s_do { 0% {stroke-dashoffset: 197.343637} 30% {stroke-dashoffset: 0} 100% {stroke-dashoffset: 0}} #eL1GQFb093m354_ts {animation: eL1GQFb093m354_ts__ts 1000ms linear 1 normal forwards}@keyframes eL1GQFb093m354_ts__ts { 0% {transform: translate(137.18655px,260.769501px) scale(0,0)} 50% {transform: translate(137.18655px,260.769501px) scale(0,0)} 70% {transform: translate(137.18655px,260.769501px) scale(1,1)} 100% {transform: translate(137.18655px,260.769501px) scale(1,1)}} #eL1GQFb093m361_ts {animation: eL1GQFb093m361_ts__ts 1000ms linear 1 normal forwards}@keyframes eL1GQFb093m361_ts__ts { 0% {transform: translate(137.18655px,235.527001px) scale(0,0)} 70% {transform: translate(137.18655px,235.527001px) scale(0,0)} 90% {transform: translate(137.18655px,235.527001px) scale(1,1)} 100% {transform: translate(137.18655px,235.527001px) scale(1,1)}} #eL1GQFb093m368_ts {animation: eL1GQFb093m368_ts__ts 1000ms linear 1 normal forwards}@keyframes eL1GQFb093m368_ts__ts { 0% {transform: translate(136.527553px,286.013504px) scale(0,0)} 30% {transform: translate(136.527553px,286.013504px) scale(0,0)} 50% {transform: translate(136.527553px,286.013504px) scale(1,1)} 100% {transform: translate(136.527553px,286.013504px) scale(1,1)}} #eL1GQFb093m512_ts {animation: eL1GQFb093m512_ts__ts 1000ms linear 1 normal forwards}@keyframes eL1GQFb093m512_ts__ts { 0% {transform: translate(251.300995px,516.370941px) scale(0,0)} 20% {transform: translate(251.300995px,516.370941px) scale(1,1)} 100% {transform: translate(251.300995px,516.370941px) scale(1,1)}} #eL1GQFb093m517_tr {animation: eL1GQFb093m517_tr__tr 1000ms linear 1 normal forwards}@keyframes eL1GQFb093m517_tr__tr { 0% {transform: translate(251.300995px,516.491074px) rotate(-90deg)} 20% {transform: translate(251.300995px,516.491074px) rotate(0deg)} 100% {transform: translate(251.300995px,516.491074px) rotate(0deg)}} #eL1GQFb093m522 {animation: eL1GQFb093m522_s_do 1000ms linear 1 normal forwards}@keyframes eL1GQFb093m522_s_do { 0% {stroke-dashoffset: 376.428871} 20% {stroke-dashoffset: 376.428871} 80% {stroke-dashoffset: 0} 100% {stroke-dashoffset: 0}} #eL1GQFb093m523_ts {animation: eL1GQFb093m523_ts__ts 1000ms linear 1 normal forwards}@keyframes eL1GQFb093m523_ts__ts { 0% {transform: translate(445.336502px,490.523499px) scale(0,0)} 40% {transform: translate(445.336502px,490.523499px) scale(0,0)} 60% {transform: translate(445.336502px,490.523499px) scale(1,1)} 100% {transform: translate(445.336502px,490.523499px) scale(1,1)}} #eL1GQFb093m527_ts {animation: eL1GQFb093m527_ts__ts 1000ms linear 1 normal forwards}@keyframes eL1GQFb093m527_ts__ts { 0% {transform: translate(523.197998px,524.509491px) scale(0,0)} 60% {transform: translate(523.197998px,524.509491px) scale(0,0)} 80% {transform: translate(523.197998px,524.509491px) scale(1,1)} 100% {transform: translate(523.197998px,524.509491px) scale(1,1)}}
]]></style>
<defs><linearGradient id="eL1GQFb093m341-fill" x1="291.098" y1="360.574" x2="269.111" y2="342.414" spreadMethod="pad" gradientUnits="userSpaceOnUse" gradientTransform="translate(0 0)"><stop id="eL1GQFb093m341-fill-0" offset="0%" stop-color="#fff"/><stop id="eL1GQFb093m341-fill-1" offset="53%" stop-color="#e2e2e2"/><stop id="eL1GQFb093m341-fill-2" offset="54%" stop-color="#8f8f8f"/><stop id="eL1GQFb093m341-fill-3" offset="55%" stop-color="#000"/><stop id="eL1GQFb093m341-fill-4" offset="99%" stop-color="#000"/></linearGradient></defs><g clip-path="url(#eL1GQFb093m133)"><g><g mask="url(#eL1GQFb093m21)"><g><path d="M24.3951,70.4258h-6.148v.6106h6.148v-.6106Z" fill="#fff"/><path d="M24.3951,65.7662h-6.148v.6106h6.148v-.6106Z" fill="#fff"/><path d="M24.3951,61.1067h-6.148v.6106h6.148v-.6106Z" fill="#fff"/><path d="M24.3951,56.4471h-6.148v.6106h6.148v-.6106Z" fill="#fff"/><path d="M24.3951,51.7877h-6.148v.6106h6.148v-.6106Z" fill="#fff"/><path d="M24.3951,47.1282h-6.148v.6135h6.148v-.6135Z" fill="#fff"/><path d="M18.2401,79.395v-50.238l4.1244,1.7458v58.0603L34.6956,94.168v25.435l-12.1835,5.139v13.688h-1.4615v-37.311l-5.881-2.4812v-17.9504l3.0705-1.2924Z" fill="#fff"/><path d="M18.8712,120.411l-7.7825,3.26.3565.152l7.7825-3.26-.3565-.152Z" fill="#fff"/><path d="M11.4576,120.407l-.3564.151l7.7825,3.261.3565-.152-7.7826-3.26Z" fill="#fff"/><path d="M18.8647,125.269l-7.7555,3.271.3577.151l7.7555-3.272-.3577-.15Z" fill="#fff"/><path d="M11.4669,125.271l-.3577.151l7.7555,3.271.3577-.151-7.7555-3.271Z" fill="#fff"/><path d="M11.4668,133.563l-.3583-.154l7.757-3.272.3583.154-7.757,3.272Z" fill="#fff"/><path d="M19.2238,133.409l-.3583.154-7.757-3.272.3583-.154l7.757,3.272Z" fill="#fff"/><path d="M18.8636,135.005l-7.7555,3.272.3577.151l7.7555-3.272-.3577-.151Z" fill="#fff"/><path d="M11.4658,135.007l-.3577.151l7.7555,3.272.3577-.151-7.7555-3.272Z" fill="#fff"/></g><mask id="eL1GQFb093m21" mask-type="luminance" x="-150%" y="-150%" height="400%" width="400%"><path d="M34.6956,138.43v-81.4908L11.1085,46.9918v91.4382h23.5871Z" fill="#fff"/></mask></g><g mask="url(#eL1GQFb093m34)"><g><path d="M12.2748,50.0033h-1.4474v2.5936h1.4474v-2.5936Z" fill="#fff"/><path d="M23.3201,50.0033h-1.4474v2.5936h1.4474v-2.5936Z" fill="#fff"/><path d="M34.3724,50.0033h-1.4545v2.5936h1.4545v-2.5936Z" fill="#fff"/><path d="M45.4176,50.0033h-1.4544v2.5936h1.4544v-2.5936Z" fill="#fff"/><path d="M56.4558,50.0033h-1.4474v2.5936h1.4474v-2.5936Z" fill="#fff"/><path d="M67.5011,50.0033h-1.4474v2.5936h1.4474v-2.5936Z" fill="#fff"/><path d="M-42.1153,49.9974h119.0807L72.827,51.7403h-137.63l-12.3311,5.199h-60.2989l-12.184-5.1368h-32.447v-.6195h88.4534l5.874-2.4779h42.5509l3.0704,1.2923Z" fill="#fff"/><path d="M102.906,54.8169h-12.3097l-13.8768-5.854h-30.3604v-.5158h30.8593l13.8768,5.8541h11.3048l4.111-1.734h54.256v.5158h-53.75l-4.111,1.7339Z" fill="#fff"/><path d="M123.95,52.0812l8.818-3.7229h22.519l7.462,3.1478h65.112l-4.94,2.0838h-44.504l-3.562-1.5028-50.905-.0059Z" fill="#fff"/></g><mask id="eL1GQFb093m34" mask-type="luminance" x="-150%" y="-150%" height="400%" width="400%"><path d="M227.861,56.9392h-193.1654L11.1085,46.9918h216.7525v9.9474Z" fill="#fff"/></mask></g><g mask="url(#eL1GQFb093m53)"><g><path d="M185.514,50.0033h-1.448v2.5936h1.448v-2.5936Z" fill="#fff"/><path d="M196.566,50.0033h-1.454v2.5936h1.454v-2.5936Z" fill="#fff"/><path d="M207.604,50.0033h-1.447v2.5936h1.447v-2.5936Z" fill="#fff"/><path d="M218.65,50.0033h-1.448v2.5936h1.448v-2.5936Z" fill="#fff"/><path d="M229.702,50.0033h-1.455v2.5936h1.455v-2.5936Z" fill="#fff"/><path d="M240.74,50.0033h-1.447v2.5936h1.447v-2.5936Z" fill="#fff"/><path d="M164.252,49.9974h119.088l-4.138,1.7429h-137.637l-12.324,5.199h-60.2995L56.758,51.8025h-32.4472v-.6195h88.4462l5.881-2.4779h42.551l3.063,1.2923Z" fill="#fff"/><path d="M58.9291,47.143l.3653-.1512l7.75,3.2724-.3584.1511-7.7569-3.2723Z" fill="#fff"/><path d="M59.2944,50.4153l-.3653-.1511l7.7569-3.2724.3584.1512-7.75,3.2723Z" fill="#fff"/><path d="M47.7679,46.9891l-.359.1504l7.7284,3.2832.359-.1504-7.7284-3.2832Z" fill="#fff"/><path d="M55.1304,46.9831L47.402,50.2662l.359.1504l7.7284-3.2831-.359-.1504Z" fill="#fff"/><path d="M36.2094,46.9912l-.3577.1509l7.7555,3.2717.3577-.1509-7.7555-3.2717Z" fill="#fff"/><path d="M43.6072,46.9891l-7.7555,3.2718.3577.1509L43.9649,47.14l-.3577-.1509Z" fill="#fff"/><path d="M24.3108,47.143l.3583-.1512l7.757,3.2724-.3583.1511-7.757-3.2723Z" fill="#fff"/><path d="M24.6691,50.4153l-.3583-.1511l7.757-3.2724.3583.1512-7.757,3.2723Z" fill="#fff"/></g><mask id="eL1GQFb093m53" mask-type="luminance" x="-150%" y="-150%" height="400%" width="400%"><path d="M24.3108,56.9392h193.1652l23.587-9.9474h-216.7522v9.9474Z" fill="#fff"/></mask></g><g mask="url(#eL1GQFb093m66)"><g><path d="M233.925,46.8733h-6.148v.6136h6.148v-.6136Z" fill="#fff"/><path d="M233.925,51.5328h-6.148v.6106h6.148v-.6106Z" fill="#fff"/><path d="M233.925,56.1924h-6.148v.6135h6.148v-.6135Z" fill="#fff"/><path d="M233.925,60.8518h-6.148v.6136h6.148v-.6136Z" fill="#fff"/><path d="M233.925,65.5114h-6.148v.6106h6.148v-.6106Z" fill="#fff"/><path d="M233.925,70.1709h-6.148v.6106h6.148v-.6106Z" fill="#fff"/><path d="M233.932,24.539v50.2351l-4.125-1.7459v-58.0602L217.476,9.76606v-25.43766l12.184-5.1397v-13.6881h1.461v37.3147l5.881,2.47797v17.95043l-3.07,1.2953Z" fill="#fff"/><path d="M222.514,85.7145v-5.1901l13.877-5.857v-12.8078h1.222v13.0212l-13.883,5.854v4.7692l4.117,1.734v22.889h-1.223v-22.6756l-4.11-1.7369Z" fill="#fff"/><path d="M228.999,94.5948l8.818,3.72v9.5032l-7.455,3.144v27.468l-4.946-2.086v-18.772l3.562-1.502.021-21.4752Z" fill="#fff"/></g><mask id="eL1GQFb093m66" mask-type="luminance" x="-150%" y="-150%" height="400%" width="400%"><path d="M217.476,138.43v-81.4908l23.587-9.9474v91.4382h-23.587Z" fill="#fff"/></mask></g><g mask="url(#eL1GQFb093m85)"><g><path d="M233.925,119.955h-6.148v.611h6.148v-.611Z" fill="#fff"/><path d="M233.925,124.615h-6.148v.614h6.148v-.614Z" fill="#fff"/><path d="M233.925,129.274h-6.148v.611h6.148v-.611Z" fill="#fff"/><path d="M233.925,133.934h-6.148v.611h6.148v-.611Z" fill="#fff"/><path d="M233.925,138.594h-6.148v.613h6.148v-.613Z" fill="#fff"/><path d="M233.925,143.253h-6.148v.611h6.148v-.611Z" fill="#fff"/><path d="M233.932,111.597v50.238l-4.125-1.746v-58.063l-12.331-5.1992v-25.4377l12.184-5.1397v-13.6911h1.461v37.3148l5.881,2.4809v17.95l-3.07,1.293Z" fill="#fff"/><path d="M240.679,67.1557l-7.728,3.2831.359.1504l7.728-3.2831-.359-.1504Z" fill="#fff"/><path d="M233.307,67.1662l-.358.1509l7.756,3.2718.357-.1509-7.755-3.2718Z" fill="#fff"/><path d="M240.704,62.297l-7.755,3.2717.362.153l7.756-3.2717-.363-.153Z" fill="#fff"/><path d="M233.286,62.2996l-.362.1535l7.783,3.2603.361-.1535-7.782-3.2603Z" fill="#fff"/><path d="M240.685,57.4216l-7.729,3.2831.359.1504l7.729-3.2831-.359-.1504Z" fill="#fff"/><path d="M233.306,57.4319l-.358.1509l7.756,3.2717.357-.1509-7.755-3.2717Z" fill="#fff"/><path d="M240.705,52.5612l.358.1511-7.757,3.2724-.358-.1512l7.757-3.2723Z" fill="#fff"/><path d="M233.307,52.5625l-.357.1509l7.755,3.2717.358-.1509-7.756-3.2717Z" fill="#fff"/></g><mask id="eL1GQFb093m85" mask-type="luminance" x="-150%" y="-150%" height="400%" width="400%"><path d="M217.476,52.5583v81.4917L241.063,144v-91.4417h-23.587Z" fill="#fff"/></mask></g><g mask="url(#eL1GQFb093m98)"><g><path d="M241.337,138.395h-1.447v2.593h1.447v-2.593Z" fill="#fff"/><path d="M230.292,138.395h-1.447v2.593h1.447v-2.593Z" fill="#fff"/><path d="M219.247,138.395h-1.448v2.593h1.448v-2.593Z" fill="#fff"/><path d="M208.202,138.395h-1.448v2.593h1.448v-2.593Z" fill="#fff"/><path d="M197.163,138.395h-1.454v2.593h1.454v-2.593Z" fill="#fff"/><path d="M186.111,138.395h-1.447v2.593h1.447v-2.593Z" fill="#fff"/><path d="M294.287,140.991h-119.088l4.146-1.739h137.63l12.331-5.202h60.299l12.183,5.139h32.448v.617h-88.454l-5.881,2.481h-42.544l-3.07-1.296Z" fill="#fff"/><path d="M149.265,136.175h12.31l13.877,5.854h30.361v.516h-30.86l-13.883-5.857h-11.299l-4.11,1.737h-54.2567v-.516h53.7507l4.11-1.734Z" fill="#fff"/><path d="M128.222,138.911l-8.825,3.72h-22.5192l-7.4549-3.145h-65.1121l4.9394-2.084h44.5042l3.5623,1.5l50.9053.009Z" fill="#fff"/></g><mask id="eL1GQFb093m98" mask-type="luminance" x="-150%" y="-150%" height="400%" width="400%"><path d="M24.3108,134.05h193.1652L241.063,144h-216.7522v-9.95Z" fill="#fff"/></mask></g><g mask="url(#eL1GQFb093m117)"><g><path d="M68.1053,138.395h-1.4474v2.593h1.4474v-2.593Z" fill="#fff"/><path d="M57.0601,138.395h-1.4544v2.593h1.4544v-2.593Z" fill="#fff"/><path d="M46.0148,138.395h-1.4544v2.593h1.4544v-2.593Z" fill="#fff"/><path d="M34.9696,138.395h-1.4474v2.593h1.4474v-2.593Z" fill="#fff"/><path d="M23.9243,138.395h-1.4474v2.593h1.4474v-2.593Z" fill="#fff"/><path d="M12.8861,138.395h-1.4544v2.593h1.4544v-2.593Z" fill="#fff"/><path d="M87.9123,140.991h-119.0807l4.1385-1.739h137.6369l12.324-5.202h60.299l12.184,5.139h32.447v.617h-88.446l-5.881,2.481h-42.5512l-3.0705-1.296Z" fill="#fff"/><path d="M185.482,140.579l-.358.151l7.755,3.271.358-.15-7.755-3.272Z" fill="#fff"/><path d="M192.879,140.577l-7.755,3.272.358.15l7.755-3.271-.358-.151Z" fill="#fff"/><path d="M197.019,140.579l-.358.15l7.756,3.272.358-.151-7.756-3.271Z" fill="#fff"/><path d="M204.422,140.579l-7.756,3.271.358.151l7.756-3.271-.358-.151Z" fill="#fff"/><path d="M208.562,140.576l-.358.151l7.756,3.272.357-.151-7.755-3.272Z" fill="#fff"/><path d="M215.96,140.574l-7.756,3.272.358.151l7.755-3.272-.357-.151Z" fill="#fff"/><path d="M220.099,140.579l-.357.151l7.755,3.272.358-.151-7.756-3.272Z" fill="#fff"/><path d="M227.502,140.579l-7.755,3.272.357.151l7.756-3.272-.358-.151Z" fill="#fff"/></g><mask id="eL1GQFb093m117" mask-type="luminance" x="-150%" y="-150%" height="400%" width="400%"><path d="M227.861,134.05h-193.1654L11.1085,144h216.7525v-9.95Z" fill="#fff"/></mask></g><g mask="url(#eL1GQFb093m130)"><g><path d="M24.3951,143.505h-6.148v.614h6.148v-.614Z" fill="#fff"/><path d="M24.3951,138.845h-6.148v.611h6.148v-.611Z" fill="#fff"/><path d="M24.3951,134.186h-6.148v.613h6.148v-.613Z" fill="#fff"/><path d="M24.3951,129.526h-6.148v.614h6.148v-.614Z" fill="#fff"/><path d="M24.3951,124.867h-6.148v.611h6.148v-.611Z" fill="#fff"/><path d="M24.3951,120.207h-6.148v.611h6.148v-.611Z" fill="#fff"/><path d="M18.2401,166.453v-50.238l4.1244,1.746v58.063l12.3311,5.202v25.434L22.5121,211.8v13.691h-1.4615v-37.315l-5.881-2.478v-17.953l3.0705-1.292Z" fill="#fff"/><path d="M29.6578,105.274v5.193l-13.8839,5.854v12.808h-1.2155v-13.018l13.8838-5.857v-4.766l-4.1174-1.734v-22.8888h1.2226v22.6748l4.1104,1.734Z" fill="#fff"/><path d="M23.1725,96.397l-8.8249-3.7229v-9.4999l7.4618-3.1448v-27.4711l4.9465,2.0868v18.7744l-3.5693,1.5028-.0141,21.4747Z" fill="#fff"/></g><mask id="eL1GQFb093m130" mask-type="luminance" x="-150%" y="-150%" height="400%" width="400%"><path d="M34.6956,52.5583v81.4917L11.1085,144v-91.4417h23.5871Z" fill="#fff"/></mask></g><path d="M75.6086,92v-16.56h11.328v3.12h-7.872v4.08h7.152v3.12h-7.152v6.24h-3.456Zm13.6797,0v-11.04c.592-1.088,1.728-1.632,3.408-1.632h2.592l1.44,1.08v1.8h-3.144c-.48,0-.808.12-.984.36v9.432h-3.312Zm9.6071-3.888v-4.896c0-2.592,1.2956-3.888,3.8876-3.888h3.36c2.592,0,3.888,1.296,3.888,3.888v4.896c0,2.592-1.296,3.888-3.888,3.888h-3.36c-2.592,0-3.8876-1.296-3.8876-3.888Zm3.3116.24c0,.512.256.768.768.768h2.976c.512,0,.768-.256.768-.768v-5.376c0-.512-.256-.768-.768-.768h-2.976c-.512,0-.768.256-.768.768v5.376ZM113.291,92v-12.672h7.008c2.592,0,3.888,1.296,3.888,3.888v8.784h-3.312v-9.024c0-.512-.256-.768-.768-.768h-3.504v9.792h-3.312Zm14.154-3.888v-12.672h3.312v3.888h4.128v2.88h-4.128v6.144c0,.512.256.768.768.768h3.6v1.8L133.685,92h-2.352c-2.592,0-3.888-1.296-3.888-3.888Zm10.075,0v-4.896c0-2.592,1.296-3.888,3.888-3.888h3.12c2.592,0,3.888,1.296,3.888,3.888v3.672h-7.584v1.464c0,.512.256.768.768.768h6.336v1.8L146.496,92h-5.088c-2.592,0-3.888-1.296-3.888-3.888Zm3.312-3.768h4.272v-1.368c0-.512-.256-.768-.768-.768h-2.736c-.512,0-.768.256-.768.768v1.368ZM151.681,92v-12.672h7.008c2.592,0,3.888,1.296,3.888,3.888v8.784h-3.312v-9.024c0-.512-.256-.768-.768-.768h-3.504v9.792h-3.312Zm14.058-3.888v-4.896c0-2.592,1.296-3.888,3.888-3.888h3.696v-5.088h3.312v17.76h-7.008c-2.592,0-3.888-1.296-3.888-3.888Zm3.312.24c0,.512.256.768.768.768h3.504v-6.912h-3.504c-.512,0-.768.256-.768.768v5.376ZM62.9641,118v-16.56h11.328v3.12h-7.872v4.08h7.152v3.12h-7.152v6.24h-3.456Zm13.6796,0v-11.04c.592-1.088,1.728-1.632,3.408-1.632h2.592l1.44,1.08v1.8h-3.144c-.48,0-.808.12-.984.36v9.432h-3.312Zm12.7808,0c-2.592,0-3.888-1.272-3.888-3.816s1.296-3.816,3.888-3.816h3.312v-1.392c0-.512-.256-.768-.768-.768h-5.088v-1.8l1.44-1.08h3.84c2.592,0,3.888,1.296,3.888,3.888v8.784h-6.624Zm-.576-3.648c0,.512.256.768.768.768h3.12v-2.208h-3.12c-.512,0-.768.256-.768.768v.672ZM99.4038,118v-12.672h14.4482c2.592,0,3.888,1.296,3.888,3.888v8.784h-3.312v-9.024c0-.512-.256-.768-.768-.768h-3.432v9.792h-3.312v-9.792h-4.2v9.792h-3.3122Zm21.5112-3.888v-4.896c0-2.592,1.296-3.888,3.888-3.888h3.12c2.592,0,3.888,1.296,3.888,3.888v3.672h-7.584v1.464c0,.512.256.768.768.768h6.336v1.8l-1.44,1.08h-5.088c-2.592,0-3.888-1.296-3.888-3.888Zm3.312-3.768h4.272v-1.368c0-.512-.256-.768-.768-.768h-2.736c-.512,0-.768.256-.768.768v1.368Zm9.649-4.512l.36-.504h2.784l1.92,9.792h.168l2.304-9.792h3.672l2.328,9.792h.168l1.92-9.792h2.784l.36.504L150.1,118h-4.944l-1.896-8.712L141.364,118h-4.944l-2.544-12.168Zm20.836,8.28v-4.896c0-2.592,1.296-3.888,3.888-3.888h3.36c2.592,0,3.888,1.296,3.888,3.888v4.896c0,2.592-1.296,3.888-3.888,3.888h-3.36c-2.592,0-3.888-1.296-3.888-3.888Zm3.312.24c0,.512.256.768.768.768h2.976c.512,0,.768-.256.768-.768v-5.376c0-.512-.256-.768-.768-.768h-2.976c-.512,0-.768.256-.768.768v5.376ZM169.011,118v-11.04c.592-1.088,1.728-1.632,3.408-1.632h2.592l1.44,1.08v1.8h-3.144c-.48,0-.808.12-.984.36v9.432h-3.312Zm9.799,0v-17.76h3.312v9.864l4.392-4.776h3.264l.264.552-4.392,4.728l4.728,6.84-.264.552h-3.24l-3.408-5.016-1.344,1.464v3.552h-3.312Z" fill="#fff"/></g><clipPath id="eL1GQFb093m133"><rect width="241" height="99" rx="0" ry="0" transform="translate(0 45)" fill="#fff"/></clipPath></g><g transform="translate(.344009 1.90484)" clip-path="url(#eL1GQFb093m195)"><g transform="translate(.000015 0)"><g id="eL1GQFb093m137" opacity="0"><path d="M255.264,90.8962c0,2.5388-2.092,4.6088-4.663,4.6088-2.57,0-4.662-2.07-4.662-4.6088c0-2.5387,2.092-4.6087,4.662-4.6087c2.571,0,4.663,2.0662,4.663,4.6087Zm-8.535,0c0,2.1113,1.736,3.8288,3.872,3.8288c2.137,0,3.873-1.7175,3.873-3.8288c0-2.1112-1.736-3.8287-3.873-3.8287-2.136,0-3.872,1.7175-3.872,3.8287Z" fill="#fff"/></g><path id="eL1GQFb093m139" d="M257.887,90.8962c0,3.9713-3.271,7.2-7.286,7.2v-.7725c3.585,0,6.504-2.8837,6.504-6.4275h.782Z" opacity="0" fill="#fff"/><path id="eL1GQFb093m140" d="M252.016,83.8313l-.154.7575c-.411-.0788-.838-.12-1.264-.12-3.585,0-6.504,2.8837-6.504,6.4275c0,1.2.337,2.3662.973,3.3825.431.6862.984,1.2825,1.639,1.7662l-.467.6188c-.738-.5438-1.351-1.2113-1.838-1.98-.711-1.1363-1.089-2.445-1.089-3.7913c0-3.9712,3.271-7.2,7.286-7.2.475,0,.95.045,1.414.135l.004.0038Z" opacity="0" fill="#fff"/><path id="eL1GQFb093m141" d="M243.608,90.8962c0,3.81,3.139,6.9113,6.993,6.9113s6.994-3.1013,6.994-6.9113-3.136-6.9112-6.994-6.9112c-3.857,0-6.993,3.1012-6.993,6.9112Zm13.789,0c0,3.705-3.05,6.7163-6.796,6.7163-3.745,0-6.795-3.015-6.795-6.7163c0-3.7012,3.05-6.7162,6.795-6.7162c3.746,0,6.796,3.0112,6.796,6.7162Z" opacity="0" fill="#fff"/><path id="eL1GQFb093m142" d="M253.464,95.0663c-.846.5662-1.834.87-2.863.87-2.81,0-5.096-2.2613-5.096-5.0363h.588c0,2.4563,2.024,4.4588,4.508,4.4588.91,0,1.785-.2663,2.534-.7688l.329.48v-.0037Z" opacity="0" fill="#fff"/><path id="eL1GQFb093m143" d="M255.698,90.8962h-.588c0-1.0575-.381-2.0812-1.074-2.8837l.449-.375c.782.9112,1.213,2.0662,1.213,3.2625v-.0038Z" opacity="0" fill="#fff"/><path id="eL1GQFb093m144" d="M249.614,86.5462c-.794.1763-1.523.5625-2.115,1.1138-.217.2025-.411.4275-.583.6712l-.479-.3337c.194-.2738.415-.525.662-.7575.67-.6263,1.493-1.065,2.391-1.26l.127.5662h-.003Z" opacity="0" fill="#fff"/><g id="eL1GQFb093m145" opacity="0"><path d="M254.957,90.8963c0,2.3738-1.953,4.305-4.356,4.305-2.402,0-4.355-1.9312-4.355-4.305c0-2.3737,1.953-4.305,4.355-4.305c2.403,0,4.356,1.9313,4.356,4.305Zm-8.535,0c0,2.2763,1.874,4.1325,4.179,4.1325s4.18-1.8562,4.18-4.1325c0-2.2762-1.875-4.1325-4.18-4.1325s-4.179,1.8525-4.179,4.1325Z" fill="#fff"/></g><path id="eL1GQFb093m147" d="M249.49,89.8012v2.19h2.219v-2.19h-2.219Z" opacity="0" fill="#fff"/><g transform="translate(.655976-.3779)"><g id="eL1GQFb093m149_ts" transform="translate(456.822982,33.5756) scale(0,0)"><g transform="translate(-456.822982,-33.5756)"><path d="M537.399,16.7925h-168.314v27.2362h168.314v-27.2362Z" fill="#fff" stroke="#fff" stroke-dashoffset="74.29" stroke-dasharray="391.1004"/><g opacity="0.35"><path d="M540.98,19.9575h-168.314v27.2363h168.314v-27.2363Z" fill="#fff" stroke-dasharray="391.1006"/></g><g opacity="0.35"><path d="M544.561,23.1224h-168.314v27.2363h168.314v-27.2363Z" fill="#fff" stroke-dasharray="391.1006"/></g><path d="M529.908,21.9263h-146.166v16.9687h146.166v-16.9687Z" opacity="0.2" stroke-dashoffset="326.2694" stroke-dasharray="326.2694"/><path d="M516.317,25.4663c2.13,0,3.192,1.65,3.192,4.95c0,1.6687-.273,2.91-.827,3.72-.55.81-1.339,1.215-2.368,1.215-2.126,0-3.185-1.6463-3.185-4.9388c0-1.665.274-2.91.824-3.7275.55-.8137,1.336-1.2225,2.361-1.2225l.003.0038Zm0,8.9137c.644,0,1.134-.3075,1.464-.9262.329-.615.493-1.6313.493-3.0338c0-.975-.074-1.7437-.217-2.3062-.146-.5588-.366-.9825-.654-1.2525-.292-.2738-.659-.4125-1.1-.4125-.644,0-1.134.315-1.456.945-.326.63-.49,1.6387-.49,3.03c0,.9637.075,1.7287.221,2.2912.145.5663.363.9825.654,1.2563.292.2737.651.4125,1.082.4125l.003-.0038Z" fill="#fff"/><path d="M525.257,35.1901h-1.201v-7.5713c-.603.5663-1.404,1.0388-2.41,1.4325v-1.1475c1.388-.6562,2.327-1.47,2.832-2.4375h.782v9.7238h-.003Z" fill="#fff"/><path d="M419.729,36v-11.04h5.232c1.632,0,2.448.816,2.448,2.448v1.76c0,1.3867-.592,2.176-1.776,2.368l2.096,4.144-.176.32h-1.136l-2.224-4.384h-3.12v4.384h-1.344Zm1.344-5.6h3.904c.725,0,1.088-.3627,1.088-1.088v-2.048c0-.7253-.363-1.088-1.088-1.088h-3.904v4.224Zm8.602,3.2v-3.52c0-1.6.8-2.4,2.4-2.4h2.08c1.6,0,2.4.8,2.4,2.4v2.256h-5.6v1.424c0,.7467.374,1.12,1.12,1.12h4.16v.64l-.64.48h-3.52c-1.6,0-2.4-.8-2.4-2.4Zm1.28-2.304h4.32v-1.376c0-.7467-.373-1.12-1.12-1.12h-2.08c-.746,0-1.12.3733-1.12,1.12v1.376ZM440.959,36c-1.611,0-2.416-.8053-2.416-2.416s.805-2.416,2.416-2.416h2.928v-1.248c0-.7467-.373-1.12-1.12-1.12h-3.424v-.64l.64-.48h2.784c1.6,0,2.4.8,2.4,2.4v5.92h-4.208Zm-1.136-2.24c0,.7467.373,1.12,1.12,1.12h2.944v-2.672h-2.944c-.747,0-1.12.3733-1.12,1.12v.432Zm7.712-.16v-3.52c0-1.6.8-2.4,2.4-2.4h3.136l.64.48v.64h-3.776c-.747,0-1.12.3733-1.12,1.12v3.84c0,.7467.373,1.12,1.12,1.12h3.776v.64l-.64.48h-3.136c-1.6,0-2.4-.8-2.4-2.4Zm8.126,0v-8.64h1.28v2.72h3.04v1.12h-3.04v4.96c0,.7467.374,1.12,1.12,1.12h2.08v.64l-.64.48h-1.44c-1.6,0-2.4-.8-2.4-2.4Zm6.362,2.4v-1.728h1.552v1.728h-1.552Zm2.716,2.24c.939-.032,1.408-.5173,1.408-1.456v-9.104h1.28v8.96c0,1.792-.896,2.688-2.688,2.688v-1.088Zm1.344-12.112v-1.504h1.408v1.504h-1.408Zm3.588,9.392v-.64h3.696c.736,0,1.104-.3733,1.104-1.12c0-.7573-.293-1.184-.88-1.28l-1.904-.32c-1.344-.224-2.016-.9547-2.016-2.192c0-1.5253.8-2.288,2.4-2.288h2.672l.64.48v.64h-3.328c-.747,0-1.12.3733-1.12,1.12c0,.672.315,1.0613.944,1.168l1.904.32c1.323.2133,1.984.976,1.984,2.288c0,1.536-.811,2.304-2.432,2.304h-3.024l-.64-.48Z"/></g></g><g id="eL1GQFb093m159_ts" transform="translate(476.217118,63.9787) scale(0,0)"><g transform="translate(-476.217117,-63.9787)"><path d="M556.62,47.1937h-168.313v27.2363h168.313v-27.2363Z" transform="translate(.172631 0)" fill="#fff"/><g opacity="0.35"><path d="M560.198,50.3624h-168.314v27.2363h168.314v-27.2363Z" transform="translate(.172631 0)" fill="#fff"/></g><g opacity="0.35"><path d="M563.782,53.5275h-168.313v27.2362h168.313v-27.2362Z" transform="translate(.172631 0)" fill="#fff"/></g><path d="M545.545,52.3163h-146.166v16.9687h146.166v-16.9687Z" opacity="0.2"/><path d="M531.958,55.8525c2.129,0,3.192,1.6538,3.192,4.9538c0,1.6687-.273,2.91-.823,3.72-.55.8137-1.34,1.2187-2.369,1.2187-2.121,0-3.188-1.6462-3.188-4.9387c0-1.6688.273-2.91.827-3.7275.55-.8138,1.336-1.2263,2.361-1.2263Zm0,8.9138c.644,0,1.134-.3113,1.463-.9263s.494-1.6312.494-3.0337c0-.975-.075-1.7475-.217-2.31-.146-.5588-.363-.9788-.655-1.2525-.292-.2738-.658-.4125-1.1-.4125-.643,0-1.13.315-1.455.945-.326.63-.491,1.6425-.491,3.03c0,.9637.075,1.725.221,2.2912.146.5663.363.9825.655,1.2563.292.2737.651.4125,1.081.4125h.004Z" fill="#fff"/><path d="M542.671,65.58h-6.488c0-.5437.194-1.0987.58-1.6575.385-.5587,1.107-1.2562,2.162-2.1.644-.51,1.224-1.0462,1.729-1.6087.505-.5588.76-1.125.76-1.695c0-.4875-.172-.8888-.524-1.2113-.348-.3187-.79-.48-1.325-.48s-.991.165-1.358.4913c-.363.3262-.55.8175-.554,1.47l-1.235-.1388c.079-.9075.401-1.5975.981-2.0775.576-.4762,1.309-.72,2.192-.72.962,0,1.71.2663,2.249.7875.539.525.805,1.1625.805,1.905c0,.6225-.228,1.2488-.677,1.8863-.45.6375-1.355,1.485-2.702,2.5537-.707.5588-1.179,1.0388-1.411,1.4438h4.816v1.1475.0037Z" fill="#fff"/><path d="M441.299,66v-11.04h1.488l5.808,8.96v-8.96h1.344v11.04h-1.488l-5.808-8.96v8.96h-1.344Zm11.228-2.4v-3.52c0-1.6.8-2.4,2.4-2.4h2.08c1.6,0,2.4.8,2.4,2.4v2.256h-5.6v1.424c0,.7467.373,1.12,1.12,1.12h4.16v.64l-.64.48h-3.52c-1.6,0-2.4-.8-2.4-2.4Zm1.28-2.304h4.32v-1.376c0-.7467-.373-1.12-1.12-1.12h-2.08c-.747,0-1.12.3733-1.12,1.12v1.376Zm7.236,4.464l2.944-4-2.832-3.84.112-.24h1.184l2.272,3.152l2.272-3.152h1.184l.112.24-2.816,3.84l2.928,4-.112.24h-1.184l-2.384-3.312L462.339,66h-1.184l-.112-.24Zm9.048-2.16v-8.64h1.28v2.72h3.04v1.12h-3.04v4.96c0,.7467.373,1.12,1.12,1.12h2.08v.64l-.64.48h-1.44c-1.6,0-2.4-.8-2.4-2.4Zm6.362,2.4v-1.728h1.552v1.728h-1.552Zm2.716,2.24c.939-.032,1.408-.5173,1.408-1.456v-9.104h1.28v8.96c0,1.792-.896,2.688-2.688,2.688v-1.088Zm1.344-12.112v-1.504h1.408v1.504h-1.408Zm3.588,9.392v-.64h3.696c.736,0,1.104-.3733,1.104-1.12c0-.7573-.294-1.184-.88-1.28l-1.904-.32c-1.344-.224-2.016-.9547-2.016-2.192c0-1.5253.8-2.288,2.4-2.288h2.672l.64.48v.64h-3.328c-.747,0-1.12.3733-1.12,1.12c0,.672.314,1.0613.944,1.168l1.904.32c1.322.2133,1.984.976,1.984,2.288c0,1.536-.811,2.304-2.432,2.304h-3.024l-.64-.48Z"/></g></g><g id="eL1GQFb093m169_ts" transform="translate(495.264496,94.594799) scale(0,0)"><g transform="translate(-495.264496,-94.594799)"><path d="M575.842,77.5988h-168.313v27.2362h168.313v-27.2362Z" transform="translate(0 0.2129)" fill="#fff"/><g transform="translate(0 0.2129)" opacity="0.35"><path d="M579.419,80.7637h-168.313v27.2363h168.313v-27.2363Z" fill="#fff"/></g><g transform="translate(0 0.2129)" opacity="0.35"><path d="M583,83.9287h-168.313v27.2363h168.313v-27.2363Z" fill="#fff"/></g><path d="M565.466,83.505h-146.166v16.969h146.166v-16.969Z" transform="translate(0 0.2129)" opacity="0.2"/><path d="M551.879,87.045c2.126,0,3.192,1.65,3.192,4.9538c0,1.665-.273,2.9062-.827,3.72-.55.81-1.339,1.2187-2.368,1.2187-2.126,0-3.185-1.6462-3.185-4.9387c0-1.6688.274-2.91.824-3.7275.55-.8138,1.335-1.2263,2.361-1.2263h.003Zm0,8.9138c.644,0,1.134-.3075,1.464-.9263.333-.6187.493-1.6312.493-3.0337c0-.9788-.074-1.7475-.217-2.31-.142-.5588-.363-.9825-.654-1.2525-.292-.27-.659-.4125-1.1-.4125-.644,0-1.134.315-1.456.945-.326.63-.49,1.6425-.49,3.03c0,.9637.075,1.7287.221,2.2912.145.5625.362.9825.654,1.2563.288.2737.651.4125,1.082.4125h.003Z" fill="#fff"/><path d="M560.867,91.5376c.603.1162,1.063.4012,1.374.8662.31.465.464.9713.464,1.515c0,.8813-.322,1.605-.973,2.1675-.648.5663-1.422.8475-2.328.8475-.905,0-1.579-.2475-2.136-.7462-.562-.4988-.891-1.155-.984-1.9725l1.201-.165c.119.6375.34,1.1137.658,1.4325.318.315.737.4762,1.261.4762.562,0,1.033-.195,1.426-.585.389-.39.584-.8625.584-1.4287s-.176-.99-.532-1.3463c-.355-.3562-.815-.5362-1.384-.5362-.232,0-.513.045-.85.1275l.139-1.0425c.322,0,.576-.015.763-.0488.187-.03.397-.105.629-.225s.426-.2925.576-.51c.15-.2212.228-.4987.228-.8287c0-.48-.161-.8513-.482-1.1175-.326-.2625-.696-.3975-1.119-.3975-.487,0-.883.1537-1.186.4575s-.498.735-.577,1.3012l-1.201-.2175c.157-.84.502-1.47,1.033-1.8862.528-.42,1.167-.6263,1.905-.6263.815,0,1.496.2438,2.039.7313.546.4837.819,1.0837.819,1.785c0,.9-.449,1.5525-1.343,1.95v.0262l-.004-.0037Z" fill="#fff"/><path d="M469.499,94.552v-1.712h1.344v1.856c0,.7253.363,1.088,1.088,1.088h2.496c.725,0,1.088-.3627,1.088-1.088v-7.52h-3.616v-1.216h4.96v8.592c0,1.632-.816,2.448-2.448,2.448h-2.464c-1.632,0-2.448-.816-2.448-2.448Zm9.848.048v-3.52c0-1.6.8-2.4,2.4-2.4h2.08c1.6,0,2.4.8,2.4,2.4v2.256h-5.6v1.424c0,.7467.374,1.12,1.12,1.12h4.16v.64l-.64.48h-3.52c-1.6,0-2.4-.8-2.4-2.4Zm1.28-2.304h4.32v-1.376c0-.7467-.373-1.12-1.12-1.12h-2.08c-.746,0-1.12.3733-1.12,1.12v1.376ZM488.663,97v-11.84h1.28v7.76l3.856-4.24h1.248l.112.24-2.976,3.248l3.2,4.592-.112.24h-1.248l-2.688-3.904-1.392,1.504v2.4h-1.28Zm7.493-8.096l.144-.224h1.104l2.432,7.2h.32l2.432-7.2h1.104l.144.224-3.904,11.296h-1.104l-.144-.224L499.756,97h-.8l-2.8-8.096Zm9.208,5.824v-9.568h1.28v9.696c0,.736.374,1.1253,1.12,1.168v1.104c-1.6,0-2.4-.8-2.4-2.4Zm4.157,0v-9.568h1.28v9.696c0,.736.373,1.1253,1.12,1.168v1.104c-1.6,0-2.4-.8-2.4-2.4Z"/></g></g><g><path d="M377.909,12.615h-1.007l-1.231-2.98503h-4.423L370.054,12.615h-.965l3.85-9.36378h.947l4.026,9.36378h-.003Zm-2.545-3.72753L373.4,4.17372l-1.875,4.71375h3.839Z" fill="#fff"/><path d="M386.9,9.66752c-.632,2.06998-1.934,3.10128-3.929,3.10128-.67,0-1.272-.0975-1.785-.315-.524-.2025-.965-.5175-1.332-.9263-.366-.42-.662-.9487-.879-1.57873-.217-.63375-.326-1.30875-.326-2.01c0-1.425.393-2.58375,1.187-3.5025.789-.89625,1.844-1.35375,3.169-1.35375.887,0,1.657.225,2.29.66375.64.43875,1.134,1.1325,1.478,2.0775l-.857.23625c-.524-1.4925-1.482-2.2425-2.851-2.2425-1.067,0-1.916.39-2.537,1.17-.629.78-.947,1.77375-.947,2.96625c0,1.34625.318,2.37003.947,3.06373.632.6825,1.433,1.035,2.398,1.035c1.591,0,2.634-.8662,3.158-2.59498l.82.21375-.004-.00375Z" fill="#fff"/><path d="M394.488,4.06872h-2.903v8.54628h-.909v-8.54628h-2.904v-.8175h6.713v.8175h.003Z" fill="#fff"/><path d="M397.153,12.615h-.887v-9.36378h.887v9.36378Z" fill="#fff"/><path d="M406.559,3.25122L403.027,12.615h-.928l-3.476-9.36378h.965l2.983,8.40748l3.098-8.40748h.887.003Z" fill="#fff"/><path d="M414.058,12.615h-6.256v-9.36378h6.061v.78h-5.16v3.375h4.775v.76125h-4.775v3.66753h5.359v.78h-.004Z" fill="#fff"/><path d="M434.851,12.615h-.868v-4.54503h-5.508v4.54503h-.887v-9.36378h.887v4.03875h5.508v-4.03875h.868v9.36378Z" fill="#fff"/><path d="M420.475,8.65497v3.96003h-.898v-9.36378h3.285c.966,0,1.718.225,2.249.69.543.46875.808,1.1325.808,1.98c0,.39-.071.7425-.198,1.0725-.138.34125-.337.63375-.572.885-.259.255-.573.43875-.966.5775-.404.1275-.838.195-1.321.195h-2.387v.00375Zm0-4.605v3.82125h2.14c1.58,0,2.369-.63375,2.369-1.9125s-.789-1.9125-2.369-1.9125h-2.14v.00375Z" fill="#fff"/><path d="M444.849,12.615h-1.006l-1.235-2.98503h-4.419L436.995,12.615h-.965l3.846-9.36378h.947l4.026,9.36378Zm-2.544-3.72753L440.34,4.17372l-1.874,4.71375h3.839Z" fill="#fff"/><path d="M445.463,9.79497l.898-.075c.067.76873.325,1.34623.782,1.73623.453.39,1.044.5963,1.774.5963.542,0,.995-.0863,1.373-.2438.374-.165.67-.4012.868-.72.209-.3112.314-.6525.314-1.005c0-.94498-.827-1.55998-2.488-1.86373-1.123-.2025-1.923-.50625-2.406-.92625-.483-.40875-.73-.975-.73-1.69875c0-.78.288-1.3875.85-1.83375.572-.45,1.291-.67125,2.17-.67125.977,0,1.736.21375,2.279.6525.542.4275.849,1.09125.898,1.98l-.88.0375c-.108-1.2975-.849-1.9425-2.23-1.9425-.643,0-1.167.15375-1.59.45-.415.31125-.632.72-.632,1.24875c0,.88875.759,1.48125,2.267,1.785c1.126.225,1.953.53625,2.507.945s.831.9975.831,1.77748c0,.4088-.071.78-.217,1.11-.15.33-.378.6225-.681.8775-.307.2438-.663.4388-1.078.5663-.404.135-.868.195-1.362.195-2.163,0-3.334-.9863-3.521-2.97753h.004Z" fill="#fff"/><path d="M460.404,12.615h-6.256v-9.36378h6.058v.78h-5.16v3.375h4.778v.76125h-4.778v3.66753h5.358v.78Z" fill="#fff"/></g></g><path id="eL1GQFb093m191" d="M388.124,91.8187l-31.532-60.78L250.83,91.605l-.457-.7763L356.966,29.7825l.217.42l31.753,61.2037-.812.4125Z" fill="none" stroke="#fff" stroke-dashoffset="384.42" stroke-dasharray="384.42"/><path d="M358.118,29.085h-2.683v2.6512h2.683v-2.6512Z" fill="#fff"/><path d="M373.736,59.49h-2.682v2.6512h2.682v-2.6512Z" fill="#fff"/><path d="M390.238,89.8912h-2.683v2.6513h2.683v-2.6513Z" fill="#fff"/></g><clipPath id="eL1GQFb093m195"><rect width="342" height="111" rx="0" ry="0" transform="translate(241 0)" fill="#fff"/></clipPath></g><g clip-path="url(#eL1GQFb093m328)"><g><g mask="url(#eL1GQFb093m216)"><g><path d="M329.395,334.426h-6.148v.61h6.148v-.61Z" fill="#fff"/><path d="M329.395,329.766h-6.148v.611h6.148v-.611Z" fill="#fff"/><path d="M329.395,325.107h-6.148v.61h6.148v-.61Z" fill="#fff"/><path d="M329.395,320.447h-6.148v.611h6.148v-.611Z" fill="#fff"/><path d="M329.395,315.788h-6.148v.61h6.148v-.61Z" fill="#fff"/><path d="M329.395,311.128h-6.148v.614h6.148v-.614Z" fill="#fff"/><path d="M323.24,343.395v-50.238l4.125,1.746v58.06l12.331,5.205v25.435l-12.184,5.139v13.688h-1.461v-37.311l-5.881-2.481v-17.951l3.07-1.292Z" fill="#fff"/><path d="M323.871,384.411l-7.782,3.26.356.152l7.783-3.26-.357-.152Z" fill="#fff"/><path d="M316.458,384.407l-.357.151l7.783,3.261.356-.152-7.782-3.26Z" fill="#fff"/><path d="M323.865,389.269l-7.756,3.271.358.151l7.755-3.272-.357-.15Z" fill="#fff"/><path d="M316.467,389.271l-.358.151l7.756,3.271.357-.151-7.755-3.271Z" fill="#fff"/><path d="M316.467,397.563l-.359-.154l7.757-3.272.359.154-7.757,3.272Z" fill="#fff"/><path d="M324.224,397.409l-.359.154-7.757-3.272.359-.154l7.757,3.272Z" fill="#fff"/><path d="M323.864,399.005l-7.756,3.272.358.151l7.755-3.272-.357-.151Z" fill="#fff"/><path d="M316.466,399.007l-.358.151l7.756,3.272.357-.151-7.755-3.272Z" fill="#fff"/></g><mask id="eL1GQFb093m216" mask-type="luminance" x="-150%" y="-150%" height="400%" width="400%"><path d="M339.696,402.43v-81.491l-23.588-9.947v91.438h23.588Z" fill="#fff"/></mask></g><g mask="url(#eL1GQFb093m229)"><g><path d="M317.275,314.003h-1.448v2.594h1.448v-2.594Z" fill="#fff"/><path d="M328.32,314.003h-1.447v2.594h1.447v-2.594Z" fill="#fff"/><path d="M339.372,314.003h-1.454v2.594h1.454v-2.594Z" fill="#fff"/><path d="M350.418,314.003h-1.455v2.594h1.455v-2.594Z" fill="#fff"/><path d="M361.456,314.003h-1.448v2.594h1.448v-2.594Z" fill="#fff"/><path d="M372.501,314.003h-1.447v2.594h1.447v-2.594Z" fill="#fff"/><path d="M262.885,313.997h119.08l-4.138,1.743h-137.63l-12.331,5.199h-60.299l-12.184-5.136h-32.447v-.62h88.453l5.874-2.478h42.551l3.071,1.292Z" fill="#fff"/><path d="M407.906,318.817h-12.31l-13.876-5.854h-30.361v-.516h30.859l13.877,5.854h11.305l4.111-1.734h54.256v.516h-53.75l-4.111,1.734Z" fill="#fff"/><path d="M428.95,316.081l8.818-3.723h22.519l7.462,3.148h65.112l-4.94,2.084h-44.504l-3.562-1.503-50.905-.006Z" fill="#fff"/></g><mask id="eL1GQFb093m229" mask-type="luminance" x="-150%" y="-150%" height="400%" width="400%"><path d="M532.861,320.939h-193.165l-23.588-9.947h216.753v9.947Z" fill="#fff"/></mask></g><g mask="url(#eL1GQFb093m248)"><g><path d="M490.514,314.003h-1.448v2.594h1.448v-2.594Z" fill="#fff"/><path d="M501.566,314.003h-1.454v2.594h1.454v-2.594Z" fill="#fff"/><path d="M512.604,314.003h-1.447v2.594h1.447v-2.594Z" fill="#fff"/><path d="M523.65,314.003h-1.448v2.594h1.448v-2.594Z" fill="#fff"/><path d="M534.702,314.003h-1.455v2.594h1.455v-2.594Z" fill="#fff"/><path d="M545.74,314.003h-1.447v2.594h1.447v-2.594Z" fill="#fff"/><path d="M469.252,313.997h119.088l-4.138,1.743h-137.637l-12.324,5.199h-60.3l-12.183-5.136h-32.447v-.62h88.446l5.881-2.478h42.551l3.063,1.292Z" fill="#fff"/><path d="M363.929,311.143l.365-.151l7.75,3.272-.358.151-7.757-3.272Z" fill="#fff"/><path d="M364.294,314.415l-.365-.151l7.757-3.272.358.151-7.75,3.272Z" fill="#fff"/><path d="M352.768,310.989l-.359.151l7.728,3.283.359-.151-7.728-3.283Z" fill="#fff"/><path d="M360.13,310.983l-7.728,3.283.359.151l7.728-3.284-.359-.15Z" fill="#fff"/><path d="M341.209,310.991l-.357.151l7.755,3.272.358-.151-7.756-3.272Z" fill="#fff"/><path d="M348.607,310.989l-7.755,3.272.357.151l7.756-3.272-.358-.151Z" fill="#fff"/><path d="M329.311,311.143l.358-.151l7.757,3.272-.358.151-7.757-3.272Z" fill="#fff"/><path d="M329.669,314.415l-.358-.151l7.757-3.272.358.151-7.757,3.272Z" fill="#fff"/></g><mask id="eL1GQFb093m248" mask-type="luminance" x="-150%" y="-150%" height="400%" width="400%"><path d="M329.311,320.939h193.165l23.587-9.947h-216.752v9.947Z" fill="#fff"/></mask></g><g mask="url(#eL1GQFb093m261)"><g><path d="M538.925,310.873h-6.148v.614h6.148v-.614Z" fill="#fff"/><path d="M538.925,315.533h-6.148v.61h6.148v-.61Z" fill="#fff"/><path d="M538.925,320.192h-6.148v.614h6.148v-.614Z" fill="#fff"/><path d="M538.925,324.852h-6.148v.613h6.148v-.613Z" fill="#fff"/><path d="M538.925,329.511h-6.148v.611h6.148v-.611Z" fill="#fff"/><path d="M538.925,334.171h-6.148v.61h6.148v-.61Z" fill="#fff"/><path d="M538.932,288.539v50.235l-4.125-1.746v-58.06l-12.331-5.202v-25.438l12.184-5.139v-13.688h1.461v37.314l5.881,2.478v17.951l-3.07,1.295Z" fill="#fff"/><path d="M527.514,349.714v-5.19l13.877-5.857v-12.807h1.222v13.021l-13.883,5.854v4.769l4.117,1.734v22.889h-1.223v-22.676l-4.11-1.737Z" fill="#fff"/><path d="M533.999,358.595l8.818,3.72v9.503l-7.455,3.144v27.468l-4.946-2.086v-18.772l3.562-1.502.021-21.475Z" fill="#fff"/></g><mask id="eL1GQFb093m261" mask-type="luminance" x="-150%" y="-150%" height="400%" width="400%"><path d="M522.476,402.43v-81.491l23.587-9.947v91.438h-23.587Z" fill="#fff"/></mask></g><g mask="url(#eL1GQFb093m280)"><g><path d="M538.925,383.955h-6.148v.611h6.148v-.611Z" fill="#fff"/><path d="M538.925,388.615h-6.148v.614h6.148v-.614Z" fill="#fff"/><path d="M538.925,393.274h-6.148v.611h6.148v-.611Z" fill="#fff"/><path d="M538.925,397.934h-6.148v.611h6.148v-.611Z" fill="#fff"/><path d="M538.925,402.594h-6.148v.613h6.148v-.613Z" fill="#fff"/><path d="M538.925,407.253h-6.148v.611h6.148v-.611Z" fill="#fff"/><path d="M538.932,375.597v50.238l-4.125-1.746v-58.063l-12.331-5.199v-25.438l12.184-5.14v-13.691h1.461v37.315l5.881,2.481v17.95l-3.07,1.293Z" fill="#fff"/><path d="M545.679,331.156l-7.728,3.283.359.15l7.728-3.283-.359-.15Z" fill="#fff"/><path d="M538.307,331.166l-.358.151l7.756,3.272.357-.151-7.755-3.272Z" fill="#fff"/><path d="M545.704,326.297l-7.755,3.272.362.153l7.756-3.272-.363-.153Z" fill="#fff"/><path d="M538.286,326.3l-.362.153l7.783,3.26.361-.153-7.782-3.26Z" fill="#fff"/><path d="M545.685,321.422l-7.729,3.283.359.15l7.729-3.283-.359-.15Z" fill="#fff"/><path d="M538.306,321.432l-.358.151l7.756,3.271.357-.15-7.755-3.272Z" fill="#fff"/><path d="M545.705,316.561l.358.151-7.757,3.273-.358-.152l7.757-3.272Z" fill="#fff"/><path d="M538.307,316.562l-.357.151l7.755,3.272.358-.151-7.756-3.272Z" fill="#fff"/></g><mask id="eL1GQFb093m280" mask-type="luminance" x="-150%" y="-150%" height="400%" width="400%"><path d="M522.476,316.558v81.492L546.063,408v-91.442h-23.587Z" fill="#fff"/></mask></g><g mask="url(#eL1GQFb093m293)"><g><path d="M546.337,402.395h-1.447v2.593h1.447v-2.593Z" fill="#fff"/><path d="M535.292,402.395h-1.447v2.593h1.447v-2.593Z" fill="#fff"/><path d="M524.247,402.395h-1.448v2.593h1.448v-2.593Z" fill="#fff"/><path d="M513.202,402.395h-1.448v2.593h1.448v-2.593Z" fill="#fff"/><path d="M502.163,402.395h-1.454v2.593h1.454v-2.593Z" fill="#fff"/><path d="M491.111,402.395h-1.447v2.593h1.447v-2.593Z" fill="#fff"/><path d="M599.287,404.991h-119.088l4.146-1.739h137.63l12.331-5.202h60.299l12.183,5.139h32.448v.617h-88.454l-5.881,2.481h-42.544l-3.07-1.296Z" fill="#fff"/><path d="M454.265,400.175h12.31l13.877,5.854h30.361v.516h-30.86l-13.884-5.857h-11.298l-4.11,1.737h-54.257v-.516h53.751l4.11-1.734Z" fill="#fff"/><path d="M433.222,402.911l-8.825,3.72h-22.519l-7.455-3.145h-65.112l4.939-2.084h44.504l3.563,1.5l50.905.009Z" fill="#fff"/></g><mask id="eL1GQFb093m293" mask-type="luminance" x="-150%" y="-150%" height="400%" width="400%"><path d="M329.311,398.05h193.165L546.063,408h-216.752v-9.95Z" fill="#fff"/></mask></g><g mask="url(#eL1GQFb093m312)"><g><path d="M373.105,402.395h-1.447v2.593h1.447v-2.593Z" fill="#fff"/><path d="M362.06,402.395h-1.454v2.593h1.454v-2.593Z" fill="#fff"/><path d="M351.015,402.395h-1.455v2.593h1.455v-2.593Z" fill="#fff"/><path d="M339.97,402.395h-1.448v2.593h1.448v-2.593Z" fill="#fff"/><path d="M328.924,402.395h-1.447v2.593h1.447v-2.593Z" fill="#fff"/><path d="M317.886,402.395h-1.454v2.593h1.454v-2.593Z" fill="#fff"/><path d="M392.912,404.991h-119.08l4.138-1.739h137.637l12.324-5.202h60.299l12.184,5.139h32.447v.617h-88.446l-5.881,2.481h-42.551l-3.071-1.296Z" fill="#fff"/><path d="M490.482,404.579l-.358.151l7.755,3.271.358-.15-7.755-3.272Z" fill="#fff"/><path d="M497.879,404.577l-7.755,3.272.358.15l7.755-3.271-.358-.151Z" fill="#fff"/><path d="M502.019,404.579l-.358.15l7.756,3.272.358-.151-7.756-3.271Z" fill="#fff"/><path d="M509.422,404.579l-7.756,3.271.358.151l7.756-3.271-.358-.151Z" fill="#fff"/><path d="M513.562,404.576l-.358.151l7.756,3.272.357-.151-7.755-3.272Z" fill="#fff"/><path d="M520.96,404.574l-7.756,3.272.358.151l7.755-3.272-.357-.151Z" fill="#fff"/><path d="M525.099,404.579l-.357.151l7.755,3.272.358-.151-7.756-3.272Z" fill="#fff"/><path d="M532.502,404.579l-7.755,3.272.357.151l7.756-3.272-.358-.151Z" fill="#fff"/></g><mask id="eL1GQFb093m312" mask-type="luminance" x="-150%" y="-150%" height="400%" width="400%"><path d="M532.861,398.05h-193.165L316.108,408h216.753v-9.95Z" fill="#fff"/></mask></g><g mask="url(#eL1GQFb093m325)"><g><path d="M329.395,407.505h-6.148v.614h6.148v-.614Z" fill="#fff"/><path d="M329.395,402.845h-6.148v.611h6.148v-.611Z" fill="#fff"/><path d="M329.395,398.186h-6.148v.613h6.148v-.613Z" fill="#fff"/><path d="M329.395,393.526h-6.148v.614h6.148v-.614Z" fill="#fff"/><path d="M329.395,388.867h-6.148v.611h6.148v-.611Z" fill="#fff"/><path d="M329.395,384.207h-6.148v.611h6.148v-.611Z" fill="#fff"/><path d="M323.24,430.453v-50.238l4.125,1.746v58.063l12.331,5.202v25.434l-12.184,5.14v13.691h-1.461v-37.315l-5.881-2.478v-17.953l3.07-1.292Z" fill="#fff"/><path d="M334.658,369.274v5.193l-13.884,5.854v12.808h-1.216v-13.018l13.884-5.857v-4.766l-4.117-1.734v-22.889h1.222v22.675l4.111,1.734Z" fill="#fff"/><path d="M328.173,360.397l-8.825-3.723v-9.5l7.461-3.145v-27.471l4.947,2.087v18.774l-3.569,1.503-.014,21.475Z" fill="#fff"/></g><mask id="eL1GQFb093m325" mask-type="luminance" x="-150%" y="-150%" height="400%" width="400%"><path d="M339.696,316.558v81.492L316.108,408v-91.442h23.588Z" fill="#fff"/></mask></g><path d="M371.311,367.752v-1.872h7.44c.48,0,.72-.24.72-.72v-1.728c0-.464-.2-.728-.6-.792l-4.68-.96c-1.92-.384-2.88-1.672-2.88-3.864v-1.344c0-2.688,1.344-4.032,4.032-4.032h5.496l1.608,1.248v1.872h-6.96c-.48,0-.72.24-.72.72v1.56c0,.448.2.712.6.792l4.68.936c1.92.384,2.88,1.672,2.88,3.864v1.536c0,2.688-1.344,4.032-4.032,4.032h-5.976l-1.608-1.248Zm14.397-2.64v-4.896c0-2.592,1.296-3.888,3.888-3.888h3.12c2.592,0,3.888,1.296,3.888,3.888v3.672h-7.584v1.464c0,.512.256.768.768.768h6.336v1.8l-1.44,1.08h-5.088c-2.592,0-3.888-1.296-3.888-3.888Zm3.312-3.768h4.272v-1.368c0-.512-.256-.768-.768-.768h-2.736c-.512,0-.768.256-.768.768v1.368ZM399.773,369v-11.04c.592-1.088,1.728-1.632,3.408-1.632h2.592l1.44,1.08v1.8h-3.144c-.48,0-.808.12-.984.36v9.432h-3.312Zm8.503-12.168l.336-.504h2.856l2.928,9.792h.24l2.928-9.792h2.856l.336.504L416.94,369h-4.848l-3.816-12.168Zm14.44,8.28v-4.896c0-2.592,1.296-3.888,3.888-3.888h3.12c2.592,0,3.888,1.296,3.888,3.888v3.672h-7.584v1.464c0,.512.256.768.768.768h6.336v1.8l-1.44,1.08h-5.088c-2.592,0-3.888-1.296-3.888-3.888Zm3.312-3.768h4.272v-1.368c0-.512-.256-.768-.768-.768h-2.736c-.512,0-.768.256-.768.768v1.368ZM436.78,369v-11.04c.592-1.088,1.728-1.632,3.408-1.632h2.592l1.44,1.08v1.8h-3.144c-.48,0-.808.12-.984.36v9.432h-3.312Zm9.368-1.08v-1.8h5.52c.544,0,.816-.304.816-.912c0-.624-.224-.976-.672-1.056l-2.592-.432c-2.048-.352-3.072-1.536-3.072-3.552c0-2.56,1.296-3.84,3.888-3.84h3.72l1.44,1.08v1.8h-4.968c-.544,0-.816.304-.816.912c0,.64.248,1,.744,1.08l2.568.432c2.032.336,3.048,1.504,3.048,3.504c0,2.576-1.304,3.864-3.912,3.864h-4.272l-1.44-1.08Zm12.547-13.68v-3.24h3.456v3.24h-3.456Zm.072,14.76v-12.672h3.312v12.672h-3.312Zm6.582-3.888v-4.896c0-2.592,1.296-3.888,3.888-3.888h3.696v-5.088h3.312v17.76h-7.008c-2.592,0-3.888-1.296-3.888-3.888Zm3.312.24c0,.512.256.768.768.768h3.504v-6.912h-3.504c-.512,0-.768.256-.768.768v5.376Zm10.844-.24v-4.896c0-2.592,1.296-3.888,3.888-3.888h3.12c2.592,0,3.888,1.296,3.888,3.888v3.672h-7.584v1.464c0,.512.256.768.768.768h6.336v1.8l-1.44,1.08h-5.088c-2.592,0-3.888-1.296-3.888-3.888Zm3.312-3.768h4.272v-1.368c0-.512-.256-.768-.768-.768h-2.736c-.512,0-.768.256-.768.768v1.368Z" fill="#fff"/></g><clipPath id="eL1GQFb093m328"><rect width="241" height="99" rx="0" ry="0" transform="translate(305 309)" fill="#fff"/></clipPath></g><g transform="translate(.0568 0)" clip-path="url(#eL1GQFb093m375)"><g><g id="eL1GQFb093m332_ts" transform="translate(280.100006,351.447998) scale(0.5,0.5)"><path d="M286.63,344.994h-13.06v12.908h13.06v-12.908Z" transform="translate(-280.100006,-351.447998)" opacity="0.15" fill="#fff"/></g><g id="eL1GQFb093m333_ts" transform="translate(280.102005,352.00221) scale(0.5,0.5)"><path d="M283.307,348.279h-6.41v6.334c0,0,5.050234,1.359766,6.41,0c1.343644-1.343644,0-6.334,0-6.334Z" transform="translate(-280.102005,-351.445999)" opacity="0.35" fill="#fff"/></g><g opacity="0.35"><g id="eL1GQFb093m335_ts" transform="translate(280.100006,351.448502) scale(0.5,0.5)"><path d="M280.1,369c-9.791,0-17.755-7.875-17.755-17.552c0-9.676,7.964-17.551,17.755-17.551s17.755,7.875,17.755,17.551c0,9.677-7.964,17.552-17.755,17.552Zm0-31.503c-7.782,0-14.114,6.259-14.114,13.951c0,7.693,6.332,13.952,14.114,13.952c7.783,0,14.114-6.259,14.114-13.952c0-7.692-6.331-13.951-14.114-13.951Z" transform="translate(-280.100006,-351.448502)" fill="#fff"/></g></g><g id="eL1GQFb093m336_tr" transform="translate(280.102494,350.346497) rotate(90)"><g id="eL1GQFb093m336_ts" transform="scale(0.5,0.5)"><g transform="translate(-280.102493,-350.346496)"><path d="M263.217,351.366h-2.045c0-3.033.752-6.048,2.173-8.712.947-1.773,2.166-3.376,3.633-4.768.98-.932,2.058-1.761,3.216-2.465l1.074,1.723c-1.033.626-1.996,1.367-2.868,2.196-1.306,1.243-2.397,2.676-3.24,4.254-1.269,2.378-1.939,5.067-1.939,7.772h-.004Z" fill="#fff"/><path d="M270.347,367.405c-2.431-1.446-4.534-3.446-6.088-5.791l1.711-1.106c1.384,2.092,3.265,3.877,5.43,5.166l-1.053,1.735v-.004Z" fill="#fff"/><path d="M288.701,368.039l-.93-1.802c2.137-1.077,4.058-2.635,5.555-4.495c2.392-2.974,3.657-6.565,3.657-10.376c0-3.314-.979-6.517-2.835-9.259l1.703-1.127c2.079,3.078,3.182,6.67,3.182,10.386c0,4.275-1.418,8.297-4.104,11.636-1.678,2.083-3.831,3.827-6.224,5.037h-.004Z" fill="#fff"/><path d="M288.226,336.734c-2.472-1.346-5.282-2.054-8.126-2.054v-2.026c3.187,0,6.336.799,9.109,2.307l-.983,1.773Z" fill="#fff"/><path d="M280.1,365.649c-7.918,0-14.362-6.371-14.362-14.201c0-7.829,6.444-14.2,14.362-14.2c7.919,0,14.362,6.371,14.362,14.2c0,7.83-6.443,14.201-14.362,14.201Zm0-27.834c-7.604,0-13.791,6.115-13.791,13.633c0,7.519,6.187,13.633,13.791,13.633c7.605,0,13.792-6.114,13.792-13.633c0-7.518-6.187-13.633-13.792-13.633Z" fill="url(#eL1GQFb093m341-fill)"/></g></g></g><path d="M150.414,223.562h-.905l-1.112-2.689h-3.98l-1.074,2.689h-.872l3.467-8.43h.851l3.625,8.43Zm-2.29-3.356l-1.769-4.242-1.69,4.242h3.455.004Z" fill="#fff"/><path d="M158.506,220.91c-.57,1.865-1.74,2.797-3.538,2.797-.603,0-1.144-.087-1.607-.282-.471-.186-.872-.464-1.203-.833-.326-.377-.595-.849-.789-1.425-.195-.571-.294-1.176-.294-1.81c0-1.28.356-2.328,1.066-3.152.711-.808,1.662-1.222,2.852-1.222.798,0,1.492.203,2.058.596.579.398,1.021,1.019,1.335,1.872l-.773.212c-.471-1.342-1.334-2.018-2.57-2.018-.959,0-1.724.348-2.282,1.053-.57.704-.851,1.599-.851,2.671c0,1.214.285,2.134.851,2.755.567.613,1.286.932,2.158.932c1.43,0,2.372-.783,2.843-2.336l.74.19h.004Z" fill="#fff"/><path d="M165.338,215.873h-2.612v7.693h-.818v-7.693h-2.612v-.737h6.042v.737Z" fill="#fff"/><path d="M167.739,223.562h-.802v-8.426h.802v8.43-.004Z" fill="#fff"/><path d="M176.207,215.136l-3.182,8.43h-.835l-3.128-8.43h.872l2.682,7.568l2.79-7.568h.801Z" fill="#fff"/><path d="M182.956,223.562h-5.633v-8.426h5.456v.7h-4.646v3.041h4.299v.687h-4.299v3.302h4.823v.704-.008Z" fill="#fff"/><path d="M188.73,219.999v3.567h-.806v-8.43h2.959c.872,0,1.546.203,2.025.621.488.423.728,1.019.728,1.782c0,.352-.062.666-.178.965-.124.306-.302.571-.517.799-.231.228-.516.398-.872.518-.363.112-.752.174-1.19.174h-2.149v.004Zm0-4.142v3.442h1.926c1.422,0,2.133-.572,2.133-1.723c0-1.152-.711-1.723-2.133-1.723h-1.926v.004Z" fill="#fff"/><path d="M201.678,223.562h-.781v-4.093h-4.959v4.093h-.798v-8.426h.798v3.633h4.959v-3.633h.781v8.43-.004Z" fill="#fff"/><path d="M210.676,223.562h-.909l-1.112-2.689h-3.98l-1.075,2.689h-.872l3.464-8.43h.851l3.625,8.43h.008Zm-2.294-3.356l-1.769-4.242-1.686,4.242h3.455Z" fill="#fff"/><path d="M211.225,221.026l.81-.07c.062.692.294,1.21.703,1.562s.942.534,1.6.534c.487,0,.896-.079,1.235-.219.339-.15.604-.361.781-.651.186-.282.286-.588.286-.903c0-.853-.749-1.404-2.24-1.678-1.013-.186-1.732-.455-2.17-.836-.434-.369-.657-.879-.657-1.529c0-.704.256-1.247.76-1.653.517-.402,1.166-.605,1.955-.605.88,0,1.562.191,2.054.589.488.385.76.986.806,1.781l-.789.037c-.1-1.168-.765-1.748-2.009-1.748-.579,0-1.046.141-1.43.402-.372.282-.566.65-.566,1.122c0,.8.686,1.334,2.041,1.608c1.013.203,1.761.48,2.257.849s.744.895.744,1.599c0,.369-.062.704-.194,1.002-.133.299-.335.564-.612.792-.273.219-.595.397-.967.509-.364.124-.781.178-1.228.178-1.946,0-3.004-.886-3.17-2.68v.008Z" fill="#fff"/><path d="M224.678,223.562h-5.633v-8.426h5.455v.7h-4.645v3.041h4.302v.687h-4.302v3.302h4.823v.704-.008Z" fill="#fff"/><path id="eL1GQFb093m353" d="M279.856,351.067l-55.525-54.884v-20.194h.694v19.913l55.319,54.685-.488.48Z" fill="none" stroke="#fff" stroke-dashoffset="197.343637" stroke-dasharray="197.343637"/><g id="eL1GQFb093m354_ts" transform="translate(137.18655,260.769501) scale(0,0)"><g transform="translate(-137.18655,-260.7695)"><path d="M225.021,250.745h-.69v20.049h.69v-20.049Z" fill="#fff"/><path d="M222.05,250.745h-172.6979v20.049h172.6979v-20.049Z" opacity="0.2" fill="#fff"/><path d="M223.703,250.745h-1.653v20.049h1.653v-20.049Z" fill="#fff"/><path d="M205.997,254.928c2.513,0,3.774,1.951,3.774,5.854c0,1.967-.327,3.434-.976,4.395s-1.583,1.441-2.798,1.441c-2.508,0-3.765-1.947-3.765-5.836c0-1.972.323-3.443.976-4.404.648-.965,1.578-1.45,2.789-1.45Zm0,10.535c.761,0,1.339-.369,1.728-1.094.393-.729.583-1.926.583-3.583c0-1.156-.087-2.063-.257-2.726-.169-.663-.429-1.16-.777-1.483-.343-.323-.777-.489-1.297-.489-.761,0-1.339.369-1.72,1.115-.384.745-.574,1.938-.574,3.583c0,1.139.087,2.038.26,2.705.174.667.43,1.16.773,1.487.343.323.769.489,1.277.489l.004-.004Z" fill="#fff"/><path d="M218.656,266.42h-7.662c0-.642.231-1.301.682-1.96.455-.658,1.306-1.487,2.554-2.481.761-.605,1.447-1.239,2.046-1.901.599-.663.901-1.33.901-2.001c0-.576-.203-1.052-.62-1.429-.418-.377-.934-.568-1.566-.568-.633,0-1.174.195-1.604.58s-.649.965-.657,1.736l-1.459-.166c.091-1.073.475-1.893,1.157-2.456.686-.568,1.546-.85,2.591-.85c1.137,0,2.021.315,2.658.932.636.622.95,1.372.95,2.25c0,.733-.268,1.475-.801,2.229-.533.749-1.596,1.752-3.191,3.015-.835.659-1.393,1.231-1.665,1.707h5.691v1.359l-.005.004Z" fill="#fff"/><path d="M90.7603,265v-11.04h1.776l3.696,7.84l3.68-7.84h1.7757v11.04h-1.344v-9.024L96.8563,263.4h-1.264l-3.488-7.424v9.024h-1.344Zm13.5247-2.4v-3.52c0-1.6.8-2.4,2.4-2.4h2.24c1.6,0,2.4.8,2.4,2.4v3.52c0,1.6-.8,2.4-2.4,2.4h-2.24c-1.6,0-2.4-.8-2.4-2.4Zm1.28.16c0,.747.373,1.12,1.12,1.12h2.24c.746,0,1.12-.373,1.12-1.12v-3.84c0-.747-.374-1.12-1.12-1.12h-2.24c-.747,0-1.12.373-1.12,1.12v3.84Zm8.192,2.24v-8.32h4.48c1.6,0,2.4.8,2.4,2.4v5.92h-1.28v-6.08c0-.747-.374-1.12-1.12-1.12h-3.2v7.2h-1.28Zm9.247-2.4v-3.52c0-1.6.8-2.4,2.4-2.4h4.48v9.12c0,1.6-.8,2.4-2.4,2.4h-3.2l-.64-.48v-.64h3.84c.746,0,1.12-.373,1.12-1.12v-.96h-3.2c-1.6,0-2.4-.8-2.4-2.4Zm1.28.16c0,.747.373,1.12,1.12,1.12h3.2v-6.08h-3.2c-.747,0-1.12.373-1.12,1.12v3.84Zm8.032-.16v-3.52c0-1.6.8-2.4,2.4-2.4h2.24c1.6,0,2.4.8,2.4,2.4v3.52c0,1.6-.8,2.4-2.4,2.4h-2.24c-1.6,0-2.4-.8-2.4-2.4Zm1.28.16c0,.747.373,1.12,1.12,1.12h2.24c.747,0,1.12-.373,1.12-1.12v-3.84c0-.747-.373-1.12-1.12-1.12h-2.24c-.747,0-1.12.373-1.12,1.12v3.84Zm8.352,2.24v-11.04h4.32c2.666,0,4,1.333,4,4v3.04c0,2.667-1.334,4-4,4h-4.32Zm1.344-1.216h3.056c1.717,0,2.576-.859,2.576-2.576v-3.456c0-1.717-.859-2.576-2.576-2.576h-3.056v8.608ZM152.823,265v-11.04h5.072c1.632,0,2.448.816,2.448,2.448v1.104c0,.363-.107.672-.32.928l-.56.672.672.56c.352.288.528.715.528,1.28v1.6c0,1.632-.816,2.448-2.448,2.448h-5.392Zm1.344-1.216h4.064c.725,0,1.088-.363,1.088-1.088v-1.792c0-.725-.363-1.088-1.088-1.088h-4.064v3.968Zm0-5.184h3.744c.725,0,1.088-.363,1.088-1.088v-1.248c0-.725-.363-1.088-1.088-1.088h-3.744v3.424Z" fill="#fff"/></g></g><g id="eL1GQFb093m361_ts" transform="translate(137.18655,235.527001) scale(0,0)"><g transform="translate(-137.18655,-235.527)"><path d="M225.021,225.5h-.69v20.054h.69v-20.054Z" fill="#fff"/><path d="M222.05,225.5h-172.6979v20.054h172.6979v-20.054Z" opacity="0.2" fill="#fff"/><path d="M223.703,225.5h-1.653v20.054h1.653v-20.054Z" fill="#fff"/><path d="M205.997,229.684c2.513,0,3.774,1.951,3.774,5.849c0,1.968-.327,3.435-.976,4.396s-1.583,1.441-2.798,1.441c-2.508,0-3.765-1.947-3.765-5.837c0-1.971.323-3.442.976-4.403.648-.961,1.578-1.446,2.789-1.446Zm0,10.535c.761,0,1.339-.369,1.728-1.098.393-.729.583-1.926.583-3.583c0-1.156-.087-2.063-.257-2.726-.169-.663-.429-1.16-.777-1.483-.343-.323-.777-.489-1.297-.489-.761,0-1.339.373-1.72,1.114-.384.746-.574,1.939-.574,3.584c0,1.139.087,2.038.26,2.705.174.667.43,1.164.773,1.487s.769.489,1.277.489h.004Z" fill="#fff"/><path d="M216.557,241.175h-1.422v-8.947c-.711.667-1.661,1.23-2.847,1.694v-1.359c1.636-.774,2.752-1.735,3.347-2.879h.922v11.491Z" fill="#fff"/><path d="M99.2603,241v-11.04h1.4877l5.808,8.96v-8.96h1.344v11.04h-1.488l-5.808-8.96v8.96h-1.3437Zm11.2277-2.4v-3.52c0-1.6.8-2.4,2.4-2.4h2.24c1.6,0,2.4.8,2.4,2.4v3.52c0,1.6-.8,2.4-2.4,2.4h-2.24c-1.6,0-2.4-.8-2.4-2.4Zm1.28.16c0,.747.373,1.12,1.12,1.12h2.24c.747,0,1.12-.373,1.12-1.12v-3.84c0-.747-.373-1.12-1.12-1.12h-2.24c-.747,0-1.12.373-1.12,1.12v3.84Zm8.064-.16v-3.52c0-1.6.8-2.4,2.4-2.4h3.2v-3.52h1.28v11.84h-4.48c-1.6,0-2.4-.8-2.4-2.4Zm1.28.16c0,.747.373,1.12,1.12,1.12h3.2v-6.08h-3.2c-.747,0-1.12.373-1.12,1.12v3.84Zm8.032-.16v-3.52c0-1.6.8-2.4,2.4-2.4h2.08c1.6,0,2.4.8,2.4,2.4v2.256h-5.6v1.424c0,.747.374,1.12,1.12,1.12h4.16v.64l-.64.48h-3.52c-1.6,0-2.4-.8-2.4-2.4Zm1.28-2.304h4.32v-1.376c0-.747-.373-1.12-1.12-1.12h-2.08c-.746,0-1.12.373-1.12,1.12v1.376ZM138.492,241v-1.728h1.552v1.728h-1.552Zm2.716,2.24c.939-.032,1.408-.517,1.408-1.456v-9.104h1.28v8.96c0,1.792-.896,2.688-2.688,2.688v-1.088Zm1.344-12.112v-1.504h1.408v1.504h-1.408Zm3.588,9.392v-.64h3.696c.736,0,1.104-.373,1.104-1.12c0-.757-.294-1.184-.88-1.28l-1.904-.32c-1.344-.224-2.016-.955-2.016-2.192c0-1.525.8-2.288,2.4-2.288h2.672l.64.48v.64h-3.328c-.747,0-1.12.373-1.12,1.12c0,.672.314,1.061.944,1.168l1.904.32c1.322.213,1.984.976,1.984,2.288c0,1.536-.811,2.304-2.432,2.304h-3.024l-.64-.48Z" fill="#fff"/></g></g><g id="eL1GQFb093m368_ts" transform="translate(136.527553,286.013504) scale(0,0)"><g transform="translate(-136.527553,-286.013504)"><g transform="translate(.000001 0)"><path d="M222.05,275.989h-172.6979v20.049h172.6979v-20.049Z" opacity="0.2" fill="#fff"/><path d="M205.997,280.173c2.513,0,3.774,1.951,3.774,5.849c0,1.972-.327,3.434-.976,4.395s-1.583,1.442-2.798,1.442c-2.508,0-3.765-1.947-3.765-5.837c0-1.972.323-3.442.976-4.403.648-.966,1.578-1.45,2.789-1.45v.004Zm0,10.534c.761,0,1.339-.369,1.728-1.093.393-.73.583-1.927.583-3.588c0-1.156-.087-2.063-.257-2.726-.169-.662-.429-1.159-.777-1.483-.343-.323-.777-.488-1.297-.488-.761,0-1.339.368-1.72,1.114-.384.746-.574,1.939-.574,3.579c0,1.139.087,2.038.26,2.709.174.667.43,1.16.773,1.487.343.323.769.489,1.277.489h.004Z" fill="#fff"/><path d="M216.623,285.475c.715.137,1.256.477,1.62,1.028.368.551.55,1.147.55,1.789c0,1.044-.385,1.897-1.149,2.564-.769.667-1.682,1.003-2.753,1.003-1.07,0-1.864-.294-2.525-.883-.665-.588-1.05-1.367-1.157-2.332l1.418-.194c.144.749.405,1.317.776,1.694.377.373.873.559,1.488.559.662,0,1.224-.232,1.682-.692.463-.46.691-1.023.691-1.69s-.211-1.168-.629-1.591c-.417-.422-.963-.633-1.636-.633-.273,0-.608.049-1,.149l.165-1.235c.376,0,.678-.02.901-.054.219-.033.467-.124.74-.265.272-.141.5-.344.677-.605.178-.26.269-.588.269-.977c0-.568-.19-1.007-.57-1.317-.385-.315-.823-.469-1.323-.469-.574,0-1.041.179-1.405.539-.359.36-.587.87-.682,1.537l-1.417-.257c.181-.994.591-1.736,1.219-2.229.628-.497,1.38-.741,2.256-.741.963,0,1.765.29,2.41.861.64.576.967,1.281.967,2.109c0,1.065-.529,1.835-1.587,2.303v.029h.004Z" fill="#fff"/><path d="M111.944,289.44v-.656h4.928c.726,0,1.088-.363,1.088-1.088v-1.296c0-.608-.272-.965-.816-1.072l-3.44-.704c-1.173-.235-1.76-1.019-1.76-2.352v-.864c0-1.632.816-2.448,2.448-2.448h3.872l.72.56v.656h-4.608c-.725,0-1.088.363-1.088,1.088v1.088c0,.608.272.965.816,1.072l3.44.688c1.174.235,1.76,1.024,1.76,2.368v1.072c0,1.632-.816,2.448-2.448,2.448h-4.192l-.72-.56Zm9.602-1.888v-6.144c0-1.632.816-2.448,2.448-2.448h3.744c1.632,0,2.448.816,2.448,2.448v6.16c0,1.483-.699,2.277-2.096,2.384l1.088,2.128-.176.32h-1.136L126.65,290h-2.656c-1.632,0-2.448-.816-2.448-2.448Zm1.344.144c0,.725.362,1.088,1.088,1.088h3.776c.725,0,1.088-.363,1.088-1.088v-6.432c0-.725-.363-1.088-1.088-1.088h-3.776c-.726,0-1.088.363-1.088,1.088v6.432ZM132.909,290v-11.04h1.344v9.824h5.376v1.216h-6.72Z" fill="#fff"/></g><path d="M223.703,275.989h-1.653v20.049h1.653v-20.049Z" fill="#fff"/></g></g></g><clipPath id="eL1GQFb093m375"><rect width="255" height="157" rx="0" ry="0" transform="translate(44 212)" fill="#fff"/></clipPath></g><g clip-path="url(#eL1GQFb093m508)"><g><g mask="url(#eL1GQFb093m396)"><g><path d="M26.3951,493.426h-6.148v.61h6.148v-.61Z" fill="#fff"/><path d="M26.3951,488.766h-6.148v.611h6.148v-.611Z" fill="#fff"/><path d="M26.3951,484.107h-6.148v.61h6.148v-.61Z" fill="#fff"/><path d="M26.3951,479.447h-6.148v.611h6.148v-.611Z" fill="#fff"/><path d="M26.3951,474.788h-6.148v.61h6.148v-.61Z" fill="#fff"/><path d="M26.3951,470.128h-6.148v.614h6.148v-.614Z" fill="#fff"/><path d="M20.2401,502.395v-50.238l4.1244,1.746v58.06l12.3311,5.205v25.435l-12.1835,5.139v13.688h-1.4615v-37.311l-5.881-2.481v-17.951l3.0705-1.292Z" fill="#fff"/><path d="M20.8712,543.411l-7.7825,3.26.3565.152l7.7825-3.26-.3565-.152Z" fill="#fff"/><path d="M13.4576,543.407l-.3564.151l7.7825,3.261.3565-.152-7.7826-3.26Z" fill="#fff"/><path d="M20.8647,548.269l-7.7555,3.271.3577.151l7.7555-3.272-.3577-.15Z" fill="#fff"/><path d="M13.4669,548.271l-.3577.151l7.7555,3.271.3577-.151-7.7555-3.271Z" fill="#fff"/><path d="M13.4668,556.563l-.3583-.154l7.757-3.272.3583.154-7.757,3.272Z" fill="#fff"/><path d="M21.2238,556.409l-.3583.154-7.757-3.272.3583-.154l7.757,3.272Z" fill="#fff"/><path d="M20.8636,558.005l-7.7555,3.272.3577.151l7.7555-3.272-.3577-.151Z" fill="#fff"/><path d="M13.4658,558.007l-.3577.151l7.7555,3.272.3577-.151-7.7555-3.272Z" fill="#fff"/></g><mask id="eL1GQFb093m396" mask-type="luminance" x="-150%" y="-150%" height="400%" width="400%"><path d="M36.6956,561.43v-81.491l-23.5871-9.947v91.438h23.5871Z" fill="#fff"/></mask></g><g mask="url(#eL1GQFb093m409)"><g><path d="M14.2748,473.003h-1.4474v2.594h1.4474v-2.594Z" fill="#fff"/><path d="M25.3201,473.003h-1.4474v2.594h1.4474v-2.594Z" fill="#fff"/><path d="M36.3724,473.003h-1.4545v2.594h1.4545v-2.594Z" fill="#fff"/><path d="M47.4176,473.003h-1.4544v2.594h1.4544v-2.594Z" fill="#fff"/><path d="M58.4558,473.003h-1.4474v2.594h1.4474v-2.594Z" fill="#fff"/><path d="M69.5011,473.003h-1.4474v2.594h1.4474v-2.594Z" fill="#fff"/><path d="M-40.1153,472.997h119.0807L74.827,474.74h-137.63l-12.3311,5.199h-60.2989l-12.184-5.136h-32.447v-.62h88.4534l5.874-2.478h42.5509l3.0704,1.292Z" fill="#fff"/><path d="M104.906,477.817h-12.3097l-13.8768-5.854h-30.3604v-.516h30.8593l13.8768,5.854h11.3048l4.111-1.734h54.256v.516h-53.75l-4.111,1.734Z" fill="#fff"/><path d="M125.95,475.081l8.818-3.723h22.519l7.462,3.148h65.112l-4.94,2.084h-44.504l-3.562-1.503-50.905-.006Z" fill="#fff"/></g><mask id="eL1GQFb093m409" mask-type="luminance" x="-150%" y="-150%" height="400%" width="400%"><path d="M229.861,479.939h-193.1654l-23.5871-9.947h216.7525v9.947Z" fill="#fff"/></mask></g><g mask="url(#eL1GQFb093m428)"><g><path d="M187.514,473.003h-1.448v2.594h1.448v-2.594Z" fill="#fff"/><path d="M198.566,473.003h-1.454v2.594h1.454v-2.594Z" fill="#fff"/><path d="M209.604,473.003h-1.447v2.594h1.447v-2.594Z" fill="#fff"/><path d="M220.65,473.003h-1.448v2.594h1.448v-2.594Z" fill="#fff"/><path d="M231.702,473.003h-1.455v2.594h1.455v-2.594Z" fill="#fff"/><path d="M242.74,473.003h-1.447v2.594h1.447v-2.594Z" fill="#fff"/><path d="M166.252,472.997h119.088l-4.138,1.743h-137.637l-12.324,5.199h-60.2995L58.758,474.803h-32.4472v-.62h88.4462l5.881-2.478h42.551l3.063,1.292Z" fill="#fff"/><path d="M60.9291,470.143l.3653-.151l7.75,3.272-.3584.151-7.7569-3.272Z" fill="#fff"/><path d="M61.2944,473.415l-.3653-.151l7.7569-3.272.3584.151-7.75,3.272Z" fill="#fff"/><path d="M49.7679,469.989l-.359.151l7.7284,3.283.359-.151-7.7284-3.283Z" fill="#fff"/><path d="M57.1304,469.983l-7.7284,3.283.359.151l7.7284-3.284-.359-.15Z" fill="#fff"/><path d="M38.2094,469.991l-.3577.151l7.7555,3.272.3577-.151-7.7555-3.272Z" fill="#fff"/><path d="M45.6072,469.989l-7.7555,3.272.3577.151l7.7555-3.272-.3577-.151Z" fill="#fff"/><path d="M26.3108,470.143l.3583-.151l7.757,3.272-.3583.151-7.757-3.272Z" fill="#fff"/><path d="M26.6691,473.415l-.3583-.151l7.757-3.272.3583.151-7.757,3.272Z" fill="#fff"/></g><mask id="eL1GQFb093m428" mask-type="luminance" x="-150%" y="-150%" height="400%" width="400%"><path d="M26.3108,479.939h193.1652l23.587-9.947h-216.7522v9.947Z" fill="#fff"/></mask></g><g mask="url(#eL1GQFb093m441)"><g><path d="M235.925,469.873h-6.148v.614h6.148v-.614Z" fill="#fff"/><path d="M235.925,474.533h-6.148v.61h6.148v-.61Z" fill="#fff"/><path d="M235.925,479.192h-6.148v.614h6.148v-.614Z" fill="#fff"/><path d="M235.925,483.852h-6.148v.613h6.148v-.613Z" fill="#fff"/><path d="M235.925,488.511h-6.148v.611h6.148v-.611Z" fill="#fff"/><path d="M235.925,493.171h-6.148v.61h6.148v-.61Z" fill="#fff"/><path d="M235.932,447.539v50.235l-4.125-1.746v-58.06l-12.331-5.202v-25.438l12.184-5.139v-13.688h1.461v37.314l5.881,2.478v17.951l-3.07,1.295Z" fill="#fff"/><path d="M224.514,508.714v-5.19l13.877-5.857v-12.807h1.222v13.021l-13.883,5.854v4.769l4.117,1.734v22.889h-1.223v-22.676l-4.11-1.737Z" fill="#fff"/><path d="M230.999,517.595l8.818,3.72v9.503l-7.455,3.144v27.468l-4.946-2.086v-18.772l3.562-1.502.021-21.475Z" fill="#fff"/></g><mask id="eL1GQFb093m441" mask-type="luminance" x="-150%" y="-150%" height="400%" width="400%"><path d="M219.476,561.43v-81.491l23.587-9.947v91.438h-23.587Z" fill="#fff"/></mask></g><g mask="url(#eL1GQFb093m460)"><g><path d="M235.925,542.955h-6.148v.611h6.148v-.611Z" fill="#fff"/><path d="M235.925,547.615h-6.148v.614h6.148v-.614Z" fill="#fff"/><path d="M235.925,552.274h-6.148v.611h6.148v-.611Z" fill="#fff"/><path d="M235.925,556.934h-6.148v.611h6.148v-.611Z" fill="#fff"/><path d="M235.925,561.594h-6.148v.613h6.148v-.613Z" fill="#fff"/><path d="M235.925,566.253h-6.148v.611h6.148v-.611Z" fill="#fff"/><path d="M235.932,534.597v50.238l-4.125-1.746v-58.063l-12.331-5.199v-25.438l12.184-5.14v-13.691h1.461v37.315l5.881,2.481v17.95l-3.07,1.293Z" fill="#fff"/><path d="M242.679,490.156l-7.728,3.283.359.15l7.728-3.283-.359-.15Z" fill="#fff"/><path d="M235.307,490.166l-.358.151l7.756,3.272.357-.151-7.755-3.272Z" fill="#fff"/><path d="M242.704,485.297l-7.755,3.272.362.153l7.756-3.272-.363-.153Z" fill="#fff"/><path d="M235.286,485.3l-.362.153l7.783,3.26.361-.153-7.782-3.26Z" fill="#fff"/><path d="M242.685,480.422l-7.729,3.283.359.15l7.729-3.283-.359-.15Z" fill="#fff"/><path d="M235.306,480.432l-.358.151l7.756,3.271.357-.15-7.755-3.272Z" fill="#fff"/><path d="M242.705,475.561l.358.151-7.757,3.273-.358-.152l7.757-3.272Z" fill="#fff"/><path d="M235.307,475.562l-.357.151l7.755,3.272.358-.151-7.756-3.272Z" fill="#fff"/></g><mask id="eL1GQFb093m460" mask-type="luminance" x="-150%" y="-150%" height="400%" width="400%"><path d="M219.476,475.558v81.492L243.063,567v-91.442h-23.587Z" fill="#fff"/></mask></g><g mask="url(#eL1GQFb093m473)"><g><path d="M243.337,561.395h-1.447v2.593h1.447v-2.593Z" fill="#fff"/><path d="M232.292,561.395h-1.447v2.593h1.447v-2.593Z" fill="#fff"/><path d="M221.247,561.395h-1.448v2.593h1.448v-2.593Z" fill="#fff"/><path d="M210.202,561.395h-1.448v2.593h1.448v-2.593Z" fill="#fff"/><path d="M199.163,561.395h-1.454v2.593h1.454v-2.593Z" fill="#fff"/><path d="M188.111,561.395h-1.447v2.593h1.447v-2.593Z" fill="#fff"/><path d="M296.287,563.991h-119.088l4.146-1.739h137.63l12.331-5.202h60.299l12.183,5.139h32.448v.617h-88.454l-5.881,2.481h-42.544l-3.07-1.296Z" fill="#fff"/><path d="M151.265,559.175h12.31l13.877,5.854h30.361v.516h-30.86l-13.883-5.857h-11.299l-4.11,1.737h-54.2567v-.516h53.7507l4.11-1.734Z" fill="#fff"/><path d="M130.222,561.911l-8.825,3.72h-22.5192l-7.4549-3.145h-65.1121l4.9394-2.084h44.5042l3.5623,1.5l50.9053.009Z" fill="#fff"/></g><mask id="eL1GQFb093m473" mask-type="luminance" x="-150%" y="-150%" height="400%" width="400%"><path d="M26.3108,557.05h193.1652L243.063,567h-216.7522v-9.95Z" fill="#fff"/></mask></g><g mask="url(#eL1GQFb093m492)"><g><path d="M70.1053,561.395h-1.4474v2.593h1.4474v-2.593Z" fill="#fff"/><path d="M59.0601,561.395h-1.4544v2.593h1.4544v-2.593Z" fill="#fff"/><path d="M48.0148,561.395h-1.4544v2.593h1.4544v-2.593Z" fill="#fff"/><path d="M36.9696,561.395h-1.4474v2.593h1.4474v-2.593Z" fill="#fff"/><path d="M25.9243,561.395h-1.4474v2.593h1.4474v-2.593Z" fill="#fff"/><path d="M14.8861,561.395h-1.4544v2.593h1.4544v-2.593Z" fill="#fff"/><path d="M89.9123,563.991h-119.0807l4.1385-1.739h137.6369l12.324-5.202h60.299l12.184,5.139h32.447v.617h-88.446l-5.881,2.481h-42.5512l-3.0705-1.296Z" fill="#fff"/><path d="M187.482,563.579l-.358.151l7.755,3.271.358-.15-7.755-3.272Z" fill="#fff"/><path d="M194.879,563.577l-7.755,3.272.358.15l7.755-3.271-.358-.151Z" fill="#fff"/><path d="M199.019,563.579l-.358.15l7.756,3.272.358-.151-7.756-3.271Z" fill="#fff"/><path d="M206.422,563.579l-7.756,3.271.358.151l7.756-3.271-.358-.151Z" fill="#fff"/><path d="M210.562,563.576l-.358.151l7.756,3.272.357-.151-7.755-3.272Z" fill="#fff"/><path d="M217.96,563.574l-7.756,3.272.358.151l7.755-3.272-.357-.151Z" fill="#fff"/><path d="M222.099,563.579l-.357.151l7.755,3.272.358-.151-7.756-3.272Z" fill="#fff"/><path d="M229.502,563.579l-7.755,3.272.357.151l7.756-3.272-.358-.151Z" fill="#fff"/></g><mask id="eL1GQFb093m492" mask-type="luminance" x="-150%" y="-150%" height="400%" width="400%"><path d="M229.861,557.05h-193.1654L13.1085,567h216.7525v-9.95Z" fill="#fff"/></mask></g><g mask="url(#eL1GQFb093m505)"><g><path d="M26.3951,566.505h-6.148v.614h6.148v-.614Z" fill="#fff"/><path d="M26.3951,561.845h-6.148v.611h6.148v-.611Z" fill="#fff"/><path d="M26.3951,557.186h-6.148v.613h6.148v-.613Z" fill="#fff"/><path d="M26.3951,552.526h-6.148v.614h6.148v-.614Z" fill="#fff"/><path d="M26.3951,547.867h-6.148v.611h6.148v-.611Z" fill="#fff"/><path d="M26.3951,543.207h-6.148v.611h6.148v-.611Z" fill="#fff"/><path d="M20.2401,589.453v-50.238l4.1244,1.746v58.063l12.3311,5.202v25.434L24.5121,634.8v13.691h-1.4615v-37.315l-5.881-2.478v-17.953l3.0705-1.292Z" fill="#fff"/><path d="M31.6578,528.274v5.193l-13.8839,5.854v12.808h-1.2155v-13.018l13.8838-5.857v-4.766l-4.1174-1.734v-22.889h1.2226v22.675l4.1104,1.734Z" fill="#fff"/><path d="M25.1725,519.397l-8.8249-3.723v-9.5l7.4618-3.145v-27.471l4.9465,2.087v18.774l-3.5693,1.503-.0141,21.475Z" fill="#fff"/></g><mask id="eL1GQFb093m505" mask-type="luminance" x="-150%" y="-150%" height="400%" width="400%"><path d="M36.6956,475.558v81.492L13.1085,567v-91.442h23.5871Z" fill="#fff"/></mask></g><path d="M59.3457,526.752v-1.872h7.44c.48,0,.72-.24.72-.72v-1.728c0-.464-.2-.728-.6-.792l-4.68-.96c-1.92-.384-2.88-1.672-2.88-3.864v-1.344c0-2.688,1.344-4.032,4.032-4.032h5.496l1.608,1.248v1.872h-6.96c-.48,0-.72.24-.72.72v1.56c0,.448.2.712.6.792l4.68.936c1.92.384,2.88,1.672,2.88,3.864v1.536c0,2.688-1.344,4.032-4.032,4.032h-5.976l-1.608-1.248ZM74.175,528v-16.56h11.328v3.12h-7.872v3.36h7.152v3.12h-7.152v3.84h7.872v3.12h-11.328Zm14.2444-4.032v-8.496c0-2.688,1.344-4.032,4.032-4.032h5.472c2.6876,0,4.0316,1.344,4.0316,4.032v8.496c0,2.688-1.344,4.032-4.0316,4.032h-5.472c-2.688,0-4.032-1.344-4.032-4.032Zm3.456.192c0,.48.24.72.72.72h5.184c.48,0,.72-.24.72-.72v-8.88c0-.48-.24-.72-.72-.72h-5.184c-.48,0-.72.24-.72.72v8.88ZM111.417,528v-16.56h8.064c2.688,0,4.032,1.344,4.032,4.032v2.736c0,2-.744,3.248-2.232,3.744l2.712,5.328-.408.72h-2.976l-2.928-5.76h-2.808v5.76h-3.456Zm3.456-8.88h4.464c.48,0,.72-.24.72-.72v-3.12c0-.48-.24-.72-.72-.72h-4.464v4.56Zm11.675,4.992v-4.896c0-2.592,1.296-3.888,3.888-3.888h3.12c2.592,0,3.888,1.296,3.888,3.888v3.672h-7.584v1.464c0,.512.256.768.768.768h6.336v1.8l-1.44,1.08h-5.088c-2.592,0-3.888-1.296-3.888-3.888Zm3.312-3.768h4.272v-1.368c0-.512-.256-.768-.768-.768h-2.736c-.512,0-.768.256-.768.768v1.368Zm10.752,3.048v-13.152h3.312v13.488c0,.992.512,1.544,1.536,1.656v2.856c-3.232,0-4.848-1.616-4.848-4.848ZM151.354,528c-2.592,0-3.888-1.272-3.888-3.816s1.296-3.816,3.888-3.816h3.312v-1.392c0-.512-.256-.768-.768-.768h-5.088v-1.8l1.44-1.08h3.84c2.592,0,3.888,1.296,3.888,3.888v8.784h-6.624Zm-.576-3.648c0,.512.256.768.768.768h3.12v-2.208h-3.12c-.512,0-.768.256-.768.768v.672Zm10.459-.24v-12.672h3.312v3.888h4.128v2.88h-4.128v6.144c0,.512.256.768.768.768h3.6v1.8l-1.44,1.08h-2.352c-2.592,0-3.888-1.296-3.888-3.888Zm10.076,0v-4.896c0-2.592,1.296-3.888,3.888-3.888h3.12c2.592,0,3.888,1.296,3.888,3.888v3.672h-7.584v1.464c0,.512.256.768.768.768h6.336v1.8l-1.44,1.08h-5.088c-2.592,0-3.888-1.296-3.888-3.888Zm3.312-3.768h4.272v-1.368c0-.512-.256-.768-.768-.768h-2.736c-.512,0-.768.256-.768.768v1.368Zm10.657,3.768v-4.896c0-2.592,1.296-3.888,3.888-3.888h3.696v-5.088h3.312v17.76h-7.008c-2.592,0-3.888-1.296-3.888-3.888Zm3.312.24c0,.512.256.768.768.768h3.504v-6.912h-3.504c-.512,0-.768.256-.768.768v5.376Z" fill="#fff"/></g><clipPath id="eL1GQFb093m508"><rect width="241" height="99" rx="0" ry="0" transform="translate(2 468)" fill="#fff"/></clipPath></g><g transform="translate(0 0.09699)" clip-path="url(#eL1GQFb093m531)"><g><g id="eL1GQFb093m512_ts" transform="translate(251.300995,516.370941) scale(0,0)"><g transform="translate(-251.300995,-516.370941)"><g opacity="0.35"><path d="M257.197,510.404h-11.792v11.638h11.792v-11.638Z" transform="translate(0 0.14796)" fill="#fff"/></g><path d="M256.202,521.061h-9.806v-9.676h9.806v9.676Zm-9.592-.21h9.379v-9.252h-9.376v9.252h-.003Z" transform="translate(0 0.14796)" fill="#fff"/><path d="M253.272,514.275h-3.946v3.896h3.946v-3.896Z" transform="translate(0 0.14796)" fill="#fff"/></g></g><g id="eL1GQFb093m517_tr" transform="translate(251.300995,516.491074) rotate(-90)"><g transform="translate(-251.300995,-516.491074)"><path d="M243.816,510.835h-.686v-2.687h2.727v.676c0,0-1.608039-.432961-2.041,0-.426598.426598,0,2.011,0,2.011Z" transform="translate(0 0.268087)" fill="#fff"/><path d="M259.472,510.835h-.686v-2.011h-2.041v-.676h2.727v2.687Z" transform="translate(0 0.268087)" fill="#fff"/><path d="M259.472,524.298h-2.727v-.676h2.041v-2.015h.686v2.691Z" transform="translate(0 0.268087)" fill="#fff"/><path d="M245.857,524.298h-2.727v-2.691h.686v2.015h2.041v.676Z" transform="translate(0 0.268087)" fill="#fff"/></g></g><path id="eL1GQFb093m522" d="M259.472,508.504q14.723-14.1548,14.4389-14.4389t87.8471,0l10.048555-10.048555h12.258444v19.848455h35.267h77.823999h2.8l8.012,8.012h74.376009v20.21399" transform="translate(.655993 0)" fill="none" stroke="#fff" stroke-width="2" stroke-dashoffset="376.428871" stroke-dasharray="376.428871"/><g id="eL1GQFb093m523_ts" transform="translate(445.336502,490.523499) scale(0,0)"><g transform="translate(-445.336502,-490.523498)"><path d="M499.856,483.167h-112.271v18.038h112.271v-18.038Z" fill="#fff"/><path d="M503.088,488.825h-.946v-8.047h-8.157v-.936h9.103v8.983Z" fill="#fff"/><path d="M400.198,497v-11.04h5.232c1.632,0,2.448.816,2.448,2.448v1.76c0,1.387-.592,2.176-1.776,2.368l2.096,4.144-.176.32h-1.136l-2.224-4.384h-3.12v4.384h-1.344Zm1.344-5.6h3.904c.725,0,1.088-.363,1.088-1.088v-2.048c0-.725-.363-1.088-1.088-1.088h-3.904v4.224Zm8.602,3.2v-3.52c0-1.6.8-2.4,2.4-2.4h2.08c1.6,0,2.4.8,2.4,2.4v2.256h-5.6v1.424c0,.747.374,1.12,1.12,1.12h4.16v.64l-.64.48h-3.52c-1.6,0-2.4-.8-2.4-2.4Zm1.28-2.304h4.32v-1.376c0-.747-.373-1.12-1.12-1.12h-2.08c-.746,0-1.12.373-1.12,1.12v1.376Zm7.908,2.304v-3.52c0-1.6.8-2.4,2.4-2.4h3.2v-3.52h1.28v11.84h-4.48c-1.6,0-2.4-.8-2.4-2.4Zm1.28.16c0,.747.373,1.12,1.12,1.12h3.2v-6.08h-3.2c-.747,0-1.12.373-1.12,1.12v3.84Zm8.096-7.632v-1.504h1.408v1.504h-1.408Zm.064,9.872v-8.32h1.28v8.32h-1.28Zm3.524-.48v-.64h3.696c.736,0,1.104-.373,1.104-1.12c0-.757-.293-1.184-.88-1.28l-1.904-.32c-1.344-.224-2.016-.955-2.016-2.192c0-1.525.8-2.288,2.4-2.288h2.672l.64.48v.64h-3.328c-.747,0-1.12.373-1.12,1.12c0,.672.315,1.061.944,1.168l1.904.32c1.323.213,1.984.976,1.984,2.288c0,1.536-.811,2.304-2.432,2.304h-3.024l-.64-.48Zm12.164-1.968v-6.144c0-1.632.816-2.448,2.448-2.448h4.512l.72.56v.656h-5.248c-.726,0-1.088.363-1.088,1.088v6.432c0,.725.362,1.088,1.088,1.088h5.248v.656l-.72.56h-4.512c-1.632,0-2.448-.816-2.448-2.448ZM456.193,497c-1.61,0-2.416-.805-2.416-2.416s.806-2.416,2.416-2.416h2.928v-1.248c0-.747-.373-1.12-1.12-1.12h-3.424v-.64l.64-.48h2.784c1.6,0,2.4.8,2.4,2.4v5.92h-4.208Zm-1.136-2.24c0,.747.374,1.12,1.12,1.12h2.944v-2.672h-2.944c-.746,0-1.12.373-1.12,1.12v.432Zm7.712-.16v-3.52c0-1.6.8-2.4,2.4-2.4h3.136l.64.48v.64h-3.776c-.746,0-1.12.373-1.12,1.12v3.84c0,.747.374,1.12,1.12,1.12h3.776v.64l-.64.48h-3.136c-1.6,0-2.4-.8-2.4-2.4Zm8.191,2.4v-11.84h1.28v3.52h3.2c1.6,0,2.4.8,2.4,2.4v5.92h-1.28v-6.08c0-.747-.374-1.12-1.12-1.12h-3.2v7.2h-1.28Zm9.247-2.4v-3.52c0-1.6.8-2.4,2.4-2.4h2.08c1.6,0,2.4.8,2.4,2.4v2.256h-5.6v1.424c0,.747.373,1.12,1.12,1.12h4.16v.64l-.64.48h-3.52c-1.6,0-2.4-.8-2.4-2.4Zm1.28-2.304h4.32v-1.376c0-.747-.374-1.12-1.12-1.12h-2.08c-.747,0-1.12.373-1.12,1.12v1.376Z"/></g></g><g id="eL1GQFb093m527_ts" transform="translate(523.197998,524.509491) scale(0,0)"><g transform="translate(-523.197998,-524.509491)"><path d="M580.93,513.956h-112.271v18.038h112.271v-18.038Z" fill="#fff"/><path d="M474.565,535.063h-9.099v-8.979h.945v8.047h8.154v.932Z" fill="#fff"/><path d="M506.538,525.552v-1.712h1.344v1.856c0,.725.363,1.088,1.088,1.088h2.496c.725,0,1.088-.363,1.088-1.088v-7.52h-3.616v-1.216h4.96v8.592c0,1.632-.816,2.448-2.448,2.448h-2.464c-1.632,0-2.448-.816-2.448-2.448ZM516.674,528v-11.04h7.2v1.216h-5.856v3.424h5.376v1.216h-5.376v3.968h5.856v1.216h-7.2Zm8.958-.56v-.656h4.928c.725,0,1.088-.363,1.088-1.088v-1.296c0-.608-.272-.965-.816-1.072l-3.44-.704c-1.173-.235-1.76-1.019-1.76-2.352v-.864c0-1.632.816-2.448,2.448-2.448h3.872l.72.56v.656h-4.608c-.725,0-1.088.363-1.088,1.088v1.088c0,.608.272.965.816,1.072l3.44.688c1.173.235,1.76,1.024,1.76,2.368v1.072c0,1.632-.816,2.448-2.448,2.448h-4.192l-.72-.56Zm8.705-9.264v-1.216h8.704v1.216h-3.68v9.824h-1.344v-9.824h-3.68Z"/></g></g></g><clipPath id="eL1GQFb093m531"><rect width="341" height="55" rx="0" ry="0" transform="translate(243 480)" fill="#fff"/></clipPath></g></svg>
