<svg width="359" height="110" viewBox="0 0 359 110" fill="none" xmlns="http://www.w3.org/2000/svg">
<g clip-path="url(#clip0_63_626)">
<mask id="mask0_63_626" style="mask-type:luminance" maskUnits="userSpaceOnUse" x="0" y="18" width="345" height="91">
<path d="M344.447 18.6113H0.989349V108.776H344.447V18.6113Z" fill="white"/>
</mask>
<g mask="url(#mask0_63_626)">
<path d="M8.48358 -64.7055L-4.76312 -77.9243L-275.355 192.099L-262.108 205.318L8.48358 -64.7055Z" fill="white"/>
<path d="M55.4404 -64.7152L42.1937 -77.9341L-228.398 192.089L-215.151 205.308L55.4404 -64.7152Z" fill="white"/>
<path d="M102.41 -64.7133L89.1631 -77.9321L-181.429 192.091L-168.182 205.31L102.41 -64.7133Z" fill="white"/>
<path d="M149.379 -64.7108L136.132 -77.9297L-134.459 192.093L-121.213 205.312L149.379 -64.7108Z" fill="white"/>
<path d="M196.341 -64.7084L183.095 -77.9272L-87.4973 192.096L-74.2506 205.315L196.341 -64.7084Z" fill="white"/>
<path d="M243.305 -64.7113L230.059 -77.9302L-40.5331 192.093L-27.2864 205.312L243.305 -64.7113Z" fill="white"/>
<path d="M290.267 -64.7084L277.021 -77.9272L6.42883 192.096L19.6755 205.315L290.267 -64.7084Z" fill="white"/>
<path d="M337.237 -64.7138L323.99 -77.9326L53.3982 192.09L66.6449 205.309L337.237 -64.7138Z" fill="white"/>
<path d="M384.206 -64.7113L370.959 -77.9302L100.368 192.093L113.614 205.312L384.206 -64.7113Z" fill="white"/>
<path d="M431.163 -64.7142L417.916 -77.9331L147.324 192.09L160.571 205.309L431.163 -64.7142Z" fill="white"/>
<path d="M478.132 -64.7123L464.886 -77.9312L194.294 192.092L207.541 205.311L478.132 -64.7123Z" fill="white"/>
<path d="M525.094 -64.7099L511.848 -77.9287L241.256 192.094L254.502 205.313L525.094 -64.7099Z" fill="white"/>
<path d="M572.064 -64.7074L558.817 -77.9263L288.225 192.097L301.472 205.316L572.064 -64.7074Z" fill="white"/>
<path d="M619.033 -64.7128L605.786 -77.9316L335.195 192.091L348.441 205.31L619.033 -64.7128Z" fill="white"/>
</g>
</g>
<path d="M140.8 13H137.785V2.12814H140.8V13ZM154.849 6.35334V13H151.81V7.61349L149.364 5.16732H144.323V13H141.284V2.12814H150.624L154.849 6.35334ZM167.929 5.16732H163.16V13H160.121V5.16732H155.352V2.12814H167.929V5.16732ZM171.469 6.05684H177.103V9.07131H171.469V9.96082H181.007V13H168.43V4.94494L171.272 2.12814H181.007V5.16732H172.235L171.469 6.05684ZM194.085 7.78645L192.85 9.02189L194.085 10.2573V13H191.046V11.5175L190.132 10.6032H184.548V13H181.508V2.12814H191.244L194.085 4.94494V7.78645ZM184.548 7.58878H190.008L191.046 6.5263V6.20509L190.008 5.16732H184.548V7.58878ZM208.152 6.35334V13H205.113V7.61349L202.666 5.16732H197.626V13H194.587V2.12814H203.927L208.152 6.35334ZM211.693 6.05684H217.327V9.07131H211.693V9.96082H221.231V13H208.654V4.94494L211.496 2.12814H221.231V5.16732H212.459L211.693 6.05684ZM234.309 5.16732H229.54V13H226.501V5.16732H221.732V2.12814H234.309V5.16732ZM254.528 4.94494V10.1585L251.712 13H243.805L240.988 10.1585V4.94494L243.805 2.12814H251.712L254.528 4.94494ZM250.451 9.96082L251.489 8.92305V6.20509L250.451 5.16732H245.065L244.027 6.20509V8.92305L245.065 9.96082H250.451ZM258.046 5.98271V6.60043H263.679V9.63961H258.046V13H255.031V4.94494L257.848 2.12814H267.583V5.16732H258.837L258.046 5.98271ZM286.839 5.16732H282.071V13H279.032V5.16732H274.263V2.12814H286.839V5.16732ZM298.633 2.12814L299.942 3.43771V13H296.903V9.07131H290.38V13H288.651L287.341 11.6657V2.12814H290.38V6.05684H296.903V2.12814H298.633ZM303.458 13H300.443V2.12814H303.458V13ZM317.507 6.35334V13H314.468V7.61349L312.022 5.16732H306.981V13H303.942V2.12814H313.282L317.507 6.35334ZM330.611 13H322.21L318.01 8.7748V2.12814H330.611V5.16732H321.024V7.51465L323.47 9.96082H327.844L326.954 9.07131H323.866L321.938 7.04519V6.03213H328.486L330.611 8.13237V13ZM333.855 5.16732L334.769 6.08155H341.613L343.714 8.18179V10.9245L341.613 13H331.112V10.0102H340.971L340.057 9.09601H333.212L331.112 6.99577V4.22839L333.212 2.12814H343.714V5.16732H333.855Z" fill="white"/>
<defs>
<clipPath id="clip0_63_626">
<rect width="342.491" height="90.5988" fill="white" transform="translate(0.989319 18.4932)"/>
</clipPath>
</defs>
</svg>
