<svg width="468" height="81" viewBox="0 0 468 81" fill="none" xmlns="http://www.w3.org/2000/svg">
<g clip-path="url(#clip0_50_759)">
<path d="M420.972 56.8251H0.624344V6.65869H404.056V26.6018L420.966 33.723V56.8185L420.972 56.8251ZM3.94384 53.5068H417.646V35.933L400.736 28.8118V9.97702H3.94384V53.5068Z" fill="white"/>
<path d="M286.778 55.1665H1.77289V8.31836H278.699V27.704L286.778 34.8251V55.1665Z" fill="white"/>
<path d="M299.479 55.1665H292.176V36.471L284.096 29.3499V8.31836H291.399V26.0581L299.479 33.1793V55.1665Z" fill="white"/>
<path d="M312.856 55.1665H309.537V35.5751L301.457 28.454V8.31836H304.777V26.9541L312.856 34.0752V55.1665Z" fill="white"/>
<path d="M25.7529 31.7388L9.15545 22.1621V41.3221L25.7529 31.7388Z" fill="black"/>
<path d="M16.1004 79.5353C18.8764 79.0848 20.7614 76.4701 20.3108 73.6951C19.8602 70.9201 17.2446 69.0357 14.4686 69.4862C11.6927 69.9366 9.80759 72.5513 10.2582 75.3263C10.7088 78.1013 13.3244 79.9857 16.1004 79.5353Z" fill="white"/>
<path d="M32.8965 80.5712H30.7255V68.4526H32.8965V80.5712Z" fill="white"/>
<path d="M41.1222 68.1475C42.8815 68.1475 44.2757 68.7182 45.3048 69.8597C46.3338 71.0012 46.845 72.5476 46.845 74.5054C46.845 76.4632 46.3338 78.0095 45.3048 79.151C44.2824 80.2992 42.8882 80.8699 41.1222 80.8699C39.3562 80.8699 37.9421 80.2992 36.9197 79.1577C35.8907 78.0162 35.3795 76.4632 35.3795 74.5054C35.3795 72.5476 35.8973 71.0012 36.9264 69.8597C37.962 68.7182 39.3562 68.1475 41.1222 68.1475ZM41.1222 70.0721C40.0401 70.0721 39.1836 70.4703 38.5463 71.2733C37.9089 72.0764 37.5903 73.1515 37.5903 74.5054C37.5903 75.8593 37.9023 76.9477 38.533 77.7507C39.1637 78.5537 40.0268 78.9519 41.1156 78.9519C42.2044 78.9519 43.0409 78.5471 43.6716 77.7441C44.3023 76.941 44.6143 75.8593 44.6143 74.5054C44.6143 73.1515 44.3023 72.0697 43.6716 71.2733C43.0409 70.4703 42.1911 70.0721 41.1156 70.0721H41.1222Z" fill="white"/>
<path d="M54.7122 75.5472H49.1952V73.5894H54.7122V75.5472Z" fill="white"/>
<path d="M61.3446 80.5712H59.1736V70.3242H55.4425V68.4526H65.0823V70.3242H61.3446V80.5712Z" fill="white"/>
<path d="M66.3437 80.5714V71.3797H68.3487V72.8464H68.4948C68.7205 72.3221 69.0591 71.9106 69.5238 71.6252C69.9885 71.3398 70.5529 71.1938 71.2234 71.1938C72.2458 71.1938 73.0226 71.4925 73.5736 72.0832C74.118 72.6738 74.3902 73.5233 74.3902 74.6184V80.5648H72.3056V75.1161C72.3056 73.7091 71.6881 73.0057 70.4466 73.0057C69.8226 73.0057 69.3313 73.2048 68.9661 73.603C68.601 74.0011 68.4217 74.5387 68.4217 75.2157V80.5648H66.3371L66.3437 80.5714Z" fill="white"/>
<path d="M82.4765 80.5712V78.3147H76.5545V76.3834C77.5371 74.5716 79.1902 71.9236 81.4939 68.4526H84.5545V76.483H86.1943V78.3147H84.5545V80.5712H82.4765ZM78.5595 76.4033V76.5294H82.5097V70.2114H82.3902C81.0823 72.1493 79.801 74.2133 78.5595 76.4033Z" fill="white"/>
<path d="M92.7935 80.8766C91.5454 80.8766 90.5163 80.5382 89.7196 79.8546C88.9163 79.171 88.4914 78.295 88.4449 77.2199H90.4765C90.5429 77.7773 90.7951 78.222 91.2267 78.5605C91.6582 78.8989 92.1893 79.0715 92.8134 79.0715C93.5238 79.0715 94.1014 78.8525 94.5395 78.4145C94.9777 77.9764 95.1968 77.3924 95.1968 76.669C95.1968 75.9456 94.9777 75.3616 94.5395 74.9103C94.1014 74.459 93.5304 74.2334 92.8267 74.2334C92.3354 74.2334 91.8972 74.3395 91.5121 74.5453C91.1271 74.751 90.8217 75.043 90.6026 75.428H88.6375L89.2682 68.4595H96.5711V70.2912H90.9478L90.6557 73.6958H90.8018C91.3595 72.9392 92.2159 72.5609 93.3644 72.5609C94.513 72.5609 95.4557 72.9392 96.1926 73.7024C96.9296 74.4656 97.2947 75.4412 97.2947 76.6226C97.2947 77.8902 96.8831 78.9122 96.0532 79.702C95.23 80.4917 94.1412 80.8833 92.8001 80.8833L92.7935 80.8766Z" fill="white"/>
<path d="M103.15 77.4052H103.004L101.125 80.5709H98.8814L101.856 76.0115L98.8549 71.3857H101.265L103.097 74.5448H103.243L105.056 71.3857H107.353L104.385 75.9318L107.386 80.5775H105.036L103.157 77.4118L103.15 77.4052Z" fill="white"/>
<path d="M112.146 80.5712V70.6361H112L108.986 72.7532V70.6693L112.153 68.4526H114.31V80.5712H112.14H112.146Z" fill="white"/>
<path d="M120.538 75.1958V73.5167H122.018C122.636 73.5167 123.134 73.3442 123.525 73.0057C123.91 72.6672 124.103 72.2292 124.103 71.685C124.103 71.1408 123.917 70.716 123.539 70.3975C123.16 70.0789 122.656 69.913 122.025 69.913C121.394 69.913 120.89 70.0789 120.498 70.4108C120.106 70.7426 119.894 71.1939 119.854 71.7646H117.829C117.882 70.6497 118.294 69.767 119.057 69.1232C119.821 68.4795 120.83 68.1543 122.091 68.1543C123.266 68.1543 124.249 68.4596 125.026 69.0768C125.809 69.6874 126.201 70.4639 126.201 71.393C126.201 72.1031 126.002 72.7137 125.61 73.2181C125.218 73.7224 124.681 74.041 124.01 74.187V74.333C124.84 74.4259 125.491 74.7379 125.975 75.2622C126.453 75.7864 126.692 76.4567 126.692 77.2598C126.692 78.3017 126.254 79.1645 125.384 79.8547C124.515 80.5449 123.419 80.89 122.105 80.89C120.79 80.89 119.735 80.5582 118.918 79.8879C118.095 79.2242 117.657 78.3349 117.603 77.2266H119.681C119.728 77.7841 119.967 78.2354 120.412 78.5672C120.857 78.899 121.427 79.065 122.125 79.065C122.822 79.065 123.386 78.8858 123.824 78.5208C124.262 78.1624 124.481 77.6912 124.481 77.1204C124.481 76.5497 124.269 76.0586 123.837 75.7201C123.406 75.3816 122.815 75.2091 122.071 75.2091H120.551L120.538 75.1958Z" fill="white"/>
<path d="M133.218 80.8695C132.11 80.8695 131.167 80.5709 130.39 79.967C129.613 79.363 129.135 78.5666 128.956 77.5711H131.114C131.253 78.0291 131.512 78.3941 131.891 78.6595C132.269 78.925 132.72 79.0577 133.238 79.0577C134.121 79.0577 134.812 78.6662 135.316 77.8831C135.814 77.0999 136.066 76.0182 136.066 74.6311H135.92C135.635 75.2085 135.217 75.6531 134.666 75.9717C134.115 76.2903 133.484 76.4495 132.773 76.4495C131.618 76.4495 130.669 76.0712 129.912 75.308C129.162 74.5448 128.783 73.5825 128.783 72.4211C128.783 71.18 129.202 70.158 130.045 69.3616C130.888 68.5652 131.97 68.167 133.285 68.167C134.168 68.167 134.951 68.3727 135.635 68.7776C136.319 69.189 136.863 69.7797 137.275 70.5562C137.846 71.5716 138.131 72.8458 138.131 74.3855C138.131 76.423 137.7 78.0158 136.83 79.1573C135.96 80.3054 134.759 80.8762 133.218 80.8762V80.8695ZM131.578 74.0537C132.023 74.4984 132.601 74.724 133.291 74.724C133.982 74.724 134.559 74.505 135.011 74.0603C135.462 73.6157 135.695 73.0582 135.695 72.3813C135.695 71.7043 135.462 71.1269 135.004 70.6624C134.546 70.1978 133.975 69.9655 133.298 69.9655C132.621 69.9655 132.05 70.1912 131.592 70.6491C131.134 71.107 130.901 71.6711 130.901 72.3481C130.901 73.025 131.127 73.6091 131.572 74.0603L131.578 74.0537Z" fill="white"/>
<path d="M62.3967 31.4676V38.1143H49.8199V27.2424H58.1715L62.3967 31.4676ZM59.3575 32.7277L56.9114 30.2816H52.8591V35.0751H59.3575V32.7277ZM67.1234 27.2424H75.9444V38.1143H72.93V35.7175H65.9374V38.1143H62.8982V31.4676L67.1234 27.2424ZM68.3836 30.2816L65.9374 32.703H72.93V30.2816H68.3836ZM89.0117 30.2816H84.2429V38.1143H81.2037V30.2816H76.4349V27.2424H89.0117V30.2816ZM93.111 27.2424H101.932V38.1143H98.9176V35.7175H91.925V38.1143H88.8858V31.4676L93.111 27.2424ZM94.3712 30.2816L91.925 32.703H98.9176V30.2816H94.3712ZM112.825 27.2424H121.646V38.1143H118.632V35.7175H111.639V38.1143H108.6V31.4676L112.825 27.2424ZM114.085 30.2816L111.639 32.703H118.632V30.2816H114.085ZM135.702 31.4676V38.1143H132.662V32.7277L130.216 30.2816H125.176V38.1143H122.137V27.2424H131.476L135.702 31.4676ZM140.429 27.2424H149.25V38.1143H146.236V35.7175H139.243V38.1143H136.204V31.4676L140.429 27.2424ZM141.689 30.2816L139.243 32.703H146.236V30.2816H141.689ZM162.318 35.0751V38.1143H152.582L149.741 35.2727V27.2424H152.78V33.8396L153.941 35.0751H162.318ZM174.647 27.2424V30.924L171.361 34.2103H169.384V38.1143H166.345V34.2103H164.368L161.082 30.924V27.2424H164.121V29.6639L165.653 31.1711H170.076L171.608 29.6639V27.2424H174.647ZM177.892 30.2816L178.806 31.1958H185.651L187.751 33.296V36.0387L185.651 38.1143H175.149V35.1245H185.008L184.094 34.2103H177.25L175.149 32.11V29.3426L177.25 27.2424H187.751V30.2816H177.892ZM191.266 38.1143H188.252V27.2424H191.266V38.1143ZM194.493 30.2816L195.407 31.1958H202.252L204.352 33.296V36.0387L202.252 38.1143H191.751V35.1245H201.609L200.695 34.2103H193.851L191.751 32.11V29.3426L193.851 27.2424H204.352V30.2816H194.493Z" fill="black"/>
</g>
<defs>
<clipPath id="clip0_50_759">
<rect width="466.721" height="80.3035" fill="white" transform="translate(0.70401 0.387207)"/>
</clipPath>
</defs>
</svg>
