<svg width="155" height="756" viewBox="0 0 155 756" fill="none" xmlns="http://www.w3.org/2000/svg">
<g clip-path="url(#clip0_63_533)">
<mask id="mask0_63_533" style="mask-type:luminance" maskUnits="userSpaceOnUse" x="-1" y="0" width="56" height="756">
<path d="M-0.160065 -6.10352e-05L-0.160065 755.621H54.6122L54.6122 -6.10352e-05H-0.160065Z" fill="white"/>
</mask>
<g mask="url(#mask0_63_533)">
<path d="M-103.153 614.429L-123.548 634.812L293.128 1051.23L313.524 1030.85L-103.153 614.429Z" fill="white"/>
<path d="M314.717 1030.84L293.135 1052.41L-124.733 634.804L-103.151 613.235L314.717 1030.85V1030.84ZM293.135 1050.03L312.342 1030.84L-103.142 615.61L-122.349 634.804L293.135 1050.03Z" fill="black"/>
<path d="M-103.144 522.825L-123.539 543.208L293.137 959.627L313.533 939.244L-103.144 522.825Z" fill="white"/>
<path d="M314.717 939.241L293.135 960.81L-124.733 543.2L-103.151 521.631L314.717 939.241ZM293.135 958.436L312.342 939.241L-103.142 524.005L-122.349 543.2L293.135 958.436Z" fill="black"/>
<path d="M-103.144 431.22L-123.539 451.603L293.137 868.022L313.533 847.639L-103.144 431.22Z" fill="white"/>
<path d="M314.717 847.637L293.135 869.206L-124.733 451.604L-103.151 430.036L314.717 847.637ZM293.135 866.832L312.342 847.637L-103.142 432.401L-122.349 451.596L293.135 866.832Z" fill="black"/>
<path d="M-103.143 339.617L-123.539 360L293.138 776.419L313.533 756.036L-103.143 339.617Z" fill="white"/>
<path d="M314.717 756.034L293.135 777.603L-124.733 360.001L-103.151 338.432L314.717 756.034ZM293.135 775.228L312.342 756.034L-103.142 340.806L-122.349 360.001L293.135 775.228Z" fill="black"/>
<path d="M-103.143 248.012L-123.539 268.395L293.138 684.814L313.533 664.431L-103.143 248.012Z" fill="white"/>
<path d="M314.717 664.43L293.135 685.999L-124.733 268.388L-103.151 246.82L314.717 664.43ZM293.135 683.624L312.342 664.43L-103.142 249.202L-122.349 268.397L293.135 683.624Z" fill="black"/>
<path d="M-103.143 156.408L-123.538 176.791L293.138 593.21L313.534 572.827L-103.143 156.408Z" fill="white"/>
<path d="M314.717 572.826L293.135 594.395L-124.733 176.793L-103.151 155.216L314.717 572.826ZM293.135 592.02L312.342 572.826L-103.142 157.598L-122.349 176.793L293.135 592.02Z" fill="black"/>
<path d="M-103.143 64.8037L-123.538 85.1865L293.138 501.606L313.534 481.223L-103.143 64.8037Z" fill="white"/>
<path d="M314.717 481.222L293.135 502.791L-124.733 85.1889L-103.151 63.6117L314.717 481.222ZM293.135 500.416L312.342 481.222L-103.142 65.9943L-122.349 85.1889L293.135 500.416Z" fill="black"/>
<path d="M-103.143 -26.8003L-123.538 -6.41748L293.139 410.002L313.534 389.619L-103.143 -26.8003Z" fill="white"/>
<path d="M314.717 389.618L293.135 411.187L-124.733 -6.4151L-103.151 -27.9923L314.717 389.618ZM293.135 408.812L312.342 389.618L-103.142 -25.6097L-122.349 -6.4151L293.135 408.812Z" fill="black"/>
<path d="M-103.142 -118.405L-123.538 -98.022L293.139 318.397L313.534 298.014L-103.142 -118.405Z" fill="white"/>
<path d="M314.717 298.014L293.135 319.583L-124.733 -98.019L-103.151 -119.588L314.717 298.014ZM293.135 317.208L312.342 298.014L-103.142 -117.214L-122.349 -98.019L293.135 317.208Z" fill="black"/>
</g>
<path d="M53.2223 -6.10352e-05L53.2223 755.621H154.815L154.815 -6.10352e-05H53.2223Z" fill="white"/>
<path d="M130.815 715.271H79.2774L79.2774 662.081C79.2774 654.504 85.4606 648.325 93.0421 648.325H103.319C110.901 648.325 117.084 654.504 117.084 662.081L117.084 708.409H130.815V715.271ZM103.319 655.186H93.0421C89.1587 655.186 86.1766 658.2 86.1766 662.081L86.1766 708.409H110.218L110.218 662.081C110.218 658.2 107.203 655.186 103.319 655.186Z" fill="black"/>
<path d="M130.815 579.62L113.639 588.746L113.639 632.422H130.815V639.283H79.2774L79.2774 586.094C79.2774 578.551 85.4606 572.371 93.0421 572.371H99.9076C105.948 572.371 111.154 576.362 112.956 581.817L130.815 572.338L130.815 579.628V579.62ZM99.9076 579.19H93.0421C89.1587 579.19 86.1766 582.204 86.1766 586.085L86.1766 632.414H106.773L106.773 586.085C106.773 582.204 103.757 579.19 99.9076 579.19Z" fill="black"/>
<path d="M130.815 549.885C130.815 557.428 124.632 563.607 117.084 563.607H93.0421C85.4606 563.607 79.2774 557.428 79.2774 549.885L79.2774 505.241C79.2774 497.697 85.4606 491.518 93.0421 491.518H117.084C124.632 491.518 130.815 497.697 130.815 505.241V549.885ZM117.084 498.379H93.0421C89.1587 498.379 86.1766 501.36 86.1766 505.241L86.1766 549.885C86.1766 553.724 89.1587 556.746 93.0421 556.746H117.084C120.925 556.746 123.949 553.732 123.949 549.885L123.949 505.241C123.949 501.36 120.934 498.379 117.084 498.379Z" fill="black"/>
<path d="M130.815 453.81H86.1766L86.1766 484.699H79.2774L79.2774 416.061H86.1766V446.949H130.815V453.81Z" fill="black"/>
<path d="M130.815 395.595C130.815 403.139 124.632 409.318 117.084 409.318H93.0421C85.4606 409.318 79.2774 403.139 79.2774 395.595L79.2774 350.951C79.2774 343.408 85.4606 337.228 93.0421 337.228H117.084C124.632 337.228 130.815 343.408 130.815 350.951V395.595ZM117.084 344.09H93.0421C89.1587 344.09 86.1766 347.07 86.1766 350.951L86.1766 395.595C86.1766 399.434 89.1587 402.457 93.0421 402.457H117.084C120.925 402.457 123.949 399.443 123.949 395.595L123.949 350.951C123.949 347.07 120.934 344.09 117.084 344.09Z" fill="black"/>
<path d="M130.815 299.521H86.1766L86.1766 330.409H79.2774L79.2774 261.771H86.1766V292.66H130.815V299.521Z" fill="black"/>
<path d="M130.815 225.319H106.992L79.2859 256.207V245.86L100.918 221.867L79.2859 197.874V187.569L106.992 218.458H130.815V225.319Z" fill="black"/>
<path d="M130.815 181.685L79.2774 181.685L79.2774 128.495C79.2774 120.918 85.4606 114.739 93.0421 114.739H103.319C110.901 114.739 117.084 120.918 117.084 128.495L117.084 174.823L130.815 174.823V181.685ZM103.319 121.6H93.0421C89.1587 121.6 86.1766 124.614 86.1766 128.495L86.1766 174.823H110.218L110.218 128.495C110.218 124.614 107.203 121.6 103.319 121.6Z" fill="black"/>
<path d="M130.815 105.68L79.2774 105.68L79.2774 42.1778H86.1766L86.1766 98.8189H101.626L101.626 49.0391H108.492L108.492 98.8189H123.941L123.941 42.1778H130.807L130.807 105.68H130.815Z" fill="black"/>
</g>
<defs>
<clipPath id="clip0_63_533">
<rect width="756" height="155" fill="white" transform="matrix(0 -1 1 0 0 756)"/>
</clipPath>
</defs>
</svg>
