<svg width="155" height="756" viewBox="0 0 155 756" fill="none" xmlns="http://www.w3.org/2000/svg">
<g clip-path="url(#clip0_63_578)">
<mask id="mask0_63_578" style="mask-type:luminance" maskUnits="userSpaceOnUse" x="100" y="0" width="56" height="756">
<path d="M155.16 756L155.16 0.378906L100.388 0.378906L100.388 756H155.16Z" fill="white"/>
</mask>
<g mask="url(#mask0_63_578)">
<path d="M258.153 141.571L278.548 121.188L-138.128 -295.231L-158.524 -274.848L258.153 141.571Z" fill="white"/>
<path d="M-159.717 -274.837L-138.135 -296.406L279.733 121.196L258.151 142.765L-159.717 -274.845V-274.837ZM-138.135 -294.032L-157.342 -274.837L258.142 140.39L277.349 121.196L-138.135 -294.032Z" fill="black"/>
<path d="M258.144 233.175L278.539 212.792L-138.137 -203.627L-158.532 -183.244L258.144 233.175Z" fill="white"/>
<path d="M-159.717 -183.241L-138.135 -204.81L279.733 212.8L258.151 234.369L-159.717 -183.241ZM-138.135 -202.436L-157.342 -183.241L258.142 231.995L277.349 212.8L-138.135 -202.436Z" fill="black"/>
<path d="M258.144 324.78L278.539 304.397L-138.137 -112.022L-158.533 -91.6393L258.144 324.78Z" fill="white"/>
<path d="M-159.717 -91.6373L-138.135 -113.206L279.733 304.396L258.151 325.964L-159.717 -91.6373ZM-138.135 -110.832L-157.342 -91.6373L258.142 323.599L277.349 304.404L-138.135 -110.832Z" fill="black"/>
<path d="M258.144 416.383L278.539 396L-138.138 -20.4186L-158.533 -0.0357635L258.144 416.383Z" fill="white"/>
<path d="M-159.717 -0.0338097L-138.135 -21.6025L279.733 395.999L258.151 417.568L-159.717 -0.0338097ZM-138.135 -19.2285L-157.342 -0.0338097L258.142 415.194L277.349 395.999L-138.135 -19.2285Z" fill="black"/>
<path d="M258.143 507.988L278.539 487.605L-138.138 71.1859L-158.533 91.5687L258.143 507.988Z" fill="white"/>
<path d="M-159.717 91.5702L-138.135 70.0015L279.733 487.612L258.151 509.18L-159.717 91.5702ZM-138.135 72.3755L-157.342 91.5702L258.142 506.798L277.349 487.603L-138.135 72.3755Z" fill="black"/>
<path d="M258.143 599.592L278.538 579.209L-138.138 162.79L-158.533 183.173L258.143 599.592Z" fill="white"/>
<path d="M-159.717 183.174L-138.135 161.605L279.733 579.207L258.151 600.784L-159.717 183.174ZM-138.135 163.98L-157.342 183.174L258.142 598.402L277.349 579.207L-138.135 163.98Z" fill="black"/>
<path d="M258.143 691.196L278.538 670.813L-138.138 254.394L-158.534 274.777L258.143 691.196Z" fill="white"/>
<path d="M-159.717 274.778L-138.135 253.209L279.733 670.811L258.151 692.388L-159.717 274.778ZM-138.135 255.584L-157.342 274.778L258.142 690.006L277.349 670.811L-138.135 255.584Z" fill="black"/>
<path d="M258.143 782.8L278.538 762.417L-138.139 345.998L-158.534 366.381L258.143 782.8Z" fill="white"/>
<path d="M-159.717 366.382L-138.135 344.813L279.733 762.415L258.151 783.992L-159.717 366.382ZM-138.135 347.188L-157.342 366.382L258.142 781.61L277.349 762.415L-138.135 347.188Z" fill="black"/>
<path d="M258.142 874.405L278.538 854.022L-138.139 437.603L-158.534 457.986L258.142 874.405Z" fill="white"/>
<path d="M-159.717 457.986L-138.135 436.417L279.733 854.019L258.151 875.588L-159.717 457.986ZM-138.135 438.792L-157.342 457.986L258.142 873.214L277.349 854.019L-138.135 438.792Z" fill="black"/>
</g>
<path d="M101.778 756L101.778 0.378906L0.185318 0.378906L0.185318 756H101.778Z" fill="white"/>
<path d="M24.185 40.7295L75.7225 40.7295L75.7225 93.9189C75.7225 101.496 69.5394 107.675 61.9579 107.675H51.6807C44.0992 107.675 37.916 101.496 37.916 93.9189L37.916 47.5907H24.185V40.7295ZM51.6807 100.814H61.9579C65.8413 100.814 68.8233 97.7999 68.8233 93.9189L68.8233 47.5907L44.7815 47.5907L44.7815 93.9189C44.7815 97.7999 47.7973 100.814 51.6807 100.814Z" fill="black"/>
<path d="M24.185 176.38L41.3614 167.254L41.3614 123.578L24.185 123.578V116.717L75.7225 116.717L75.7225 169.906C75.7225 177.449 69.5394 183.629 61.9579 183.629H55.0924C49.0524 183.629 43.8465 179.638 42.0437 174.183L24.185 183.662L24.185 176.372V176.38ZM55.0924 176.81H61.9579C65.8413 176.81 68.8233 173.796 68.8233 169.915L68.8233 123.586H48.2269L48.2269 169.915C48.2269 173.796 51.2426 176.81 55.0924 176.81Z" fill="black"/>
<path d="M24.185 206.115C24.185 198.572 30.3682 192.393 37.916 192.393H61.9579C69.5394 192.393 75.7225 198.572 75.7225 206.115L75.7225 250.759C75.7225 258.303 69.5394 264.482 61.9579 264.482H37.916C30.3682 264.482 24.185 258.303 24.185 250.759L24.185 206.115ZM37.916 257.621H61.9579C65.8413 257.621 68.8233 254.64 68.8233 250.759L68.8233 206.115C68.8233 202.276 65.8413 199.254 61.9579 199.254H37.916C34.0747 199.254 31.0505 202.268 31.0505 206.115L31.0505 250.759C31.0505 254.64 34.0663 257.621 37.916 257.621Z" fill="black"/>
<path d="M24.185 302.19H68.8233V271.301H75.7225L75.7225 339.939H68.8233L68.8233 309.051H24.185V302.19Z" fill="black"/>
<path d="M24.185 360.405C24.185 352.861 30.3682 346.682 37.916 346.682H61.9579C69.5394 346.682 75.7225 352.861 75.7225 360.405L75.7225 405.049C75.7225 412.592 69.5394 418.772 61.9579 418.772H37.916C30.3682 418.772 24.185 412.592 24.185 405.049L24.185 360.405ZM37.916 411.91H61.9579C65.8413 411.91 68.8233 408.93 68.8233 405.049L68.8233 360.405C68.8233 356.566 65.8413 353.543 61.9579 353.543H37.916C34.0747 353.543 31.0505 356.557 31.0505 360.405L31.0505 405.049C31.0505 408.93 34.0663 411.91 37.916 411.91Z" fill="black"/>
<path d="M24.185 456.479H68.8233V425.591H75.7225L75.7225 494.229H68.8233L68.8233 463.34H24.185V456.479Z" fill="black"/>
<path d="M24.185 530.681H48.0079L75.7141 499.793V510.14L54.0815 534.133L75.7141 558.126V568.431L48.0079 537.542H24.185V530.681Z" fill="black"/>
<path d="M24.185 574.315H75.7225L75.7225 627.505C75.7225 635.082 69.5394 641.261 61.9579 641.261H51.6807C44.0992 641.261 37.916 635.082 37.916 627.505L37.916 581.177H24.185V574.315ZM51.6807 634.4H61.9579C65.8413 634.4 68.8233 631.386 68.8233 627.505L68.8233 581.177H44.7815L44.7815 627.505C44.7815 631.386 47.7973 634.4 51.6807 634.4Z" fill="black"/>
<path d="M24.185 650.32H75.7225L75.7225 713.822H68.8233L68.8233 657.181H53.3739L53.3739 706.961H46.5084L46.5084 657.181H31.0589L31.0589 713.822H24.1935L24.1935 650.32H24.185Z" fill="black"/>
</g>
<defs>
<clipPath id="clip0_63_578">
<rect width="756" height="155" fill="white" transform="matrix(0 1 -1 0 155 0)"/>
</clipPath>
</defs>
</svg>
